<?xml version="1.0" encoding="UTF-8"?>
<!DOCTYPE score-partwise PUBLIC "-//Recordare//DTD MusicXML 3.0 Partwise//EN" "http://www.musicxml.org/dtds/partwise.dtd">
<score-partwise version="3.0">
    <identification>
        <creator type="composer">American Folk Song</creator>
        <encoding>
            <software>audiveris 4.3.3406</software>
            <software>ProxyMusic 3.0.110</software>
            <encoding-date>2015-03-31</encoding-date>
        </encoding>
        <source>C:\Users\eholder0\Downloads\Final\Bingo.pdf</source>
    </identification>
    <defaults>
        <scaling>
            <millimeters>7.1120</millimeters>
            <tenths>40</tenths>
        </scaling>
        <page-layout>
            <page-height>1571</page-height>
            <page-width>1214</page-width>
            <page-margins type="both">
                <left-margin>80</left-margin>
                <right-margin>80</right-margin>
                <top-margin>80</top-margin>
                <bottom-margin>80</bottom-margin>
            </page-margins>
        </page-layout>
        <lyric-font font-family="Serif" font-size="10"/>
    </defaults>
    <credit page="1">
        <credit-words font-family="sans-serif" font-size="9" default-x="950" default-y="870">American Folk Song</credit-words>
    </credit>
    <credit page="1">
        <credit-words font-family="sans-serif" font-size="9" default-x="972" default-y="760">1</credit-words>
    </credit>
    <part-list>
        <score-part id="P1">
            <part-name>Part_1</part-name>
            <score-instrument id="P1-I1">
                <instrument-name>Voice Oohs</instrument-name>
            </score-instrument>
            <midi-instrument id="P1-I1">
                <midi-channel>1</midi-channel>
                <midi-program>54</midi-program>
                <volume>78</volume>
            </midi-instrument>
        </score-part>
    </part-list>
    <part id="P1">
        <measure number="1" width="104">
            <print>
                <system-layout>
                    <system-margins>
                        <left-margin>-3</left-margin>
                        <right-margin>14</right-margin>
                    </system-margins>
                    <top-system-distance>658</top-system-distance>
                </system-layout>
                <measure-numbering>system</measure-numbering>
            </print>
            <attributes>
                <divisions>2</divisions>
                <clef>
                    <sign>G</sign>
                    <line>2</line>
                </clef>
                <staff-details print-object="yes"/>
            </attributes>
            <barline location="left">
                <bar-style/>
            </barline>
            <direction>
                <direction-type>
                    <words></words>
                </direction-type>
                <sound tempo="120"/>
            </direction>
            <direction placement="above">
                <direction-type>
                    <words font-family="sans-serif" font-size="14" default-y="29" relative-x="-30">BINGO</words>
                </direction-type>
            </direction>
            <note default-x="30">
                <pitch>
                    <step>C</step>
                    <octave>4</octave>
                </pitch>
                <duration>2</duration>
                <voice>1</voice>
                <type>quarter</type>
                <stem default-y="-15">up</stem>
            </note>
            <forward>
                <duration>6</duration>
                <voice>1</voice>
            </forward>
        </measure>
        <measure number="2" width="161">
            <print new-system="no"/>
            <note default-x="18">
                <pitch>
                    <step>F</step>
                    <octave>4</octave>
                </pitch>
                <duration>2</duration>
                <voice>1</voice>
                <type>quarter</type>
                <stem default-y="1">up</stem>
            </note>
            <note default-x="54">
                <pitch>
                    <step>F</step>
                    <octave>4</octave>
                </pitch>
                <duration>2</duration>
                <voice>1</voice>
                <type>quarter</type>
                <stem default-y="1">up</stem>
                <notations>
                    <ornaments>
                        <mordent placement="above"/>
                    </ornaments>
                </notations>
            </note>
            <note default-x="90">
                <pitch>
                    <step>F</step>
                    <octave>4</octave>
                </pitch>
                <duration>2</duration>
                <voice>1</voice>
                <type>quarter</type>
                <stem default-y="1">up</stem>
                <notations>
                    <slur type="start" number="1" placement="below" default-x="5" default-y="-45" bezier-x="10" bezier-y="-60"/>
                </notations>
            </note>
            <note default-x="126">
                <pitch>
                    <step>C</step>
                    <octave>4</octave>
                </pitch>
                <duration>2</duration>
                <voice>1</voice>
                <type>quarter</type>
                <stem default-y="-14">up</stem>
                <notations>
                    <slur type="stop" number="1" default-x="6" default-y="-60" bezier-x="-8" bezier-y="-67"/>
                </notations>
            </note>
        </measure>
        <measure number="3" width="161">
            <print new-system="no"/>
            <note default-x="17">
                <pitch>
                    <step>D</step>
                    <octave>4</octave>
                </pitch>
                <duration>2</duration>
                <voice>1</voice>
                <type>quarter</type>
                <stem default-y="-9">up</stem>
            </note>
            <note default-x="53">
                <pitch>
                    <step>D</step>
                    <octave>4</octave>
                </pitch>
                <duration>2</duration>
                <voice>1</voice>
                <type>quarter</type>
                <stem default-y="-8">up</stem>
            </note>
            <note default-x="90">
                <pitch>
                    <step>C</step>
                    <octave>4</octave>
                </pitch>
                <duration>2</duration>
                <voice>1</voice>
                <type>quarter</type>
                <stem default-y="-14">up</stem>
            </note>
            <note default-x="126">
                <pitch>
                    <step>C</step>
                    <octave>4</octave>
                </pitch>
                <duration>2</duration>
                <voice>1</voice>
                <type>quarter</type>
                <stem default-y="-14">up</stem>
            </note>
        </measure>
        <measure number="4" width="160">
            <print new-system="no"/>
            <note default-x="18">
                <pitch>
                    <step>F</step>
                    <octave>4</octave>
                </pitch>
                <duration>2</duration>
                <voice>1</voice>
                <type>quarter</type>
                <stem default-y="2">up</stem>
            </note>
            <note default-x="53">
                <pitch>
                    <step>F</step>
                    <octave>4</octave>
                </pitch>
                <duration>2</duration>
                <voice>1</voice>
                <type>quarter</type>
                <stem default-y="2">up</stem>
            </note>
            <note default-x="90">
                <pitch>
                    <step>G</step>
                    <octave>4</octave>
                </pitch>
                <duration>2</duration>
                <voice>1</voice>
                <type>quarter</type>
                <stem default-y="7">up</stem>
            </note>
            <note default-x="125">
                <pitch>
                    <step>G</step>
                    <octave>4</octave>
                </pitch>
                <duration>2</duration>
                <voice>1</voice>
                <type>quarter</type>
                <stem default-y="7">up</stem>
            </note>
        </measure>
        <measure number="5" width="78">
            <print new-system="no"/>
            <note default-x="18">
                <pitch>
                    <step>A</step>
                    <octave>4</octave>
                </pitch>
                <duration>4</duration>
                <voice>1</voice>
                <type>half</type>
                <stem default-y="12">up</stem>
            </note>
            <forward>
                <duration>4</duration>
                <voice>1</voice>
            </forward>
        </measure>
        <measure number="6" width="31">
            <print new-system="no"/>
        </measure>
        <measure number="7" width="161">
            <print new-system="no"/>
            <note default-x="18">
                <pitch>
                    <step>A</step>
                    <octave>4</octave>
                </pitch>
                <duration>2</duration>
                <voice>1</voice>
                <type>quarter</type>
                <stem default-y="12">up</stem>
            </note>
            <note default-x="55">
                <rest/>
                <duration>2</duration>
                <voice>1</voice>
                <type>quarter</type>
            </note>
            <note default-x="90">
                <pitch>
                    <step>A</step>
                    <octave>4</octave>
                </pitch>
                <duration>2</duration>
                <voice>1</voice>
                <type>quarter</type>
                <stem default-y="13">up</stem>
            </note>
            <note default-x="127">
                <rest/>
                <duration>2</duration>
                <voice>1</voice>
                <type>quarter</type>
            </note>
            <backup>
                <duration>8</duration>
            </backup>
            <forward>
                <duration>6</duration>
                <voice>2</voice>
            </forward>
            <note default-x="132">
                <rest/>
                <duration>1</duration>
                <voice>2</voice>
                <type>eighth</type>
                <notations>
                    <arpeggiate relative-x="-28"/>
                    <arpeggiate relative-x="12"/>
                </notations>
            </note>
            <forward>
                <duration>1</duration>
                <voice>2</voice>
            </forward>
        </measure>
        <measure number="8" width="186">
            <print new-system="no"/>
            <note default-x="39">
                <pitch>
                    <step>B</step>
                    <alter>-1</alter>
                    <octave>4</octave>
                </pitch>
                <duration>2</duration>
                <voice>1</voice>
                <type>quarter</type>
                <accidental>flat</accidental>
                <stem default-y="-51">down</stem>
            </note>
            <note default-x="76">
                <pitch>
                    <step>B</step>
                    <alter>-1</alter>
                    <octave>4</octave>
                </pitch>
                <duration>2</duration>
                <voice>1</voice>
                <type>quarter</type>
                <stem default-y="-51">down</stem>
            </note>
            <note default-x="114">
                <pitch>
                    <step>B</step>
                    <alter>-1</alter>
                    <octave>4</octave>
                </pitch>
                <duration>2</duration>
                <voice>1</voice>
                <type>quarter</type>
                <stem default-y="-52">down</stem>
            </note>
            <note default-x="150">
                <rest/>
                <duration>2</duration>
                <voice>1</voice>
                <type>quarter</type>
            </note>
        </measure>
        <measure number="9" width="214">
            <print new-system="yes">
                <system-layout>
                    <system-margins>
                        <left-margin>-20</left-margin>
                        <right-margin>13</right-margin>
                    </system-margins>
                    <system-distance>59</system-distance>
                </system-layout>
            </print>
            <attributes>
                <staff-details print-object="yes"/>
            </attributes>
            <note default-x="50">
                <pitch>
                    <step>G</step>
                    <octave>4</octave>
                </pitch>
                <duration>2</duration>
                <voice>1</voice>
                <type>quarter</type>
                <stem default-y="5">up</stem>
            </note>
            <note default-x="91">
                <rest/>
                <duration>2</duration>
                <voice>1</voice>
                <type>quarter</type>
            </note>
            <note default-x="132">
                <pitch>
                    <step>G</step>
                    <octave>4</octave>
                </pitch>
                <duration>2</duration>
                <voice>1</voice>
                <type>quarter</type>
                <stem default-y="5">up</stem>
            </note>
            <note default-x="173">
                <rest/>
                <duration>2</duration>
                <voice>1</voice>
                <type>quarter</type>
            </note>
        </measure>
        <measure number="10" width="181">
            <print new-system="no"/>
            <note default-x="18">
                <pitch>
                    <step>A</step>
                    <octave>4</octave>
                </pitch>
                <duration>2</duration>
                <voice>1</voice>
                <type>quarter</type>
                <stem default-y="10">up</stem>
            </note>
            <note default-x="60">
                <pitch>
                    <step>A</step>
                    <octave>4</octave>
                </pitch>
                <duration>2</duration>
                <voice>1</voice>
                <type>quarter</type>
                <stem default-y="10">up</stem>
            </note>
            <note default-x="100">
                <pitch>
                    <step>A</step>
                    <octave>4</octave>
                </pitch>
                <duration>2</duration>
                <voice>1</voice>
                <type>quarter</type>
                <stem default-y="11">up</stem>
            </note>
            <note default-x="142">
                <rest/>
                <duration>2</duration>
                <voice>1</voice>
                <type>quarter</type>
            </note>
        </measure>
        <measure number="11" width="181">
            <print new-system="no"/>
            <note default-x="18">
                <pitch>
                    <step>F</step>
                    <octave>4</octave>
                </pitch>
                <duration>2</duration>
                <voice>1</voice>
                <type>quarter</type>
                <stem default-y="2">up</stem>
            </note>
            <note default-x="60">
                <rest/>
                <duration>2</duration>
                <voice>1</voice>
                <type>quarter</type>
            </note>
            <note default-x="101">
                <pitch>
                    <step>F</step>
                    <octave>4</octave>
                </pitch>
                <duration>2</duration>
                <voice>1</voice>
                <type>quarter</type>
                <stem default-y="3">up</stem>
            </note>
            <note default-x="142">
                <rest/>
                <duration>2</duration>
                <voice>1</voice>
                <type>quarter</type>
            </note>
        </measure>
        <measure number="12" width="183">
            <print new-system="no"/>
            <note default-x="19">
                <pitch>
                    <step>G</step>
                    <octave>4</octave>
                </pitch>
                <duration>2</duration>
                <voice>1</voice>
                <type>quarter</type>
                <stem default-y="7">up</stem>
            </note>
            <note default-x="60">
                <pitch>
                    <step>G</step>
                    <octave>4</octave>
                </pitch>
                <duration>2</duration>
                <voice>1</voice>
                <type>quarter</type>
                <stem default-y="7">up</stem>
            </note>
            <note default-x="101">
                <pitch>
                    <step>G</step>
                    <octave>4</octave>
                </pitch>
                <duration>2</duration>
                <voice>1</voice>
                <type>quarter</type>
                <stem default-y="7">up</stem>
                <notations>
                    <slur type="start" number="1" placement="below" default-x="5" default-y="-38" bezier-x="16" bezier-y="-47"/>
                </notations>
            </note>
            <note default-x="142">
                <pitch>
                    <step>F</step>
                    <octave>4</octave>
                </pitch>
                <duration>2</duration>
                <voice>1</voice>
                <type>quarter</type>
                <stem default-y="4">up</stem>
                <notations>
                    <slur type="stop" number="1" default-x="3" default-y="-41" bezier-x="-9" bezier-y="-48"/>
                </notations>
            </note>
        </measure>
        <measure number="13" width="182">
            <print new-system="no"/>
            <note default-x="18">
                <pitch>
                    <step>E</step>
                    <octave>4</octave>
                </pitch>
                <duration>2</duration>
                <voice>1</voice>
                <type>quarter</type>
                <stem default-y="-2">up</stem>
                <notations>
                    <slur type="start" number="1" placement="below" default-x="4" default-y="-48" bezier-x="14" bezier-y="-58"/>
                </notations>
            </note>
            <note default-x="60">
                <pitch>
                    <step>C</step>
                    <octave>4</octave>
                </pitch>
                <duration>2</duration>
                <voice>1</voice>
                <type>quarter</type>
                <stem default-y="-12">up</stem>
                <notations>
                    <slur type="stop" number="1" default-x="1" default-y="-55" bezier-x="-12" bezier-y="-61"/>
                </notations>
            </note>
            <note default-x="101">
                <pitch>
                    <step>D</step>
                    <octave>4</octave>
                </pitch>
                <duration>2</duration>
                <voice>1</voice>
                <type>quarter</type>
                <stem default-y="-6">up</stem>
            </note>
            <note default-x="142">
                <pitch>
                    <step>E</step>
                    <octave>4</octave>
                </pitch>
                <duration>2</duration>
                <voice>1</voice>
                <type>quarter</type>
                <stem default-y="-2">up</stem>
            </note>
        </measure>
        <measure number="14" width="117">
            <print new-system="no"/>
            <barline location="right">
                <bar-style>light-heavy</bar-style>
            </barline>
            <note default-x="19">
                <rest/>
                <duration>2</duration>
                <voice>1</voice>
                <type>quarter</type>
            </note>
            <note default-x="50">
                <pitch>
                    <step>F</step>
                    <octave>4</octave>
                </pitch>
                <duration>2</duration>
                <voice>1</voice>
                <type>quarter</type>
                <stem default-y="4">up</stem>
            </note>
            <note default-x="86">
                <pitch>
                    <step>F</step>
                    <octave>4</octave>
                </pitch>
                <duration>2</duration>
                <voice>1</voice>
                <type>quarter</type>
                <stem default-y="4">up</stem>
            </note>
            <forward>
                <duration>2</duration>
                <voice>1</voice>
            </forward>
        </measure>
    </part>
</score-partwise>