<?xml version="1.0" encoding="UTF-8"?>
<!DOCTYPE score-partwise PUBLIC "-//Recordare//DTD MusicXML 3.0 Partwise//EN" "http://www.musicxml.org/dtds/partwise.dtd">
<score-partwise version="3.0">
    <identification>
        <creator type="composer">Scottish Folk Song</creator>
        <encoding>
            <software>audiveris 4.3.3406</software>
            <software>ProxyMusic 3.0.110</software>
            <encoding-date>2015-03-31</encoding-date>
        </encoding>
        <source>C:\Users\eholder0\Downloads\Final\Loch Lomond.pdf</source>
    </identification>
    <defaults>
        <scaling>
            <millimeters>7.1120</millimeters>
            <tenths>40</tenths>
        </scaling>
        <page-layout>
            <page-height>296</page-height>
            <page-width>1096</page-width>
            <page-margins type="both">
                <left-margin>80</left-margin>
                <right-margin>80</right-margin>
                <top-margin>80</top-margin>
                <bottom-margin>80</bottom-margin>
            </page-margins>
        </page-layout>
        <lyric-font font-family="Serif" font-size="10"/>
    </defaults>
    <credit page="1">
        <credit-words font-family="sans-serif" font-size="9" default-x="930" default-y="259">Scottish Folk Song</credit-words>
    </credit>
    <credit page="1">
        <credit-words font-family="serif" font-size="5" font-weight="bold" default-x="1015" default-y="221">9</credit-words>
    </credit>
    <part-list>
        <score-part id="P1">
            <part-name>Part_1</part-name>
            <score-instrument id="P1-I1">
                <instrument-name>Voice Oohs</instrument-name>
            </score-instrument>
            <midi-instrument id="P1-I1">
                <midi-channel>1</midi-channel>
                <midi-program>54</midi-program>
                <volume>78</volume>
            </midi-instrument>
        </score-part>
    </part-list>
    <part id="P1">
        <measure number="0" implicit="yes" width="160">
            <print>
                <system-layout>
                    <system-margins>
                        <left-margin>-74</left-margin>
                        <right-margin>-60</right-margin>
                    </system-margins>
                    <top-system-distance>2</top-system-distance>
                </system-layout>
                <measure-numbering>system</measure-numbering>
            </print>
            <attributes>
                <divisions>2</divisions>
                <key>
                    <fifths>-1</fifths>
                </key>
                <time symbol="common">
                    <beats>4</beats>
                    <beat-type>4</beat-type>
                </time>
                <clef>
                    <sign>G</sign>
                    <line>2</line>
                </clef>
                <staff-details print-object="yes"/>
            </attributes>
            <direction>
                <direction-type>
                    <words></words>
                </direction-type>
                <sound tempo="120"/>
            </direction>
            <direction placement="below">
                <direction-type>
                    <dynamics default-y="-81" relative-x="6">
                        <mp/>
                    </dynamics>
                </direction-type>
                <sound dynamics="67"/>
            </direction>
            <direction placement="above">
                <direction-type>
                    <words font-family="sans-serif" font-size="15" default-y="42" relative-x="-104">[E5] LOCH LOMOND</words>
                </direction-type>
            </direction>
            <direction placement="above">
                <direction-type>
                    <words font-family="sans-serif" font-size="12" default-y="16" relative-x="-36">Moderato</words>
                </direction-type>
            </direction>
            <note default-x="104">
                <pitch>
                    <step>C</step>
                    <octave>4</octave>
                </pitch>
                <duration>1</duration>
                <voice>1</voice>
                <type>eighth</type>
                <stem default-y="-16">up</stem>
                <beam number="1">begin</beam>
                <notations>
                    <slur type="start" number="1" placement="below" default-x="4" default-y="-59" bezier-x="13" bezier-y="-66"/>
                </notations>
            </note>
            <note default-x="133">
                <pitch>
                    <step>D</step>
                    <octave>4</octave>
                </pitch>
                <duration>1</duration>
                <voice>1</voice>
                <type>eighth</type>
                <stem default-y="-10">up</stem>
                <beam number="1">end</beam>
                <notations>
                    <slur type="stop" number="1" default-x="5" default-y="-54" bezier-x="-2" bezier-y="-64"/>
                </notations>
            </note>
        </measure>
        <measure number="1" width="245">
            <print new-system="no"/>
            <note default-x="19">
                <pitch>
                    <step>F</step>
                    <octave>4</octave>
                </pitch>
                <duration>2</duration>
                <voice>1</voice>
                <type>quarter</type>
                <stem default-y="0">up</stem>
            </note>
            <note default-x="68">
                <pitch>
                    <step>F</step>
                    <octave>4</octave>
                </pitch>
                <duration>1</duration>
                <voice>1</voice>
                <type>eighth</type>
                <stem default-y="0">up</stem>
                <beam number="1">begin</beam>
                <notations>
                    <slur type="start" number="1" placement="below" default-x="5" default-y="-46" bezier-x="15" bezier-y="-54"/>
                </notations>
            </note>
            <note default-x="100">
                <pitch>
                    <step>G</step>
                    <octave>4</octave>
                </pitch>
                <duration>1</duration>
                <voice>1</voice>
                <type>eighth</type>
                <stem default-y="4">up</stem>
                <beam number="1">end</beam>
                <notations>
                    <slur type="stop" number="1" default-x="4" default-y="-41" bezier-x="-3" bezier-y="-51"/>
                </notations>
            </note>
            <note default-x="132">
                <pitch>
                    <step>A</step>
                    <octave>4</octave>
                </pitch>
                <duration>2</duration>
                <voice>1</voice>
                <type>quarter</type>
                <stem default-y="9">up</stem>
            </note>
            <note default-x="181">
                <pitch>
                    <step>G</step>
                    <octave>4</octave>
                </pitch>
                <duration>1</duration>
                <voice>1</voice>
                <type>eighth</type>
                <stem default-y="4">up</stem>
                <beam number="1">begin</beam>
                <notations>
                    <slur type="start" number="1" placement="below" default-x="4" default-y="-41" bezier-x="11" bezier-y="-50"/>
                </notations>
            </note>
            <note default-x="214">
                <pitch>
                    <step>F</step>
                    <octave>4</octave>
                </pitch>
                <duration>1</duration>
                <voice>1</voice>
                <type>eighth</type>
                <stem default-y="0">up</stem>
                <beam number="1">end</beam>
                <notations>
                    <slur type="stop" number="1" default-x="1" default-y="-47" bezier-x="-9" bezier-y="-53"/>
                </notations>
            </note>
        </measure>
        <measure number="2" width="245">
            <print new-system="no"/>
            <note default-x="19">
                <pitch>
                    <step>G</step>
                    <octave>4</octave>
                </pitch>
                <duration>2</duration>
                <voice>1</voice>
                <type>quarter</type>
                <stem default-y="4">up</stem>
            </note>
            <note default-x="68">
                <pitch>
                    <step>G</step>
                    <octave>4</octave>
                </pitch>
                <duration>1</duration>
                <voice>1</voice>
                <type>eighth</type>
                <stem default-y="4">up</stem>
                <beam number="1">begin</beam>
                <notations>
                    <slur type="start" number="1" placement="below" default-x="5" default-y="-42" bezier-x="13" bezier-y="-50"/>
                </notations>
            </note>
            <note default-x="100">
                <pitch>
                    <step>F</step>
                    <octave>4</octave>
                </pitch>
                <duration>1</duration>
                <voice>1</voice>
                <type>eighth</type>
                <stem default-y="0">up</stem>
                <beam number="1">end</beam>
                <notations>
                    <slur type="stop" number="1" default-x="3" default-y="-47" bezier-x="-8" bezier-y="-52"/>
                </notations>
            </note>
            <note default-x="133">
                <pitch>
                    <step>D</step>
                    <octave>4</octave>
                </pitch>
                <duration>2</duration>
                <voice>1</voice>
                <type>quarter</type>
                <stem default-y="-10">up</stem>
            </note>
            <note default-x="181">
                <pitch>
                    <step>C</step>
                    <octave>4</octave>
                </pitch>
                <duration>1</duration>
                <voice>1</voice>
                <type>eighth</type>
                <stem default-y="-16">up</stem>
                <beam number="1">begin</beam>
                <notations>
                    <slur type="start" number="1" placement="below" default-x="5" default-y="-63" bezier-x="16" bezier-y="-69"/>
                </notations>
            </note>
            <note default-x="214">
                <pitch>
                    <step>D</step>
                    <octave>4</octave>
                </pitch>
                <duration>1</duration>
                <voice>1</voice>
                <type>eighth</type>
                <stem default-y="-10">up</stem>
                <beam number="1">end</beam>
                <notations>
                    <slur type="stop" number="1" default-x="4" default-y="-57" bezier-x="-3" bezier-y="-67"/>
                </notations>
            </note>
        </measure>
        <measure number="3" width="228">
            <print new-system="no"/>
            <note default-x="20">
                <pitch>
                    <step>F</step>
                    <octave>4</octave>
                </pitch>
                <duration>2</duration>
                <voice>1</voice>
                <type>quarter</type>
                <stem default-y="0">up</stem>
            </note>
            <note default-x="68">
                <pitch>
                    <step>F</step>
                    <octave>4</octave>
                </pitch>
                <duration>2</duration>
                <voice>1</voice>
                <type>quarter</type>
                <stem default-y="-1">up</stem>
            </note>
            <direction placement="below">
                <direction-type>
                    <wedge type="crescendo" spread="0" default-y="-75"/>
                </direction-type>
            </direction>
            <note default-x="117">
                <pitch>
                    <step>F</step>
                    <octave>4</octave>
                </pitch>
                <duration>2</duration>
                <voice>1</voice>
                <type>quarter</type>
                <stem default-y="-1">up</stem>
            </note>
            <note default-x="166">
                <pitch>
                    <step>A</step>
                    <octave>4</octave>
                </pitch>
                <duration>1</duration>
                <voice>1</voice>
                <type>eighth</type>
                <stem default-y="-62">down</stem>
                <beam number="1">begin</beam>
            </note>
            <direction>
                <direction-type>
                    <wedge type="stop" spread="15"/>
                </direction-type>
            </direction>
            <note default-x="199">
                <pitch>
                    <step>C</step>
                    <octave>5</octave>
                </pitch>
                <duration>1</duration>
                <voice>1</voice>
                <type>eighth</type>
                <stem default-y="-52">down</stem>
                <beam number="1">end</beam>
            </note>
        </measure>
        <measure number="4" width="192">
            <print new-system="no"/>
            <direction placement="below">
                <direction-type>
                    <dynamics default-y="-75" relative-x="4">
                        <f/>
                    </dynamics>
                </direction-type>
                <sound dynamics="100"/>
            </direction>
            <note default-x="21">
                <pitch>
                    <step>D</step>
                    <octave>5</octave>
                </pitch>
                <duration>4</duration>
                <voice>1</voice>
                <type>half</type>
                <stem default-y="-47">down</stem>
            </note>
            <note default-x="90">
                <pitch>
                    <step>C</step>
                    <octave>5</octave>
                </pitch>
                <duration>2</duration>
                <voice>1</voice>
                <type>quarter</type>
                <stem default-y="-51">down</stem>
            </note>
            <note default-x="143">
                <pitch>
                    <step>C</step>
                    <octave>5</octave>
                </pitch>
                <duration>2</duration>
                <voice>1</voice>
                <type>quarter</type>
                <stem default-y="-51">down</stem>
            </note>
        </measure>
        <measure number="5" width="317">
            <print new-system="yes">
                <system-layout>
                    <system-margins>
                        <left-margin>-74</left-margin>
                        <right-margin>-60</right-margin>
                    </system-margins>
                    <system-distance>79</system-distance>
                </system-layout>
            </print>
            <attributes>
                <staff-details print-object="yes"/>
            </attributes>
            <note default-x="79">
                <pitch>
                    <step>D</step>
                    <octave>5</octave>
                </pitch>
                <duration>2</duration>
                <voice>1</voice>
                <type>quarter</type>
                <stem default-y="-45">down</stem>
            </note>
            <note default-x="134">
                <pitch>
                    <step>D</step>
                    <octave>5</octave>
                </pitch>
                <duration>1</duration>
                <voice>1</voice>
                <type>eighth</type>
                <stem default-y="-47">down</stem>
                <beam number="1">begin</beam>
            </note>
            <note default-x="171">
                <pitch>
                    <step>C</step>
                    <octave>5</octave>
                </pitch>
                <duration>1</duration>
                <voice>1</voice>
                <type>eighth</type>
                <stem default-y="-51">down</stem>
                <beam number="1">end</beam>
            </note>
            <note default-x="207">
                <pitch>
                    <step>A</step>
                    <octave>4</octave>
                </pitch>
                <duration>3</duration>
                <voice>1</voice>
                <type>quarter</type>
                <dot/>
                <stem default-y="9">up</stem>
            </note>
            <note default-x="282">
                <pitch>
                    <step>C</step>
                    <octave>5</octave>
                </pitch>
                <duration>1</duration>
                <voice>1</voice>
                <type>eighth</type>
                <stem default-y="-51">down</stem>
            </note>
        </measure>
        <measure number="6" width="299">
            <print new-system="no"/>
            <direction placement="below">
                <direction-type>
                    <wedge type="diminuendo" spread="13" default-y="-70"/>
                </direction-type>
            </direction>
            <note default-x="20">
                <pitch>
                    <step>B</step>
                    <alter>-1</alter>
                    <octave>4</octave>
                </pitch>
                <duration>1</duration>
                <voice>1</voice>
                <type>eighth</type>
                <stem default-y="14">up</stem>
                <beam number="1">begin</beam>
            </note>
            <note default-x="58">
                <pitch>
                    <step>A</step>
                    <octave>4</octave>
                </pitch>
                <duration>1</duration>
                <voice>1</voice>
                <type>eighth</type>
                <stem default-y="9">up</stem>
                <beam number="1">continue</beam>
            </note>
            <note default-x="95">
                <pitch>
                    <step>G</step>
                    <octave>4</octave>
                </pitch>
                <duration>1</duration>
                <voice>1</voice>
                <type>eighth</type>
                <stem default-y="4">up</stem>
                <beam number="1">continue</beam>
            </note>
            <direction>
                <direction-type>
                    <wedge type="stop" spread="0"/>
                </direction-type>
            </direction>
            <note default-x="132">
                <pitch>
                    <step>F</step>
                    <octave>4</octave>
                </pitch>
                <duration>1</duration>
                <voice>1</voice>
                <type>eighth</type>
                <stem default-y="0">up</stem>
                <beam number="1">end</beam>
            </note>
            <direction placement="below">
                <direction-type>
                    <dynamics default-y="-73" relative-x="9">
                        <mp/>
                    </dynamics>
                </direction-type>
                <sound dynamics="67"/>
            </direction>
            <note default-x="170">
                <pitch>
                    <step>D</step>
                    <octave>4</octave>
                </pitch>
                <duration>2</duration>
                <voice>1</voice>
                <type>quarter</type>
                <stem default-y="-10">up</stem>
                <notations>
                    <fermata type="upright" default-y="2"/>
                </notations>
            </note>
            <note default-x="226">
                <pitch>
                    <step>C</step>
                    <octave>4</octave>
                </pitch>
                <duration>1</duration>
                <voice>1</voice>
                <type>eighth</type>
                <stem default-y="-17">up</stem>
                <beam number="1">begin</beam>
                <notations>
                    <slur type="start" number="1" placement="below" default-x="4" default-y="-61" bezier-x="16" bezier-y="-69"/>
                </notations>
            </note>
            <note default-x="263">
                <pitch>
                    <step>D</step>
                    <octave>4</octave>
                </pitch>
                <duration>1</duration>
                <voice>1</voice>
                <type>eighth</type>
                <stem default-y="-11">up</stem>
                <beam number="1">end</beam>
                <notations>
                    <slur type="stop" number="1" default-x="5" default-y="-56" bezier-x="-5" bezier-y="-67"/>
                </notations>
            </note>
        </measure>
        <measure number="7" width="299">
            <print new-system="no"/>
            <note default-x="20">
                <pitch>
                    <step>F</step>
                    <octave>4</octave>
                </pitch>
                <duration>1</duration>
                <voice>1</voice>
                <type>eighth</type>
                <stem default-y="3">up</stem>
                <beam number="1">begin</beam>
            </note>
            <note default-x="58">
                <pitch>
                    <step>F</step>
                    <octave>4</octave>
                </pitch>
                <duration>1</duration>
                <voice>1</voice>
                <type>eighth</type>
                <stem default-y="8">up</stem>
                <beam number="1">continue</beam>
            </note>
            <note default-x="95">
                <pitch>
                    <step>A</step>
                    <octave>4</octave>
                </pitch>
                <duration>1</duration>
                <voice>1</voice>
                <type>eighth</type>
                <stem default-y="13">up</stem>
                <beam number="1">continue</beam>
            </note>
            <note default-x="132">
                <pitch>
                    <step>C</step>
                    <octave>5</octave>
                </pitch>
                <duration>1</duration>
                <voice>1</voice>
                <type>eighth</type>
                <stem default-y="18">up</stem>
                <beam number="1">end</beam>
            </note>
            <note default-x="171">
                <pitch>
                    <step>D</step>
                    <octave>5</octave>
                </pitch>
                <duration>2</duration>
                <voice>1</voice>
                <type>quarter</type>
                <stem default-y="-47">down</stem>
            </note>
            <note default-x="228">
                <pitch>
                    <step>C</step>
                    <octave>5</octave>
                </pitch>
                <duration>1</duration>
                <voice>1</voice>
                <type>eighth</type>
                <stem default-y="-53">down</stem>
                <beam number="1">begin</beam>
            </note>
            <note default-x="265">
                <pitch>
                    <step>A</step>
                    <octave>4</octave>
                </pitch>
                <duration>1</duration>
                <voice>1</voice>
                <type>eighth</type>
                <stem default-y="-63">down</stem>
                <beam number="1">end</beam>
            </note>
        </measure>
        <measure number="8" width="152">
            <print new-system="no"/>
            <barline location="right">
                <bar-style>light-heavy</bar-style>
            </barline>
            <note default-x="20">
                <pitch>
                    <step>G</step>
                    <octave>4</octave>
                </pitch>
                <duration>4</duration>
                <voice>1</voice>
                <type>half</type>
                <stem default-y="3">up</stem>
            </note>
            <note default-x="99">
                <pitch>
                    <step>F</step>
                    <octave>4</octave>
                </pitch>
                <duration>2</duration>
                <voice>1</voice>
                <type>quarter</type>
                <stem default-y="-2">up</stem>
                <notations>
                    <fermata type="upright" default-y="6"/>
                </notations>
            </note>
            <forward>
                <duration>2</duration>
                <voice>1</voice>
            </forward>
        </measure>
    </part>
</score-partwise>