<?xml version="1.0" encoding="UTF-8"?>
<!DOCTYPE score-partwise PUBLIC "-//Recordare//DTD MusicXML 3.0 Partwise//EN" "http://www.musicxml.org/dtds/partwise.dtd">
<score-partwise version="3.0">
    <work>
        <work-title>Minuet in G</work-title>
    </work>
    <identification>
        <creator type="lyricist">144</creator>
        <creator type="lyricist">CLARINET</creator>
        <creator type="composer">L. VAN BEETHOVEN</creator>
        <encoding>
            <software>audiveris 4.3.3406</software>
            <software>ProxyMusic 3.0.110</software>
            <encoding-date>2015-03-31</encoding-date>
        </encoding>
        <source>C:\Users\eholder0\Downloads\Final\Minuet in G.pdf</source>
    </identification>
    <defaults>
        <scaling>
            <millimeters>7.1120</millimeters>
            <tenths>40</tenths>
        </scaling>
        <page-layout>
            <page-height>1485</page-height>
            <page-width>1108</page-width>
            <page-margins type="both">
                <left-margin>80</left-margin>
                <right-margin>80</right-margin>
                <top-margin>80</top-margin>
                <bottom-margin>80</bottom-margin>
            </page-margins>
        </page-layout>
        <lyric-font font-family="Serif" font-size="10"/>
    </defaults>
    <credit page="1">
        <credit-words font-family="serif" font-size="12" default-x="9" default-y="1460">144</credit-words>
    </credit>
    <credit page="1">
        <credit-words font-family="serif" font-size="35" default-x="364" default-y="1420">Minuet in G</credit-words>
    </credit>
    <credit page="1">
        <credit-words font-family="serif" font-size="17" default-x="12" default-y="1373">CLARINET</credit-words>
    </credit>
    <credit page="1">
        <credit-words font-family="serif" font-size="12" default-x="829" default-y="1346">L. VAN BEETHOVEN</credit-words>
    </credit>
    <credit page="1">
        <credit-words font-family="serif" font-style="italic" font-size="10" font-weight="bold" default-x="157" default-y="1198">7)</credit-words>
    </credit>
    <credit page="1">
        <credit-words font-family="sans-serif" font-style="italic" font-size="10" default-x="239" default-y="901">f€S</credit-words>
    </credit>
    <credit page="1">
        <credit-words font-family="serif" font-style="italic" font-size="9" font-weight="bold" default-x="930" default-y="832">2</credit-words>
    </credit>
    <credit page="1">
        <credit-words font-family="serif" font-style="italic" font-size="14" default-x="869" default-y="755">Fine</credit-words>
    </credit>
    <credit page="1">
        <credit-words font-family="serif" font-style="italic" font-size="15" default-x="593" default-y="755">rit.</credit-words>
    </credit>
    <credit page="1">
        <credit-words font-family="serif" font-style="italic" font-size="13" default-x="938" default-y="31">jlﬁnuet D. C.</credit-words>
    </credit>
    <part-list>
        <score-part id="P1">
            <part-name>Part_1</part-name>
            <score-instrument id="P1-I1">
                <instrument-name>Voice Oohs</instrument-name>
            </score-instrument>
            <midi-instrument id="P1-I1">
                <midi-channel>1</midi-channel>
                <midi-program>54</midi-program>
                <volume>78</volume>
            </midi-instrument>
        </score-part>
    </part-list>
    <part id="P1">
        <measure number="0" implicit="yes" width="97">
            <print>
                <system-layout>
                    <system-margins>
                        <left-margin>-15</left-margin>
                        <right-margin>-46</right-margin>
                    </system-margins>
                    <top-system-distance>150</top-system-distance>
                </system-layout>
                <measure-numbering>system</measure-numbering>
            </print>
            <attributes>
                <divisions>4</divisions>
                <time>
                    <beats>3</beats>
                    <beat-type>4</beat-type>
                </time>
                <clef>
                    <sign>G</sign>
                    <line>2</line>
                </clef>
                <staff-details print-object="yes"/>
            </attributes>
            <barline location="right">
                <bar-style/>
            </barline>
            <direction>
                <direction-type>
                    <words></words>
                </direction-type>
                <sound tempo="120"/>
            </direction>
            <direction placement="above">
                <direction-type>
                    <words font-family="serif" font-size="17" default-y="32" relative-x="30">Con grazia</words>
                </direction-type>
            </direction>
            <note default-x="55">
                <rest/>
                <duration>4</duration>
                <voice>1</voice>
                <type>quarter</type>
            </note>
        </measure>
        <measure number="1" width="107">
            <print new-system="no"/>
            <barline location="left">
                <bar-style/>
            </barline>
            <direction placement="below">
                <direction-type>
                    <dynamics default-y="-56" relative-x="-13">
                        <p/>
                    </dynamics>
                </direction-type>
                <sound dynamics="56"/>
            </direction>
            <note default-x="32">
                <pitch>
                    <step>C</step>
                    <octave>5</octave>
                </pitch>
                <duration>2</duration>
                <voice>1</voice>
                <type>eighth</type>
                <stem default-y="-44">down</stem>
                <beam number="1">begin</beam>
                <notations>
                    <slur type="start" number="1" placement="above" default-x="3" default-y="-6" bezier-x="15" bezier-y="7"/>
                </notations>
            </note>
            <note default-x="78">
                <pitch>
                    <step>D</step>
                    <octave>5</octave>
                </pitch>
                <duration>1</duration>
                <voice>1</voice>
                <type>16th</type>
                <stem default-y="-41">down</stem>
                <beam number="1">end</beam>
                <beam number="2">backward hook</beam>
                <notations>
                    <slur type="stop" number="1" default-x="3" default-y="4" bezier-x="-12" bezier-y="10"/>
                </notations>
            </note>
            <forward>
                <duration>9</duration>
                <voice>1</voice>
            </forward>
        </measure>
        <measure number="2" width="263">
            <print new-system="no"/>
            <note default-x="14">
                <pitch>
                    <step>E</step>
                    <octave>5</octave>
                </pitch>
                <duration>2</duration>
                <tie type="start"/>
                <voice>1</voice>
                <type>eighth</type>
                <stem default-y="-42">down</stem>
                <beam number="1">begin</beam>
                <notations>
                    <articulations>
                        <accent default-y="15" placement="above"/>
                    </articulations>
                    <tied type="start" orientation="over" bezier-x="96" bezier-y="39" default-x="13" default-y="14"/>
                </notations>
            </note>
            <note default-x="69">
                <pitch>
                    <step>D</step>
                    <alter>1</alter>
                    <octave>5</octave>
                </pitch>
                <duration>1</duration>
                <voice>1</voice>
                <type>16th</type>
                <accidental>sharp</accidental>
                <stem default-y="-41">down</stem>
                <beam number="1">continue</beam>
                <beam number="2">backward hook</beam>
            </note>
            <note default-x="105">
                <pitch>
                    <step>E</step>
                    <octave>5</octave>
                </pitch>
                <duration>2</duration>
                <voice>1</voice>
                <type>eighth</type>
                <stem default-y="-41">down</stem>
                <beam number="1">continue</beam>
                <notations>
                    <articulations>
                        <accent default-y="15" placement="above"/>
                    </articulations>
                </notations>
            </note>
            <note default-x="153">
                <pitch>
                    <step>D</step>
                    <alter>1</alter>
                    <octave>5</octave>
                </pitch>
                <duration>1</duration>
                <voice>1</voice>
                <type>16th</type>
                <stem default-y="-40">down</stem>
                <beam number="1">continue</beam>
                <beam number="2">backward hook</beam>
            </note>
            <note default-x="185">
                <pitch>
                    <step>E</step>
                    <octave>5</octave>
                </pitch>
                <duration>3</duration>
                <voice>1</voice>
                <type>eighth</type>
                <dot/>
                <stem default-y="-40">down</stem>
                <beam number="1">continue</beam>
                <notations>
                    <articulations>
                        <accent default-y="14" placement="above"/>
                    </articulations>
                </notations>
            </note>
            <note default-x="230">
                <pitch>
                    <step>D</step>
                    <alter>1</alter>
                    <octave>5</octave>
                </pitch>
                <duration>1</duration>
                <voice>1</voice>
                <type>16th</type>
                <stem default-y="-42">down</stem>
                <beam number="1">end</beam>
                <beam number="2">backward hook</beam>
            </note>
            <forward>
                <duration>2</duration>
                <voice>1</voice>
            </forward>
        </measure>
        <measure number="3" width="161">
            <print new-system="no"/>
            <note default-x="13">
                <pitch>
                    <step>E</step>
                    <octave>5</octave>
                </pitch>
                <duration>8</duration>
                <tie type="stop"/>
                <voice>1</voice>
                <type>half</type>
                <stem default-y="-39">down</stem>
                <notations>
                    <tied type="stop" bezier-x="-77" bezier-y="35" default-x="4" default-y="4"/>
                </notations>
            </note>
            <note default-x="85">
                <pitch>
                    <step>F</step>
                    <octave>5</octave>
                </pitch>
                <duration>2</duration>
                <voice>1</voice>
                <type>eighth</type>
                <stem default-y="-39">down</stem>
                <beam number="1">begin</beam>
                <notations>
                    <slur type="start" number="1" placement="above" default-x="12" default-y="14" bezier-x="39" bezier-y="27"/>
                </notations>
            </note>
            <note default-x="128">
                <pitch>
                    <step>C</step>
                    <octave>5</octave>
                </pitch>
                <duration>1</duration>
                <voice>1</voice>
                <type>16th</type>
                <stem default-y="-49">down</stem>
                <beam number="1">end</beam>
                <beam number="2">backward hook</beam>
            </note>
            <forward>
                <duration>1</duration>
                <voice>1</voice>
            </forward>
        </measure>
        <measure number="4" width="163">
            <print new-system="no"/>
            <note default-x="13">
                <pitch>
                    <step>D</step>
                    <octave>5</octave>
                </pitch>
                <duration>8</duration>
                <voice>1</voice>
                <type>half</type>
                <stem default-y="-43">down</stem>
                <notations>
                    <slur type="stop" number="1" default-x="4" default-y="7" bezier-x="-20" bezier-y="24"/>
                </notations>
            </note>
            <note default-x="84">
                <pitch>
                    <step>E</step>
                    <octave>5</octave>
                </pitch>
                <duration>3</duration>
                <voice>1</voice>
                <type>eighth</type>
                <dot/>
                <stem default-y="-46">down</stem>
                <beam number="1">begin</beam>
                <notations>
                    <slur type="start" number="1" placement="above" default-x="12" default-y="8" bezier-x="38" bezier-y="20"/>
                </notations>
            </note>
            <note default-x="132">
                <pitch>
                    <step>B</step>
                    <octave>4</octave>
                </pitch>
                <duration>1</duration>
                <voice>1</voice>
                <type>16th</type>
                <stem default-y="-52">down</stem>
                <beam number="1">end</beam>
                <beam number="2">backward hook</beam>
            </note>
        </measure>
        <measure number="5" width="218">
            <print new-system="no"/>
            <note default-x="13">
                <pitch>
                    <step>C</step>
                    <octave>5</octave>
                </pitch>
                <duration>4</duration>
                <voice>1</voice>
                <type>quarter</type>
                <stem default-y="-48">down</stem>
                <notations>
                    <slur type="stop" number="1" default-x="1" default-y="3" bezier-x="-23" bezier-y="18"/>
                </notations>
            </note>
            <note default-x="73">
                <rest/>
                <duration>4</duration>
                <voice>1</voice>
                <type>quarter</type>
            </note>
            <note default-x="183">
                <pitch>
                    <step>B</step>
                    <octave>4</octave>
                </pitch>
                <duration>1</duration>
                <voice>1</voice>
                <type>16th</type>
                <stem default-y="16">up</stem>
                <beam number="1">begin</beam>
                <beam number="2">backward hook</beam>
            </note>
            <forward>
                <duration>3</duration>
                <voice>1</voice>
            </forward>
        </measure>
        <measure number="6" width="394">
            <print new-system="yes">
                <system-layout>
                    <system-margins>
                        <left-margin>-70</left-margin>
                        <right-margin>-44</right-margin>
                    </system-margins>
                    <system-distance>105</system-distance>
                </system-layout>
            </print>
            <attributes>
                <key>
                    <fifths>3</fifths>
                </key>
                <staff-details print-object="yes"/>
            </attributes>
            <note default-x="97">
                <pitch>
                    <step>C</step>
                    <alter>1</alter>
                    <octave>5</octave>
                </pitch>
                <duration>3</duration>
                <voice>1</voice>
                <type>eighth</type>
                <dot/>
                <stem default-y="-51">down</stem>
                <beam number="1">begin</beam>
                <notations>
                    <articulations>
                        <accent default-y="11" placement="above"/>
                    </articulations>
                </notations>
            </note>
            <note default-x="163">
                <pitch>
                    <step>B</step>
                    <alter>1</alter>
                    <octave>4</octave>
                </pitch>
                <duration>1</duration>
                <voice>1</voice>
                <type>16th</type>
                <accidental>sharp</accidental>
                <stem default-y="-51">down</stem>
                <beam number="1">continue</beam>
                <beam number="2">backward hook</beam>
            </note>
            <note default-x="201">
                <pitch>
                    <step>C</step>
                    <alter>1</alter>
                    <octave>5</octave>
                </pitch>
                <duration>2</duration>
                <voice>1</voice>
                <type>eighth</type>
                <stem default-y="-50">down</stem>
                <beam number="1">continue</beam>
                <notations>
                    <articulations>
                        <accent default-y="10" placement="above"/>
                    </articulations>
                </notations>
            </note>
            <note default-x="260">
                <pitch>
                    <step>B</step>
                    <alter>1</alter>
                    <octave>4</octave>
                </pitch>
                <duration>1</duration>
                <voice>1</voice>
                <type>16th</type>
                <stem default-y="-50">down</stem>
                <beam number="1">continue</beam>
                <beam number="2">backward hook</beam>
            </note>
            <note default-x="300">
                <pitch>
                    <step>C</step>
                    <alter>1</alter>
                    <octave>5</octave>
                </pitch>
                <duration>2</duration>
                <voice>1</voice>
                <type>eighth</type>
                <stem default-y="-50">down</stem>
                <beam number="1">continue</beam>
                <notations>
                    <articulations>
                        <accent default-y="11" placement="above"/>
                    </articulations>
                </notations>
            </note>
            <note default-x="356">
                <pitch>
                    <step>B</step>
                    <alter>1</alter>
                    <octave>4</octave>
                </pitch>
                <duration>1</duration>
                <voice>1</voice>
                <type>16th</type>
                <stem default-y="-51">down</stem>
                <beam number="1">end</beam>
                <beam number="2">backward hook</beam>
            </note>
            <forward>
                <duration>2</duration>
                <voice>1</voice>
            </forward>
        </measure>
        <measure number="7" width="208">
            <print new-system="no"/>
            <note default-x="110">
                <pitch>
                    <step>B</step>
                    <octave>4</octave>
                </pitch>
                <duration>2</duration>
                <voice>1</voice>
                <type>eighth</type>
                <accidental>natural</accidental>
                <stem default-y="13">up</stem>
                <beam number="1">begin</beam>
                <notations>
                    <slur type="start" number="1" placement="below" default-x="4" default-y="-26" bezier-x="17" bezier-y="-36"/>
                </notations>
            </note>
            <note default-x="159">
                <pitch>
                    <step>A</step>
                    <octave>4</octave>
                </pitch>
                <duration>2</duration>
                <voice>1</voice>
                <type>eighth</type>
                <stem default-y="9">up</stem>
                <beam number="1">end</beam>
                <notations>
                    <slur type="stop" number="1" default-x="0" default-y="-30" bezier-x="-14" bezier-y="-38"/>
                </notations>
            </note>
            <forward>
                <duration>8</duration>
                <voice>1</voice>
            </forward>
        </measure>
        <measure number="8" width="309">
            <print new-system="no"/>
            <note default-x="17">
                <pitch>
                    <step>A</step>
                    <octave>4</octave>
                </pitch>
                <duration>2</duration>
                <voice>1</voice>
                <type>eighth</type>
                <stem default-y="11">up</stem>
                <beam number="1">begin</beam>
            </note>
            <note default-x="66">
                <pitch>
                    <step>G</step>
                    <alter>1</alter>
                    <octave>4</octave>
                </pitch>
                <duration>2</duration>
                <voice>1</voice>
                <type>eighth</type>
                <stem default-y="11">up</stem>
                <beam number="1">continue</beam>
            </note>
            <note default-x="115">
                <pitch>
                    <step>G</step>
                    <alter>1</alter>
                    <octave>4</octave>
                </pitch>
                <duration>2</duration>
                <voice>1</voice>
                <type>eighth</type>
                <stem default-y="11">up</stem>
                <beam number="1">continue</beam>
                <notations>
                    <slur type="start" number="1" placement="below" default-x="10" default-y="-33" bezier-x="54" bezier-y="-56"/>
                </notations>
            </note>
            <note default-x="163">
                <pitch>
                    <step>B</step>
                    <octave>4</octave>
                </pitch>
                <duration>2</duration>
                <voice>1</voice>
                <type>eighth</type>
                <stem default-y="12">up</stem>
                <beam number="1">continue</beam>
            </note>
            <note default-x="212">
                <pitch>
                    <step>A</step>
                    <octave>4</octave>
                </pitch>
                <duration>2</duration>
                <voice>1</voice>
                <type>eighth</type>
                <stem default-y="12">up</stem>
                <beam number="1">continue</beam>
            </note>
            <note default-x="261">
                <pitch>
                    <step>F</step>
                    <alter>1</alter>
                    <octave>4</octave>
                </pitch>
                <duration>2</duration>
                <voice>1</voice>
                <type>eighth</type>
                <stem default-y="12">up</stem>
                <beam number="1">end</beam>
                <notations>
                    <slur type="stop" number="1" default-x="6" default-y="-43" bezier-x="-40" bezier-y="-60"/>
                </notations>
            </note>
        </measure>
        <measure number="9" width="150">
            <print new-system="no"/>
            <barline location="right">
                <bar-style>light-heavy</bar-style>
            </barline>
            <note default-x="14">
                <pitch>
                    <step>E</step>
                    <octave>4</octave>
                </pitch>
                <duration>4</duration>
                <voice>1</voice>
                <type>quarter</type>
                <stem default-y="-4">up</stem>
            </note>
            <note default-x="78">
                <rest/>
                <duration>4</duration>
                <voice>1</voice>
                <type>quarter</type>
            </note>
            <forward>
                <duration>4</duration>
                <voice>1</voice>
            </forward>
        </measure>
        <measure number="10" width="187">
            <print new-system="yes">
                <system-layout>
                    <system-margins>
                        <left-margin>-69</left-margin>
                        <right-margin>-46</right-margin>
                    </system-margins>
                    <system-distance>106</system-distance>
                </system-layout>
            </print>
            <attributes>
                <staff-details print-object="yes"/>
            </attributes>
            <barline location="left">
                <bar-style>heavy-light</bar-style>
            </barline>
            <note default-x="19">
                <pitch>
                    <step>E</step>
                    <octave>5</octave>
                </pitch>
                <duration>2</duration>
                <voice>1</voice>
                <type>eighth</type>
                <stem default-y="-34">down</stem>
                <beam number="1">begin</beam>
                <notations>
                    <slur type="start" number="1" placement="above" default-x="5" default-y="5" bezier-x="13" bezier-y="17"/>
                </notations>
            </note>
            <note default-x="60">
                <pitch>
                    <step>A</step>
                    <octave>5</octave>
                </pitch>
                <duration>2</duration>
                <voice>1</voice>
                <type>eighth</type>
                <stem default-y="-31">down</stem>
                <beam number="1">end</beam>
                <notations>
                    <slur type="stop" number="1" default-x="0" default-y="19" bezier-x="-14" bezier-y="23"/>
                </notations>
            </note>
            <forward>
                <duration>8</duration>
                <voice>1</voice>
            </forward>
        </measure>
        <measure number="11" width="177">
            <print new-system="no"/>
            <note default-x="13">
                <pitch>
                    <step>A</step>
                    <octave>5</octave>
                </pitch>
                <duration>4</duration>
                <voice>1</voice>
                <type>quarter</type>
                <stem default-y="-23">down</stem>
                <notations>
                    <articulations>
                        <accent default-y="-60" placement="below"/>
                        <strong-accent type="up" default-y="-61" placement="below"/>
                    </articulations>
                    <slur type="start" number="1" placement="above" default-x="15" default-y="20" bezier-x="67" bezier-y="40"/>
                </notations>
            </note>
            <note default-x="69">
                <pitch>
                    <step>G</step>
                    <alter>1</alter>
                    <octave>5</octave>
                </pitch>
                <duration>4</duration>
                <voice>1</voice>
                <type>quarter</type>
                <stem default-y="-30">down</stem>
                <lyric number="1" default-y="-65">
                    <syllabic>single</syllabic>
                    <text>S27}</text>
                </lyric>
            </note>
            <note default-x="123">
                <pitch>
                    <step>A</step>
                    <octave>5</octave>
                </pitch>
                <duration>4</duration>
                <voice>1</voice>
                <type>quarter</type>
                <stem default-y="-22">down</stem>
            </note>
        </measure>
        <measure number="12" width="218">
            <print new-system="no"/>
            <note default-x="16">
                <pitch>
                    <step>B</step>
                    <octave>5</octave>
                </pitch>
                <duration>8</duration>
                <voice>1</voice>
                <type>half</type>
                <stem default-y="-21">down</stem>
                <notations>
                    <slur type="stop" number="1" default-x="-4" default-y="19" bezier-x="-55" bezier-y="40"/>
                </notations>
            </note>
            <note default-x="90">
                <pitch>
                    <step>A</step>
                    <octave>5</octave>
                </pitch>
                <duration>1</duration>
                <voice>1</voice>
                <type>16th</type>
                <stem default-y="-30">down</stem>
                <beam number="1">begin</beam>
                <beam number="2">begin</beam>
                <notations>
                    <slur type="start" number="1" placement="above" default-x="12" default-y="18" bezier-x="77" bezier-y="36"/>
                </notations>
            </note>
            <note default-x="121">
                <pitch>
                    <step>G</step>
                    <alter>1</alter>
                    <octave>5</octave>
                </pitch>
                <duration>1</duration>
                <voice>1</voice>
                <type>16th</type>
                <stem default-y="-34">down</stem>
                <beam number="1">continue</beam>
                <beam number="2">continue</beam>
            </note>
            <note default-x="153">
                <pitch>
                    <step>F</step>
                    <alter>1</alter>
                    <octave>5</octave>
                </pitch>
                <duration>1</duration>
                <voice>1</voice>
                <type>16th</type>
                <stem default-y="-40">down</stem>
                <beam number="1">continue</beam>
                <beam number="2">continue</beam>
            </note>
            <note default-x="186">
                <pitch>
                    <step>E</step>
                    <octave>5</octave>
                </pitch>
                <duration>1</duration>
                <voice>1</voice>
                <type>16th</type>
                <stem default-y="-42">down</stem>
                <beam number="1">end</beam>
                <beam number="2">end</beam>
            </note>
        </measure>
        <measure number="13" width="220">
            <print new-system="no"/>
            <note default-x="13">
                <pitch>
                    <step>D</step>
                    <octave>5</octave>
                </pitch>
                <duration>4</duration>
                <voice>1</voice>
                <type>quarter</type>
                <stem default-y="-43">down</stem>
            </note>
            <note default-x="73">
                <pitch>
                    <step>C</step>
                    <alter>1</alter>
                    <octave>5</octave>
                </pitch>
                <duration>4</duration>
                <voice>1</voice>
                <type>quarter</type>
                <stem default-y="-48">down</stem>
                <notations>
                    <slur type="stop" number="1" default-x="4" default-y="-7" bezier-x="-54" bezier-y="27"/>
                </notations>
            </note>
            <note default-x="130">
                <pitch>
                    <step>F</step>
                    <alter>1</alter>
                    <octave>5</octave>
                </pitch>
                <duration>3</duration>
                <voice>1</voice>
                <type>eighth</type>
                <dot/>
                <stem default-y="-40">down</stem>
                <beam number="1">begin</beam>
                <notations>
                    <articulations>
                        <accent default-y="18" placement="above"/>
                        <accent default-y="18" placement="above"/>
                    </articulations>
                    <slur type="start" number="1" placement="above" default-x="18" default-y="14" bezier-x="69" bezier-y="26"/>
                </notations>
            </note>
            <note default-x="185">
                <pitch>
                    <step>D</step>
                    <octave>5</octave>
                </pitch>
                <duration>1</duration>
                <voice>1</voice>
                <type>16th</type>
                <stem default-y="-45">down</stem>
                <beam number="1">end</beam>
                <beam number="2">backward hook</beam>
            </note>
        </measure>
        <measure number="14" width="261">
            <print new-system="no"/>
            <note default-x="15">
                <pitch>
                    <step>C</step>
                    <alter>1</alter>
                    <octave>5</octave>
                </pitch>
                <duration>4</duration>
                <voice>1</voice>
                <type>quarter</type>
                <stem default-y="-47">down</stem>
            </note>
            <note default-x="83">
                <pitch>
                    <step>B</step>
                    <octave>4</octave>
                </pitch>
                <duration>2</duration>
                <voice>1</voice>
                <type>eighth</type>
                <stem default-y="-53">down</stem>
                <notations>
                    <slur type="stop" number="1" default-x="-3" default-y="-5" bezier-x="-50" bezier-y="19"/>
                </notations>
            </note>
            <note default-x="129">
                <rest/>
                <duration>2</duration>
                <voice>1</voice>
                <type>eighth</type>
            </note>
            <note default-x="223">
                <pitch>
                    <step>B</step>
                    <octave>4</octave>
                </pitch>
                <duration>1</duration>
                <voice>1</voice>
                <type>16th</type>
                <stem default-y="15">up</stem>
                <beam number="1">begin</beam>
                <beam number="2">backward hook</beam>
            </note>
            <forward>
                <duration>3</duration>
                <voice>1</voice>
            </forward>
        </measure>
        <measure number="15" width="377">
            <print new-system="yes">
                <system-layout>
                    <system-margins>
                        <left-margin>-72</left-margin>
                        <right-margin>-46</right-margin>
                    </system-margins>
                    <system-distance>105</system-distance>
                </system-layout>
            </print>
            <attributes>
                <staff-details print-object="yes"/>
            </attributes>
            <note default-x="98">
                <pitch>
                    <step>C</step>
                    <alter>1</alter>
                    <octave>5</octave>
                </pitch>
                <duration>3</duration>
                <tie type="start"/>
                <voice>1</voice>
                <type>eighth</type>
                <dot/>
                <stem default-y="-51">down</stem>
                <beam number="1">begin</beam>
                <notations>
                    <articulations>
                        <accent default-y="10" placement="above"/>
                    </articulations>
                    <tied type="start" orientation="over" bezier-x="110" bezier-y="39" default-x="19" default-y="14"/>
                </notations>
            </note>
            <note default-x="162">
                <pitch>
                    <step>B</step>
                    <alter>1</alter>
                    <octave>4</octave>
                </pitch>
                <duration>1</duration>
                <voice>1</voice>
                <type>16th</type>
                <accidental>sharp</accidental>
                <stem default-y="-52">down</stem>
                <beam number="1">continue</beam>
                <beam number="2">backward hook</beam>
            </note>
            <note default-x="199">
                <pitch>
                    <step>C</step>
                    <alter>1</alter>
                    <octave>5</octave>
                </pitch>
                <duration>3</duration>
                <voice>1</voice>
                <type>eighth</type>
                <dot/>
                <stem default-y="-52">down</stem>
                <beam number="1">continue</beam>
                <notations>
                    <articulations>
                        <accent default-y="11" placement="above"/>
                    </articulations>
                </notations>
            </note>
            <note default-x="251">
                <pitch>
                    <step>B</step>
                    <alter>1</alter>
                    <octave>4</octave>
                </pitch>
                <duration>1</duration>
                <voice>1</voice>
                <type>16th</type>
                <stem default-y="-52">down</stem>
                <beam number="1">continue</beam>
                <beam number="2">backward hook</beam>
            </note>
            <note default-x="289">
                <pitch>
                    <step>C</step>
                    <alter>1</alter>
                    <octave>5</octave>
                </pitch>
                <duration>3</duration>
                <voice>1</voice>
                <type>eighth</type>
                <dot/>
                <stem default-y="-52">down</stem>
                <beam number="1">continue</beam>
                <notations>
                    <articulations>
                        <accent default-y="9" placement="above"/>
                    </articulations>
                </notations>
            </note>
            <note default-x="341">
                <pitch>
                    <step>B</step>
                    <alter>1</alter>
                    <octave>4</octave>
                </pitch>
                <duration>1</duration>
                <voice>1</voice>
                <type>16th</type>
                <stem default-y="-52">down</stem>
                <beam number="1">end</beam>
                <beam number="2">backward hook</beam>
            </note>
        </measure>
        <measure number="16" width="195">
            <print new-system="no"/>
            <note default-x="17">
                <pitch>
                    <step>C</step>
                    <alter>1</alter>
                    <octave>5</octave>
                </pitch>
                <duration>8</duration>
                <tie type="stop"/>
                <voice>1</voice>
                <type>half</type>
                <stem default-y="-49">down</stem>
                <notations>
                    <tied type="stop" bezier-x="-89" bezier-y="31" default-x="-3" default-y="-8"/>
                </notations>
            </note>
            <note default-x="100">
                <pitch>
                    <step>D</step>
                    <octave>5</octave>
                </pitch>
                <duration>2</duration>
                <voice>1</voice>
                <type>eighth</type>
                <stem default-y="-52">down</stem>
                <beam number="1">begin</beam>
                <notations>
                    <slur type="start" number="1" placement="above" default-x="5" default-y="2" bezier-x="41" bezier-y="15"/>
                </notations>
            </note>
            <note default-x="161">
                <pitch>
                    <step>A</step>
                    <alter>1</alter>
                    <octave>4</octave>
                </pitch>
                <duration>1</duration>
                <voice>1</voice>
                <type>16th</type>
                <accidental>sharp</accidental>
                <stem default-y="-60">down</stem>
                <beam number="1">end</beam>
                <beam number="2">backward hook</beam>
            </note>
            <forward>
                <duration>1</duration>
                <voice>1</voice>
            </forward>
        </measure>
        <measure number="17" width="187">
            <print new-system="no"/>
            <note default-x="16">
                <pitch>
                    <step>B</step>
                    <octave>4</octave>
                </pitch>
                <duration>8</duration>
                <voice>1</voice>
                <type>half</type>
                <stem default-y="-53">down</stem>
                <notations>
                    <slur type="stop" number="1" default-x="2" default-y="-9" bezier-x="-31" bezier-y="11"/>
                </notations>
            </note>
            <note default-x="101">
                <pitch>
                    <step>C</step>
                    <alter>1</alter>
                    <octave>5</octave>
                </pitch>
                <duration>2</duration>
                <voice>1</voice>
                <type>eighth</type>
                <stem default-y="16">up</stem>
                <beam number="1">begin</beam>
                <notations>
                    <slur type="start" number="1" placement="below" default-x="-1" default-y="-33" bezier-x="33" bezier-y="-55"/>
                </notations>
            </note>
            <note default-x="150">
                <pitch>
                    <step>G</step>
                    <alter>1</alter>
                    <octave>4</octave>
                </pitch>
                <duration>1</duration>
                <voice>1</voice>
                <type>16th</type>
                <stem default-y="11">up</stem>
                <beam number="1">end</beam>
                <beam number="2">backward hook</beam>
            </note>
            <forward>
                <duration>1</duration>
                <voice>1</voice>
            </forward>
        </measure>
        <measure number="18" width="159">
            <print new-system="no"/>
            <barline location="right">
                <bar-style>light-heavy</bar-style>
            </barline>
            <note default-x="23">
                <pitch>
                    <step>A</step>
                    <octave>4</octave>
                </pitch>
                <duration>4</duration>
                <voice>1</voice>
                <type>quarter</type>
                <stem default-y="8">up</stem>
                <notations>
                    <slur type="stop" number="1" default-x="4" default-y="-42" bezier-x="-33" bezier-y="-58"/>
                </notations>
            </note>
            <note default-x="89">
                <rest/>
                <duration>4</duration>
                <voice>1</voice>
                <type>quarter</type>
            </note>
            <forward>
                <duration>4</duration>
                <voice>1</voice>
            </forward>
        </measure>
        <measure number="19" width="146">
            <print new-system="no"/>
            <barline location="right">
                <bar-style>light-light</bar-style>
            </barline>
            <barline location="left">
                <bar-style>light-heavy</bar-style>
            </barline>
            <note default-x="19">
                <pitch>
                    <step>A</step>
                    <octave>4</octave>
                </pitch>
                <duration>4</duration>
                <voice>1</voice>
                <type>quarter</type>
                <stem default-y="9">up</stem>
            </note>
            <note default-x="93">
                <rest/>
                <duration>2</duration>
                <voice>1</voice>
                <type>eighth</type>
            </note>
            <forward>
                <duration>6</duration>
                <voice>1</voice>
            </forward>
        </measure>
        <measure number="20" width="254">
            <print new-system="yes">
                <system-layout>
                    <system-margins>
                        <left-margin>-70</left-margin>
                        <right-margin>-47</right-margin>
                    </system-margins>
                    <system-distance>105</system-distance>
                </system-layout>
            </print>
            <attributes>
                <key>
                    <fifths>2</fifths>
                </key>
                <staff-details print-object="yes"/>
            </attributes>
            <barline location="left">
                <bar-style>heavy-light</bar-style>
            </barline>
            <direction placement="below">
                <direction-type>
                    <dynamics default-y="-60" relative-x="-6">
                        <sf/>
                    </dynamics>
                </direction-type>
            </direction>
            <note default-x="22">
                <pitch>
                    <step>E</step>
                    <octave>5</octave>
                </pitch>
                <duration>2</duration>
                <voice>1</voice>
                <type>eighth</type>
                <stem default-y="-43">down</stem>
                <beam number="1">begin</beam>
                <notations>
                    <slur type="start" number="1" placement="above" default-x="14" default-y="4" bezier-x="39" bezier-y="20"/>
                </notations>
            </note>
            <note default-x="78">
                <pitch>
                    <step>D</step>
                    <alter>1</alter>
                    <octave>5</octave>
                </pitch>
                <duration>2</duration>
                <voice>1</voice>
                <type>eighth</type>
                <accidental>sharp</accidental>
                <stem default-y="-44">down</stem>
                <beam number="1">continue</beam>
            </note>
            <note default-x="120">
                <pitch>
                    <step>E</step>
                    <octave>5</octave>
                </pitch>
                <duration>2</duration>
                <voice>1</voice>
                <type>eighth</type>
                <stem default-y="-44">down</stem>
                <beam number="1">end</beam>
                <notations>
                    <slur type="stop" number="1" default-x="-1" default-y="6" bezier-x="-27" bezier-y="20"/>
                </notations>
            </note>
            <forward>
                <duration>6</duration>
                <voice>1</voice>
            </forward>
        </measure>
        <measure number="21" width="276">
            <print new-system="no"/>
            <note default-x="16">
                <pitch>
                    <step>C</step>
                    <alter>1</alter>
                    <octave>5</octave>
                </pitch>
                <duration>2</duration>
                <voice>1</voice>
                <type>eighth</type>
                <stem default-y="19">up</stem>
                <beam number="1">begin</beam>
                <notations>
                    <slur type="start" number="1" placement="below" default-x="11" default-y="-23" bezier-x="23" bezier-y="-29"/>
                </notations>
            </note>
            <note default-x="58">
                <pitch>
                    <step>E</step>
                    <octave>5</octave>
                </pitch>
                <duration>2</duration>
                <voice>1</voice>
                <type>eighth</type>
                <stem default-y="19">up</stem>
                <beam number="1">continue</beam>
                <notations>
                    <slur type="stop" number="1" default-x="6" default-y="-16" bezier-x="-4" bezier-y="-26"/>
                </notations>
            </note>
            <note default-x="100">
                <pitch>
                    <step>A</step>
                    <octave>4</octave>
                </pitch>
                <duration>2</duration>
                <voice>1</voice>
                <type>eighth</type>
                <stem default-y="18">up</stem>
                <beam number="1">continue</beam>
                <notations>
                    <slur type="start" number="1" placement="below" default-x="17" default-y="-34" bezier-x="29" bezier-y="-37"/>
                </notations>
            </note>
            <note default-x="145">
                <pitch>
                    <step>C</step>
                    <alter>1</alter>
                    <octave>5</octave>
                </pitch>
                <duration>2</duration>
                <voice>1</voice>
                <type>eighth</type>
                <stem default-y="18">up</stem>
                <beam number="1">continue</beam>
                <notations>
                    <slur type="stop" number="1" default-x="5" default-y="-24" bezier-x="-4" bezier-y="-33"/>
                </notations>
            </note>
            <note default-x="190">
                <pitch>
                    <step>E</step>
                    <octave>4</octave>
                </pitch>
                <duration>2</duration>
                <voice>1</voice>
                <type>eighth</type>
                <stem default-y="18">up</stem>
                <beam number="1">continue</beam>
            </note>
            <note default-x="232">
                <pitch>
                    <step>C</step>
                    <alter>1</alter>
                    <octave>5</octave>
                </pitch>
                <duration>2</duration>
                <voice>1</voice>
                <type>eighth</type>
                <stem default-y="17">up</stem>
                <beam number="1">end</beam>
            </note>
        </measure>
        <measure number="22" width="271">
            <print new-system="no"/>
            <note default-x="17">
                <pitch>
                    <step>B</step>
                    <octave>4</octave>
                </pitch>
                <duration>2</duration>
                <voice>1</voice>
                <type>eighth</type>
                <stem default-y="17">up</stem>
                <beam number="1">begin</beam>
                <notations>
                    <slur type="start" number="1" placement="below" default-x="11" default-y="-24" bezier-x="20" bezier-y="-27"/>
                </notations>
            </note>
            <note default-x="59">
                <pitch>
                    <step>D</step>
                    <octave>5</octave>
                </pitch>
                <duration>2</duration>
                <voice>1</voice>
                <type>eighth</type>
                <stem default-y="17">up</stem>
                <beam number="1">continue</beam>
                <notations>
                    <slur type="stop" number="1" default-x="-2" default-y="-22" bezier-x="-11" bezier-y="-27"/>
                </notations>
            </note>
            <note default-x="102">
                <pitch>
                    <step>G</step>
                    <octave>4</octave>
                </pitch>
                <duration>2</duration>
                <voice>1</voice>
                <type>eighth</type>
                <stem default-y="16">up</stem>
                <beam number="1">continue</beam>
                <notations>
                    <slur type="start" number="1" placement="below" default-x="11" default-y="-34" bezier-x="22" bezier-y="-38"/>
                </notations>
            </note>
            <note default-x="146">
                <pitch>
                    <step>B</step>
                    <octave>4</octave>
                </pitch>
                <duration>2</duration>
                <voice>1</voice>
                <type>eighth</type>
                <stem default-y="15">up</stem>
                <beam number="1">continue</beam>
                <notations>
                    <slur type="stop" number="1" default-x="0" default-y="-30" bezier-x="-9" bezier-y="-36"/>
                </notations>
            </note>
            <note default-x="189">
                <pitch>
                    <step>E</step>
                    <octave>4</octave>
                </pitch>
                <duration>2</duration>
                <voice>1</voice>
                <type>eighth</type>
                <stem default-y="15">up</stem>
                <beam number="1">continue</beam>
            </note>
            <note default-x="229">
                <pitch>
                    <step>G</step>
                    <octave>4</octave>
                </pitch>
                <duration>2</duration>
                <voice>1</voice>
                <type>eighth</type>
                <stem default-y="14">up</stem>
                <beam number="1">end</beam>
                <notations>
                    <articulations>
                        <staccato default-y="-45" placement="below"/>
                    </articulations>
                </notations>
            </note>
        </measure>
        <measure number="23" width="263">
            <print new-system="no"/>
            <note default-x="15">
                <pitch>
                    <step>A</step>
                    <octave>4</octave>
                </pitch>
                <duration>2</duration>
                <voice>1</voice>
                <type>eighth</type>
                <stem default-y="-57">down</stem>
                <beam number="1">begin</beam>
                <notations>
                    <slur type="start" number="1" placement="above" default-x="10" default-y="-16" bezier-x="19" bezier-y="-12"/>
                </notations>
            </note>
            <note default-x="55">
                <pitch>
                    <step>G</step>
                    <octave>4</octave>
                </pitch>
                <duration>2</duration>
                <voice>1</voice>
                <type>eighth</type>
                <stem default-y="-56">down</stem>
                <beam number="1">continue</beam>
                <notations>
                    <slur type="stop" number="1" default-x="-1" default-y="-16" bezier-x="-11" bezier-y="-12"/>
                </notations>
            </note>
            <note default-x="96">
                <pitch>
                    <step>A</step>
                    <octave>4</octave>
                </pitch>
                <duration>2</duration>
                <voice>1</voice>
                <type>eighth</type>
                <stem default-y="-54">down</stem>
                <beam number="1">continue</beam>
                <notations>
                    <slur type="start" number="1" placement="above" default-x="3" default-y="-5" bezier-x="43" bezier-y="17"/>
                </notations>
            </note>
            <note default-x="138">
                <pitch>
                    <step>B</step>
                    <octave>4</octave>
                </pitch>
                <duration>2</duration>
                <voice>1</voice>
                <type>eighth</type>
                <stem default-y="-53">down</stem>
                <beam number="1">continue</beam>
                <notations>
                    <articulations>
                        <staccato default-y="13" placement="above"/>
                    </articulations>
                </notations>
            </note>
            <note default-x="180">
                <pitch>
                    <step>C</step>
                    <alter>1</alter>
                    <octave>5</octave>
                </pitch>
                <duration>2</duration>
                <voice>1</voice>
                <type>eighth</type>
                <stem default-y="-52">down</stem>
                <beam number="1">continue</beam>
            </note>
            <note default-x="222">
                <pitch>
                    <step>D</step>
                    <octave>5</octave>
                </pitch>
                <duration>2</duration>
                <voice>1</voice>
                <type>eighth</type>
                <stem default-y="-51">down</stem>
                <beam number="1">end</beam>
                <notations>
                    <slur type="stop" number="1" default-x="8" default-y="5" bezier-x="-35" bezier-y="20"/>
                </notations>
            </note>
        </measure>
        <measure number="24" width="400">
            <print new-system="yes">
                <system-layout>
                    <system-margins>
                        <left-margin>-69</left-margin>
                        <right-margin>-48</right-margin>
                    </system-margins>
                    <system-distance>106</system-distance>
                </system-layout>
            </print>
            <attributes>
                <time>
                    <beats>3</beats>
                    <beat-type>4</beat-type>
                </time>
                <staff-details print-object="yes"/>
            </attributes>
            <note default-x="96">
                <pitch>
                    <step>E</step>
                    <octave>5</octave>
                </pitch>
                <duration>2</duration>
                <voice>1</voice>
                <type>eighth</type>
                <stem default-y="-43">down</stem>
                <beam number="1">begin</beam>
            </note>
            <note default-x="250">
                <pitch>
                    <step>F</step>
                    <alter>1</alter>
                    <octave>5</octave>
                </pitch>
                <duration>1</duration>
                <voice>1</voice>
                <type>16th</type>
                <stem default-y="-44">down</stem>
                <beam number="1">begin</beam>
                <beam number="2">begin</beam>
            </note>
            <note default-x="297">
                <pitch>
                    <step>E</step>
                    <octave>5</octave>
                </pitch>
                <duration>2</duration>
                <voice>1</voice>
                <type>eighth</type>
                <stem default-y="-44">down</stem>
                <beam number="1">continue</beam>
            </note>
            <note default-x="355">
                <pitch>
                    <step>D</step>
                    <octave>5</octave>
                </pitch>
                <duration>2</duration>
                <voice>1</voice>
                <type>eighth</type>
                <accidental>natural</accidental>
                <stem default-y="-45">down</stem>
                <beam number="1">end</beam>
            </note>
            <forward>
                <duration>5</duration>
                <voice>1</voice>
            </forward>
        </measure>
        <measure number="25" width="340">
            <print new-system="no"/>
            <note default-x="14">
                <pitch>
                    <step>C</step>
                    <alter>1</alter>
                    <octave>5</octave>
                </pitch>
                <duration>2</duration>
                <voice>1</voice>
                <type>eighth</type>
                <stem default-y="-52">down</stem>
                <beam number="1">begin</beam>
                <notations>
                    <slur type="start" number="1" placement="above" default-x="11" default-y="0" bezier-x="27" bezier-y="11"/>
                </notations>
            </note>
            <note default-x="73">
                <pitch>
                    <step>B</step>
                    <alter>1</alter>
                    <octave>4</octave>
                </pitch>
                <duration>2</duration>
                <voice>1</voice>
                <type>eighth</type>
                <accidental>sharp</accidental>
                <stem default-y="-52">down</stem>
                <beam number="1">continue</beam>
                <notations>
                    <slur type="stop" number="1" default-x="4" default-y="-2" bezier-x="-12" bezier-y="10"/>
                </notations>
            </note>
            <note default-x="122">
                <pitch>
                    <step>C</step>
                    <alter>1</alter>
                    <octave>5</octave>
                </pitch>
                <duration>2</duration>
                <voice>1</voice>
                <type>eighth</type>
                <stem default-y="-52">down</stem>
                <beam number="1">continue</beam>
                <notations>
                    <slur type="start" number="1" placement="above" default-x="7" default-y="-6" bezier-x="60" bezier-y="15"/>
                </notations>
            </note>
            <note default-x="175">
                <pitch>
                    <step>D</step>
                    <octave>5</octave>
                </pitch>
                <duration>2</duration>
                <voice>1</voice>
                <type>eighth</type>
                <stem default-y="-52">down</stem>
                <beam number="1">continue</beam>
            </note>
            <note default-x="225">
                <pitch>
                    <step>C</step>
                    <alter>1</alter>
                    <octave>5</octave>
                </pitch>
                <duration>2</duration>
                <voice>1</voice>
                <type>eighth</type>
                <stem default-y="-52">down</stem>
                <beam number="1">continue</beam>
            </note>
            <note default-x="287">
                <pitch>
                    <step>B</step>
                    <octave>4</octave>
                </pitch>
                <duration>2</duration>
                <voice>1</voice>
                <type>eighth</type>
                <accidental>natural</accidental>
                <stem default-y="-52">down</stem>
                <beam number="1">end</beam>
                <notations>
                    <slur type="stop" number="1" default-x="6" default-y="-8" bezier-x="-46" bezier-y="15"/>
                </notations>
            </note>
        </measure>
        <measure number="26" width="324">
            <print new-system="no"/>
            <note default-x="17">
                <pitch>
                    <step>A</step>
                    <octave>4</octave>
                </pitch>
                <duration>2</duration>
                <voice>1</voice>
                <type>eighth</type>
                <stem default-y="14">up</stem>
                <beam number="1">begin</beam>
                <notations>
                    <slur type="start" number="1" placement="below" default-x="11" default-y="-31" bezier-x="27" bezier-y="-38"/>
                </notations>
            </note>
            <note default-x="69">
                <pitch>
                    <step>C</step>
                    <alter>1</alter>
                    <octave>5</octave>
                </pitch>
                <duration>2</duration>
                <voice>1</voice>
                <type>eighth</type>
                <stem default-y="15">up</stem>
                <beam number="1">continue</beam>
                <notations>
                    <slur type="stop" number="1" default-x="4" default-y="-22" bezier-x="-8" bezier-y="-34"/>
                </notations>
            </note>
            <note default-x="118">
                <pitch>
                    <step>B</step>
                    <octave>4</octave>
                </pitch>
                <duration>2</duration>
                <voice>1</voice>
                <type>eighth</type>
                <stem default-y="16">up</stem>
                <beam number="1">continue</beam>
                <notations>
                    <slur type="start" number="1" placement="below" default-x="0" default-y="-31" bezier-x="52" bezier-y="-53"/>
                </notations>
            </note>
            <note default-x="172">
                <pitch>
                    <step>A</step>
                    <octave>4</octave>
                </pitch>
                <duration>2</duration>
                <voice>1</voice>
                <type>eighth</type>
                <stem default-y="16">up</stem>
                <beam number="1">continue</beam>
            </note>
            <note default-x="222">
                <pitch>
                    <step>G</step>
                    <octave>4</octave>
                </pitch>
                <duration>2</duration>
                <voice>1</voice>
                <type>eighth</type>
                <stem default-y="17">up</stem>
                <beam number="1">continue</beam>
            </note>
            <note default-x="273">
                <pitch>
                    <step>B</step>
                    <octave>4</octave>
                </pitch>
                <duration>2</duration>
                <voice>1</voice>
                <type>eighth</type>
                <stem default-y="17">up</stem>
                <beam number="1">end</beam>
                <notations>
                    <slur type="stop" number="1" default-x="6" default-y="-31" bezier-x="-45" bezier-y="-53"/>
                </notations>
            </note>
        </measure>
        <measure number="27" width="337">
            <print new-system="yes">
                <system-layout>
                    <system-margins>
                        <left-margin>-71</left-margin>
                        <right-margin>-49</right-margin>
                    </system-margins>
                    <system-distance>105</system-distance>
                </system-layout>
            </print>
            <attributes>
                <key>
                    <fifths>3</fifths>
                </key>
                <staff-details print-object="yes"/>
            </attributes>
            <note default-x="98">
                <pitch>
                    <step>F</step>
                    <alter>1</alter>
                    <octave>4</octave>
                </pitch>
                <duration>2</duration>
                <voice>1</voice>
                <type>eighth</type>
                <stem default-y="5">up</stem>
                <beam number="1">begin</beam>
                <notations>
                    <slur type="start" number="1" placement="below" default-x="7" default-y="-45" bezier-x="20" bezier-y="-52"/>
                </notations>
            </note>
            <note default-x="135">
                <pitch>
                    <step>G</step>
                    <alter>1</alter>
                    <octave>4</octave>
                </pitch>
                <duration>1</duration>
                <voice>1</voice>
                <type>16th</type>
                <stem default-y="4">up</stem>
                <beam number="1">end</beam>
                <beam number="2">begin</beam>
                <notations>
                    <slur type="stop" number="1" default-x="7" default-y="-39" bezier-x="-3" bezier-y="-49"/>
                </notations>
            </note>
            <note default-x="261">
                <pitch>
                    <step>D</step>
                    <alter>1</alter>
                    <octave>4</octave>
                </pitch>
                <duration>2</duration>
                <voice>1</voice>
                <type>eighth</type>
                <accidental>sharp</accidental>
                <stem default-y="3">up</stem>
                <beam number="1">continue</beam>
                <notations>
                    <articulations>
                        <staccatissimo default-y="-38" placement="above"/>
                    </articulations>
                </notations>
            </note>
            <note default-x="298">
                <pitch>
                    <step>B</step>
                    <octave>3</octave>
                </pitch>
                <duration>2</duration>
                <voice>1</voice>
                <type>eighth</type>
                <stem default-y="2">up</stem>
                <beam number="1">end</beam>
            </note>
            <forward>
                <duration>5</duration>
                <voice>1</voice>
            </forward>
        </measure>
        <measure number="28" width="109">
            <print new-system="no"/>
            <barline location="right">
                <bar-style/>
            </barline>
            <note default-x="10">
                <pitch>
                    <step>E</step>
                    <octave>4</octave>
                </pitch>
                <duration>4</duration>
                <voice>1</voice>
                <type>quarter</type>
                <stem default-y="-10">up</stem>
            </note>
            <note default-x="62">
                <rest/>
                <duration>2</duration>
                <voice>1</voice>
                <type>eighth</type>
            </note>
            <forward>
                <duration>6</duration>
                <voice>1</voice>
            </forward>
        </measure>
        <measure number="29" width="141">
            <print new-system="no"/>
            <barline location="left">
                <bar-style/>
            </barline>
            <direction placement="below">
                <direction-type>
                    <dynamics default-y="-62" relative-x="-5">
                        <f/>
                    </dynamics>
                </direction-type>
                <sound dynamics="100"/>
            </direction>
            <note default-x="22">
                <pitch>
                    <step>E</step>
                    <octave>5</octave>
                </pitch>
                <duration>2</duration>
                <voice>1</voice>
                <type>eighth</type>
                <stem default-y="-45">down</stem>
                <beam number="1">begin</beam>
                <notations>
                    <slur type="start" number="1" placement="above" default-x="9" default-y="3" bezier-x="31" bezier-y="15"/>
                </notations>
            </note>
            <note default-x="70">
                <pitch>
                    <step>D</step>
                    <alter>1</alter>
                    <octave>5</octave>
                </pitch>
                <duration>2</duration>
                <voice>1</voice>
                <type>eighth</type>
                <accidental>sharp</accidental>
                <stem default-y="-45">down</stem>
                <beam number="1">continue</beam>
            </note>
            <note default-x="103">
                <pitch>
                    <step>E</step>
                    <octave>5</octave>
                </pitch>
                <duration>2</duration>
                <voice>1</voice>
                <type>eighth</type>
                <stem default-y="-46">down</stem>
                <beam number="1">end</beam>
                <notations>
                    <slur type="stop" number="1" default-x="1" default-y="4" bezier-x="-22" bezier-y="15"/>
                </notations>
            </note>
            <forward>
                <duration>6</duration>
                <voice>1</voice>
            </forward>
        </measure>
        <measure number="30" width="238">
            <print new-system="no"/>
            <note default-x="12">
                <pitch>
                    <step>F</step>
                    <alter>1</alter>
                    <octave>5</octave>
                </pitch>
                <duration>2</duration>
                <voice>1</voice>
                <type>eighth</type>
                <stem default-y="-53">down</stem>
                <beam number="1">begin</beam>
                <notations>
                    <slur type="start" number="1" placement="above" default-x="12" default-y="7" bezier-x="37" bezier-y="15"/>
                </notations>
            </note>
            <note default-x="59">
                <pitch>
                    <step>D</step>
                    <octave>5</octave>
                </pitch>
                <duration>2</duration>
                <voice>1</voice>
                <type>eighth</type>
                <accidental>natural</accidental>
                <stem default-y="-54">down</stem>
                <beam number="1">continue</beam>
            </note>
            <note default-x="93">
                <pitch>
                    <step>B</step>
                    <octave>4</octave>
                </pitch>
                <duration>2</duration>
                <voice>1</voice>
                <type>eighth</type>
                <stem default-y="-54">down</stem>
                <beam number="1">continue</beam>
                <notations>
                    <slur type="stop" number="1" default-x="3" default-y="-6" bezier-x="-17" bezier-y="10"/>
                </notations>
            </note>
            <note default-x="128">
                <pitch>
                    <step>C</step>
                    <alter>1</alter>
                    <octave>5</octave>
                </pitch>
                <duration>2</duration>
                <voice>1</voice>
                <type>eighth</type>
                <stem default-y="-54">down</stem>
                <beam number="1">continue</beam>
                <notations>
                    <slur type="start" number="1" placement="above" default-x="9" default-y="-2" bezier-x="30" bezier-y="9"/>
                </notations>
            </note>
            <note default-x="165">
                <pitch>
                    <step>B</step>
                    <octave>4</octave>
                </pitch>
                <duration>2</duration>
                <voice>1</voice>
                <type>eighth</type>
                <stem default-y="-54">down</stem>
                <beam number="1">continue</beam>
            </note>
            <note default-x="200">
                <pitch>
                    <step>C</step>
                    <alter>1</alter>
                    <octave>5</octave>
                </pitch>
                <duration>2</duration>
                <voice>1</voice>
                <type>eighth</type>
                <stem default-y="-55">down</stem>
                <beam number="1">end</beam>
                <notations>
                    <slur type="stop" number="1" default-x="2" default-y="0" bezier-x="-19" bezier-y="9"/>
                </notations>
            </note>
        </measure>
        <measure number="31" width="243">
            <print new-system="no"/>
            <note default-x="12">
                <pitch>
                    <step>D</step>
                    <octave>5</octave>
                </pitch>
                <duration>2</duration>
                <voice>1</voice>
                <type>eighth</type>
                <stem default-y="-57">down</stem>
                <beam number="1">begin</beam>
                <notations>
                    <slur type="start" number="1" placement="above" default-x="11" default-y="4" bezier-x="34" bezier-y="10"/>
                </notations>
            </note>
            <note default-x="49">
                <pitch>
                    <step>B</step>
                    <octave>4</octave>
                </pitch>
                <duration>2</duration>
                <voice>1</voice>
                <type>eighth</type>
                <stem default-y="-57">down</stem>
                <beam number="1">continue</beam>
            </note>
            <note default-x="83">
                <pitch>
                    <step>G</step>
                    <alter>1</alter>
                    <octave>4</octave>
                </pitch>
                <duration>2</duration>
                <voice>1</voice>
                <type>eighth</type>
                <stem default-y="-56">down</stem>
                <beam number="1">continue</beam>
                <notations>
                    <slur type="stop" number="1" default-x="5" default-y="-12" bezier-x="-12" bezier-y="5"/>
                </notations>
            </note>
            <note default-x="120">
                <pitch>
                    <step>E</step>
                    <octave>5</octave>
                </pitch>
                <duration>2</duration>
                <voice>1</voice>
                <type>eighth</type>
                <stem default-y="-56">down</stem>
                <beam number="1">continue</beam>
                <notations>
                    <slur type="start" number="1" placement="above" default-x="12" default-y="10" bezier-x="35" bezier-y="22"/>
                </notations>
            </note>
            <note default-x="170">
                <pitch>
                    <step>D</step>
                    <alter>1</alter>
                    <octave>5</octave>
                </pitch>
                <duration>2</duration>
                <voice>1</voice>
                <type>eighth</type>
                <accidental>sharp</accidental>
                <stem default-y="-56">down</stem>
                <beam number="1">continue</beam>
            </note>
            <note default-x="206">
                <pitch>
                    <step>E</step>
                    <octave>5</octave>
                </pitch>
                <duration>2</duration>
                <voice>1</voice>
                <type>eighth</type>
                <stem default-y="-56">down</stem>
                <beam number="1">end</beam>
                <notations>
                    <slur type="stop" number="1" default-x="0" default-y="10" bezier-x="-24" bezier-y="21"/>
                </notations>
            </note>
        </measure>
        <measure number="32" width="401">
            <print new-system="yes">
                <system-layout>
                    <system-margins>
                        <left-margin>-68</left-margin>
                        <right-margin>-49</right-margin>
                    </system-margins>
                    <system-distance>104</system-distance>
                </system-layout>
            </print>
            <attributes>
                <staff-details print-object="yes"/>
            </attributes>
            <note default-x="95">
                <pitch>
                    <step>F</step>
                    <alter>1</alter>
                    <octave>5</octave>
                </pitch>
                <duration>2</duration>
                <voice>1</voice>
                <type>eighth</type>
                <stem default-y="-51">down</stem>
                <beam number="1">begin</beam>
                <notations>
                    <slur type="start" number="1" placement="above" default-x="6" default-y="9" bezier-x="41" bezier-y="18"/>
                </notations>
            </note>
            <note default-x="153">
                <pitch>
                    <step>D</step>
                    <octave>5</octave>
                </pitch>
                <duration>2</duration>
                <voice>1</voice>
                <type>eighth</type>
                <accidental>natural</accidental>
                <stem default-y="-51">down</stem>
                <beam number="1">continue</beam>
            </note>
            <note default-x="200">
                <pitch>
                    <step>B</step>
                    <octave>4</octave>
                </pitch>
                <duration>2</duration>
                <voice>1</voice>
                <type>eighth</type>
                <stem default-y="-52">down</stem>
                <beam number="1">continue</beam>
                <notations>
                    <slur type="stop" number="1" default-x="2" default-y="-12" bezier-x="-26" bezier-y="10"/>
                </notations>
            </note>
            <note default-x="250">
                <pitch>
                    <step>C</step>
                    <alter>1</alter>
                    <octave>5</octave>
                </pitch>
                <duration>2</duration>
                <voice>1</voice>
                <type>eighth</type>
                <stem default-y="-53">down</stem>
                <beam number="1">continue</beam>
                <notations>
                    <slur type="start" number="1" placement="above" default-x="6" default-y="-10" bezier-x="39" bezier-y="8"/>
                </notations>
            </note>
            <note default-x="301">
                <pitch>
                    <step>B</step>
                    <octave>4</octave>
                </pitch>
                <duration>2</duration>
                <voice>1</voice>
                <type>eighth</type>
                <stem default-y="-54">down</stem>
                <beam number="1">continue</beam>
            </note>
            <note default-x="351">
                <pitch>
                    <step>C</step>
                    <alter>1</alter>
                    <octave>5</octave>
                </pitch>
                <duration>2</duration>
                <voice>1</voice>
                <type>eighth</type>
                <stem default-y="-55">down</stem>
                <beam number="1">end</beam>
                <notations>
                    <slur type="stop" number="1" default-x="11" default-y="-10" bezier-x="-22" bezier-y="7"/>
                </notations>
            </note>
        </measure>
        <measure number="33" width="328">
            <print new-system="no"/>
            <note default-x="18">
                <pitch>
                    <step>D</step>
                    <octave>5</octave>
                </pitch>
                <duration>2</duration>
                <voice>1</voice>
                <type>eighth</type>
                <stem default-y="-59">down</stem>
                <beam number="1">begin</beam>
                <notations>
                    <slur type="start" number="1" placement="above" default-x="6" default-y="-1" bezier-x="41" bezier-y="10"/>
                </notations>
            </note>
            <note default-x="69">
                <pitch>
                    <step>B</step>
                    <octave>4</octave>
                </pitch>
                <duration>2</duration>
                <voice>1</voice>
                <type>eighth</type>
                <stem default-y="-59">down</stem>
                <beam number="1">continue</beam>
            </note>
            <note default-x="119">
                <pitch>
                    <step>G</step>
                    <alter>1</alter>
                    <octave>4</octave>
                </pitch>
                <duration>2</duration>
                <voice>1</voice>
                <type>eighth</type>
                <stem default-y="-58">down</stem>
                <beam number="1">continue</beam>
                <notations>
                    <slur type="stop" number="1" default-x="5" default-y="-22" bezier-x="-22" bezier-y="3"/>
                </notations>
            </note>
            <direction placement="below">
                <direction-type>
                    <wedge type="diminuendo" spread="12" default-y="-70"/>
                </direction-type>
            </direction>
            <note default-x="168">
                <pitch>
                    <step>E</step>
                    <octave>5</octave>
                </pitch>
                <duration>2</duration>
                <voice>1</voice>
                <type>eighth</type>
                <stem default-y="-58">down</stem>
                <beam number="1">continue</beam>
                <notations>
                    <slur type="start" number="1" placement="above" default-x="3" default-y="0" bezier-x="39" bezier-y="19"/>
                </notations>
            </note>
            <note default-x="232">
                <pitch>
                    <step>D</step>
                    <alter>1</alter>
                    <octave>5</octave>
                </pitch>
                <duration>2</duration>
                <voice>1</voice>
                <type>eighth</type>
                <accidental>sharp</accidental>
                <stem default-y="-58">down</stem>
                <beam number="1">continue</beam>
            </note>
            <direction>
                <direction-type>
                    <wedge type="stop" spread="0"/>
                </direction-type>
            </direction>
            <note default-x="280">
                <pitch>
                    <step>E</step>
                    <octave>5</octave>
                </pitch>
                <duration>2</duration>
                <voice>1</voice>
                <type>eighth</type>
                <stem default-y="-59">down</stem>
                <beam number="1">end</beam>
                <notations>
                    <slur type="stop" number="1" default-x="6" default-y="0" bezier-x="-30" bezier-y="19"/>
                </notations>
            </note>
        </measure>
        <measure number="34" width="335">
            <print new-system="no"/>
            <attributes>
                <time>
                    <beats>3</beats>
                    <beat-type>4</beat-type>
                </time>
            </attributes>
            <note default-x="22">
                <pitch>
                    <step>C</step>
                    <alter>1</alter>
                    <octave>5</octave>
                </pitch>
                <duration>2</duration>
                <voice>1</voice>
                <type>eighth</type>
                <stem default-y="-68">down</stem>
                <beam number="1">begin</beam>
                <notations>
                    <slur type="start" number="1" placement="above" default-x="7" default-y="-7" bezier-x="19" bezier-y="5"/>
                </notations>
            </note>
            <note default-x="74">
                <pitch>
                    <step>E</step>
                    <octave>5</octave>
                </pitch>
                <duration>2</duration>
                <voice>1</voice>
                <type>eighth</type>
                <stem default-y="-67">down</stem>
                <beam number="1">continue</beam>
                <notations>
                    <slur type="stop" number="1" default-x="0" default-y="3" bezier-x="-15" bezier-y="9"/>
                </notations>
            </note>
            <note default-x="124">
                <pitch>
                    <step>A</step>
                    <octave>4</octave>
                </pitch>
                <duration>2</duration>
                <voice>1</voice>
                <type>eighth</type>
                <stem default-y="-66">down</stem>
                <beam number="1">continue</beam>
                <notations>
                    <slur type="start" number="1" placement="above" default-x="11" default-y="-18" bezier-x="22" bezier-y="-7"/>
                </notations>
            </note>
            <note default-x="177">
                <pitch>
                    <step>C</step>
                    <alter>1</alter>
                    <octave>5</octave>
                </pitch>
                <duration>2</duration>
                <voice>1</voice>
                <type>eighth</type>
                <stem default-y="-66">down</stem>
                <beam number="1">continue</beam>
                <notations>
                    <slur type="stop" number="1" default-x="0" default-y="-8" bezier-x="-15" bezier-y="-3"/>
                </notations>
            </note>
            <note default-x="229">
                <pitch>
                    <step>E</step>
                    <octave>4</octave>
                </pitch>
                <duration>2</duration>
                <voice>1</voice>
                <type>eighth</type>
                <stem default-y="-67">down</stem>
                <beam number="1">continue</beam>
            </note>
            <note default-x="280">
                <pitch>
                    <step>A</step>
                    <octave>5</octave>
                </pitch>
                <duration>2</duration>
                <voice>1</voice>
                <type>eighth</type>
                <stem default-y="-67">down</stem>
                <beam number="1">end</beam>
            </note>
        </measure>
        <measure number="35" width="393">
            <print new-system="yes">
                <system-layout>
                    <system-margins>
                        <left-margin>-70</left-margin>
                        <right-margin>-49</right-margin>
                    </system-margins>
                    <system-distance>104</system-distance>
                </system-layout>
            </print>
            <attributes>
                <staff-details print-object="yes"/>
            </attributes>
            <note default-x="97">
                <pitch>
                    <step>F</step>
                    <alter>1</alter>
                    <octave>5</octave>
                </pitch>
                <duration>2</duration>
                <voice>1</voice>
                <type>eighth</type>
                <stem default-y="-51">down</stem>
                <beam number="1">begin</beam>
                <notations>
                    <slur type="start" number="1" placement="above" default-x="4" default-y="6" bezier-x="14" bezier-y="19"/>
                </notations>
            </note>
            <note default-x="147">
                <pitch>
                    <step>A</step>
                    <octave>5</octave>
                </pitch>
                <duration>2</duration>
                <voice>1</voice>
                <type>eighth</type>
                <stem default-y="-52">down</stem>
                <beam number="1">continue</beam>
                <notations>
                    <slur type="stop" number="1" default-x="-2" default-y="19" bezier-x="-18" bezier-y="24"/>
                </notations>
            </note>
            <note default-x="195">
                <pitch>
                    <step>D</step>
                    <octave>5</octave>
                </pitch>
                <duration>2</duration>
                <voice>1</voice>
                <type>eighth</type>
                <stem default-y="-53">down</stem>
                <beam number="1">continue</beam>
                <notations>
                    <slur type="start" number="1" placement="above" default-x="0" default-y="-24" bezier-x="2" bezier-y="1"/>
                </notations>
            </note>
            <note default-x="247">
                <pitch>
                    <step>F</step>
                    <alter>1</alter>
                    <octave>5</octave>
                </pitch>
                <duration>2</duration>
                <voice>1</voice>
                <type>eighth</type>
                <stem default-y="-53">down</stem>
                <beam number="1">continue</beam>
                <notations>
                    <slur type="stop" number="1" default-x="0" default-y="5" bezier-x="-22" bezier-y="16"/>
                </notations>
            </note>
            <note default-x="295">
                <pitch>
                    <step>B</step>
                    <octave>4</octave>
                </pitch>
                <duration>2</duration>
                <voice>1</voice>
                <type>eighth</type>
                <stem default-y="-53">down</stem>
                <beam number="1">continue</beam>
            </note>
            <note default-x="342">
                <pitch>
                    <step>D</step>
                    <octave>5</octave>
                </pitch>
                <duration>2</duration>
                <voice>1</voice>
                <type>eighth</type>
                <stem default-y="-55">down</stem>
                <beam number="1">end</beam>
            </note>
        </measure>
        <measure number="36" width="325">
            <print new-system="no"/>
            <note default-x="14">
                <pitch>
                    <step>G</step>
                    <alter>1</alter>
                    <octave>4</octave>
                </pitch>
                <duration>2</duration>
                <voice>1</voice>
                <type>eighth</type>
                <stem default-y="7">up</stem>
                <beam number="1">begin</beam>
                <notations>
                    <slur type="start" number="1" placement="below" default-x="12" default-y="-48" bezier-x="27" bezier-y="-54"/>
                </notations>
            </note>
            <note default-x="63">
                <pitch>
                    <step>B</step>
                    <octave>4</octave>
                </pitch>
                <duration>2</duration>
                <voice>1</voice>
                <type>eighth</type>
                <stem default-y="6">up</stem>
                <beam number="1">continue</beam>
                <notations>
                    <slur type="stop" number="1" default-x="6" default-y="-39" bezier-x="-5" bezier-y="-51"/>
                </notations>
            </note>
            <note default-x="115">
                <pitch>
                    <step>E</step>
                    <octave>4</octave>
                </pitch>
                <duration>2</duration>
                <voice>1</voice>
                <type>eighth</type>
                <stem default-y="7">up</stem>
                <beam number="1">continue</beam>
                <notations>
                    <slur type="start" number="1" placement="below" default-x="11" default-y="-50" bezier-x="62" bezier-y="-68"/>
                </notations>
            </note>
            <note default-x="167">
                <pitch>
                    <step>F</step>
                    <alter>1</alter>
                    <octave>4</octave>
                </pitch>
                <duration>2</duration>
                <voice>1</voice>
                <type>eighth</type>
                <stem default-y="7">up</stem>
                <beam number="1">continue</beam>
            </note>
            <note default-x="225">
                <pitch>
                    <step>F</step>
                    <alter>2</alter>
                    <octave>4</octave>
                </pitch>
                <duration>2</duration>
                <voice>1</voice>
                <type>eighth</type>
                <accidental>double-sharp</accidental>
                <stem default-y="7">up</stem>
                <beam number="1">continue</beam>
            </note>
            <note default-x="276">
                <pitch>
                    <step>G</step>
                    <alter>1</alter>
                    <octave>4</octave>
                </pitch>
                <duration>2</duration>
                <voice>1</voice>
                <type>eighth</type>
                <stem default-y="7">up</stem>
                <beam number="1">end</beam>
                <notations>
                    <slur type="stop" number="1" default-x="6" default-y="-48" bezier-x="-44" bezier-y="-67"/>
                </notations>
            </note>
        </measure>
        <measure number="37" width="149">
            <print new-system="no"/>
            <barline location="right">
                <bar-style>light-heavy</bar-style>
            </barline>
            <note default-x="18">
                <pitch>
                    <step>B</step>
                    <octave>4</octave>
                </pitch>
                <duration>4</duration>
                <voice>1</voice>
                <type>quarter</type>
                <stem default-y="-57">down</stem>
                <notations>
                    <slur type="start" number="1" placement="above" default-x="12" default-y="-15" bezier-x="32" bezier-y="-4"/>
                </notations>
            </note>
            <note default-x="89">
                <pitch>
                    <step>A</step>
                    <octave>4</octave>
                </pitch>
                <duration>2</duration>
                <voice>1</voice>
                <type>eighth</type>
                <stem default-y="6">up</stem>
                <notations>
                    <slur type="stop" number="1" default-x="3" default-y="-21" bezier-x="-15" bezier-y="-6"/>
                </notations>
            </note>
            <forward>
                <duration>6</duration>
                <voice>1</voice>
            </forward>
        </measure>
        <measure number="38" width="197">
            <print new-system="no"/>
            <barline location="right">
                <bar-style>light-light</bar-style>
            </barline>
            <barline location="left">
                <bar-style>light-heavy</bar-style>
            </barline>
            <note default-x="15">
                <pitch>
                    <step>B</step>
                    <octave>4</octave>
                </pitch>
                <duration>4</duration>
                <voice>1</voice>
                <type>quarter</type>
                <stem default-y="-58">down</stem>
                <notations>
                    <slur type="start" number="1" placement="above" default-x="13" default-y="-15" bezier-x="33" bezier-y="-4"/>
                </notations>
            </note>
            <note default-x="90">
                <pitch>
                    <step>A</step>
                    <octave>4</octave>
                </pitch>
                <duration>2</duration>
                <voice>1</voice>
                <type>eighth</type>
                <stem default-y="7">up</stem>
                <notations>
                    <slur type="stop" number="1" default-x="0" default-y="-21" bezier-x="-18" bezier-y="-6"/>
                </notations>
            </note>
            <note default-x="147">
                <rest/>
                <duration>2</duration>
                <voice>1</voice>
                <type>eighth</type>
            </note>
            <forward>
                <duration>4</duration>
                <voice>1</voice>
            </forward>
        </measure>
    </part>
</score-partwise>