<?xml version="1.0" encoding="UTF-8"?>
<!DOCTYPE score-partwise PUBLIC "-//Recordare//DTD MusicXML 3.0 Partwise//EN" "http://www.musicxml.org/dtds/partwise.dtd">
<score-partwise version="3.0">
    <identification>
        <creator type="lyricist">[5] GO FOR EXCELLENCE! ;;</creator>
        <encoding>
            <software>audiveris 4.3.3406</software>
            <software>ProxyMusic 3.0.110</software>
            <encoding-date>2015-03-31</encoding-date>
        </encoding>
        <source>C:\Users\eholder0\Downloads\Final\Go for Excellence no. 61.pdf</source>
    </identification>
    <defaults>
        <scaling>
            <millimeters>7.1120</millimeters>
            <tenths>40</tenths>
        </scaling>
        <page-layout>
            <page-height>248</page-height>
            <page-width>1101</page-width>
            <page-margins type="both">
                <left-margin>80</left-margin>
                <right-margin>80</right-margin>
                <top-margin>80</top-margin>
                <bottom-margin>80</bottom-margin>
            </page-margins>
        </page-layout>
        <lyric-font font-family="Serif" font-size="10"/>
    </defaults>
    <credit page="1">
        <credit-words font-family="sans-serif" font-size="19" font-weight="bold" default-x="12" default-y="213">[5] GO FOR EXCELLENCE! ;;</credit-words>
    </credit>
    <part-list>
        <score-part id="P1">
            <part-name>Part_1</part-name>
            <score-instrument id="P1-I1">
                <instrument-name>Voice Oohs</instrument-name>
            </score-instrument>
            <midi-instrument id="P1-I1">
                <midi-channel>1</midi-channel>
                <midi-program>54</midi-program>
                <volume>78</volume>
            </midi-instrument>
        </score-part>
    </part-list>
    <part id="P1">
        <measure number="1" width="318">
            <print>
                <system-layout>
                    <system-margins>
                        <left-margin>-67</left-margin>
                        <right-margin>-61</right-margin>
                    </system-margins>
                    <top-system-distance>-17</top-system-distance>
                </system-layout>
                <measure-numbering>system</measure-numbering>
            </print>
            <attributes>
                <divisions>2</divisions>
                <time>
                    <beats>4</beats>
                    <beat-type>4</beat-type>
                </time>
                <clef>
                    <sign>G</sign>
                    <line>2</line>
                </clef>
                <staff-details print-object="yes"/>
            </attributes>
            <barline location="left">
                <bar-style/>
            </barline>
            <direction>
                <direction-type>
                    <words></words>
                </direction-type>
                <sound tempo="120"/>
            </direction>
            <note default-x="31">
                <pitch>
                    <step>C</step>
                    <octave>4</octave>
                </pitch>
                <duration>2</duration>
                <voice>1</voice>
                <type>quarter</type>
                <stem default-y="-15">up</stem>
            </note>
            <note default-x="84">
                <pitch>
                    <step>D</step>
                    <octave>4</octave>
                </pitch>
                <duration>1</duration>
                <voice>1</voice>
                <type>eighth</type>
                <stem default-y="-9">up</stem>
                <beam number="1">begin</beam>
            </note>
            <note default-x="120">
                <pitch>
                    <step>D</step>
                    <octave>4</octave>
                </pitch>
                <duration>1</duration>
                <voice>1</voice>
                <type>eighth</type>
                <stem default-y="-9">up</stem>
                <beam number="1">end</beam>
            </note>
            <note default-x="155">
                <pitch>
                    <step>E</step>
                    <octave>4</octave>
                </pitch>
                <duration>2</duration>
                <voice>1</voice>
                <type>quarter</type>
                <stem default-y="-4">up</stem>
                <notations>
                    <slur type="start" number="1" placement="below" default-x="7" default-y="-48" bezier-x="21" bezier-y="-59"/>
                </notations>
            </note>
            <note default-x="210">
                <pitch>
                    <step>C</step>
                    <octave>4</octave>
                </pitch>
                <duration>2</duration>
                <voice>1</voice>
                <type>quarter</type>
                <stem default-y="-13">up</stem>
                <notations>
                    <slur type="stop" number="1" default-x="4" default-y="-58" bezier-x="-14" bezier-y="-63"/>
                </notations>
            </note>
        </measure>
        <measure number="2" width="173">
            <print new-system="no"/>
            <note default-x="20">
                <pitch>
                    <step>D</step>
                    <octave>4</octave>
                </pitch>
                <duration>1</duration>
                <voice>1</voice>
                <type>eighth</type>
                <stem default-y="-6">up</stem>
                <beam number="1">begin</beam>
            </note>
            <note default-x="55">
                <pitch>
                    <step>D</step>
                    <octave>4</octave>
                </pitch>
                <duration>1</duration>
                <voice>1</voice>
                <type>eighth</type>
                <stem default-y="-4">up</stem>
                <beam number="1">continue</beam>
                <notations>
                    <ornaments>
                        <mordent placement="above"/>
                    </ornaments>
                </notations>
            </note>
            <note default-x="89">
                <pitch>
                    <step>E</step>
                    <octave>4</octave>
                </pitch>
                <duration>1</duration>
                <voice>1</voice>
                <type>eighth</type>
                <stem default-y="-2">up</stem>
                <beam number="1">continue</beam>
            </note>
            <note default-x="125">
                <pitch>
                    <step>E</step>
                    <octave>4</octave>
                </pitch>
                <duration>1</duration>
                <voice>1</voice>
                <type>eighth</type>
                <stem default-y="-1">up</stem>
                <beam number="1">end</beam>
                <notations>
                    <articulations>
                        <staccatissimo default-y="-34" placement="above"/>
                    </articulations>
                </notations>
            </note>
            <forward>
                <duration>4</duration>
                <voice>1</voice>
            </forward>
        </measure>
        <measure number="3" width="57">
            <print new-system="no"/>
        </measure>
        <measure number="4" width="270">
            <print new-system="no"/>
            <note default-x="20">
                <pitch>
                    <step>D</step>
                    <octave>4</octave>
                </pitch>
                <duration>1</duration>
                <voice>1</voice>
                <type>eighth</type>
                <stem default-y="-5">up</stem>
                <beam number="1">begin</beam>
            </note>
            <note default-x="56">
                <pitch>
                    <step>D</step>
                    <octave>4</octave>
                </pitch>
                <duration>1</duration>
                <voice>1</voice>
                <type>eighth</type>
                <stem default-y="-3">up</stem>
                <beam number="1">continue</beam>
            </note>
            <note default-x="91">
                <pitch>
                    <step>E</step>
                    <octave>4</octave>
                </pitch>
                <duration>1</duration>
                <voice>1</voice>
                <type>eighth</type>
                <stem default-y="-1">up</stem>
                <beam number="1">continue</beam>
            </note>
            <note default-x="128">
                <pitch>
                    <step>E</step>
                    <octave>4</octave>
                </pitch>
                <duration>1</duration>
                <voice>1</voice>
                <type>eighth</type>
                <stem default-y="0">up</stem>
                <beam number="1">end</beam>
            </note>
            <note default-x="163">
                <pitch>
                    <step>F</step>
                    <octave>4</octave>
                </pitch>
                <duration>2</duration>
                <voice>1</voice>
                <type>quarter</type>
                <stem default-y="5">up</stem>
                <notations>
                    <slur type="start" number="1" placement="below" default-x="7" default-y="-41" bezier-x="21" bezier-y="-52"/>
                </notations>
            </note>
            <note default-x="218">
                <pitch>
                    <step>D</step>
                    <octave>4</octave>
                </pitch>
                <duration>2</duration>
                <voice>1</voice>
                <type>quarter</type>
                <stem default-y="-5">up</stem>
                <notations>
                    <slur type="stop" number="1" default-x="3" default-y="-51" bezier-x="-14" bezier-y="-56"/>
                </notations>
            </note>
        </measure>
        <measure number="5" width="250">
            <print new-system="no"/>
            <note default-x="20">
                <pitch>
                    <step>E</step>
                    <octave>4</octave>
                </pitch>
                <duration>2</duration>
                <voice>1</voice>
                <type>quarter</type>
                <stem default-y="0">up</stem>
            </note>
            <note default-x="74">
                <pitch>
                    <step>F</step>
                    <octave>4</octave>
                </pitch>
                <duration>1</duration>
                <voice>1</voice>
                <type>eighth</type>
                <stem default-y="6">up</stem>
                <beam number="1">begin</beam>
            </note>
            <note default-x="110">
                <pitch>
                    <step>F</step>
                    <octave>4</octave>
                </pitch>
                <duration>1</duration>
                <voice>1</voice>
                <type>eighth</type>
                <stem default-y="6">up</stem>
                <beam number="1">end</beam>
            </note>
            <note default-x="146">
                <pitch>
                    <step>G</step>
                    <octave>4</octave>
                </pitch>
                <duration>2</duration>
                <voice>1</voice>
                <type>quarter</type>
                <stem default-y="10">up</stem>
            </note>
            <note default-x="200">
                <rest/>
                <duration>2</duration>
                <voice>1</voice>
                <type>quarter</type>
            </note>
        </measure>
        <measure number="6" width="301">
            <print new-system="yes">
                <system-layout>
                    <system-margins>
                        <left-margin>-66</left-margin>
                        <right-margin>-62</right-margin>
                    </system-margins>
                    <system-distance>59</system-distance>
                </system-layout>
            </print>
            <attributes>
                <staff-details print-object="yes"/>
            </attributes>
            <note default-x="61">
                <pitch>
                    <step>A</step>
                    <octave>4</octave>
                </pitch>
                <duration>2</duration>
                <voice>1</voice>
                <type>quarter</type>
                <stem default-y="10">up</stem>
            </note>
            <note default-x="117">
                <pitch>
                    <step>G</step>
                    <octave>4</octave>
                </pitch>
                <duration>1</duration>
                <voice>1</voice>
                <type>eighth</type>
                <stem default-y="4">up</stem>
                <beam number="1">begin</beam>
            </note>
            <note default-x="154">
                <pitch>
                    <step>G</step>
                    <octave>4</octave>
                </pitch>
                <duration>1</duration>
                <voice>1</voice>
                <type>eighth</type>
                <stem default-y="5">up</stem>
                <beam number="1">end</beam>
            </note>
            <note default-x="191">
                <pitch>
                    <step>F</step>
                    <octave>4</octave>
                </pitch>
                <duration>2</duration>
                <voice>1</voice>
                <type>quarter</type>
                <stem default-y="1">up</stem>
                <notations>
                    <slur type="start" number="1" placement="below" default-x="6" default-y="-44" bezier-x="24" bezier-y="-49"/>
                </notations>
            </note>
            <note default-x="247">
                <pitch>
                    <step>A</step>
                    <octave>4</octave>
                </pitch>
                <duration>2</duration>
                <voice>1</voice>
                <type>quarter</type>
                <stem default-y="11">up</stem>
                <notations>
                    <slur type="stop" number="1" default-x="2" default-y="-33" bezier-x="-12" bezier-y="-45"/>
                </notations>
            </note>
        </measure>
        <measure number="7" width="240">
            <print new-system="no"/>
            <note default-x="19">
                <pitch>
                    <step>G</step>
                    <octave>4</octave>
                </pitch>
                <duration>1</duration>
                <voice>1</voice>
                <type>eighth</type>
                <stem default-y="6">up</stem>
                <beam number="1">begin</beam>
            </note>
            <note default-x="56">
                <pitch>
                    <step>G</step>
                    <octave>4</octave>
                </pitch>
                <duration>1</duration>
                <voice>1</voice>
                <type>eighth</type>
                <stem default-y="5">up</stem>
                <beam number="1">continue</beam>
            </note>
            <note default-x="93">
                <pitch>
                    <step>F</step>
                    <octave>4</octave>
                </pitch>
                <duration>1</duration>
                <voice>1</voice>
                <type>eighth</type>
                <stem default-y="4">up</stem>
                <beam number="1">continue</beam>
            </note>
            <note default-x="130">
                <pitch>
                    <step>F</step>
                    <octave>4</octave>
                </pitch>
                <duration>1</duration>
                <voice>1</voice>
                <type>eighth</type>
                <stem default-y="3">up</stem>
                <beam number="1">end</beam>
            </note>
            <note default-x="167">
                <pitch>
                    <step>E</step>
                    <octave>4</octave>
                </pitch>
                <duration>4</duration>
                <voice>1</voice>
                <type>half</type>
                <stem default-y="-2">up</stem>
            </note>
        </measure>
        <measure number="8" width="280">
            <print new-system="no"/>
            <note default-x="20">
                <pitch>
                    <step>F</step>
                    <octave>4</octave>
                </pitch>
                <duration>1</duration>
                <voice>1</voice>
                <type>eighth</type>
                <stem default-y="4">up</stem>
                <beam number="1">begin</beam>
            </note>
            <note default-x="58">
                <pitch>
                    <step>F</step>
                    <octave>4</octave>
                </pitch>
                <duration>1</duration>
                <voice>1</voice>
                <type>eighth</type>
                <stem default-y="1">up</stem>
                <beam number="1">continue</beam>
            </note>
            <note default-x="94">
                <pitch>
                    <step>E</step>
                    <octave>4</octave>
                </pitch>
                <duration>1</duration>
                <voice>1</voice>
                <type>eighth</type>
                <stem default-y="0">up</stem>
                <beam number="1">continue</beam>
            </note>
            <note default-x="132">
                <pitch>
                    <step>E</step>
                    <octave>4</octave>
                </pitch>
                <duration>1</duration>
                <voice>1</voice>
                <type>eighth</type>
                <stem default-y="-1">up</stem>
                <beam number="1">end</beam>
            </note>
            <note default-x="170">
                <pitch>
                    <step>D</step>
                    <octave>4</octave>
                </pitch>
                <duration>2</duration>
                <voice>1</voice>
                <type>quarter</type>
                <stem default-y="-5">up</stem>
                <notations>
                    <slur type="start" number="1" placement="below" default-x="6" default-y="-52" bezier-x="25" bezier-y="-57"/>
                </notations>
            </note>
            <note default-x="226">
                <pitch>
                    <step>F</step>
                    <octave>4</octave>
                </pitch>
                <duration>2</duration>
                <voice>1</voice>
                <type>quarter</type>
                <stem default-y="5">up</stem>
                <notations>
                    <slur type="stop" number="1" default-x="5" default-y="-41" bezier-x="-10" bezier-y="-53"/>
                </notations>
            </note>
        </measure>
        <measure number="9" width="247">
            <print new-system="no"/>
            <barline location="right">
                <bar-style>light-heavy</bar-style>
            </barline>
            <note default-x="20">
                <pitch>
                    <step>D</step>
                    <octave>4</octave>
                </pitch>
                <duration>2</duration>
                <voice>1</voice>
                <type>quarter</type>
                <stem default-y="-4">up</stem>
            </note>
            <note default-x="74">
                <pitch>
                    <step>B</step>
                    <octave>3</octave>
                </pitch>
                <duration>1</duration>
                <voice>1</voice>
                <type>eighth</type>
                <stem default-y="-10">up</stem>
                <beam number="1">begin</beam>
            </note>
            <note default-x="110">
                <pitch>
                    <step>B</step>
                    <octave>3</octave>
                </pitch>
                <duration>1</duration>
                <voice>1</voice>
                <type>eighth</type>
                <stem default-y="-10">up</stem>
                <beam number="1">end</beam>
            </note>
            <note default-x="145">
                <pitch>
                    <step>C</step>
                    <octave>4</octave>
                </pitch>
                <duration>2</duration>
                <voice>1</voice>
                <type>quarter</type>
                <stem default-y="-10">up</stem>
            </note>
            <note default-x="198">
                <rest/>
                <duration>2</duration>
                <voice>1</voice>
                <type>quarter</type>
            </note>
        </measure>
    </part>
</score-partwise>