<?xml version="1.0" encoding="UTF-8"?>
<!DOCTYPE score-partwise PUBLIC "-//Recordare//DTD MusicXML 3.0 Partwise//EN" "http://www.musicxml.org/dtds/partwise.dtd">
<score-partwise version="3.0">
    <identification>
        <encoding>
            <software>audiveris 4.3.3406</software>
            <software>ProxyMusic 3.0.110</software>
            <encoding-date>2015-04-01</encoding-date>
        </encoding>
        <source>C:\Users\eholder0\Dropbox\Public\College\2015-01 Spring\OS X Thesis\MusicScoring\ClarinetSpecificSamplePieces\Graded Pieces\Cropped\Hindemith Clarinet Sonata-10.png</source>
    </identification>
    <defaults>
        <scaling>
            <millimeters>7.1120</millimeters>
            <tenths>40</tenths>
        </scaling>
        <page-layout>
            <page-height>1571</page-height>
            <page-width>1214</page-width>
            <page-margins type="both">
                <left-margin>80</left-margin>
                <right-margin>80</right-margin>
                <top-margin>80</top-margin>
                <bottom-margin>80</bottom-margin>
            </page-margins>
        </page-layout>
        <lyric-font font-family="Serif" font-size="10"/>
    </defaults>
    <part-list>
        <score-part id="P1">
            <part-name>Part_1</part-name>
            <score-instrument id="P1-I1">
                <instrument-name>Voice Oohs</instrument-name>
            </score-instrument>
            <midi-instrument id="P1-I1">
                <midi-channel>1</midi-channel>
                <midi-program>54</midi-program>
                <volume>78</volume>
            </midi-instrument>
        </score-part>
    </part-list>
    <part id="P1">
        <measure number="1" width="301">
            <print>
                <system-layout>
                    <system-margins>
                        <left-margin>-17</left-margin>
                        <right-margin>0</right-margin>
                    </system-margins>
                    <top-system-distance>-7</top-system-distance>
                </system-layout>
                <measure-numbering>system</measure-numbering>
            </print>
            <attributes>
                <divisions>16</divisions>
                <clef>
                    <sign>G</sign>
                    <line>2</line>
                </clef>
                <staff-details print-object="yes"/>
            </attributes>
            <direction>
                <direction-type>
                    <words></words>
                </direction-type>
                <sound tempo="120"/>
            </direction>
            <direction placement="above">
                <direction-type>
                    <dynamics default-y="32" relative-x="-29">
                        <p/>
                    </dynamics>
                </direction-type>
                <sound dynamics="56"/>
            </direction>
            <direction placement="below">
                <direction-type>
                    <dynamics default-y="-59" relative-x="-7">
                        <mp/>
                    </dynamics>
                </direction-type>
                <sound dynamics="67"/>
            </direction>
            <note default-x="77">
                <pitch>
                    <step>F</step>
                    <octave>4</octave>
                </pitch>
                <duration>16</duration>
                <voice>1</voice>
                <type>quarter</type>
                <stem default-y="0">up</stem>
            </note>
            <note default-x="126">
                <pitch>
                    <step>C</step>
                    <octave>5</octave>
                </pitch>
                <duration>8</duration>
                <voice>1</voice>
                <type>eighth</type>
                <stem default-y="18">up</stem>
                <beam number="1">begin</beam>
            </note>
            <note default-x="156">
                <pitch>
                    <step>F</step>
                    <octave>4</octave>
                </pitch>
                <duration>8</duration>
                <voice>1</voice>
                <type>eighth</type>
                <stem default-y="5">up</stem>
                <beam number="1">end</beam>
            </note>
            <note default-x="194">
                <pitch>
                    <step>F</step>
                    <octave>4</octave>
                </pitch>
                <duration>16</duration>
                <voice>1</voice>
                <type>quarter</type>
                <stem default-y="-1">up</stem>
            </note>
            <note default-x="248">
                <pitch>
                    <step>C</step>
                    <octave>4</octave>
                </pitch>
                <duration>16</duration>
                <voice>1</voice>
                <type>quarter</type>
                <stem default-y="-22">up</stem>
            </note>
        </measure>
        <measure number="2" width="241">
            <print new-system="no"/>
            <direction placement="below">
                <direction-type>
                    <wedge type="crescendo" spread="0" default-y="-73"/>
                </direction-type>
            </direction>
            <note default-x="14">
                <rest/>
                <duration>16</duration>
                <voice>1</voice>
                <type>quarter</type>
                <notations>
                    <slur type="start" number="1" placement="below" default-x="7" default-y="-51" bezier-x="28" bezier-y="-71"/>
                </notations>
            </note>
            <note default-x="101">
                <pitch>
                    <step>D</step>
                    <octave>4</octave>
                </pitch>
                <duration>8</duration>
                <voice>1</voice>
                <type>eighth</type>
                <stem default-y="18">up</stem>
                <beam number="1">begin</beam>
                <notations>
                    <slur type="stop" number="1" default-x="-3" default-y="-57" bezier-x="-27" bezier-y="-73"/>
                </notations>
            </note>
            <note default-x="135">
                <pitch>
                    <step>D</step>
                    <octave>5</octave>
                </pitch>
                <duration>8</duration>
                <voice>1</voice>
                <type>eighth</type>
                <stem default-y="18">up</stem>
                <beam number="1">continue</beam>
            </note>
            <note default-x="171">
                <pitch>
                    <step>C</step>
                    <octave>5</octave>
                </pitch>
                <duration>8</duration>
                <voice>1</voice>
                <type>eighth</type>
                <stem default-y="17">up</stem>
                <beam number="1">continue</beam>
            </note>
            <note default-x="204">
                <pitch>
                    <step>A</step>
                    <octave>4</octave>
                </pitch>
                <duration>8</duration>
                <voice>1</voice>
                <type>eighth</type>
                <stem default-y="16">up</stem>
                <beam number="1">end</beam>
            </note>
            <forward>
                <duration>16</duration>
                <voice>1</voice>
            </forward>
        </measure>
        <measure number="3" width="258">
            <print new-system="no"/>
            <direction>
                <direction-type>
                    <wedge type="stop" spread="10"/>
                </direction-type>
            </direction>
            <note default-x="16">
                <pitch>
                    <step>G</step>
                    <octave>4</octave>
                </pitch>
                <duration>16</duration>
                <voice>1</voice>
                <type>quarter</type>
                <stem default-y="0">up</stem>
            </note>
            <note default-x="73">
                <pitch>
                    <step>F</step>
                    <octave>5</octave>
                </pitch>
                <duration>8</duration>
                <voice>1</voice>
                <type>eighth</type>
                <stem default-y="-48">down</stem>
                <beam number="1">begin</beam>
            </note>
            <note default-x="106">
                <pitch>
                    <step>D</step>
                    <alter>-1</alter>
                    <octave>5</octave>
                </pitch>
                <duration>8</duration>
                <voice>1</voice>
                <type>eighth</type>
                <accidental>flat</accidental>
                <stem default-y="-54">down</stem>
                <beam number="1">end</beam>
            </note>
            <note default-x="136">
                <pitch>
                    <step>C</step>
                    <octave>5</octave>
                </pitch>
                <duration>16</duration>
                <voice>1</voice>
                <type>quarter</type>
                <stem default-y="-57">down</stem>
            </note>
            <note default-x="186">
                <pitch>
                    <step>F</step>
                    <octave>4</octave>
                </pitch>
                <duration>8</duration>
                <voice>1</voice>
                <type>eighth</type>
                <stem default-y="4">up</stem>
                <beam number="1">begin</beam>
            </note>
            <note default-x="216">
                <pitch>
                    <step>C</step>
                    <octave>5</octave>
                </pitch>
                <duration>8</duration>
                <voice>1</voice>
                <type>eighth</type>
                <stem default-y="13">up</stem>
                <beam number="1">end</beam>
            </note>
        </measure>
        <measure number="4" width="271">
            <print new-system="no"/>
            <direction placement="below">
                <direction-type>
                    <wedge type="diminuendo" spread="12" default-y="-78"/>
                </direction-type>
            </direction>
            <note default-x="18">
                <pitch>
                    <step>B</step>
                    <alter>-1</alter>
                    <octave>4</octave>
                </pitch>
                <duration>8</duration>
                <voice>1</voice>
                <type>eighth</type>
                <accidental>flat</accidental>
                <stem default-y="10">up</stem>
                <beam number="1">begin</beam>
            </note>
            <note default-x="45">
                <pitch>
                    <step>G</step>
                    <octave>4</octave>
                </pitch>
                <duration>8</duration>
                <voice>1</voice>
                <type>eighth</type>
                <stem default-y="5">up</stem>
                <beam number="1">end</beam>
            </note>
            <note default-x="87">
                <pitch>
                    <step>B</step>
                    <alter>-1</alter>
                    <octave>4</octave>
                </pitch>
                <duration>16</duration>
                <tie type="start"/>
                <voice>1</voice>
                <type>quarter</type>
                <stem default-y="-58">down</stem>
                <notations>
                    <tied type="start" orientation="over" bezier-x="30" bezier-y="-9" default-x="16" default-y="-16"/>
                </notations>
            </note>
            <note default-x="153">
                <pitch>
                    <step>B</step>
                    <alter>-1</alter>
                    <octave>4</octave>
                </pitch>
                <duration>8</duration>
                <tie type="stop"/>
                <voice>1</voice>
                <type>eighth</type>
                <stem default-y="-70">down</stem>
                <beam number="1">begin</beam>
                <notations>
                    <tied type="stop" bezier-x="-19" bezier-y="-10" default-x="-4" default-y="-16"/>
                </notations>
            </note>
            <note default-x="182">
                <pitch>
                    <step>G</step>
                    <octave>4</octave>
                </pitch>
                <duration>8</duration>
                <voice>1</voice>
                <type>eighth</type>
                <stem default-y="-70">down</stem>
                <beam number="1">continue</beam>
            </note>
            <note default-x="207">
                <pitch>
                    <step>D</step>
                    <octave>5</octave>
                </pitch>
                <duration>8</duration>
                <voice>1</voice>
                <type>eighth</type>
                <stem default-y="-70">down</stem>
                <beam number="1">continue</beam>
            </note>
            <direction>
                <direction-type>
                    <wedge type="stop" spread="0"/>
                </direction-type>
            </direction>
            <note default-x="235">
                <pitch>
                    <step>G</step>
                    <octave>4</octave>
                </pitch>
                <duration>8</duration>
                <voice>1</voice>
                <type>eighth</type>
                <stem default-y="-71">down</stem>
                <beam number="1">end</beam>
            </note>
        </measure>
        <measure number="5" width="312">
            <print new-system="yes">
                <system-layout>
                    <system-margins>
                        <left-margin>-18</left-margin>
                        <right-margin>0</right-margin>
                    </system-margins>
                    <system-distance>122</system-distance>
                </system-layout>
            </print>
            <attributes>
                <staff-details print-object="yes"/>
            </attributes>
            <note default-x="89">
                <pitch>
                    <step>B</step>
                    <alter>-1</alter>
                    <octave>4</octave>
                </pitch>
                <duration>8</duration>
                <voice>1</voice>
                <type>eighth</type>
                <accidental>flat</accidental>
                <stem default-y="15">up</stem>
                <beam number="1">begin</beam>
            </note>
            <note default-x="119">
                <pitch>
                    <step>G</step>
                    <octave>4</octave>
                </pitch>
                <duration>8</duration>
                <voice>1</voice>
                <type>eighth</type>
                <stem default-y="9">up</stem>
                <beam number="1">end</beam>
            </note>
            <note default-x="158">
                <pitch>
                    <step>B</step>
                    <alter>-1</alter>
                    <octave>4</octave>
                </pitch>
                <duration>16</duration>
                <tie type="start"/>
                <voice>1</voice>
                <type>quarter</type>
                <stem default-y="-53">down</stem>
                <notations>
                    <tied type="start" orientation="over" bezier-x="25" bezier-y="-6" default-x="12" default-y="-11"/>
                </notations>
            </note>
            <note default-x="205">
                <pitch>
                    <step>B</step>
                    <alter>-1</alter>
                    <octave>4</octave>
                </pitch>
                <duration>8</duration>
                <tie type="stop"/>
                <voice>1</voice>
                <type>eighth</type>
                <stem default-y="-64">down</stem>
                <beam number="1">begin</beam>
                <notations>
                    <tied type="stop" bezier-x="-7" bezier-y="-6" default-x="6" default-y="-12"/>
                </notations>
            </note>
            <note default-x="234">
                <pitch>
                    <step>G</step>
                    <octave>4</octave>
                </pitch>
                <duration>8</duration>
                <voice>1</voice>
                <type>eighth</type>
                <stem default-y="-65">down</stem>
                <beam number="1">continue</beam>
            </note>
            <note default-x="259">
                <pitch>
                    <step>D</step>
                    <octave>5</octave>
                </pitch>
                <duration>8</duration>
                <voice>1</voice>
                <type>eighth</type>
                <stem default-y="-65">down</stem>
                <beam number="1">continue</beam>
            </note>
            <note default-x="282">
                <pitch>
                    <step>G</step>
                    <octave>4</octave>
                </pitch>
                <duration>8</duration>
                <voice>1</voice>
                <type>eighth</type>
                <stem default-y="-64">down</stem>
                <beam number="1">end</beam>
            </note>
        </measure>
        <measure number="6" width="253">
            <print new-system="no"/>
            <note default-x="12">
                <pitch>
                    <step>C</step>
                    <octave>5</octave>
                </pitch>
                <duration>8</duration>
                <voice>1</voice>
                <type>eighth</type>
                <stem default-y="-55">down</stem>
                <beam number="1">begin</beam>
                <notations>
                    <articulations>
                        <staccato default-y="-79" placement="below"/>
                    </articulations>
                </notations>
            </note>
            <note default-x="41">
                <pitch>
                    <step>A</step>
                    <octave>4</octave>
                </pitch>
                <duration>8</duration>
                <voice>1</voice>
                <type>eighth</type>
                <stem default-y="-63">down</stem>
                <beam number="1">end</beam>
            </note>
            <note default-x="73">
                <pitch>
                    <step>C</step>
                    <octave>5</octave>
                </pitch>
                <duration>16</duration>
                <voice>1</voice>
                <type>quarter</type>
                <stem default-y="-54">down</stem>
            </note>
            <note default-x="160">
                <pitch>
                    <step>A</step>
                    <octave>4</octave>
                </pitch>
                <duration>8</duration>
                <voice>1</voice>
                <type>eighth</type>
                <stem default-y="-61">down</stem>
                <beam number="1">begin</beam>
            </note>
            <note default-x="190">
                <pitch>
                    <step>E</step>
                    <octave>5</octave>
                </pitch>
                <duration>8</duration>
                <voice>1</voice>
                <type>eighth</type>
                <stem default-y="-61">down</stem>
                <beam number="1">continue</beam>
            </note>
            <note default-x="219">
                <pitch>
                    <step>A</step>
                    <octave>4</octave>
                </pitch>
                <duration>8</duration>
                <voice>1</voice>
                <type>eighth</type>
                <stem default-y="-60">down</stem>
                <beam number="1">end</beam>
            </note>
            <forward>
                <duration>8</duration>
                <voice>1</voice>
            </forward>
        </measure>
        <measure number="7" width="255">
            <print new-system="no"/>
            <direction placement="below">
                <direction-type>
                    <wedge type="diminuendo" spread="10" default-y="-75"/>
                </direction-type>
            </direction>
            <note default-x="13">
                <pitch>
                    <step>C</step>
                    <octave>5</octave>
                </pitch>
                <duration>8</duration>
                <voice>1</voice>
                <type>eighth</type>
                <stem default-y="-58">down</stem>
                <beam number="1">begin</beam>
            </note>
            <note default-x="41">
                <pitch>
                    <step>A</step>
                    <octave>4</octave>
                </pitch>
                <duration>8</duration>
                <voice>1</voice>
                <type>eighth</type>
                <stem default-y="-65">down</stem>
                <beam number="1">end</beam>
            </note>
            <note default-x="73">
                <pitch>
                    <step>C</step>
                    <octave>5</octave>
                </pitch>
                <duration>16</duration>
                <voice>1</voice>
                <type>quarter</type>
                <stem default-y="-60">down</stem>
            </note>
            <note default-x="159">
                <pitch>
                    <step>A</step>
                    <octave>4</octave>
                </pitch>
                <duration>8</duration>
                <voice>1</voice>
                <type>eighth</type>
                <stem default-y="-65">down</stem>
                <beam number="1">begin</beam>
            </note>
            <note default-x="190">
                <pitch>
                    <step>E</step>
                    <octave>5</octave>
                </pitch>
                <duration>8</duration>
                <voice>1</voice>
                <type>eighth</type>
                <stem default-y="-65">down</stem>
                <beam number="1">continue</beam>
            </note>
            <direction>
                <direction-type>
                    <wedge type="stop" spread="0"/>
                </direction-type>
            </direction>
            <note default-x="220">
                <pitch>
                    <step>A</step>
                    <octave>4</octave>
                </pitch>
                <duration>8</duration>
                <voice>1</voice>
                <type>eighth</type>
                <stem default-y="-64">down</stem>
                <beam number="1">end</beam>
            </note>
            <forward>
                <duration>8</duration>
                <voice>1</voice>
            </forward>
        </measure>
        <measure number="8" width="252">
            <print new-system="no"/>
            <direction placement="below">
                <direction-type>
                    <dynamics default-y="-72" relative-x="-3">
                        <p/>
                    </dynamics>
                </direction-type>
                <sound dynamics="56"/>
            </direction>
            <note default-x="12">
                <pitch>
                    <step>D</step>
                    <octave>5</octave>
                </pitch>
                <duration>8</duration>
                <voice>1</voice>
                <type>eighth</type>
                <stem default-y="-57">down</stem>
                <beam number="1">begin</beam>
            </note>
            <note default-x="40">
                <pitch>
                    <step>B</step>
                    <octave>4</octave>
                </pitch>
                <duration>8</duration>
                <voice>1</voice>
                <type>eighth</type>
                <stem default-y="-64">down</stem>
                <beam number="1">end</beam>
            </note>
            <note default-x="71">
                <pitch>
                    <step>D</step>
                    <octave>5</octave>
                </pitch>
                <duration>16</duration>
                <tie type="start"/>
                <voice>1</voice>
                <type>quarter</type>
                <stem default-y="-54">down</stem>
                <notations>
                    <tied type="start" orientation="over" bezier-x="26" bezier-y="4" default-x="10" default-y="-5"/>
                </notations>
            </note>
            <note default-x="129">
                <pitch>
                    <step>D</step>
                    <octave>5</octave>
                </pitch>
                <duration>8</duration>
                <tie type="stop"/>
                <voice>1</voice>
                <type>eighth</type>
                <stem default-y="-65">down</stem>
                <beam number="1">begin</beam>
                <notations>
                    <tied type="stop" bezier-x="-11" bezier-y="3" default-x="3" default-y="-8"/>
                </notations>
            </note>
            <note default-x="160">
                <pitch>
                    <step>B</step>
                    <octave>4</octave>
                </pitch>
                <duration>8</duration>
                <voice>1</voice>
                <type>eighth</type>
                <stem default-y="-65">down</stem>
                <beam number="1">continue</beam>
            </note>
            <note default-x="194">
                <pitch>
                    <step>F</step>
                    <alter>1</alter>
                    <octave>5</octave>
                </pitch>
                <duration>8</duration>
                <voice>1</voice>
                <type>eighth</type>
                <accidental>sharp</accidental>
                <stem default-y="-65">down</stem>
                <beam number="1">continue</beam>
            </note>
            <note default-x="221">
                <pitch>
                    <step>B</step>
                    <octave>4</octave>
                </pitch>
                <duration>8</duration>
                <voice>1</voice>
                <type>eighth</type>
                <stem default-y="-65">down</stem>
                <beam number="1">end</beam>
            </note>
        </measure>
        <measure number="9" width="243">
            <print new-system="yes">
                <system-layout>
                    <system-margins>
                        <left-margin>-19</left-margin>
                        <right-margin>-1</right-margin>
                    </system-margins>
                    <system-distance>126</system-distance>
                </system-layout>
            </print>
            <attributes>
                <staff-details print-object="yes"/>
            </attributes>
            <note default-x="77">
                <pitch>
                    <step>D</step>
                    <octave>5</octave>
                </pitch>
                <duration>16</duration>
                <voice>1</voice>
                <type>quarter</type>
                <stem default-y="-46">down</stem>
            </note>
            <note default-x="116">
                <pitch>
                    <step>D</step>
                    <octave>5</octave>
                </pitch>
                <duration>8</duration>
                <voice>1</voice>
                <type>eighth</type>
                <stem default-y="-53">down</stem>
                <beam number="1">begin</beam>
            </note>
            <note default-x="141">
                <pitch>
                    <step>B</step>
                    <octave>4</octave>
                </pitch>
                <duration>8</duration>
                <voice>1</voice>
                <type>eighth</type>
                <stem default-y="-55">down</stem>
                <beam number="1">end</beam>
            </note>
            <note default-x="170">
                <pitch>
                    <step>D</step>
                    <octave>5</octave>
                </pitch>
                <duration>24</duration>
                <voice>1</voice>
                <type>quarter</type>
                <dot/>
                <stem default-y="-48">down</stem>
            </note>
            <forward>
                <duration>8</duration>
                <voice>1</voice>
            </forward>
        </measure>
        <measure number="10" width="202">
            <print new-system="no"/>
            <note default-x="23">
                <pitch>
                    <step>F</step>
                    <alter>1</alter>
                    <octave>5</octave>
                </pitch>
                <duration>8</duration>
                <voice>1</voice>
                <type>eighth</type>
                <accidental>sharp</accidental>
                <stem default-y="-52">down</stem>
                <beam number="1">begin</beam>
            </note>
            <note default-x="48">
                <pitch>
                    <step>B</step>
                    <octave>4</octave>
                </pitch>
                <duration>8</duration>
                <voice>1</voice>
                <type>eighth</type>
                <stem default-y="-59">down</stem>
                <beam number="1">end</beam>
            </note>
            <note default-x="71">
                <pitch>
                    <step>D</step>
                    <octave>5</octave>
                </pitch>
                <duration>16</duration>
                <voice>1</voice>
                <type>quarter</type>
                <stem default-y="-47">down</stem>
            </note>
            <note default-x="118">
                <pitch>
                    <step>D</step>
                    <octave>5</octave>
                </pitch>
                <duration>8</duration>
                <voice>1</voice>
                <type>eighth</type>
                <stem default-y="-54">down</stem>
                <beam number="1">begin</beam>
            </note>
            <note default-x="142">
                <pitch>
                    <step>B</step>
                    <octave>4</octave>
                </pitch>
                <duration>8</duration>
                <voice>1</voice>
                <type>eighth</type>
                <stem default-y="-60">down</stem>
                <beam number="1">end</beam>
            </note>
            <note default-x="167">
                <pitch>
                    <step>D</step>
                    <octave>5</octave>
                </pitch>
                <duration>16</duration>
                <tie type="start"/>
                <voice>1</voice>
                <type>quarter</type>
                <stem default-y="-53">down</stem>
                <notations>
                    <tied type="start" orientation="over" bezier-x="19" bezier-y="9" default-x="7" default-y="2"/>
                </notations>
            </note>
        </measure>
        <measure number="11" width="171">
            <print new-system="no"/>
            <note default-x="13">
                <pitch>
                    <step>D</step>
                    <octave>5</octave>
                </pitch>
                <duration>8</duration>
                <tie type="stop"/>
                <voice>1</voice>
                <type>eighth</type>
                <stem default-y="-58">down</stem>
                <beam number="1">begin</beam>
                <notations>
                    <tied type="stop" bezier-x="-13" bezier-y="9" default-x="0" default-y="1"/>
                </notations>
            </note>
            <note default-x="39">
                <pitch>
                    <step>B</step>
                    <octave>4</octave>
                </pitch>
                <duration>8</duration>
                <voice>1</voice>
                <type>eighth</type>
                <stem default-y="-59">down</stem>
                <beam number="1">continue</beam>
            </note>
            <note default-x="70">
                <pitch>
                    <step>F</step>
                    <alter>1</alter>
                    <octave>5</octave>
                </pitch>
                <duration>8</duration>
                <voice>1</voice>
                <type>eighth</type>
                <accidental>sharp</accidental>
                <stem default-y="-59">down</stem>
                <beam number="1">continue</beam>
            </note>
            <note default-x="93">
                <pitch>
                    <step>B</step>
                    <octave>4</octave>
                </pitch>
                <duration>8</duration>
                <voice>1</voice>
                <type>eighth</type>
                <stem default-y="-59">down</stem>
                <beam number="1">end</beam>
            </note>
            <note default-x="122">
                <rest/>
                <duration>16</duration>
                <voice>1</voice>
                <type>quarter</type>
                <notations>
                    <slur type="start" number="1" placement="above" default-x="12" default-y="0" bezier-x="32" bezier-y="11"/>
                </notations>
            </note>
            <forward>
                <duration>16</duration>
                <voice>1</voice>
            </forward>
        </measure>
        <measure number="12" width="168">
            <print new-system="no"/>
            <direction placement="below">
                <direction-type>
                    <dynamics default-y="-68" relative-x="-12">
                        <mf/>
                    </dynamics>
                </direction-type>
                <sound dynamics="89"/>
            </direction>
            <note default-x="25">
                <pitch>
                    <step>D</step>
                    <alter>1</alter>
                    <octave>5</octave>
                </pitch>
                <duration>16</duration>
                <voice>1</voice>
                <type>quarter</type>
                <accidental>sharp</accidental>
                <stem default-y="-51">down</stem>
                <notations>
                    <slur type="stop" number="1" default-x="2" default-y="-2" bezier-x="-17" bezier-y="10"/>
                </notations>
            </note>
            <note default-x="63">
                <rest/>
                <duration>16</duration>
                <voice>1</voice>
                <type>quarter</type>
            </note>
            <note default-x="125">
                <pitch>
                    <step>C</step>
                    <octave>5</octave>
                </pitch>
                <duration>32</duration>
                <voice>1</voice>
                <type>half</type>
                <stem default-y="-2">up</stem>
            </note>
        </measure>
        <measure number="13" width="165">
            <print new-system="no"/>
            <note default-x="2">
                <rest/>
                <duration>8</duration>
                <voice>1</voice>
                <type>eighth</type>
            </note>
            <note default-x="42">
                <pitch>
                    <step>G</step>
                    <octave>5</octave>
                </pitch>
                <duration>8</duration>
                <voice>1</voice>
                <type>eighth</type>
                <stem default-y="24">up</stem>
                <beam number="1">begin</beam>
                <beam number="2">begin</beam>
            </note>
            <note default-x="75">
                <rest/>
                <duration>16</duration>
                <voice>1</voice>
                <type>quarter</type>
            </note>
            <forward>
                <duration>32</duration>
                <voice>1</voice>
            </forward>
            <backup>
                <duration>64</duration>
            </backup>
            <forward>
                <duration>16</duration>
                <voice>2</voice>
            </forward>
            <note default-x="71">
                <pitch>
                    <step>D</step>
                    <octave>4</octave>
                </pitch>
                <duration>128</duration>
                <voice>2</voice>
                <type>breve</type>
            </note>
        </measure>
        <measure number="14" width="125">
            <print new-system="no"/>
            <attributes>
                <time symbol="cut">
                    <beats>2</beats>
                    <beat-type>2</beat-type>
                </time>
            </attributes>
            <note default-x="9">
                <rest/>
                <duration>8</duration>
                <voice>1</voice>
                <type>eighth</type>
            </note>
            <note default-x="47">
                <pitch>
                    <step>D</step>
                    <octave>4</octave>
                </pitch>
                <duration>128</duration>
                <voice>1</voice>
                <type>breve</type>
            </note>
        </measure>
        <measure number="15" width="198">
            <print new-system="yes">
                <system-layout>
                    <system-margins>
                        <left-margin>-20</left-margin>
                        <right-margin>0</right-margin>
                    </system-margins>
                    <system-distance>119</system-distance>
                </system-layout>
            </print>
            <attributes>
                <time>
                    <beats>2</beats>
                    <beat-type>4</beat-type>
                </time>
                <staff-details print-object="yes"/>
            </attributes>
            <direction placement="below">
                <direction-type>
                    <wedge type="crescendo" spread="0" default-y="-54"/>
                </direction-type>
            </direction>
            <direction>
                <direction-type>
                    <wedge type="stop" spread="35"/>
                </direction-type>
            </direction>
            <note default-x="70">
                <rest/>
                <duration>16</duration>
                <voice>1</voice>
                <type>quarter</type>
            </note>
            <forward>
                <duration>16</duration>
                <voice>1</voice>
            </forward>
        </measure>
        <measure number="16" width="163">
            <print new-system="no"/>
            <note default-x="18">
                <rest/>
                <duration>16</duration>
                <voice>1</voice>
                <type>quarter</type>
            </note>
            <note default-x="89">
                <rest/>
                <duration>16</duration>
                <voice>1</voice>
                <type>quarter</type>
            </note>
            <backup>
                <duration>32</duration>
            </backup>
            <forward>
                <duration>16</duration>
                <voice>2</voice>
            </forward>
            <direction placement="below">
                <direction-type>
                    <dynamics default-y="-81" relative-x="11">
                        <mf/>
                    </dynamics>
                </direction-type>
                <sound dynamics="89"/>
            </direction>
            <note default-x="90">
                <rest/>
                <duration>8</duration>
                <voice>2</voice>
                <type>eighth</type>
            </note>
            <note default-x="126">
                <pitch>
                    <step>G</step>
                    <octave>3</octave>
                </pitch>
                <duration>16</duration>
                <voice>2</voice>
                <type>quarter</type>
                <stem default-y="-21">up</stem>
                <notations>
                    <slur type="start" number="1" placement="above" default-x="14" default-y="-10" bezier-x="93" bezier-y="17"/>
                </notations>
            </note>
        </measure>
        <measure number="17" width="206">
            <print new-system="no"/>
            <direction placement="below">
                <direction-type>
                    <wedge type="crescendo" spread="0" default-y="-62"/>
                </direction-type>
            </direction>
            <note default-x="24">
                <pitch>
                    <step>E</step>
                    <alter>-1</alter>
                    <octave>4</octave>
                </pitch>
                <duration>16</duration>
                <voice>1</voice>
                <type>quarter</type>
                <accidental>flat</accidental>
                <stem default-y="-8">up</stem>
            </note>
            <note default-x="55">
                <pitch>
                    <step>G</step>
                    <octave>4</octave>
                </pitch>
                <duration>16</duration>
                <voice>1</voice>
                <type>quarter</type>
                <stem default-y="3">up</stem>
            </note>
            <direction>
                <direction-type>
                    <wedge type="stop" spread="9"/>
                </direction-type>
            </direction>
            <note default-x="98">
                <pitch>
                    <step>G</step>
                    <octave>5</octave>
                </pitch>
                <duration>24</duration>
                <voice>1</voice>
                <type>quarter</type>
                <dot/>
                <stem default-y="-35">down</stem>
            </note>
            <note default-x="148">
                <pitch>
                    <step>F</step>
                    <octave>5</octave>
                </pitch>
                <duration>4</duration>
                <voice>1</voice>
                <type>16th</type>
                <stem default-y="-46">down</stem>
                <beam number="1">begin</beam>
                <beam number="2">begin</beam>
            </note>
            <note default-x="176">
                <pitch>
                    <step>E</step>
                    <alter>-1</alter>
                    <octave>5</octave>
                </pitch>
                <duration>4</duration>
                <voice>1</voice>
                <type>16th</type>
                <accidental>flat</accidental>
                <stem default-y="-46">down</stem>
                <beam number="1">end</beam>
                <beam number="2">end</beam>
            </note>
        </measure>
        <measure number="18" width="151">
            <print new-system="no"/>
            <note default-x="11">
                <rest/>
                <duration>16</duration>
                <voice>1</voice>
                <type>quarter</type>
                <notations>
                    <slur type="stop" number="1" default-x="4" default-y="8" bezier-x="-77" bezier-y="23"/>
                </notations>
            </note>
            <note default-x="75">
                <rest/>
                <duration>16</duration>
                <voice>1</voice>
                <type>quarter</type>
            </note>
            <note default-x="109">
                <pitch>
                    <step>G</step>
                    <octave>3</octave>
                </pitch>
                <duration>16</duration>
                <voice>1</voice>
                <type>quarter</type>
                <stem default-y="-25">up</stem>
                <notations>
                    <slur type="start" number="1" placement="above" default-x="14" default-y="-3" bezier-x="94" bezier-y="19"/>
                </notations>
            </note>
        </measure>
        <measure number="19" width="203">
            <print new-system="no"/>
            <note default-x="20">
                <pitch>
                    <step>E</step>
                    <alter>-1</alter>
                    <octave>4</octave>
                </pitch>
                <duration>16</duration>
                <voice>1</voice>
                <type>quarter</type>
                <accidental>flat</accidental>
                <stem default-y="-12">up</stem>
            </note>
            <note default-x="56">
                <pitch>
                    <step>G</step>
                    <octave>4</octave>
                </pitch>
                <duration>16</duration>
                <voice>1</voice>
                <type>quarter</type>
                <stem default-y="-4">up</stem>
            </note>
            <note default-x="100">
                <pitch>
                    <step>G</step>
                    <octave>5</octave>
                </pitch>
                <duration>24</duration>
                <voice>1</voice>
                <type>quarter</type>
                <dot/>
                <stem default-y="-38">down</stem>
            </note>
            <note default-x="145">
                <pitch>
                    <step>F</step>
                    <octave>5</octave>
                </pitch>
                <duration>4</duration>
                <voice>1</voice>
                <type>16th</type>
                <stem default-y="-48">down</stem>
                <beam number="1">begin</beam>
                <beam number="2">begin</beam>
            </note>
            <note default-x="172">
                <pitch>
                    <step>E</step>
                    <alter>-1</alter>
                    <octave>5</octave>
                </pitch>
                <duration>4</duration>
                <voice>1</voice>
                <type>16th</type>
                <accidental>flat</accidental>
                <stem default-y="-49">down</stem>
                <beam number="1">end</beam>
                <beam number="2">end</beam>
            </note>
        </measure>
        <measure number="20" width="153">
            <print new-system="no"/>
            <note default-x="13">
                <rest/>
                <duration>16</duration>
                <voice>1</voice>
                <type>quarter</type>
                <notations>
                    <slur type="stop" number="1" default-x="2" default-y="6" bezier-x="-80" bezier-y="22"/>
                </notations>
            </note>
            <direction placement="below">
                <direction-type>
                    <dynamics default-y="-79" relative-x="6">
                        <f/>
                    </dynamics>
                </direction-type>
                <sound dynamics="100"/>
            </direction>
            <note default-x="68">
                <rest/>
                <duration>1</duration>
                <voice>1</voice>
                <type>64th</type>
            </note>
            <note default-x="102">
                <pitch>
                    <step>G</step>
                    <octave>3</octave>
                </pitch>
                <duration>16</duration>
                <voice>1</voice>
                <type>quarter</type>
                <stem default-y="-27">up</stem>
            </note>
        </measure>
        <measure number="21" width="238">
            <print new-system="yes">
                <system-layout>
                    <system-margins>
                        <left-margin>-23</left-margin>
                        <right-margin>3</right-margin>
                    </system-margins>
                    <system-distance>148</system-distance>
                </system-layout>
            </print>
            <attributes>
                <staff-details print-object="yes"/>
            </attributes>
            <note default-x="76">
                <pitch>
                    <step>E</step>
                    <alter>-1</alter>
                    <octave>4</octave>
                </pitch>
                <duration>16</duration>
                <voice>1</voice>
                <type>quarter</type>
                <accidental>flat</accidental>
                <stem default-y="-8">up</stem>
            </note>
            <note default-x="112">
                <pitch>
                    <step>G</step>
                    <octave>4</octave>
                </pitch>
                <duration>16</duration>
                <voice>1</voice>
                <type>quarter</type>
                <stem default-y="3">up</stem>
            </note>
            <note default-x="163">
                <pitch>
                    <step>B</step>
                    <alter>-1</alter>
                    <octave>5</octave>
                </pitch>
                <duration>24</duration>
                <voice>1</voice>
                <type>quarter</type>
                <dot/>
                <accidental>flat</accidental>
                <stem default-y="-25">down</stem>
            </note>
            <note default-x="211">
                <pitch>
                    <step>A</step>
                    <alter>-1</alter>
                    <octave>5</octave>
                </pitch>
                <duration>8</duration>
                <voice>1</voice>
                <type>eighth</type>
                <accidental>flat</accidental>
                <stem default-y="-21">down</stem>
            </note>
        </measure>
        <measure number="22" width="210">
            <print new-system="no"/>
            <note default-x="14">
                <pitch>
                    <step>G</step>
                    <octave>5</octave>
                </pitch>
                <duration>24</duration>
                <voice>1</voice>
                <type>quarter</type>
                <dot/>
                <stem default-y="-36">down</stem>
            </note>
            <note default-x="57">
                <rest/>
                <duration>1</duration>
                <voice>1</voice>
                <type>64th</type>
            </note>
            <note default-x="89">
                <pitch>
                    <step>E</step>
                    <alter>-1</alter>
                    <octave>5</octave>
                </pitch>
                <duration>16</duration>
                <voice>1</voice>
                <type>quarter</type>
                <accidental>flat</accidental>
                <stem default-y="-47">down</stem>
            </note>
            <note default-x="137">
                <pitch>
                    <step>D</step>
                    <octave>5</octave>
                </pitch>
                <duration>8</duration>
                <voice>1</voice>
                <type>eighth</type>
                <stem default-y="-55">down</stem>
                <beam number="1">begin</beam>
            </note>
            <note default-x="168">
                <pitch>
                    <step>C</step>
                    <octave>5</octave>
                </pitch>
                <duration>8</duration>
                <voice>1</voice>
                <type>eighth</type>
                <stem default-y="-57">down</stem>
                <beam number="1">end</beam>
            </note>
        </measure>
        <measure number="23" width="190">
            <print new-system="no"/>
            <direction placement="below">
                <direction-type>
                    <dynamics default-y="-66" relative-x="17">
                        <f/>
                    </dynamics>
                </direction-type>
                <sound dynamics="100"/>
            </direction>
            <note default-x="63">
                <rest/>
                <duration>16</duration>
                <voice>1</voice>
                <type>quarter</type>
            </note>
            <direction placement="below">
                <direction-type>
                    <wedge type="crescendo" spread="0" default-y="-72"/>
                </direction-type>
            </direction>
            <note default-x="102">
                <pitch>
                    <step>B</step>
                    <octave>3</octave>
                </pitch>
                <duration>16</duration>
                <voice>1</voice>
                <type>quarter</type>
                <stem default-y="-25">up</stem>
            </note>
            <note default-x="145">
                <pitch>
                    <step>D</step>
                    <alter>1</alter>
                    <octave>4</octave>
                </pitch>
                <duration>16</duration>
                <voice>1</voice>
                <type>quarter</type>
                <accidental>sharp</accidental>
                <stem default-y="-16">up</stem>
            </note>
        </measure>
        <measure number="24" width="230">
            <print new-system="no"/>
            <note default-x="14">
                <pitch>
                    <step>B</step>
                    <octave>4</octave>
                </pitch>
                <duration>16</duration>
                <voice>1</voice>
                <type>quarter</type>
                <stem default-y="-54">down</stem>
            </note>
            <note default-x="58">
                <pitch>
                    <step>D</step>
                    <alter>1</alter>
                    <octave>5</octave>
                </pitch>
                <duration>16</duration>
                <voice>1</voice>
                <type>quarter</type>
                <accidental>sharp</accidental>
                <stem default-y="-50">down</stem>
            </note>
            <direction>
                <direction-type>
                    <wedge type="stop" spread="10"/>
                </direction-type>
            </direction>
            <note default-x="100">
                <pitch>
                    <step>B</step>
                    <octave>5</octave>
                </pitch>
                <duration>24</duration>
                <voice>1</voice>
                <type>quarter</type>
                <dot/>
                <stem default-y="-30">down</stem>
            </note>
            <note default-x="159">
                <pitch>
                    <step>A</step>
                    <octave>5</octave>
                </pitch>
                <duration>4</duration>
                <voice>1</voice>
                <type>16th</type>
                <stem default-y="-40">down</stem>
                <beam number="1">begin</beam>
                <beam number="2">begin</beam>
            </note>
            <note default-x="186">
                <pitch>
                    <step>G</step>
                    <octave>5</octave>
                </pitch>
                <duration>4</duration>
                <voice>1</voice>
                <type>16th</type>
                <accidental>natural</accidental>
                <stem default-y="-41">down</stem>
                <beam number="1">end</beam>
                <beam number="2">end</beam>
            </note>
        </measure>
        <measure number="25" width="207">
            <print new-system="no"/>
            <note default-x="25">
                <pitch>
                    <step>F</step>
                    <alter>1</alter>
                    <octave>5</octave>
                </pitch>
                <duration>16</duration>
                <voice>1</voice>
                <type>quarter</type>
                <accidental>sharp</accidental>
                <stem default-y="-42">down</stem>
            </note>
            <note default-x="68">
                <pitch>
                    <step>D</step>
                    <octave>5</octave>
                </pitch>
                <duration>16</duration>
                <voice>1</voice>
                <type>quarter</type>
                <stem default-y="-52">down</stem>
            </note>
            <note default-x="119">
                <pitch>
                    <step>C</step>
                    <alter>1</alter>
                    <octave>5</octave>
                </pitch>
                <duration>16</duration>
                <voice>1</voice>
                <type>quarter</type>
                <accidental>sharp</accidental>
                <stem default-y="-57">down</stem>
            </note>
            <note default-x="161">
                <pitch>
                    <step>B</step>
                    <octave>4</octave>
                </pitch>
                <duration>16</duration>
                <voice>1</voice>
                <type>quarter</type>
                <stem default-y="-63">down</stem>
            </note>
        </measure>
        <measure number="26" width="195">
            <print new-system="yes">
                <system-layout>
                    <system-margins>
                        <left-margin>-22</left-margin>
                        <right-margin>3</right-margin>
                    </system-margins>
                    <system-distance>121</system-distance>
                </system-layout>
            </print>
            <attributes>
                <staff-details print-object="yes"/>
            </attributes>
            <note default-x="130">
                <pitch>
                    <step>B</step>
                    <alter>-1</alter>
                    <octave>4</octave>
                </pitch>
                <duration>16</duration>
                <voice>1</voice>
                <type>quarter</type>
                <accidental>flat</accidental>
                <stem default-y="-54">down</stem>
                <notations>
                    <arpeggiate relative-x="-40"/>
                </notations>
            </note>
            <note default-x="165">
                <pitch>
                    <step>C</step>
                    <octave>5</octave>
                </pitch>
                <duration>16</duration>
                <voice>1</voice>
                <type>quarter</type>
                <accidental>natural</accidental>
                <stem default-y="-49">down</stem>
            </note>
        </measure>
        <measure number="27" width="142">
            <print new-system="no"/>
            <attributes>
                <key>
                    <fifths>-3</fifths>
                </key>
            </attributes>
            <note default-x="84">
                <pitch>
                    <step>E</step>
                    <alter>-1</alter>
                    <octave>5</octave>
                </pitch>
                <duration>32</duration>
                <voice>1</voice>
                <type>half</type>
                <accidental>flat</accidental>
                <notations>
                    <arpeggiate relative-x="0"/>
                </notations>
            </note>
        </measure>
        <measure number="28" width="163">
            <print new-system="no"/>
            <note default-x="12">
                <pitch>
                    <step>F</step>
                    <octave>5</octave>
                </pitch>
                <duration>16</duration>
                <voice>1</voice>
                <type>quarter</type>
                <stem default-y="-39">down</stem>
            </note>
            <note default-x="46">
                <pitch>
                    <step>G</step>
                    <octave>5</octave>
                </pitch>
                <duration>16</duration>
                <voice>1</voice>
                <type>quarter</type>
                <accidental>natural</accidental>
                <stem default-y="-37">down</stem>
                <notations>
                    <slur type="start" number="1" placement="above" default-x="24" default-y="25" bezier-x="62" bezier-y="28"/>
                </notations>
            </note>
            <note default-x="81">
                <pitch>
                    <step>A</step>
                    <alter>-1</alter>
                    <octave>5</octave>
                </pitch>
                <duration>16</duration>
                <voice>1</voice>
                <type>quarter</type>
                <accidental>flat</accidental>
                <stem default-y="-34">down</stem>
            </note>
            <direction placement="below">
                <direction-type>
                    <dynamics default-y="-64" relative-x="45">
                        <p/>
                    </dynamics>
                </direction-type>
                <sound dynamics="56"/>
            </direction>
            <note default-x="118">
                <pitch>
                    <step>F</step>
                    <octave>5</octave>
                </pitch>
                <duration>16</duration>
                <voice>1</voice>
                <type>quarter</type>
                <stem default-y="-37">down</stem>
            </note>
        </measure>
        <measure number="29" width="177">
            <print new-system="no"/>
            <note default-x="12">
                <pitch>
                    <step>C</step>
                    <octave>5</octave>
                </pitch>
                <duration>16</duration>
                <voice>1</voice>
                <type>quarter</type>
                <stem default-y="-54">down</stem>
                <notations>
                    <slur type="stop" number="1" default-x="5" default-y="4" bezier-x="-29" bezier-y="20"/>
                </notations>
            </note>
            <note default-x="43">
                <pitch>
                    <step>G</step>
                    <octave>5</octave>
                </pitch>
                <duration>8</duration>
                <voice>1</voice>
                <type>eighth</type>
                <stem default-y="-49">down</stem>
                <beam number="1">begin</beam>
            </note>
            <note default-x="63">
                <pitch>
                    <step>C</step>
                    <octave>5</octave>
                </pitch>
                <duration>8</duration>
                <voice>1</voice>
                <type>eighth</type>
                <stem default-y="-57">down</stem>
                <beam number="1">end</beam>
            </note>
            <note default-x="89">
                <pitch>
                    <step>C</step>
                    <octave>5</octave>
                </pitch>
                <duration>16</duration>
                <voice>1</voice>
                <type>quarter</type>
                <stem default-y="-56">down</stem>
                <notations>
                    <articulations>
                        <staccato default-y="-1" placement="above"/>
                    </articulations>
                </notations>
            </note>
            <note default-x="127">
                <pitch>
                    <step>G</step>
                    <octave>4</octave>
                </pitch>
                <duration>16</duration>
                <voice>1</voice>
                <type>quarter</type>
                <stem default-y="-1">up</stem>
                <notations>
                    <articulations>
                        <staccato default-y="-54" placement="below"/>
                    </articulations>
                </notations>
            </note>
        </measure>
        <measure number="30" width="180">
            <print new-system="no"/>
            <note default-x="13">
                <rest/>
                <duration>16</duration>
                <voice>1</voice>
                <type>quarter</type>
                <notations>
                    <slur type="start" number="1" placement="above" default-x="20" default-y="-17" bezier-x="36" bezier-y="-11"/>
                </notations>
            </note>
            <note default-x="79">
                <pitch>
                    <step>A</step>
                    <alter>-1</alter>
                    <octave>4</octave>
                </pitch>
                <duration>8</duration>
                <voice>1</voice>
                <type>eighth</type>
                <stem default-y="-63">down</stem>
                <beam number="1">begin</beam>
                <notations>
                    <slur type="stop" number="1" default-x="1" default-y="-22" bezier-x="-13" bezier-y="-13"/>
                </notations>
            </note>
            <note default-x="102">
                <pitch>
                    <step>A</step>
                    <alter>-1</alter>
                    <octave>5</octave>
                </pitch>
                <duration>8</duration>
                <voice>1</voice>
                <type>eighth</type>
                <stem default-y="-60">down</stem>
                <beam number="1">continue</beam>
            </note>
            <note default-x="129">
                <pitch>
                    <step>G</step>
                    <octave>5</octave>
                </pitch>
                <duration>8</duration>
                <voice>1</voice>
                <type>eighth</type>
                <stem default-y="-58">down</stem>
                <beam number="1">continue</beam>
            </note>
            <note default-x="152">
                <pitch>
                    <step>E</step>
                    <alter>-1</alter>
                    <octave>5</octave>
                </pitch>
                <duration>8</duration>
                <voice>1</voice>
                <type>eighth</type>
                <stem default-y="-55">down</stem>
                <beam number="1">end</beam>
            </note>
        </measure>
        <measure number="31" width="215">
            <print new-system="no"/>
            <note default-x="12">
                <pitch>
                    <step>D</step>
                    <octave>5</octave>
                </pitch>
                <duration>16</duration>
                <voice>1</voice>
                <type>quarter</type>
                <stem default-y="-52">down</stem>
                <notations>
                    <articulations>
                        <staccato default-y="-2" placement="above"/>
                    </articulations>
                </notations>
            </note>
            <note default-x="43">
                <pitch>
                    <step>C</step>
                    <octave>6</octave>
                </pitch>
                <duration>8</duration>
                <voice>1</voice>
                <type>eighth</type>
                <stem default-y="-32">down</stem>
                <beam number="1">begin</beam>
            </note>
            <note default-x="60">
                <pitch>
                    <step>A</step>
                    <alter>-1</alter>
                    <octave>5</octave>
                </pitch>
                <duration>16</duration>
                <voice>1</voice>
                <type>quarter</type>
                <stem default-y="-35">down</stem>
                <beam number="1">end</beam>
                <notations>
                    <arpeggiate relative-x="0"/>
                </notations>
            </note>
            <note default-x="71">
                <chord/>
                <pitch>
                    <step>A</step>
                    <alter>-1</alter>
                    <octave>5</octave>
                </pitch>
                <duration>16</duration>
                <voice>1</voice>
                <type>eighth</type>
                <stem default-y="-35">down</stem>
                <beam number="1">end</beam>
                <notations>
                    <arpeggiate relative-x="-11"/>
                </notations>
            </note>
            <note default-x="99">
                <pitch>
                    <step>G</step>
                    <octave>5</octave>
                </pitch>
                <duration>16</duration>
                <voice>1</voice>
                <type>quarter</type>
                <stem default-y="-41">down</stem>
            </note>
            <note default-x="145">
                <pitch>
                    <step>C</step>
                    <octave>5</octave>
                </pitch>
                <duration>8</duration>
                <voice>1</voice>
                <type>eighth</type>
                <stem default-y="-59">down</stem>
                <beam number="1">begin</beam>
            </note>
            <note default-x="171">
                <pitch>
                    <step>G</step>
                    <octave>5</octave>
                </pitch>
                <duration>8</duration>
                <voice>1</voice>
                <type>eighth</type>
                <stem default-y="-52">down</stem>
                <beam number="1">end</beam>
            </note>
        </measure>
        <measure number="32" width="304">
            <print new-system="yes">
                <system-layout>
                    <system-margins>
                        <left-margin>-23</left-margin>
                        <right-margin>5</right-margin>
                    </system-margins>
                    <system-distance>122</system-distance>
                </system-layout>
            </print>
            <attributes>
                <staff-details print-object="yes"/>
            </attributes>
            <note default-x="74">
                <pitch>
                    <step>F</step>
                    <octave>5</octave>
                </pitch>
                <duration>8</duration>
                <voice>1</voice>
                <type>eighth</type>
                <stem default-y="-47">down</stem>
                <beam number="1">begin</beam>
            </note>
            <note default-x="106">
                <pitch>
                    <step>D</step>
                    <octave>5</octave>
                </pitch>
                <duration>8</duration>
                <voice>1</voice>
                <type>eighth</type>
                <stem default-y="-52">down</stem>
                <beam number="1">end</beam>
            </note>
            <note default-x="137">
                <pitch>
                    <step>F</step>
                    <octave>5</octave>
                </pitch>
                <duration>16</duration>
                <tie type="start"/>
                <voice>1</voice>
                <type>quarter</type>
                <stem default-y="-36">down</stem>
                <notations>
                    <tied type="start" orientation="over" bezier-x="20" bezier-y="15" default-x="8" default-y="6"/>
                </notations>
            </note>
            <note default-x="182">
                <pitch>
                    <step>F</step>
                    <octave>5</octave>
                </pitch>
                <duration>8</duration>
                <tie type="stop"/>
                <voice>1</voice>
                <type>eighth</type>
                <stem default-y="-50">down</stem>
                <beam number="1">begin</beam>
                <notations>
                    <tied type="stop" bezier-x="-8" bezier-y="15" default-x="4" default-y="6"/>
                </notations>
            </note>
            <note default-x="212">
                <pitch>
                    <step>D</step>
                    <octave>5</octave>
                </pitch>
                <duration>8</duration>
                <voice>1</voice>
                <type>eighth</type>
                <stem default-y="-51">down</stem>
                <beam number="1">continue</beam>
            </note>
            <note default-x="243">
                <pitch>
                    <step>A</step>
                    <octave>5</octave>
                </pitch>
                <duration>8</duration>
                <voice>1</voice>
                <type>eighth</type>
                <accidental>natural</accidental>
                <stem default-y="-51">down</stem>
                <beam number="1">continue</beam>
            </note>
            <note default-x="270">
                <pitch>
                    <step>D</step>
                    <octave>5</octave>
                </pitch>
                <duration>8</duration>
                <voice>1</voice>
                <type>eighth</type>
                <stem default-y="-50">down</stem>
                <beam number="1">end</beam>
            </note>
        </measure>
        <measure number="33" width="185">
            <print new-system="no"/>
            <note default-x="11">
                <pitch>
                    <step>G</step>
                    <octave>5</octave>
                </pitch>
                <duration>16</duration>
                <voice>1</voice>
                <type>quarter</type>
                <stem default-y="-35">down</stem>
            </note>
            <note default-x="53">
                <pitch>
                    <step>C</step>
                    <octave>5</octave>
                </pitch>
                <duration>8</duration>
                <voice>1</voice>
                <type>eighth</type>
                <stem default-y="-61">down</stem>
                <beam number="1">begin</beam>
            </note>
            <note default-x="79">
                <pitch>
                    <step>A</step>
                    <alter>-1</alter>
                    <octave>4</octave>
                </pitch>
                <duration>8</duration>
                <voice>1</voice>
                <type>eighth</type>
                <stem default-y="-66">down</stem>
                <beam number="1">end</beam>
            </note>
            <note default-x="110">
                <pitch>
                    <step>C</step>
                    <octave>5</octave>
                </pitch>
                <duration>16</duration>
                <voice>1</voice>
                <type>quarter</type>
                <stem default-y="-55">down</stem>
            </note>
            <note default-x="150">
                <pitch>
                    <step>D</step>
                    <octave>5</octave>
                </pitch>
                <duration>16</duration>
                <voice>1</voice>
                <type>quarter</type>
                <stem default-y="-50">down</stem>
                <notations>
                    <articulations>
                        <strong-accent type="up" default-y="12" placement="above"/>
                    </articulations>
                </notations>
            </note>
        </measure>
        <measure number="34" width="187">
            <print new-system="no"/>
            <direction placement="below">
                <direction-type>
                    <dynamics default-y="-70" relative-x="-60">
                        <p/>
                    </dynamics>
                </direction-type>
                <sound dynamics="56"/>
            </direction>
            <note default-x="68">
                <pitch>
                    <step>C</step>
                    <octave>5</octave>
                </pitch>
                <duration>8</duration>
                <voice>1</voice>
                <type>eighth</type>
                <stem default-y="-61">down</stem>
                <beam number="1">begin</beam>
                <notations>
                    <arpeggiate relative-x="-53"/>
                    <articulations>
                        <accent default-y="10" placement="above"/>
                    </articulations>
                </notations>
            </note>
            <note default-x="94">
                <pitch>
                    <step>B</step>
                    <alter>-1</alter>
                    <octave>4</octave>
                </pitch>
                <duration>8</duration>
                <voice>1</voice>
                <type>eighth</type>
                <stem default-y="-62">down</stem>
                <beam number="1">continue</beam>
                <notations>
                    <slur type="start" number="1" placement="above" default-x="10" default-y="-11" bezier-x="133" bezier-y="26"/>
                </notations>
            </note>
            <note default-x="121">
                <pitch>
                    <step>C</step>
                    <octave>5</octave>
                </pitch>
                <duration>8</duration>
                <voice>1</voice>
                <type>eighth</type>
                <stem default-y="-62">down</stem>
                <beam number="1">continue</beam>
            </note>
            <note default-x="149">
                <pitch>
                    <step>D</step>
                    <octave>5</octave>
                </pitch>
                <duration>8</duration>
                <voice>1</voice>
                <type>eighth</type>
                <stem default-y="-62">down</stem>
                <beam number="1">end</beam>
            </note>
        </measure>
        <measure number="35" width="182">
            <print new-system="no"/>
            <note default-x="20">
                <pitch>
                    <step>E</step>
                    <alter>-1</alter>
                    <octave>5</octave>
                </pitch>
                <duration>16</duration>
                <voice>1</voice>
                <type>quarter</type>
                <accidental>flat</accidental>
                <stem default-y="-46">down</stem>
            </note>
            <note default-x="65">
                <pitch>
                    <step>F</step>
                    <octave>5</octave>
                </pitch>
                <duration>16</duration>
                <voice>1</voice>
                <type>quarter</type>
                <stem default-y="-42">down</stem>
            </note>
            <note default-x="100">
                <rest/>
                <duration>12</duration>
                <voice>1</voice>
                <type>eighth</type>
                <dot/>
            </note>
            <backup>
                <duration>44</duration>
            </backup>
            <forward>
                <duration>32</duration>
                <voice>2</voice>
            </forward>
            <direction placement="below">
                <direction-type>
                    <wedge type="diminuendo" spread="10" default-y="-64"/>
                </direction-type>
            </direction>
            <note default-x="115">
                <rest/>
                <duration>4</duration>
                <voice>2</voice>
                <type>16th</type>
            </note>
        </measure>
        <measure number="36" width="215">
            <print new-system="no"/>
            <note default-x="11">
                <pitch>
                    <step>F</step>
                    <octave>5</octave>
                </pitch>
                <duration>16</duration>
                <voice>1</voice>
                <type>quarter</type>
                <stem default-y="-42">down</stem>
            </note>
            <direction>
                <direction-type>
                    <wedge type="stop" spread="0"/>
                </direction-type>
            </direction>
            <note default-x="63">
                <pitch>
                    <step>D</step>
                    <alter>-1</alter>
                    <octave>5</octave>
                </pitch>
                <duration>16</duration>
                <voice>1</voice>
                <type>quarter</type>
                <accidental>flat</accidental>
                <stem default-y="-56">down</stem>
            </note>
            <direction placement="below">
                <direction-type>
                    <wedge type="diminuendo" spread="27" default-y="-89"/>
                </direction-type>
            </direction>
            <direction>
                <direction-type>
                    <wedge type="stop" spread="0"/>
                </direction-type>
            </direction>
            <direction placement="below">
                <direction-type>
                    <wedge type="crescendo" spread="0" default-y="-68"/>
                </direction-type>
            </direction>
            <direction>
                <direction-type>
                    <wedge type="stop" spread="8"/>
                </direction-type>
            </direction>
            <note default-x="116">
                <pitch>
                    <step>C</step>
                    <octave>5</octave>
                </pitch>
                <duration>32</duration>
                <tie type="start"/>
                <voice>1</voice>
                <type>half</type>
                <stem default-y="-60">down</stem>
                <notations>
                    <slur type="stop" number="1" default-x="0" default-y="5" bezier-x="-126" bezier-y="32"/>
                    <tied type="start" orientation="over" bezier-x="44" bezier-y="-11" default-x="24" default-y="-20"/>
                </notations>
            </note>
        </measure>
        <measure number="37" width="278">
            <print new-system="yes">
                <system-layout>
                    <system-margins>
                        <left-margin>-25</left-margin>
                        <right-margin>10</right-margin>
                    </system-margins>
                    <system-distance>141</system-distance>
                </system-layout>
            </print>
            <attributes>
                <staff-details print-object="yes"/>
            </attributes>
            <direction placement="below">
                <direction-type>
                    <wedge type="diminuendo" spread="26" default-y="-95"/>
                </direction-type>
            </direction>
            <direction placement="below">
                <direction-type>
                    <wedge type="crescendo" spread="0" default-y="-62"/>
                </direction-type>
            </direction>
            <note default-x="65">
                <pitch>
                    <step>C</step>
                    <octave>5</octave>
                </pitch>
                <duration>8</duration>
                <tie type="stop"/>
                <voice>1</voice>
                <type>eighth</type>
                <stem default-y="-51">down</stem>
                <beam number="1">begin</beam>
                <notations>
                    <tied type="stop" bezier-x="-9" bezier-y="-2" default-x="-2" default-y="-8"/>
                </notations>
                <lyric number="1" default-y="-208">
                    <syllabic>single</syllabic>
                    <text>in</text>
                </lyric>
            </note>
            <note default-x="98">
                <rest/>
                <duration>8</duration>
                <voice>1</voice>
                <type>eighth</type>
                <beam number="1">end</beam>
                <notations>
                    <arpeggiate relative-x="-4"/>
                    <articulations>
                        <staccatissimo default-y="-20" placement="above"/>
                    </articulations>
                    <slur type="start" number="1" placement="above" default-x="11" default-y="-2" bezier-x="134" bezier-y="40"/>
                </notations>
            </note>
            <note default-x="124">
                <pitch>
                    <step>C</step>
                    <octave>5</octave>
                </pitch>
                <duration>8</duration>
                <voice>1</voice>
                <type>eighth</type>
                <stem default-y="-52">down</stem>
                <beam number="1">continue</beam>
            </note>
            <direction>
                <direction-type>
                    <wedge type="stop" spread="0"/>
                </direction-type>
            </direction>
            <note default-x="150">
                <pitch>
                    <step>D</step>
                    <octave>5</octave>
                </pitch>
                <duration>8</duration>
                <voice>1</voice>
                <type>eighth</type>
                <stem default-y="-52">down</stem>
                <beam number="1">continue</beam>
            </note>
            <note default-x="186">
                <pitch>
                    <step>E</step>
                    <alter>-1</alter>
                    <octave>5</octave>
                </pitch>
                <duration>16</duration>
                <voice>1</voice>
                <type>quarter</type>
                <accidental>flat</accidental>
                <stem default-y="-40">down</stem>
            </note>
            <direction>
                <direction-type>
                    <wedge type="stop" spread="15"/>
                </direction-type>
            </direction>
            <note default-x="231">
                <pitch>
                    <step>F</step>
                    <octave>5</octave>
                </pitch>
                <duration>16</duration>
                <voice>1</voice>
                <type>quarter</type>
                <stem default-y="-32">down</stem>
            </note>
        </measure>
        <measure number="38" width="193">
            <print new-system="no"/>
            <note default-x="3">
                <pitch>
                    <step>B</step>
                    <alter>-1</alter>
                    <octave>5</octave>
                </pitch>
                <duration>32</duration>
                <voice>1</voice>
                <type>half</type>
                <stem default-y="-22">down</stem>
                <notations>
                    <arpeggiate relative-x="0"/>
                </notations>
            </note>
            <note default-x="14">
                <chord/>
                <pitch>
                    <step>B</step>
                    <alter>-1</alter>
                    <octave>5</octave>
                </pitch>
                <duration>32</duration>
                <voice>1</voice>
                <type>quarter</type>
                <stem default-y="-22">down</stem>
                <notations>
                    <arpeggiate relative-x="-11"/>
                </notations>
            </note>
            <direction placement="below">
                <direction-type>
                    <wedge type="diminuendo" spread="10" default-y="-59"/>
                </direction-type>
            </direction>
            <note default-x="58">
                <pitch>
                    <step>A</step>
                    <alter>-1</alter>
                    <octave>5</octave>
                </pitch>
                <duration>16</duration>
                <voice>1</voice>
                <type>quarter</type>
                <accidental>flat</accidental>
                <stem default-y="-25">down</stem>
            </note>
            <note default-x="103">
                <pitch>
                    <step>F</step>
                    <octave>5</octave>
                </pitch>
                <duration>16</duration>
                <voice>1</voice>
                <type>quarter</type>
                <stem default-y="-37">down</stem>
            </note>
            <direction>
                <direction-type>
                    <wedge type="stop" spread="0"/>
                </direction-type>
            </direction>
            <note default-x="151">
                <pitch>
                    <step>D</step>
                    <alter>-1</alter>
                    <octave>5</octave>
                </pitch>
                <duration>16</duration>
                <voice>1</voice>
                <type>quarter</type>
                <accidental>flat</accidental>
                <stem default-y="-48">down</stem>
            </note>
        </measure>
        <measure number="39" width="215">
            <print new-system="no"/>
            <direction placement="below">
                <direction-type>
                    <dynamics default-y="-63" relative-x="-7">
                        <p/>
                    </dynamics>
                </direction-type>
                <sound dynamics="56"/>
            </direction>
            <note default-x="12">
                <pitch>
                    <step>C</step>
                    <octave>5</octave>
                </pitch>
                <duration>16</duration>
                <voice>1</voice>
                <type>quarter</type>
                <stem default-y="-51">down</stem>
                <notations>
                    <slur type="stop" number="1" default-x="7" default-y="13" bezier-x="-119" bezier-y="45"/>
                </notations>
            </note>
            <note default-x="60">
                <pitch>
                    <step>G</step>
                    <octave>5</octave>
                </pitch>
                <duration>8</duration>
                <voice>1</voice>
                <type>eighth</type>
                <stem default-y="-48">down</stem>
                <beam number="1">begin</beam>
                <lyric number="1" default-y="-212">
                    <syllabic>single</syllabic>
                    <text>36105</text>
                </lyric>
            </note>
            <note default-x="85">
                <pitch>
                    <step>C</step>
                    <octave>5</octave>
                </pitch>
                <duration>8</duration>
                <voice>1</voice>
                <type>eighth</type>
                <stem default-y="-53">down</stem>
                <beam number="1">end</beam>
            </note>
            <note default-x="115">
                <pitch>
                    <step>C</step>
                    <octave>5</octave>
                </pitch>
                <duration>16</duration>
                <voice>1</voice>
                <type>quarter</type>
                <stem default-y="-53">down</stem>
                <notations>
                    <articulations>
                        <staccato default-y="1" placement="above"/>
                    </articulations>
                </notations>
            </note>
            <note default-x="160">
                <pitch>
                    <step>G</step>
                    <octave>4</octave>
                </pitch>
                <duration>16</duration>
                <voice>1</voice>
                <type>quarter</type>
                <stem default-y="-1">up</stem>
                <notations>
                    <articulations>
                        <staccato default-y="-51" placement="below"/>
                    </articulations>
                </notations>
            </note>
        </measure>
        <measure number="40" width="119">
            <print new-system="no"/>
            <note default-x="13">
                <pitch>
                    <step>A</step>
                    <alter>-1</alter>
                    <octave>4</octave>
                </pitch>
                <duration>32</duration>
                <voice>1</voice>
                <type>half</type>
                <notations>
                    <arpeggiate relative-x="12"/>
                    <arpeggiate relative-x="77"/>
                    <slur type="start" number="1" placement="below" default-x="14" default-y="-43" bezier-x="84" bezier-y="-71"/>
                </notations>
            </note>
        </measure>
        <measure number="41" width="115">
            <print new-system="no"/>
            <note default-x="12">
                <rest/>
                <duration>16</duration>
                <voice>1</voice>
                <type>quarter</type>
            </note>
            <note default-x="67">
                <pitch>
                    <step>D</step>
                    <octave>4</octave>
                </pitch>
                <duration>32</duration>
                <voice>1</voice>
                <type>half</type>
                <stem default-y="-14">up</stem>
                <lyric number="1" default-y="-215">
                    <syllabic>single</syllabic>
                    <text>u.Verlag:</text>
                </lyric>
            </note>
        </measure>
        <measure number="42" width="147">
            <print new-system="no"/>
            <barline location="right">
                <bar-style>light-heavy</bar-style>
            </barline>
            <direction placement="below">
                <direction-type>
                    <dynamics default-y="-81" relative-x="2">
                        <pp/>
                    </dynamics>
                </direction-type>
                <sound dynamics="45"/>
            </direction>
            <note default-x="12">
                <pitch>
                    <step>C</step>
                    <octave>4</octave>
                </pitch>
                <duration>16</duration>
                <voice>1</voice>
                <type>quarter</type>
                <stem default-y="-20">up</stem>
                <notations>
                    <articulations>
                        <staccato default-y="-68" placement="below"/>
                    </articulations>
                    <slur type="stop" number="1" default-x="1" default-y="-57" bezier-x="-72" bezier-y="-76"/>
                </notations>
                <lyric number="1" default-y="-215">
                    <syllabic>single</syllabic>
                    <text>5chott's</text>
                </lyric>
            </note>
            <note default-x="58">
                <rest/>
                <duration>16</duration>
                <voice>1</voice>
                <type>quarter</type>
            </note>
        </measure>
    </part>
</score-partwise>