<?xml version="1.0" encoding="UTF-8"?>
<!DOCTYPE score-partwise PUBLIC "-//Recordare//DTD MusicXML 3.0 Partwise//EN" "http://www.musicxml.org/dtds/partwise.dtd">
<score-partwise version="3.0">
    <work>
        <work-title>Hymn to the Sun</work-title>
    </work>
    <identification>
        <creator type="lyricist">CLARINET</creator>
        <creator type="composer">N.RIMSKY-KORSAKOFF</creator>
        <rights>rit.</rights>
        <encoding>
            <software>audiveris 4.3.3406</software>
            <software>ProxyMusic 3.0.110</software>
            <encoding-date>2015-03-31</encoding-date>
        </encoding>
        <source>C:\Users\eholder0\Downloads\Final\Hymn to the Sun.pdf</source>
    </identification>
    <defaults>
        <scaling>
            <millimeters>6.7733</millimeters>
            <tenths>40</tenths>
        </scaling>
        <page-layout>
            <page-height>1547</page-height>
            <page-width>1180</page-width>
            <page-margins type="both">
                <left-margin>80</left-margin>
                <right-margin>80</right-margin>
                <top-margin>80</top-margin>
                <bottom-margin>80</bottom-margin>
            </page-margins>
        </page-layout>
        <lyric-font font-family="Serif" font-size="10"/>
    </defaults>
    <credit page="1">
        <credit-words font-family="serif" font-size="36" default-x="290" default-y="1470">Hymn to the Sun</credit-words>
    </credit>
    <credit page="1">
        <credit-words font-family="serif" font-size="16" font-weight="bold" default-x="20" default-y="1406">CLARINET</credit-words>
    </credit>
    <credit page="1">
        <credit-words font-family="serif" font-size="13" font-weight="bold" default-x="820" default-y="1381">N.RIMSKY-KORSAKOFF</credit-words>
    </credit>
    <credit page="1">
        <credit-words font-family="serif" font-size="16" font-weight="bold" default-x="164" default-y="1344">Allegro moderate</credit-words>
    </credit>
    <credit page="1">
        <credit-words font-family="serif" font-style="italic" font-size="7" default-x="272" default-y="524">C’7‘8.S‘0.</credit-words>
    </credit>
    <credit page="1">
        <credit-words font-family="serif" font-style="italic" font-size="13" default-x="819" default-y="356">rubnio</credit-words>
    </credit>
    <credit page="1">
        <credit-words font-family="sans-serif" font-style="italic" font-size="9" default-x="222" default-y="352">bm‘</credit-words>
    </credit>
    <credit page="1">
        <credit-words font-family="serif" font-style="italic" font-size="15" font-weight="bold" default-x="316" default-y="19">rit.</credit-words>
    </credit>
    <part-list>
        <score-part id="P1">
            <part-name>Part_1</part-name>
            <score-instrument id="P1-I1">
                <instrument-name>Voice Oohs</instrument-name>
            </score-instrument>
            <midi-instrument id="P1-I1">
                <midi-channel>1</midi-channel>
                <midi-program>54</midi-program>
                <volume>78</volume>
            </midi-instrument>
        </score-part>
    </part-list>
    <part id="P1">
        <measure number="1" width="502">
            <print>
                <system-layout>
                    <system-margins>
                        <left-margin>1</left-margin>
                        <right-margin>-36</right-margin>
                    </system-margins>
                    <top-system-distance>198</top-system-distance>
                </system-layout>
                <measure-numbering>system</measure-numbering>
            </print>
            <attributes>
                <divisions>48</divisions>
                <key>
                    <fifths>-2</fifths>
                </key>
                <time>
                    <beats>4</beats>
                    <beat-type>4</beat-type>
                </time>
                <clef>
                    <sign>G</sign>
                    <line>2</line>
                </clef>
                <staff-details print-object="yes"/>
            </attributes>
            <barline location="left">
                <bar-style/>
            </barline>
            <direction>
                <direction-type>
                    <words></words>
                </direction-type>
                <sound tempo="120"/>
            </direction>
            <note default-x="36">
                <rest/>
                <duration>48</duration>
                <voice>1</voice>
                <type>quarter</type>
            </note>
            <note default-x="83">
                <pitch>
                    <step>C</step>
                    <octave>6</octave>
                </pitch>
                <duration>96</duration>
                <voice>1</voice>
                <type>half</type>
                <stem default-y="-20">down</stem>
                <notations>
                    <articulations>
                        <accent default-y="52" placement="above"/>
                    </articulations>
                </notations>
            </note>
            <note default-x="88">
                <chord/>
                <pitch>
                    <step>E</step>
                    <octave>6</octave>
                </pitch>
                <duration>96</duration>
                <tie type="start"/>
                <voice>1</voice>
                <type>quarter</type>
                <stem default-y="-20">down</stem>
                <notations>
                    <tied type="start" orientation="over" bezier-x="24" bezier-y="51" default-x="10" default-y="41"/>
                    <slur type="start" number="1" placement="above" default-x="8" default-y="49" bezier-x="104" bezier-y="71"/>
                </notations>
            </note>
            <note default-x="142">
                <pitch>
                    <step>E</step>
                    <octave>6</octave>
                </pitch>
                <duration>24</duration>
                <tie type="stop"/>
                <voice>1</voice>
                <type>eighth</type>
                <stem default-y="-23">down</stem>
                <beam number="1">begin</beam>
                <notations>
                    <tied type="stop" bezier-x="-12" bezier-y="51" default-x="2" default-y="42"/>
                </notations>
            </note>
            <note default-x="180">
                <pitch>
                    <step>D</step>
                    <octave>6</octave>
                </pitch>
                <duration>8</duration>
                <voice>1</voice>
                <type>16th</type>
                <time-modification>
                    <actual-notes>3</actual-notes>
                    <normal-notes>2</normal-notes>
                </time-modification>
                <stem default-y="-22">down</stem>
                <beam number="1">continue</beam>
                <beam number="2">begin</beam>
                <notations>
                    <tuplet type="start" number="1" placement="above"/>
                </notations>
            </note>
            <note default-x="240">
                <pitch>
                    <step>C</step>
                    <octave>6</octave>
                </pitch>
                <duration>8</duration>
                <voice>1</voice>
                <type>16th</type>
                <time-modification>
                    <actual-notes>3</actual-notes>
                    <normal-notes>2</normal-notes>
                </time-modification>
                <stem default-y="-23">down</stem>
                <beam number="1">end</beam>
                <beam number="2">end</beam>
            </note>
            <note default-x="277">
                <pitch>
                    <step>B</step>
                    <octave>5</octave>
                </pitch>
                <duration>8</duration>
                <voice>1</voice>
                <type>16th</type>
                <accidental>natural</accidental>
                <time-modification>
                    <actual-notes>3</actual-notes>
                    <normal-notes>2</normal-notes>
                </time-modification>
                <stem default-y="-22">down</stem>
                <beam number="1">begin</beam>
                <beam number="2">begin</beam>
                <notations>
                    <tuplet type="stop" number="1"/>
                </notations>
            </note>
            <direction placement="above">
                <direction-type>
                    <dynamics default-y="22" relative-x="-33">
                        <sf/>
                    </dynamics>
                </direction-type>
            </direction>
            <note default-x="356">
                <pitch>
                    <step>B</step>
                    <alter>-1</alter>
                    <octave>5</octave>
                </pitch>
                <duration>12</duration>
                <voice>1</voice>
                <type>16th</type>
                <accidental>flat</accidental>
                <stem default-y="-24">down</stem>
                <beam number="1">continue</beam>
                <beam number="2">continue</beam>
            </note>
            <note default-x="381">
                <pitch>
                    <step>A</step>
                    <octave>5</octave>
                </pitch>
                <duration>12</duration>
                <voice>1</voice>
                <type>16th</type>
                <stem default-y="-28">down</stem>
                <beam number="1">end</beam>
                <beam number="2">end</beam>
                <notations>
                    <slur type="stop" number="1" default-x="7" default-y="41" bezier-x="-88" bezier-y="68"/>
                </notations>
            </note>
        </measure>
        <measure number="2" width="552">
            <print new-system="no"/>
            <note default-x="13">
                <pitch>
                    <step>C</step>
                    <octave>6</octave>
                </pitch>
                <duration>24</duration>
                <voice>1</voice>
                <type>eighth</type>
                <stem default-y="-20">down</stem>
                <beam number="1">begin</beam>
                <notations>
                    <articulations>
                        <tenuto default-y="12" placement="below"/>
                    </articulations>
                    <slur type="start" number="1" placement="above" default-x="12" default-y="34" bezier-x="179" bezier-y="71"/>
                </notations>
            </note>
            <note default-x="96">
                <pitch>
                    <step>B</step>
                    <alter>-1</alter>
                    <octave>5</octave>
                </pitch>
                <duration>12</duration>
                <voice>1</voice>
                <type>16th</type>
                <accidental>flat</accidental>
                <stem default-y="-23">down</stem>
                <beam number="1">end</beam>
                <beam number="2">begin</beam>
            </note>
            <note default-x="116">
                <rest/>
                <duration>24</duration>
                <voice>1</voice>
                <type>eighth</type>
            </note>
            <note default-x="158">
                <pitch>
                    <step>A</step>
                    <alter>-1</alter>
                    <octave>5</octave>
                </pitch>
                <duration>12</duration>
                <voice>1</voice>
                <type>16th</type>
                <accidental>flat</accidental>
                <stem default-y="-31">down</stem>
                <beam number="1">begin</beam>
                <beam number="2">begin</beam>
            </note>
            <direction placement="above">
                <direction-type>
                    <dynamics default-y="16" relative-x="-23">
                        <ff/>
                    </dynamics>
                </direction-type>
                <sound dynamics="122"/>
            </direction>
            <note default-x="222">
                <pitch>
                    <step>G</step>
                    <octave>5</octave>
                </pitch>
                <duration>6</duration>
                <voice>1</voice>
                <type>32nd</type>
                <stem default-y="-32">down</stem>
                <beam number="1">end</beam>
                <beam number="2">end</beam>
                <beam number="3">begin</beam>
            </note>
            <note default-x="342">
                <pitch>
                    <step>A</step>
                    <alter>-1</alter>
                    <octave>5</octave>
                </pitch>
                <duration>8</duration>
                <voice>1</voice>
                <type>16th</type>
                <accidental>flat</accidental>
                <time-modification>
                    <actual-notes>3</actual-notes>
                    <normal-notes>2</normal-notes>
                </time-modification>
                <stem default-y="-32">down</stem>
                <beam number="1">begin</beam>
                <beam number="2">begin</beam>
                <notations>
                    <tuplet type="start" number="1" placement="above"/>
                </notations>
            </note>
            <note default-x="366">
                <pitch>
                    <step>G</step>
                    <octave>5</octave>
                </pitch>
                <duration>8</duration>
                <voice>1</voice>
                <type>16th</type>
                <time-modification>
                    <actual-notes>3</actual-notes>
                    <normal-notes>2</normal-notes>
                </time-modification>
                <stem default-y="-33">down</stem>
                <beam number="1">continue</beam>
                <beam number="2">continue</beam>
            </note>
            <note default-x="390">
                <pitch>
                    <step>F</step>
                    <octave>5</octave>
                </pitch>
                <duration>8</duration>
                <voice>1</voice>
                <type>16th</type>
                <time-modification>
                    <actual-notes>3</actual-notes>
                    <normal-notes>2</normal-notes>
                </time-modification>
                <stem default-y="-34">down</stem>
                <beam number="1">end</beam>
                <beam number="2">end</beam>
                <notations>
                    <tuplet type="stop" number="1"/>
                </notations>
            </note>
            <note default-x="424">
                <pitch>
                    <step>F</step>
                    <octave>5</octave>
                </pitch>
                <duration>12</duration>
                <voice>1</voice>
                <type>16th</type>
                <accidental>natural</accidental>
                <stem default-y="-42">down</stem>
                <beam number="1">begin</beam>
                <beam number="2">begin</beam>
            </note>
            <note default-x="452">
                <pitch>
                    <step>A</step>
                    <alter>-1</alter>
                    <octave>5</octave>
                </pitch>
                <duration>12</duration>
                <voice>1</voice>
                <type>16th</type>
                <stem default-y="-42">down</stem>
                <beam number="1">continue</beam>
                <beam number="2">continue</beam>
            </note>
            <note default-x="526">
                <pitch>
                    <step>E</step>
                    <alter>-1</alter>
                    <octave>5</octave>
                </pitch>
                <duration>24</duration>
                <voice>1</voice>
                <type>eighth</type>
                <accidental>flat</accidental>
                <stem default-y="-41">down</stem>
                <beam number="1">end</beam>
                <beam number="2">end</beam>
                <notations>
                    <arpeggiate relative-x="-38"/>
                    <slur type="stop" number="1" default-x="3" default-y="24" bezier-x="-162" bezier-y="67"/>
                </notations>
            </note>
            <forward>
                <duration>42</duration>
                <voice>1</voice>
            </forward>
        </measure>
        <measure number="3" width="405">
            <print new-system="yes">
                <system-layout>
                    <system-margins>
                        <left-margin>-60</left-margin>
                        <right-margin>-38</right-margin>
                    </system-margins>
                    <system-distance>130</system-distance>
                </system-layout>
            </print>
            <attributes>
                <staff-details print-object="yes"/>
            </attributes>
            <note default-x="100">
                <rest/>
                <duration>16</duration>
                <voice>1</voice>
                <type>eighth</type>
                <time-modification>
                    <actual-notes>3</actual-notes>
                    <normal-notes>2</normal-notes>
                </time-modification>
                <notations>
                    <tuplet type="start" number="1" placement="below"/>
                    <tuplet type="start" number="2" placement="below"/>
                    <slur type="start" number="1" placement="above" default-x="15" default-y="21" bezier-x="105" bezier-y="48"/>
                    <slur type="start" number="2" placement="above" default-x="22" default-y="16" bezier-x="34" bezier-y="23"/>
                </notations>
            </note>
            <note default-x="157">
                <pitch>
                    <step>G</step>
                    <octave>5</octave>
                </pitch>
                <duration>8</duration>
                <voice>1</voice>
                <type>16th</type>
                <time-modification>
                    <actual-notes>3</actual-notes>
                    <normal-notes>2</normal-notes>
                </time-modification>
                <stem default-y="-42">down</stem>
                <beam number="1">begin</beam>
                <beam number="2">begin</beam>
                <notations>
                    <tuplet type="stop" number="1"/>
                    <tuplet type="stop" number="2"/>
                    <slur type="stop" number="2" default-x="5" default-y="16" bezier-x="-8" bezier-y="24"/>
                </notations>
            </note>
            <note default-x="184">
                <pitch>
                    <step>F</step>
                    <octave>5</octave>
                </pitch>
                <duration>12</duration>
                <voice>1</voice>
                <type>16th</type>
                <stem default-y="-42">down</stem>
                <beam number="1">continue</beam>
                <beam number="2">continue</beam>
            </note>
            <note default-x="222">
                <pitch>
                    <step>E</step>
                    <octave>5</octave>
                </pitch>
                <duration>12</duration>
                <voice>1</voice>
                <type>16th</type>
                <accidental>natural</accidental>
                <stem default-y="-45">down</stem>
                <beam number="1">continue</beam>
                <beam number="2">continue</beam>
            </note>
            <note default-x="259">
                <pitch>
                    <step>E</step>
                    <alter>-1</alter>
                    <octave>5</octave>
                </pitch>
                <duration>12</duration>
                <voice>1</voice>
                <type>16th</type>
                <accidental>flat</accidental>
                <stem default-y="-44">down</stem>
                <beam number="1">end</beam>
                <beam number="2">end</beam>
            </note>
            <note default-x="286">
                <pitch>
                    <step>D</step>
                    <octave>5</octave>
                </pitch>
                <duration>12</duration>
                <voice>1</voice>
                <type>16th</type>
                <stem default-y="-50">down</stem>
                <beam number="1">begin</beam>
                <beam number="2">begin</beam>
            </note>
            <note default-x="315">
                <pitch>
                    <step>F</step>
                    <octave>5</octave>
                </pitch>
                <duration>12</duration>
                <voice>1</voice>
                <type>16th</type>
                <stem default-y="-52">down</stem>
                <beam number="1">continue</beam>
                <beam number="2">continue</beam>
            </note>
            <note default-x="352">
                <pitch>
                    <step>D</step>
                    <alter>-1</alter>
                    <octave>5</octave>
                </pitch>
                <duration>12</duration>
                <voice>1</voice>
                <type>16th</type>
                <accidental>flat</accidental>
                <stem default-y="-54">down</stem>
                <beam number="1">continue</beam>
                <beam number="2">continue</beam>
            </note>
            <note default-x="380">
                <pitch>
                    <step>C</step>
                    <octave>5</octave>
                </pitch>
                <duration>12</duration>
                <voice>1</voice>
                <type>16th</type>
                <stem default-y="-55">down</stem>
                <beam number="1">end</beam>
                <beam number="2">end</beam>
                <notations>
                    <slur type="stop" number="1" default-x="5" default-y="-2" bezier-x="-78" bezier-y="40"/>
                </notations>
            </note>
            <forward>
                <duration>84</duration>
                <voice>1</voice>
            </forward>
        </measure>
        <measure number="4" width="310">
            <print new-system="no"/>
            <note default-x="21">
                <pitch>
                    <step>E</step>
                    <alter>-1</alter>
                    <octave>5</octave>
                </pitch>
                <duration>48</duration>
                <voice>1</voice>
                <type>quarter</type>
                <stem default-y="-40">down</stem>
            </note>
            <note default-x="62">
                <pitch>
                    <step>E</step>
                    <alter>-1</alter>
                    <octave>5</octave>
                </pitch>
                <duration>12</duration>
                <voice>1</voice>
                <type>16th</type>
                <stem default-y="-53">down</stem>
                <beam number="1">begin</beam>
                <beam number="2">begin</beam>
            </note>
            <note default-x="100">
                <pitch>
                    <step>D</step>
                    <octave>5</octave>
                </pitch>
                <duration>12</duration>
                <voice>1</voice>
                <type>16th</type>
                <accidental>natural</accidental>
                <stem default-y="-54">down</stem>
                <beam number="1">continue</beam>
                <beam number="2">continue</beam>
            </note>
            <note default-x="124">
                <pitch>
                    <step>D</step>
                    <octave>5</octave>
                </pitch>
                <duration>12</duration>
                <voice>1</voice>
                <type>16th</type>
                <stem default-y="-56">down</stem>
                <notehead filled="no">normal</notehead>
                <beam number="1">continue</beam>
                <beam number="2">continue</beam>
            </note>
            <note default-x="136">
                <chord/>
                <pitch>
                    <step>D</step>
                    <octave>5</octave>
                </pitch>
                <duration>12</duration>
                <voice>1</voice>
                <type>16th</type>
                <stem default-y="-56">down</stem>
                <beam number="1">continue</beam>
                <beam number="2">continue</beam>
            </note>
            <note default-x="164">
                <pitch>
                    <step>C</step>
                    <octave>5</octave>
                </pitch>
                <duration>12</duration>
                <voice>1</voice>
                <type>16th</type>
                <stem default-y="-58">down</stem>
                <beam number="1">end</beam>
                <beam number="2">end</beam>
            </note>
            <note default-x="202">
                <pitch>
                    <step>C</step>
                    <alter>-1</alter>
                    <octave>5</octave>
                </pitch>
                <duration>24</duration>
                <voice>1</voice>
                <type>eighth</type>
                <accidental>flat</accidental>
                <stem default-y="-54">down</stem>
                <beam number="1">begin</beam>
            </note>
            <note default-x="230">
                <pitch>
                    <step>E</step>
                    <alter>-1</alter>
                    <octave>5</octave>
                </pitch>
                <duration>24</duration>
                <voice>1</voice>
                <type>eighth</type>
                <stem default-y="-54">down</stem>
                <beam number="1">continue</beam>
            </note>
            <note default-x="259">
                <pitch>
                    <step>B</step>
                    <alter>-1</alter>
                    <octave>4</octave>
                </pitch>
                <duration>24</duration>
                <voice>1</voice>
                <type>eighth</type>
                <stem default-y="-56">down</stem>
                <beam number="1">continue</beam>
            </note>
            <note default-x="286">
                <pitch>
                    <step>A</step>
                    <octave>4</octave>
                </pitch>
                <duration>24</duration>
                <voice>1</voice>
                <type>eighth</type>
                <stem default-y="-57">down</stem>
                <beam number="1">end</beam>
            </note>
            <backup>
                <duration>192</duration>
            </backup>
            <forward>
                <duration>72</duration>
                <voice>2</voice>
            </forward>
            <note default-x="124">
                <pitch>
                    <step>D</step>
                    <octave>5</octave>
                </pitch>
                <duration>96</duration>
                <voice>2</voice>
                <type>half</type>
                <stem default-y="10">up</stem>
            </note>
            <forward>
                <duration>24</duration>
                <voice>2</voice>
            </forward>
        </measure>
        <measure number="5" width="182">
            <print new-system="no"/>
            <note default-x="24">
                <pitch>
                    <step>B</step>
                    <alter>-1</alter>
                    <octave>4</octave>
                </pitch>
                <duration>96</duration>
                <voice>1</voice>
                <type>half</type>
                <stem default-y="-54">down</stem>
            </note>
            <note default-x="69">
                <rest/>
                <duration>24</duration>
                <voice>1</voice>
                <type>eighth</type>
            </note>
            <note default-x="100">
                <pitch>
                    <step>F</step>
                    <octave>5</octave>
                </pitch>
                <duration>24</duration>
                <voice>1</voice>
                <type>eighth</type>
                <stem default-y="-34">down</stem>
                <beam number="1">begin</beam>
            </note>
            <note default-x="128">
                <pitch>
                    <step>F</step>
                    <octave>5</octave>
                </pitch>
                <duration>24</duration>
                <voice>1</voice>
                <type>eighth</type>
                <stem default-y="-31">down</stem>
                <beam number="1">continue</beam>
                <notations>
                    <slur type="start" number="1" placement="above" default-x="9" default-y="12" bezier-x="13" bezier-y="17"/>
                </notations>
            </note>
            <note default-x="156">
                <pitch>
                    <step>G</step>
                    <octave>5</octave>
                </pitch>
                <duration>24</duration>
                <voice>1</voice>
                <type>eighth</type>
                <stem default-y="-30">down</stem>
                <beam number="1">end</beam>
                <notations>
                    <slur type="stop" number="1" default-x="-2" default-y="16" bezier-x="-8" bezier-y="19"/>
                </notations>
            </note>
        </measure>
        <measure number="6" width="221">
            <print new-system="no"/>
            <note default-x="20">
                <pitch>
                    <step>G</step>
                    <octave>5</octave>
                </pitch>
                <duration>72</duration>
                <voice>1</voice>
                <type>quarter</type>
                <dot/>
                <stem default-y="-29">down</stem>
                <notations>
                    <slur type="start" number="1" placement="above" default-x="11" default-y="16" bezier-x="24" bezier-y="22"/>
                </notations>
            </note>
            <note default-x="67">
                <pitch>
                    <step>F</step>
                    <octave>5</octave>
                </pitch>
                <duration>24</duration>
                <voice>1</voice>
                <type>eighth</type>
                <stem default-y="-39">down</stem>
                <notations>
                    <slur type="stop" number="1" default-x="5" default-y="12" bezier-x="-7" bezier-y="21"/>
                </notations>
            </note>
            <note default-x="96">
                <pitch>
                    <step>F</step>
                    <octave>5</octave>
                </pitch>
                <duration>24</duration>
                <voice>1</voice>
                <type>eighth</type>
                <stem default-y="-40">down</stem>
                <beam number="1">begin</beam>
                <notations>
                    <slur type="start" number="1" placement="above" default-x="9" default-y="13" bezier-x="17" bezier-y="18"/>
                </notations>
            </note>
            <note default-x="125">
                <pitch>
                    <step>E</step>
                    <alter>-1</alter>
                    <octave>5</octave>
                </pitch>
                <duration>24</duration>
                <voice>1</voice>
                <type>eighth</type>
                <stem default-y="-42">down</stem>
                <beam number="1">continue</beam>
                <notations>
                    <slur type="stop" number="1" default-x="7" default-y="10" bezier-x="0" bezier-y="17"/>
                </notations>
            </note>
            <note default-x="154">
                <pitch>
                    <step>E</step>
                    <alter>-1</alter>
                    <octave>5</octave>
                </pitch>
                <duration>24</duration>
                <voice>1</voice>
                <type>eighth</type>
                <stem default-y="-44">down</stem>
                <beam number="1">continue</beam>
                <notations>
                    <slur type="start" number="1" placement="above" default-x="11" default-y="8" bezier-x="20" bezier-y="13"/>
                </notations>
            </note>
            <note default-x="186">
                <pitch>
                    <step>D</step>
                    <octave>5</octave>
                </pitch>
                <duration>24</duration>
                <voice>1</voice>
                <type>eighth</type>
                <stem default-y="-48">down</stem>
                <beam number="1">end</beam>
                <notations>
                    <slur type="stop" number="1" default-x="6" default-y="5" bezier-x="-1" bezier-y="12"/>
                </notations>
            </note>
        </measure>
        <measure number="7" width="328">
            <print new-system="yes">
                <system-layout>
                    <system-margins>
                        <left-margin>-55</left-margin>
                        <right-margin>-40</right-margin>
                    </system-margins>
                    <system-distance>126</system-distance>
                </system-layout>
            </print>
            <attributes>
                <staff-details print-object="yes"/>
            </attributes>
            <note default-x="98">
                <pitch>
                    <step>D</step>
                    <octave>5</octave>
                </pitch>
                <duration>96</duration>
                <voice>1</voice>
                <type>half</type>
                <notations>
                    <arpeggiate relative-x="0"/>
                </notations>
            </note>
            <note default-x="166">
                <rest/>
                <duration>24</duration>
                <voice>1</voice>
                <type>eighth</type>
            </note>
            <note default-x="205">
                <pitch>
                    <step>D</step>
                    <octave>5</octave>
                </pitch>
                <duration>24</duration>
                <voice>1</voice>
                <type>eighth</type>
                <stem default-y="-48">down</stem>
                <beam number="1">begin</beam>
                <notations>
                    <slur type="start" number="1" placement="above" default-x="3" default-y="2" bezier-x="28" bezier-y="21"/>
                </notations>
            </note>
            <note default-x="248">
                <pitch>
                    <step>F</step>
                    <octave>5</octave>
                </pitch>
                <duration>24</duration>
                <voice>1</voice>
                <type>eighth</type>
                <stem default-y="-46">down</stem>
                <beam number="1">continue</beam>
            </note>
            <note default-x="287">
                <pitch>
                    <step>E</step>
                    <alter>-1</alter>
                    <octave>5</octave>
                </pitch>
                <duration>24</duration>
                <voice>1</voice>
                <type>eighth</type>
                <stem default-y="-44">down</stem>
                <beam number="1">end</beam>
                <notations>
                    <slur type="stop" number="1" default-x="7" default-y="12" bezier-x="-21" bezier-y="24"/>
                </notations>
            </note>
        </measure>
        <measure number="8" width="284">
            <print new-system="no"/>
            <note default-x="14">
                <pitch>
                    <step>E</step>
                    <alter>-1</alter>
                    <octave>5</octave>
                </pitch>
                <duration>48</duration>
                <voice>1</voice>
                <type>quarter</type>
                <stem default-y="-42">down</stem>
            </note>
            <note default-x="78">
                <rest/>
                <duration>24</duration>
                <voice>1</voice>
                <type>eighth</type>
            </note>
            <note default-x="120">
                <pitch>
                    <step>D</step>
                    <octave>5</octave>
                </pitch>
                <duration>24</duration>
                <voice>1</voice>
                <type>eighth</type>
                <stem default-y="-52">down</stem>
                <beam number="1">begin</beam>
                <notations>
                    <slur type="start" number="1" placement="above" default-x="6" default-y="2" bezier-x="19" bezier-y="10"/>
                </notations>
            </note>
            <note default-x="164">
                <pitch>
                    <step>C</step>
                    <octave>5</octave>
                </pitch>
                <duration>24</duration>
                <voice>1</voice>
                <type>eighth</type>
                <stem default-y="-56">down</stem>
                <beam number="1">continue</beam>
                <notations>
                    <slur type="stop" number="1" default-x="2" default-y="0" bezier-x="-9" bezier-y="9"/>
                </notations>
            </note>
            <note default-x="204">
                <pitch>
                    <step>C</step>
                    <octave>5</octave>
                </pitch>
                <duration>24</duration>
                <voice>1</voice>
                <type>eighth</type>
                <stem default-y="-58">down</stem>
                <beam number="1">continue</beam>
                <notations>
                    <slur type="start" number="1" placement="above" default-x="8" default-y="-8" bezier-x="18" bezier-y="0"/>
                </notations>
            </note>
            <note default-x="245">
                <pitch>
                    <step>B</step>
                    <alter>-1</alter>
                    <octave>4</octave>
                </pitch>
                <duration>24</duration>
                <voice>1</voice>
                <type>eighth</type>
                <stem default-y="-59">down</stem>
                <beam number="1">end</beam>
                <notations>
                    <slur type="stop" number="1" default-x="1" default-y="-9" bezier-x="-9" bezier-y="0"/>
                </notations>
            </note>
            <forward>
                <duration>24</duration>
                <voice>1</voice>
            </forward>
        </measure>
        <measure number="9" width="258">
            <print new-system="no"/>
            <note default-x="12">
                <pitch>
                    <step>B</step>
                    <alter>-1</alter>
                    <octave>4</octave>
                </pitch>
                <duration>96</duration>
                <voice>1</voice>
                <type>half</type>
            </note>
            <note default-x="86">
                <rest/>
                <duration>24</duration>
                <voice>1</voice>
                <type>eighth</type>
            </note>
            <note default-x="128">
                <pitch>
                    <step>B</step>
                    <alter>-1</alter>
                    <octave>4</octave>
                </pitch>
                <duration>24</duration>
                <voice>1</voice>
                <type>eighth</type>
                <stem default-y="14">up</stem>
                <beam number="1">begin</beam>
                <notations>
                    <slur type="start" number="1" placement="below" default-x="7" default-y="-40" bezier-x="34" bezier-y="-55"/>
                </notations>
            </note>
            <note default-x="172">
                <pitch>
                    <step>A</step>
                    <octave>4</octave>
                </pitch>
                <duration>24</duration>
                <voice>1</voice>
                <type>eighth</type>
                <stem default-y="14">up</stem>
                <beam number="1">continue</beam>
            </note>
            <note default-x="215">
                <pitch>
                    <step>B</step>
                    <alter>-1</alter>
                    <octave>4</octave>
                </pitch>
                <duration>24</duration>
                <voice>1</voice>
                <type>eighth</type>
                <stem default-y="14">up</stem>
                <beam number="1">end</beam>
                <notations>
                    <slur type="stop" number="1" default-x="8" default-y="-39" bezier-x="-19" bezier-y="-54"/>
                </notations>
            </note>
        </measure>
        <measure number="10" width="244">
            <print new-system="no"/>
            <note default-x="10">
                <pitch>
                    <step>G</step>
                    <octave>4</octave>
                </pitch>
                <duration>48</duration>
                <voice>1</voice>
                <type>quarter</type>
                <stem default-y="4">up</stem>
                <notations>
                    <slur type="start" number="1" placement="below" default-x="10" default-y="-46" bezier-x="28" bezier-y="-55"/>
                </notations>
            </note>
            <note default-x="76">
                <pitch>
                    <step>B</step>
                    <alter>-1</alter>
                    <octave>4</octave>
                </pitch>
                <duration>48</duration>
                <voice>1</voice>
                <type>quarter</type>
                <stem default-y="-59">down</stem>
                <notations>
                    <slur type="stop" number="1" default-x="-1" default-y="-40" bezier-x="-16" bezier-y="-53"/>
                </notations>
            </note>
            <note default-x="130">
                <pitch>
                    <step>E</step>
                    <alter>-1</alter>
                    <octave>5</octave>
                </pitch>
                <duration>48</duration>
                <voice>1</voice>
                <type>quarter</type>
                <stem default-y="-42">down</stem>
                <notations>
                    <articulations>
                        <tenuto default-y="10" placement="above"/>
                    </articulations>
                </notations>
            </note>
            <note default-x="187">
                <pitch>
                    <step>E</step>
                    <alter>-1</alter>
                    <octave>5</octave>
                </pitch>
                <duration>48</duration>
                <voice>1</voice>
                <type>quarter</type>
                <stem default-y="-42">down</stem>
                <notations>
                    <articulations>
                        <tenuto default-y="10" placement="above"/>
                    </articulations>
                </notations>
            </note>
        </measure>
        <measure number="11" width="316">
            <print new-system="yes">
                <system-layout>
                    <system-margins>
                        <left-margin>-58</left-margin>
                        <right-margin>-42</right-margin>
                    </system-margins>
                    <system-distance>128</system-distance>
                </system-layout>
            </print>
            <attributes>
                <staff-details print-object="yes"/>
            </attributes>
            <note default-x="104">
                <pitch>
                    <step>D</step>
                    <octave>5</octave>
                </pitch>
                <duration>96</duration>
                <voice>1</voice>
                <type>half</type>
                <notations>
                    <arpeggiate relative-x="0"/>
                </notations>
            </note>
            <note default-x="168">
                <rest/>
                <duration>24</duration>
                <voice>1</voice>
                <type>eighth</type>
            </note>
            <note default-x="205">
                <pitch>
                    <step>B</step>
                    <alter>-1</alter>
                    <octave>4</octave>
                </pitch>
                <duration>24</duration>
                <voice>1</voice>
                <type>eighth</type>
                <stem default-y="12">up</stem>
                <beam number="1">begin</beam>
                <notations>
                    <slur type="start" number="1" placement="below" default-x="8" default-y="-42" bezier-x="30" bezier-y="-55"/>
                </notations>
            </note>
            <note default-x="242">
                <pitch>
                    <step>A</step>
                    <octave>4</octave>
                </pitch>
                <duration>24</duration>
                <voice>1</voice>
                <type>eighth</type>
                <stem default-y="12">up</stem>
                <beam number="1">continue</beam>
            </note>
            <note default-x="280">
                <pitch>
                    <step>B</step>
                    <alter>-1</alter>
                    <octave>4</octave>
                </pitch>
                <duration>24</duration>
                <voice>1</voice>
                <type>eighth</type>
                <stem default-y="12">up</stem>
                <beam number="1">end</beam>
                <notations>
                    <slur type="stop" number="1" default-x="4" default-y="-42" bezier-x="-18" bezier-y="-55"/>
                </notations>
            </note>
        </measure>
        <measure number="12" width="242">
            <print new-system="no"/>
            <note default-x="11">
                <pitch>
                    <step>G</step>
                    <octave>4</octave>
                </pitch>
                <duration>48</duration>
                <voice>1</voice>
                <type>quarter</type>
                <stem default-y="3">up</stem>
                <notations>
                    <slur type="start" number="1" placement="below" default-x="10" default-y="-46" bezier-x="26" bezier-y="-53"/>
                </notations>
            </note>
            <note default-x="67">
                <pitch>
                    <step>B</step>
                    <alter>-1</alter>
                    <octave>4</octave>
                </pitch>
                <duration>48</duration>
                <voice>1</voice>
                <type>quarter</type>
                <stem default-y="-56">down</stem>
                <notations>
                    <slur type="stop" number="1" default-x="2" default-y="-39" bezier-x="-11" bezier-y="-51"/>
                </notations>
            </note>
            <note default-x="118">
                <pitch>
                    <step>E</step>
                    <alter>-1</alter>
                    <octave>5</octave>
                </pitch>
                <duration>48</duration>
                <voice>1</voice>
                <type>quarter</type>
            </note>
            <note default-x="170">
                <pitch>
                    <step>E</step>
                    <alter>-1</alter>
                    <octave>5</octave>
                </pitch>
                <duration>24</duration>
                <voice>1</voice>
                <type>eighth</type>
                <stem default-y="-36">down</stem>
                <beam number="1">begin</beam>
                <notations>
                    <slur type="start" number="1" placement="above" default-x="5" default-y="3" bezier-x="15" bezier-y="12"/>
                </notations>
            </note>
            <note default-x="206">
                <pitch>
                    <step>F</step>
                    <octave>5</octave>
                </pitch>
                <duration>24</duration>
                <voice>1</voice>
                <type>eighth</type>
                <stem default-y="-32">down</stem>
                <beam number="1">end</beam>
                <notations>
                    <slur type="stop" number="1" default-x="6" default-y="7" bezier-x="-6" bezier-y="14"/>
                </notations>
            </note>
        </measure>
        <measure number="13" width="220">
            <print new-system="no"/>
            <note default-x="12">
                <pitch>
                    <step>D</step>
                    <octave>5</octave>
                </pitch>
                <duration>96</duration>
                <voice>1</voice>
                <type>half</type>
                <stem default-y="-44">down</stem>
            </note>
            <note default-x="70">
                <rest/>
                <duration>24</duration>
                <voice>1</voice>
                <type>eighth</type>
            </note>
            <note default-x="110">
                <pitch>
                    <step>D</step>
                    <octave>5</octave>
                </pitch>
                <duration>24</duration>
                <voice>1</voice>
                <type>eighth</type>
                <stem default-y="-47">down</stem>
                <beam number="1">begin</beam>
                <notations>
                    <articulations>
                        <tenuto default-y="8" placement="above"/>
                    </articulations>
                </notations>
            </note>
            <note default-x="184">
                <pitch>
                    <step>D</step>
                    <octave>5</octave>
                </pitch>
                <duration>24</duration>
                <voice>1</voice>
                <type>eighth</type>
                <stem default-y="-47">down</stem>
                <beam number="1">end</beam>
                <notations>
                    <articulations>
                        <tenuto default-y="9" placement="above"/>
                        <tenuto default-y="10" placement="above"/>
                    </articulations>
                </notations>
            </note>
            <forward>
                <duration>24</duration>
                <voice>1</voice>
            </forward>
        </measure>
        <measure number="14" width="340">
            <print new-system="no"/>
            <note default-x="12">
                <pitch>
                    <step>F</step>
                    <octave>5</octave>
                </pitch>
                <duration>48</duration>
                <voice>1</voice>
                <type>quarter</type>
                <stem default-y="-34">down</stem>
                <notations>
                    <slur type="start" number="1" placement="above" default-x="4" default-y="20" bezier-x="111" bezier-y="44"/>
                </notations>
            </note>
            <note default-x="93">
                <pitch>
                    <step>E</step>
                    <octave>5</octave>
                </pitch>
                <duration>12</duration>
                <voice>1</voice>
                <type>16th</type>
                <accidental>natural</accidental>
                <stem default-y="-44">down</stem>
                <beam number="1">begin</beam>
                <beam number="2">begin</beam>
            </note>
            <note default-x="233">
                <pitch>
                    <step>F</step>
                    <octave>5</octave>
                </pitch>
                <duration>24</duration>
                <voice>1</voice>
                <type>eighth</type>
                <stem default-y="-53">down</stem>
                <beam number="1">begin</beam>
            </note>
            <note default-x="264">
                <pitch>
                    <step>C</step>
                    <octave>5</octave>
                </pitch>
                <duration>24</duration>
                <voice>1</voice>
                <type>eighth</type>
                <stem default-y="-54">down</stem>
                <beam number="1">continue</beam>
            </note>
            <note default-x="310">
                <pitch>
                    <step>B</step>
                    <octave>4</octave>
                </pitch>
                <duration>24</duration>
                <voice>1</voice>
                <type>eighth</type>
                <accidental>natural</accidental>
                <stem default-y="-54">down</stem>
                <beam number="1">end</beam>
            </note>
            <forward>
                <duration>60</duration>
                <voice>1</voice>
            </forward>
        </measure>
        <measure number="15" width="364">
            <print new-system="yes">
                <system-layout>
                    <system-margins>
                        <left-margin>-53</left-margin>
                        <right-margin>-43</right-margin>
                    </system-margins>
                    <system-distance>128</system-distance>
                </system-layout>
            </print>
            <attributes>
                <staff-details print-object="yes"/>
            </attributes>
            <note default-x="98">
                <pitch>
                    <step>D</step>
                    <octave>5</octave>
                </pitch>
                <duration>48</duration>
                <voice>1</voice>
                <type>quarter</type>
                <stem default-y="-46">down</stem>
                <notations>
                    <slur type="stop" number="1" default-x="6" default-y="5" bezier-x="0" bezier-y="10"/>
                </notations>
            </note>
            <note default-x="152">
                <rest/>
                <duration>24</duration>
                <voice>1</voice>
                <type>eighth</type>
                <notations>
                    <articulations>
                        <tenuto default-y="10" placement="above"/>
                    </articulations>
                </notations>
            </note>
            <note default-x="206">
                <rest/>
                <duration>24</duration>
                <voice>1</voice>
                <type>eighth</type>
            </note>
            <note default-x="288">
                <pitch>
                    <step>F</step>
                    <octave>5</octave>
                </pitch>
                <duration>24</duration>
                <voice>1</voice>
                <type>eighth</type>
                <stem default-y="-35">down</stem>
                <beam number="1">begin</beam>
                <notations>
                    <articulations>
                        <tenuto default-y="14" placement="above"/>
                        <tenuto default-y="14" placement="above"/>
                    </articulations>
                </notations>
            </note>
            <note default-x="329">
                <pitch>
                    <step>F</step>
                    <octave>5</octave>
                </pitch>
                <duration>24</duration>
                <voice>1</voice>
                <type>eighth</type>
                <stem default-y="-35">down</stem>
                <beam number="1">end</beam>
                <notations>
                    <articulations>
                        <tenuto default-y="14" placement="above"/>
                    </articulations>
                </notations>
            </note>
            <forward>
                <duration>48</duration>
                <voice>1</voice>
            </forward>
        </measure>
        <measure number="16" width="444">
            <print new-system="no"/>
            <attributes>
                <time>
                    <beats>null</beats>
                    <beat-type>null</beat-type>
                </time>
            </attributes>
            <direction placement="above">
                <direction-type>
                    <wedge type="diminuendo" spread="68" default-y="18"/>
                </direction-type>
            </direction>
            <note default-x="22">
                <pitch>
                    <step>G</step>
                    <alter>1</alter>
                    <octave>5</octave>
                </pitch>
                <duration>48</duration>
                <tie type="start"/>
                <voice>1</voice>
                <type>quarter</type>
                <accidental>sharp</accidental>
                <notations>
                    <tied type="start" orientation="over" bezier-x="24" bezier-y="22" default-x="10" default-y="12"/>
                </notations>
            </note>
            <note default-x="80">
                <pitch>
                    <step>G</step>
                    <alter>1</alter>
                    <octave>5</octave>
                </pitch>
                <duration>12</duration>
                <tie type="stop"/>
                <voice>1</voice>
                <type>16th</type>
                <stem default-y="-34">down</stem>
                <beam number="1">begin</beam>
                <beam number="2">begin</beam>
                <notations>
                    <tied type="stop" bezier-x="-15" bezier-y="23" default-x="-1" default-y="14"/>
                </notations>
            </note>
            <note default-x="350">
                <pitch>
                    <step>D</step>
                    <alter>1</alter>
                    <octave>5</octave>
                </pitch>
                <duration>24</duration>
                <voice>1</voice>
                <type>eighth</type>
                <accidental>sharp</accidental>
                <stem default-y="-44">down</stem>
                <beam number="1">begin</beam>
            </note>
            <note default-x="400">
                <pitch>
                    <step>D</step>
                    <octave>5</octave>
                </pitch>
                <duration>24</duration>
                <voice>1</voice>
                <type>eighth</type>
                <accidental>natural</accidental>
                <stem default-y="-44">down</stem>
                <beam number="1">end</beam>
            </note>
        </measure>
        <measure number="18" width="308">
            <print new-system="no"/>
            <direction>
                <direction-type>
                    <wedge type="stop" spread="0"/>
                </direction-type>
            </direction>
            <note default-x="22">
                <pitch>
                    <step>F</step>
                    <octave>5</octave>
                </pitch>
                <duration>96</duration>
                <voice>1</voice>
                <type>half</type>
                <accidental>natural</accidental>
                <stem default-y="-33">down</stem>
            </note>
            <note default-x="100">
                <rest/>
                <duration>24</duration>
                <voice>1</voice>
                <type>eighth</type>
            </note>
            <note default-x="146">
                <pitch>
                    <step>F</step>
                    <octave>5</octave>
                </pitch>
                <duration>24</duration>
                <voice>1</voice>
                <type>eighth</type>
                <stem default-y="-40">down</stem>
                <beam number="1">begin</beam>
            </note>
            <note default-x="260">
                <pitch>
                    <step>D</step>
                    <octave>5</octave>
                </pitch>
                <duration>24</duration>
                <voice>1</voice>
                <type>eighth</type>
                <stem default-y="-42">down</stem>
                <beam number="1">end</beam>
            </note>
        </measure>
        <measure number="17" width="471">
            <print new-system="yes">
                <system-layout>
                    <system-margins>
                        <left-margin>-51</left-margin>
                        <right-margin>-44</right-margin>
                    </system-margins>
                    <system-distance>127</system-distance>
                </system-layout>
            </print>
            <attributes>
                <staff-details print-object="yes"/>
            </attributes>
            <note default-x="98">
                <pitch>
                    <step>G</step>
                    <octave>5</octave>
                </pitch>
                <duration>48</duration>
                <tie type="start"/>
                <voice>1</voice>
                <type>quarter</type>
                <stem default-y="-32">down</stem>
                <notations>
                    <tied type="start" orientation="over" bezier-x="15" bezier-y="20" default-x="6" default-y="12"/>
                    <slur type="start" number="1" placement="above" default-x="6" default-y="41" bezier-x="132" bezier-y="63"/>
                </notations>
            </note>
            <note default-x="138">
                <pitch>
                    <step>G</step>
                    <octave>5</octave>
                </pitch>
                <duration>12</duration>
                <tie type="stop"/>
                <voice>1</voice>
                <type>16th</type>
                <stem default-y="-34">down</stem>
                <beam number="1">begin</beam>
                <beam number="2">begin</beam>
                <notations>
                    <fermata type="upright" default-y="26"/>
                    <tied type="stop" bezier-x="-11" bezier-y="21" default-x="-1" default-y="15"/>
                </notations>
            </note>
            <note default-x="172">
                <pitch>
                    <step>A</step>
                    <alter>-1</alter>
                    <octave>5</octave>
                </pitch>
                <duration>12</duration>
                <voice>1</voice>
                <type>16th</type>
                <accidental>flat</accidental>
                <stem default-y="-33">down</stem>
                <beam number="1">continue</beam>
                <beam number="2">continue</beam>
            </note>
            <note default-x="208">
                <pitch>
                    <step>B</step>
                    <octave>5</octave>
                </pitch>
                <duration>3</duration>
                <voice>1</voice>
                <type>64th</type>
                <accidental>natural</accidental>
                <stem default-y="-28">down</stem>
                <beam number="1">end</beam>
                <beam number="2">begin</beam>
                <beam number="3">end</beam>
                <beam number="4">begin</beam>
            </note>
            <note default-x="257">
                <pitch>
                    <step>G</step>
                    <octave>5</octave>
                </pitch>
                <duration>12</duration>
                <voice>1</voice>
                <type>16th</type>
                <stem default-y="-44">down</stem>
                <beam number="1">begin</beam>
                <beam number="2">begin</beam>
                <notations>
                    <ornaments>
                        <trill-mark placement="above"/>
                    </ornaments>
                </notations>
            </note>
            <note default-x="320">
                <pitch>
                    <step>E</step>
                    <alter>-1</alter>
                    <octave>5</octave>
                </pitch>
                <duration>12</duration>
                <voice>1</voice>
                <type>16th</type>
                <stem default-y="-46">down</stem>
                <beam number="1">end</beam>
                <beam number="2">end</beam>
            </note>
            <note default-x="396">
                <pitch>
                    <step>D</step>
                    <octave>5</octave>
                </pitch>
                <duration>6</duration>
                <voice>1</voice>
                <type>32nd</type>
                <stem default-y="-48">down</stem>
                <beam number="1">begin</beam>
                <beam number="2">begin</beam>
                <beam number="3">begin</beam>
            </note>
            <attributes>
                <clef>
                    <sign>F</sign>
                    <line>4</line>
                    <clef-octave-change>-1</clef-octave-change>
                </clef>
            </attributes>
        </measure>
        <measure number="18" width="222">
            <print new-system="no"/>
            <note default-x="13">
                <pitch>
                    <step>B</step>
                    <alter>-1</alter>
                    <octave>2</octave>
                </pitch>
                <duration>96</duration>
                <voice>1</voice>
                <type>half</type>
                <stem default-y="-33">down</stem>
                <notations>
                    <slur type="stop" number="1" default-x="-1" default-y="26" bezier-x="-125" bezier-y="58"/>
                </notations>
            </note>
            <note default-x="65">
                <rest/>
                <duration>24</duration>
                <voice>1</voice>
                <type>eighth</type>
            </note>
            <direction placement="below">
                <direction-type>
                    <dynamics default-y="-66" relative-x="-6">
                        <p/>
                    </dynamics>
                </direction-type>
                <sound dynamics="56"/>
            </direction>
            <note default-x="108">
                <pitch>
                    <step>A</step>
                    <alter>1</alter>
                    <octave>2</octave>
                </pitch>
                <duration>24</duration>
                <voice>1</voice>
                <type>eighth</type>
                <accidental>sharp</accidental>
                <stem default-y="-34">down</stem>
                <beam number="1">begin</beam>
            </note>
            <note default-x="150">
                <pitch>
                    <step>A</step>
                    <octave>2</octave>
                </pitch>
                <duration>24</duration>
                <voice>1</voice>
                <type>eighth</type>
                <accidental>natural</accidental>
                <stem default-y="-35">down</stem>
                <beam number="1">end</beam>
            </note>
        </measure>
        <measure number="19" width="422">
            <print new-system="no"/>
            <attributes>
                <time>
                    <beats>3</beats>
                    <beat-type>4</beat-type>
                </time>
            </attributes>
            <note default-x="64">
                <pitch>
                    <step>A</step>
                    <octave>2</octave>
                </pitch>
                <duration>12</duration>
                <voice>1</voice>
                <type>16th</type>
                <stem default-y="-35">down</stem>
                <beam number="1">begin</beam>
                <beam number="2">begin</beam>
                <notations>
                    <fermata type="upright" default-y="18"/>
                </notations>
            </note>
            <note default-x="100">
                <pitch>
                    <step>B</step>
                    <octave>2</octave>
                </pitch>
                <duration>12</duration>
                <voice>1</voice>
                <type>16th</type>
                <accidental>natural</accidental>
                <stem default-y="-34">down</stem>
                <beam number="1">continue</beam>
                <beam number="2">continue</beam>
            </note>
            <note default-x="136">
                <pitch>
                    <step>C</step>
                    <alter>1</alter>
                    <octave>3</octave>
                </pitch>
                <duration>12</duration>
                <voice>1</voice>
                <type>16th</type>
                <accidental>sharp</accidental>
                <stem default-y="-34">down</stem>
                <beam number="1">continue</beam>
                <beam number="2">continue</beam>
            </note>
            <note default-x="158">
                <pitch>
                    <step>B</step>
                    <octave>2</octave>
                </pitch>
                <duration>12</duration>
                <voice>1</voice>
                <type>16th</type>
                <stem default-y="-32">down</stem>
                <beam number="1">end</beam>
                <beam number="2">end</beam>
            </note>
            <note default-x="213">
                <pitch>
                    <step>G</step>
                    <alter>1</alter>
                    <octave>2</octave>
                </pitch>
                <duration>12</duration>
                <voice>1</voice>
                <type>16th</type>
                <accidental>sharp</accidental>
                <stem default-y="-43">down</stem>
                <beam number="1">begin</beam>
                <beam number="2">begin</beam>
            </note>
            <note default-x="279">
                <pitch>
                    <step>F</step>
                    <octave>2</octave>
                </pitch>
                <duration>12</duration>
                <voice>1</voice>
                <type>16th</type>
                <accidental>natural</accidental>
                <stem default-y="-44">down</stem>
                <beam number="1">end</beam>
                <beam number="2">end</beam>
            </note>
            <note default-x="316">
                <pitch>
                    <step>D</step>
                    <octave>2</octave>
                </pitch>
                <duration>12</duration>
                <voice>1</voice>
                <type>16th</type>
                <accidental>natural</accidental>
                <stem default-y="-54">down</stem>
                <beam number="1">begin</beam>
                <beam number="2">begin</beam>
            </note>
            <note default-x="339">
                <pitch>
                    <step>F</step>
                    <octave>2</octave>
                </pitch>
                <duration>12</duration>
                <voice>1</voice>
                <type>16th</type>
                <stem default-y="-52">down</stem>
                <beam number="1">continue</beam>
                <beam number="2">end</beam>
            </note>
            <note default-x="400">
                <pitch>
                    <step>G</step>
                    <alter>1</alter>
                    <octave>2</octave>
                </pitch>
                <duration>24</duration>
                <voice>1</voice>
                <type>eighth</type>
                <accidental>sharp</accidental>
                <stem default-y="-52">down</stem>
                <beam number="1">end</beam>
            </note>
            <forward>
                <duration>24</duration>
                <voice>1</voice>
            </forward>
        </measure>
        <measure number="20" width="356">
            <print new-system="yes">
                <system-layout>
                    <system-margins>
                        <left-margin>-49</left-margin>
                        <right-margin>-46</right-margin>
                    </system-margins>
                    <system-distance>124</system-distance>
                </system-layout>
            </print>
            <attributes>
                <time>
                    <beats>null</beats>
                    <beat-type>null</beat-type>
                </time>
                <clef>
                    <sign>G</sign>
                    <line>2</line>
                </clef>
                <staff-details print-object="yes"/>
            </attributes>
            <note default-x="106">
                <pitch>
                    <step>F</step>
                    <alter>1</alter>
                    <octave>5</octave>
                </pitch>
                <duration>96</duration>
                <voice>1</voice>
                <type>half</type>
                <accidental>sharp</accidental>
                <stem default-y="-36">down</stem>
            </note>
            <note default-x="166">
                <rest/>
                <duration>24</duration>
                <voice>1</voice>
                <type>eighth</type>
            </note>
            <note default-x="266">
                <pitch>
                    <step>E</step>
                    <octave>5</octave>
                </pitch>
                <duration>24</duration>
                <voice>1</voice>
                <type>eighth</type>
                <accidental>natural</accidental>
                <stem default-y="-46">down</stem>
                <beam number="1">begin</beam>
            </note>
            <note default-x="317">
                <pitch>
                    <step>E</step>
                    <alter>-1</alter>
                    <octave>5</octave>
                </pitch>
                <duration>24</duration>
                <voice>1</voice>
                <type>eighth</type>
                <accidental>flat</accidental>
                <stem default-y="-46">down</stem>
                <beam number="1">end</beam>
            </note>
        </measure>
        <measure number="21" width="494">
            <print new-system="no"/>
            <note default-x="24">
                <pitch>
                    <step>F</step>
                    <octave>5</octave>
                </pitch>
                <duration>48</duration>
                <tie type="start"/>
                <tie type="start"/>
                <voice>1</voice>
                <type>quarter</type>
                <accidental>natural</accidental>
                <stem default-y="-38">down</stem>
                <notations>
                    <tied type="start" orientation="over" bezier-x="24" bezier-y="15" default-x="10" default-y="5"/>
                    <tied type="start" orientation="over" bezier-x="160" bezier-y="49" default-x="3" default-y="16"/>
                </notations>
            </note>
            <note default-x="78">
                <pitch>
                    <step>F</step>
                    <octave>5</octave>
                </pitch>
                <duration>12</duration>
                <tie type="stop"/>
                <voice>1</voice>
                <type>16th</type>
                <stem default-y="-38">down</stem>
                <beam number="1">begin</beam>
                <beam number="2">begin</beam>
                <notations>
                    <tied type="stop" bezier-x="-11" bezier-y="15" default-x="3" default-y="6"/>
                </notations>
            </note>
            <note default-x="120">
                <pitch>
                    <step>G</step>
                    <alter>-1</alter>
                    <octave>5</octave>
                </pitch>
                <duration>12</duration>
                <voice>1</voice>
                <type>16th</type>
                <accidental>flat</accidental>
                <stem default-y="-38">down</stem>
                <beam number="1">continue</beam>
                <beam number="2">continue</beam>
            </note>
            <note default-x="148">
                <pitch>
                    <step>A</step>
                    <octave>5</octave>
                </pitch>
                <duration>12</duration>
                <voice>1</voice>
                <type>16th</type>
                <stem default-y="-37">down</stem>
                <beam number="1">continue</beam>
                <beam number="2">continue</beam>
            </note>
            <note default-x="184">
                <pitch>
                    <step>G</step>
                    <alter>-1</alter>
                    <octave>5</octave>
                </pitch>
                <duration>12</duration>
                <voice>1</voice>
                <type>16th</type>
                <stem default-y="-36">down</stem>
                <beam number="1">end</beam>
                <beam number="2">end</beam>
            </note>
            <note default-x="215">
                <pitch>
                    <step>F</step>
                    <octave>5</octave>
                </pitch>
                <duration>12</duration>
                <voice>1</voice>
                <type>16th</type>
                <stem default-y="-44">down</stem>
                <beam number="1">begin</beam>
                <beam number="2">begin</beam>
            </note>
            <note default-x="258">
                <pitch>
                    <step>E</step>
                    <octave>5</octave>
                </pitch>
                <duration>12</duration>
                <voice>1</voice>
                <type>16th</type>
                <accidental>natural</accidental>
                <stem default-y="-45">down</stem>
                <beam number="1">end</beam>
                <beam number="2">end</beam>
            </note>
            <note default-x="330">
                <pitch>
                    <step>C</step>
                    <octave>5</octave>
                </pitch>
                <duration>48</duration>
                <voice>1</voice>
                <type>quarter</type>
                <stem default-y="-48">down</stem>
            </note>
            <note default-x="362">
                <pitch>
                    <step>B</step>
                    <alter>-1</alter>
                    <octave>4</octave>
                </pitch>
                <duration>12</duration>
                <voice>1</voice>
                <type>16th</type>
                <stem default-y="-56">down</stem>
                <beam number="1">begin</beam>
                <beam number="2">begin</beam>
            </note>
            <note default-x="394">
                <pitch>
                    <step>C</step>
                    <octave>5</octave>
                </pitch>
                <duration>12</duration>
                <voice>1</voice>
                <type>16th</type>
                <stem default-y="-55">down</stem>
                <beam number="1">continue</beam>
                <beam number="2">continue</beam>
            </note>
            <note default-x="426">
                <pitch>
                    <step>D</step>
                    <octave>5</octave>
                </pitch>
                <duration>12</duration>
                <voice>1</voice>
                <type>16th</type>
                <stem default-y="-54">down</stem>
                <beam number="1">continue</beam>
                <beam number="2">continue</beam>
            </note>
            <note default-x="460">
                <pitch>
                    <step>E</step>
                    <octave>5</octave>
                </pitch>
                <duration>12</duration>
                <voice>1</voice>
                <type>16th</type>
                <stem default-y="-54">down</stem>
                <beam number="1">end</beam>
                <beam number="2">end</beam>
            </note>
        </measure>
        <measure number="24" width="266">
            <print new-system="no"/>
            <note default-x="14">
                <pitch>
                    <step>F</step>
                    <octave>5</octave>
                </pitch>
                <duration>96</duration>
                <tie type="stop"/>
                <voice>1</voice>
                <type>half</type>
                <notations>
                    <arpeggiate relative-x="0"/>
                    <tied type="stop" bezier-x="-162" bezier-y="49" default-x="-4" default-y="18"/>
                </notations>
            </note>
            <note default-x="82">
                <rest/>
                <duration>24</duration>
                <voice>1</voice>
                <type>eighth</type>
            </note>
            <note default-x="183">
                <pitch>
                    <step>E</step>
                    <alter>-1</alter>
                    <octave>5</octave>
                </pitch>
                <duration>24</duration>
                <voice>1</voice>
                <type>eighth</type>
                <accidental>flat</accidental>
                <stem default-y="-44">down</stem>
                <beam number="1">begin</beam>
            </note>
            <note default-x="230">
                <pitch>
                    <step>D</step>
                    <octave>5</octave>
                </pitch>
                <duration>24</duration>
                <voice>1</voice>
                <type>eighth</type>
                <stem default-y="-44">down</stem>
                <beam number="1">end</beam>
            </note>
        </measure>
        <measure number="22" width="773">
            <print new-system="yes">
                <system-layout>
                    <system-margins>
                        <left-margin>-49</left-margin>
                        <right-margin>-45</right-margin>
                    </system-margins>
                    <system-distance>126</system-distance>
                </system-layout>
            </print>
            <attributes>
                <time>
                    <beats>2</beats>
                    <beat-type>2</beat-type>
                </time>
                <staff-details print-object="yes"/>
            </attributes>
            <note default-x="94">
                <pitch>
                    <step>E</step>
                    <alter>-1</alter>
                    <octave>5</octave>
                </pitch>
                <duration>24</duration>
                <voice>1</voice>
                <type>eighth</type>
                <stem default-y="-38">down</stem>
                <beam number="1">begin</beam>
            </note>
            <note default-x="145">
                <pitch>
                    <step>G</step>
                    <alter>-1</alter>
                    <octave>5</octave>
                </pitch>
                <duration>12</duration>
                <voice>1</voice>
                <type>16th</type>
                <accidental>flat</accidental>
                <stem default-y="-32">down</stem>
                <beam number="1">end</beam>
                <beam number="2">backward hook</beam>
            </note>
            <note default-x="246">
                <pitch>
                    <step>F</step>
                    <octave>5</octave>
                </pitch>
                <duration>12</duration>
                <voice>1</voice>
                <type>16th</type>
                <stem default-y="-46">down</stem>
                <beam number="1">begin</beam>
                <beam number="2">begin</beam>
            </note>
            <note default-x="316">
                <pitch>
                    <step>E</step>
                    <alter>-1</alter>
                    <octave>5</octave>
                </pitch>
                <duration>48</duration>
                <voice>1</voice>
                <type>quarter</type>
                <accidental>flat</accidental>
                <stem default-y="-47">down</stem>
            </note>
            <note default-x="341">
                <pitch>
                    <step>D</step>
                    <octave>5</octave>
                </pitch>
                <duration>12</duration>
                <voice>1</voice>
                <type>16th</type>
                <stem default-y="-49">down</stem>
                <beam number="1">begin</beam>
                <beam number="2">begin</beam>
            </note>
            <note default-x="379">
                <pitch>
                    <step>G</step>
                    <alter>-1</alter>
                    <octave>5</octave>
                </pitch>
                <duration>12</duration>
                <voice>1</voice>
                <type>16th</type>
                <accidental>flat</accidental>
                <stem default-y="-49">down</stem>
                <beam number="1">end</beam>
                <beam number="2">end</beam>
            </note>
            <note default-x="438">
                <pitch>
                    <step>C</step>
                    <octave>5</octave>
                </pitch>
                <duration>48</duration>
                <voice>1</voice>
                <type>quarter</type>
                <stem default-y="-52">down</stem>
            </note>
            <note default-x="94">
                <pitch>
                    <step>E</step>
                    <alter>-1</alter>
                    <octave>5</octave>
                </pitch>
                <duration>24</duration>
                <voice>1</voice>
                <type>eighth</type>
                <stem default-y="-38">down</stem>
                <beam number="1">begin</beam>
            </note>
            <note default-x="145">
                <pitch>
                    <step>G</step>
                    <alter>-1</alter>
                    <octave>5</octave>
                </pitch>
                <duration>12</duration>
                <voice>1</voice>
                <type>16th</type>
                <accidental>flat</accidental>
                <stem default-y="-32">down</stem>
                <beam number="1">end</beam>
                <beam number="2">backward hook</beam>
            </note>
            <note default-x="246">
                <pitch>
                    <step>F</step>
                    <octave>5</octave>
                </pitch>
                <duration>12</duration>
                <voice>1</voice>
                <type>16th</type>
                <stem default-y="-46">down</stem>
                <beam number="1">begin</beam>
                <beam number="2">begin</beam>
            </note>
            <note default-x="316">
                <pitch>
                    <step>E</step>
                    <alter>-1</alter>
                    <octave>5</octave>
                </pitch>
                <duration>48</duration>
                <voice>1</voice>
                <type>quarter</type>
                <accidental>flat</accidental>
                <stem default-y="-47">down</stem>
            </note>
            <note default-x="341">
                <pitch>
                    <step>D</step>
                    <octave>5</octave>
                </pitch>
                <duration>12</duration>
                <voice>1</voice>
                <type>16th</type>
                <stem default-y="-49">down</stem>
                <beam number="1">begin</beam>
                <beam number="2">begin</beam>
            </note>
            <note default-x="379">
                <pitch>
                    <step>G</step>
                    <alter>-1</alter>
                    <octave>5</octave>
                </pitch>
                <duration>12</duration>
                <voice>1</voice>
                <type>16th</type>
                <accidental>flat</accidental>
                <stem default-y="-49">down</stem>
                <beam number="1">end</beam>
                <beam number="2">end</beam>
            </note>
            <note default-x="438">
                <pitch>
                    <step>C</step>
                    <octave>5</octave>
                </pitch>
                <duration>48</duration>
                <voice>1</voice>
                <type>quarter</type>
                <stem default-y="-52">down</stem>
            </note>
            <backup>
                <duration>336</duration>
            </backup>
            <note default-x="12">
                <pitch>
                    <step>E</step>
                    <alter>-1</alter>
                    <octave>5</octave>
                </pitch>
                <duration>48</duration>
                <voice>1</voice>
                <type>quarter</type>
                <stem default-y="-45">down</stem>
            </note>
            <note default-x="128">
                <pitch>
                    <step>D</step>
                    <alter>-1</alter>
                    <octave>5</octave>
                </pitch>
                <duration>12</duration>
                <voice>1</voice>
                <type>16th</type>
                <accidental>flat</accidental>
                <stem default-y="-47">down</stem>
                <beam number="1">begin</beam>
                <beam number="2">begin</beam>
            </note>
            <note default-x="152">
                <pitch>
                    <step>C</step>
                    <octave>5</octave>
                </pitch>
                <duration>12</duration>
                <voice>1</voice>
                <type>16th</type>
                <stem default-y="-49">down</stem>
                <beam number="1">end</beam>
                <beam number="2">end</beam>
            </note>
            <direction placement="below">
                <direction-type>
                    <wedge type="diminuendo" spread="14" default-y="-77"/>
                </direction-type>
            </direction>
            <note default-x="190">
                <pitch>
                    <step>C</step>
                    <alter>-1</alter>
                    <octave>5</octave>
                </pitch>
                <duration>24</duration>
                <voice>1</voice>
                <type>eighth</type>
                <accidental>flat</accidental>
                <stem default-y="-56">down</stem>
                <beam number="1">begin</beam>
            </note>
            <note default-x="219">
                <pitch>
                    <step>E</step>
                    <alter>-1</alter>
                    <octave>5</octave>
                </pitch>
                <duration>24</duration>
                <voice>1</voice>
                <type>eighth</type>
                <stem default-y="-58">down</stem>
                <beam number="1">continue</beam>
            </note>
            <note default-x="246">
                <pitch>
                    <step>B</step>
                    <alter>-1</alter>
                    <octave>4</octave>
                </pitch>
                <duration>24</duration>
                <voice>1</voice>
                <type>eighth</type>
                <stem default-y="-59">down</stem>
                <beam number="1">continue</beam>
            </note>
            <direction>
                <direction-type>
                    <wedge type="stop" spread="0"/>
                </direction-type>
            </direction>
            <note default-x="279">
                <pitch>
                    <step>A</step>
                    <octave>4</octave>
                </pitch>
                <duration>24</duration>
                <voice>1</voice>
                <type>eighth</type>
                <stem default-y="-60">down</stem>
                <beam number="1">end</beam>
            </note>
            <note default-x="12">
                <pitch>
                    <step>E</step>
                    <alter>-1</alter>
                    <octave>5</octave>
                </pitch>
                <duration>48</duration>
                <voice>1</voice>
                <type>quarter</type>
                <stem default-y="-45">down</stem>
            </note>
            <note default-x="128">
                <pitch>
                    <step>D</step>
                    <alter>-1</alter>
                    <octave>5</octave>
                </pitch>
                <duration>12</duration>
                <voice>1</voice>
                <type>16th</type>
                <accidental>flat</accidental>
                <stem default-y="-47">down</stem>
                <beam number="1">begin</beam>
                <beam number="2">begin</beam>
            </note>
            <note default-x="152">
                <pitch>
                    <step>C</step>
                    <octave>5</octave>
                </pitch>
                <duration>12</duration>
                <voice>1</voice>
                <type>16th</type>
                <stem default-y="-49">down</stem>
                <beam number="1">end</beam>
                <beam number="2">end</beam>
            </note>
            <direction placement="below">
                <direction-type>
                    <wedge type="diminuendo" spread="14" default-y="-77"/>
                </direction-type>
            </direction>
            <note default-x="190">
                <pitch>
                    <step>C</step>
                    <alter>-1</alter>
                    <octave>5</octave>
                </pitch>
                <duration>24</duration>
                <voice>1</voice>
                <type>eighth</type>
                <accidental>flat</accidental>
                <stem default-y="-56">down</stem>
                <beam number="1">begin</beam>
            </note>
            <note default-x="219">
                <pitch>
                    <step>E</step>
                    <alter>-1</alter>
                    <octave>5</octave>
                </pitch>
                <duration>24</duration>
                <voice>1</voice>
                <type>eighth</type>
                <stem default-y="-58">down</stem>
                <beam number="1">continue</beam>
            </note>
            <note default-x="246">
                <pitch>
                    <step>B</step>
                    <alter>-1</alter>
                    <octave>4</octave>
                </pitch>
                <duration>24</duration>
                <voice>1</voice>
                <type>eighth</type>
                <stem default-y="-59">down</stem>
                <beam number="1">continue</beam>
            </note>
            <direction>
                <direction-type>
                    <wedge type="stop" spread="0"/>
                </direction-type>
            </direction>
            <note default-x="279">
                <pitch>
                    <step>A</step>
                    <octave>4</octave>
                </pitch>
                <duration>24</duration>
                <voice>1</voice>
                <type>eighth</type>
                <stem default-y="-60">down</stem>
                <beam number="1">end</beam>
            </note>
            <forward>
                <duration>24</duration>
                <voice>1</voice>
            </forward>
        </measure>
        <measure number="23" width="104">
            <print new-system="no"/>
            <direction placement="above">
                <direction-type>
                    <words font-family="serif" font-style="italic" font-size="13" font-weight="bold" default-y="12" relative-x="-2">a tempo 2</words>
                </direction-type>
            </direction>
            <note default-x="11">
                <pitch>
                    <step>B</step>
                    <alter>-1</alter>
                    <octave>4</octave>
                </pitch>
                <duration>96</duration>
                <voice>1</voice>
                <type>half</type>
                <stem default-y="-56">down</stem>
            </note>
            <note default-x="58">
                <rest/>
                <duration>96</duration>
                <voice>1</voice>
                <type>half</type>
            </note>
        </measure>
        <measure number="24" width="76">
            <print new-system="no"/>
            <note default-x="33">
                <rest measure="yes"/>
                <duration>192</duration>
                <voice>1</voice>
            </note>
        </measure>
        <measure number="25" width="78">
            <print new-system="no"/>
        </measure>
        <measure number="26" width="80">
            <print new-system="no"/>
            <barline location="right">
                <bar-style>light-heavy</bar-style>
            </barline>
            <note default-x="30">
                <rest measure="yes"/>
                <duration>192</duration>
                <voice>1</voice>
                <notations>
                    <fermata type="upright" default-y="5"/>
                </notations>
            </note>
        </measure>
    </part>
</score-partwise>