<?xml version="1.0" encoding="UTF-8"?>
<!DOCTYPE score-partwise PUBLIC "-//Recordare//DTD MusicXML 3.0 Partwise//EN" "http://www.musicxml.org/dtds/partwise.dtd">
<score-partwise version="3.0">
    <identification>
        <encoding>
            <software>audiveris 4.3.3406</software>
            <software>ProxyMusic 3.0.110</software>
            <encoding-date>2015-03-31</encoding-date>
        </encoding>
        <source>C:\Users\eholder0\Downloads\Final\Just Fine.pdf</source>
    </identification>
    <defaults>
        <scaling>
            <millimeters>7.1120</millimeters>
            <tenths>40</tenths>
        </scaling>
        <page-layout>
            <page-height>300</page-height>
            <page-width>1094</page-width>
            <page-margins type="both">
                <left-margin>80</left-margin>
                <right-margin>80</right-margin>
                <top-margin>80</top-margin>
                <bottom-margin>80</bottom-margin>
            </page-margins>
        </page-layout>
        <lyric-font font-family="Serif" font-size="10"/>
    </defaults>
    <part-list>
        <score-part id="P1">
            <part-name>Part_1</part-name>
            <score-instrument id="P1-I1">
                <instrument-name>Voice Oohs</instrument-name>
            </score-instrument>
            <midi-instrument id="P1-I1">
                <midi-channel>1</midi-channel>
                <midi-program>54</midi-program>
                <volume>78</volume>
            </midi-instrument>
        </score-part>
    </part-list>
    <part id="P1">
        <measure number="1" width="325">
            <print>
                <system-layout>
                    <system-margins>
                        <left-margin>-70</left-margin>
                        <right-margin>-63</right-margin>
                    </system-margins>
                    <top-system-distance>-3</top-system-distance>
                </system-layout>
                <measure-numbering>system</measure-numbering>
            </print>
            <attributes>
                <divisions>2</divisions>
                <key>
                    <fifths>1</fifths>
                </key>
                <time>
                    <beats>2</beats>
                    <beat-type>2</beat-type>
                </time>
                <clef>
                    <sign>G</sign>
                    <line>2</line>
                </clef>
                <staff-details print-object="yes"/>
            </attributes>
            <direction>
                <direction-type>
                    <words></words>
                </direction-type>
                <sound tempo="120"/>
            </direction>
            <direction placement="above">
                <direction-type>
                    <words font-family="serif" font-size="12" font-weight="bold" default-y="35" relative-x="-33">JUST FINE</words>
                </direction-type>
            </direction>
            <direction placement="above">
                <direction-type>
                    <words font-family="serif" font-size="12" font-weight="bold" default-y="8" relative-x="-37">Moderato</words>
                </direction-type>
            </direction>
            <note default-x="103">
                <pitch>
                    <step>G</step>
                    <octave>3</octave>
                </pitch>
                <duration>3</duration>
                <voice>1</voice>
                <type>quarter</type>
                <dot/>
                <stem default-y="-21">up</stem>
            </note>
            <note default-x="173">
                <pitch>
                    <step>B</step>
                    <alter>-1</alter>
                    <octave>3</octave>
                </pitch>
                <duration>1</duration>
                <voice>1</voice>
                <type>eighth</type>
                <accidental>flat</accidental>
                <stem default-y="-22">up</stem>
            </note>
            <note default-x="214">
                <pitch>
                    <step>B</step>
                    <octave>3</octave>
                </pitch>
                <duration>2</duration>
                <voice>1</voice>
                <type>quarter</type>
                <accidental>natural</accidental>
                <stem default-y="-23">up</stem>
                <notations>
                    <articulations>
                        <staccato default-y="-72" placement="below"/>
                    </articulations>
                </notations>
            </note>
            <note default-x="224">
                <pitch>
                    <step>G</step>
                    <octave>6</octave>
                </pitch>
                <duration>2</duration>
                <voice>1</voice>
                <type>quarter</type>
                <stem default-y="58">up</stem>
                <beam number="1">begin</beam>
            </note>
            <note default-x="224">
                <chord/>
                <pitch>
                    <step>E</step>
                    <octave>6</octave>
                </pitch>
                <duration>2</duration>
                <voice>1</voice>
                <type>quarter</type>
                <stem default-y="58">up</stem>
                <beam number="1">begin</beam>
            </note>
            <note default-x="270">
                <pitch>
                    <step>D</step>
                    <octave>4</octave>
                </pitch>
                <duration>2</duration>
                <voice>1</voice>
                <type>quarter</type>
                <stem default-y="-13">up</stem>
            </note>
        </measure>
        <measure number="2" width="246">
            <print new-system="no"/>
            <note default-x="18">
                <pitch>
                    <step>G</step>
                    <octave>3</octave>
                </pitch>
                <duration>2</duration>
                <voice>1</voice>
                <type>quarter</type>
                <stem default-y="-24">up</stem>
            </note>
            <note default-x="31">
                <chord/>
                <pitch>
                    <step>G</step>
                    <octave>3</octave>
                </pitch>
                <duration>2</duration>
                <voice>1</voice>
                <type>half</type>
                <stem default-y="-24">up</stem>
            </note>
            <note default-x="91">
                <pitch>
                    <step>B</step>
                    <octave>3</octave>
                </pitch>
                <duration>1</duration>
                <voice>1</voice>
                <type>eighth</type>
                <stem default-y="-25">up</stem>
            </note>
            <note default-x="125">
                <pitch>
                    <step>D</step>
                    <octave>4</octave>
                </pitch>
                <duration>1</duration>
                <voice>1</voice>
                <type>eighth</type>
                <stem default-y="-15">up</stem>
                <beam number="1">begin</beam>
            </note>
            <note default-x="157">
                <pitch>
                    <step>C</step>
                    <octave>4</octave>
                </pitch>
                <duration>1</duration>
                <voice>1</voice>
                <type>eighth</type>
                <stem default-y="-20">up</stem>
                <beam number="1">continue</beam>
            </note>
            <note default-x="190">
                <pitch>
                    <step>B</step>
                    <alter>-1</alter>
                    <octave>3</octave>
                </pitch>
                <duration>1</duration>
                <voice>1</voice>
                <type>eighth</type>
                <accidental>flat</accidental>
                <stem default-y="-23">up</stem>
                <beam number="1">continue</beam>
                <notations>
                    <slur type="start" number="1" placement="below" default-x="6" default-y="-71" bezier-x="14" bezier-y="-82"/>
                </notations>
            </note>
            <note default-x="223">
                <pitch>
                    <step>B</step>
                    <octave>3</octave>
                </pitch>
                <duration>1</duration>
                <voice>1</voice>
                <type>eighth</type>
                <accidental>natural</accidental>
                <stem default-y="-26">up</stem>
                <beam number="1">end</beam>
                <notations>
                    <slur type="stop" number="1" default-x="6" default-y="-71" bezier-x="-2" bezier-y="-82"/>
                </notations>
            </note>
            <forward>
                <duration>1</duration>
                <voice>1</voice>
            </forward>
        </measure>
        <measure number="3" width="240">
            <print new-system="no"/>
            <note default-x="17">
                <pitch>
                    <step>G</step>
                    <octave>3</octave>
                </pitch>
                <duration>3</duration>
                <voice>1</voice>
                <type>quarter</type>
                <dot/>
                <stem default-y="-27">up</stem>
            </note>
            <note default-x="87">
                <pitch>
                    <step>B</step>
                    <alter>-1</alter>
                    <octave>3</octave>
                </pitch>
                <duration>1</duration>
                <voice>1</voice>
                <type>eighth</type>
                <accidental>flat</accidental>
                <stem default-y="-28">up</stem>
            </note>
            <note default-x="128">
                <pitch>
                    <step>B</step>
                    <octave>3</octave>
                </pitch>
                <duration>2</duration>
                <voice>1</voice>
                <type>quarter</type>
                <accidental>natural</accidental>
                <stem default-y="-28">up</stem>
                <notations>
                    <articulations>
                        <staccato default-y="-76" placement="below"/>
                    </articulations>
                </notations>
            </note>
            <note default-x="184">
                <pitch>
                    <step>D</step>
                    <octave>4</octave>
                </pitch>
                <duration>2</duration>
                <voice>1</voice>
                <type>quarter</type>
                <stem default-y="-19">up</stem>
            </note>
        </measure>
        <measure number="4" width="257">
            <print new-system="no"/>
            <note default-x="19">
                <pitch>
                    <step>G</step>
                    <octave>3</octave>
                </pitch>
                <duration>2</duration>
                <voice>1</voice>
                <type>quarter</type>
                <stem default-y="-30">up</stem>
            </note>
            <note default-x="88">
                <pitch>
                    <step>B</step>
                    <octave>3</octave>
                </pitch>
                <duration>1</duration>
                <voice>1</voice>
                <type>eighth</type>
                <stem default-y="-30">up</stem>
            </note>
            <note default-x="130">
                <pitch>
                    <step>D</step>
                    <octave>4</octave>
                </pitch>
                <duration>1</duration>
                <voice>1</voice>
                <type>eighth</type>
                <stem default-y="-20">up</stem>
                <beam number="1">begin</beam>
            </note>
            <note default-x="157">
                <pitch>
                    <step>C</step>
                    <octave>4</octave>
                </pitch>
                <duration>1</duration>
                <voice>1</voice>
                <type>eighth</type>
                <stem default-y="-26">up</stem>
                <beam number="1">continue</beam>
            </note>
            <note default-x="196">
                <pitch>
                    <step>B</step>
                    <alter>-1</alter>
                    <octave>3</octave>
                </pitch>
                <duration>1</duration>
                <voice>1</voice>
                <type>eighth</type>
                <accidental>flat</accidental>
                <stem default-y="-31">up</stem>
                <beam number="1">continue</beam>
                <notations>
                    <slur type="start" number="1" placement="below" default-x="4" default-y="-79" bezier-x="11" bezier-y="-88"/>
                </notations>
            </note>
            <note default-x="223">
                <pitch>
                    <step>G</step>
                    <octave>3</octave>
                </pitch>
                <duration>1</duration>
                <voice>1</voice>
                <type>eighth</type>
                <stem default-y="-38">up</stem>
                <beam number="1">end</beam>
                <notations>
                    <slur type="stop" number="1" default-x="7" default-y="-88" bezier-x="-4" bezier-y="-92"/>
                </notations>
            </note>
            <forward>
                <duration>1</duration>
                <voice>1</voice>
            </forward>
        </measure>
        <measure number="5" width="299">
            <print new-system="yes">
                <system-layout>
                    <system-margins>
                        <left-margin>-71</left-margin>
                        <right-margin>-63</right-margin>
                    </system-margins>
                    <system-distance>79</system-distance>
                </system-layout>
            </print>
            <attributes>
                <staff-details print-object="yes"/>
            </attributes>
            <direction placement="above">
                <direction-type>
                    <words font-family="sans-serif" font-size="16" default-y="14" relative-x="20">mf 9</words>
                </direction-type>
            </direction>
            <note default-x="73">
                <pitch>
                    <step>D</step>
                    <octave>4</octave>
                </pitch>
                <duration>2</duration>
                <voice>1</voice>
                <type>quarter</type>
                <stem default-y="-10">up</stem>
                <lyric number="1" default-y="-95">
                    <syllabic>single</syllabic>
                    <text>the</text>
                </lyric>
            </note>
            <note default-x="157">
                <pitch>
                    <step>F</step>
                    <octave>4</octave>
                </pitch>
                <duration>1</duration>
                <voice>1</voice>
                <type>eighth</type>
                <accidental>natural</accidental>
                <stem default-y="-2">up</stem>
            </note>
            <note default-x="196">
                <pitch>
                    <step>F</step>
                    <alter>1</alter>
                    <octave>4</octave>
                </pitch>
                <duration>2</duration>
                <voice>1</voice>
                <type>quarter</type>
                <accidental>sharp</accidental>
                <stem default-y="-2">up</stem>
                <notations>
                    <articulations>
                        <staccato default-y="-53" placement="below"/>
                    </articulations>
                </notations>
                <lyric number="1" default-y="-97">
                    <syllabic>single</syllabic>
                    <text>B‘!</text>
                </lyric>
            </note>
            <note default-x="252">
                <pitch>
                    <step>A</step>
                    <octave>4</octave>
                </pitch>
                <duration>2</duration>
                <voice>1</voice>
                <type>quarter</type>
                <stem default-y="6">up</stem>
                <lyric number="1" default-y="-97">
                    <syllabic>single</syllabic>
                    <text>H8</text>
                </lyric>
            </note>
            <forward>
                <duration>1</duration>
                <voice>1</voice>
            </forward>
        </measure>
        <measure number="6" width="274">
            <print new-system="no"/>
            <note default-x="19">
                <pitch>
                    <step>D</step>
                    <octave>4</octave>
                </pitch>
                <duration>3</duration>
                <voice>1</voice>
                <type>quarter</type>
                <dot/>
                <stem default-y="-13">up</stem>
            </note>
            <note default-x="102">
                <pitch>
                    <step>F</step>
                    <alter>1</alter>
                    <octave>4</octave>
                </pitch>
                <duration>1</duration>
                <voice>1</voice>
                <type>eighth</type>
                <stem default-y="-4">up</stem>
            </note>
            <note default-x="139">
                <pitch>
                    <step>A</step>
                    <octave>4</octave>
                </pitch>
                <duration>1</duration>
                <voice>1</voice>
                <type>eighth</type>
                <stem default-y="4">up</stem>
                <beam number="1">begin</beam>
            </note>
            <note default-x="175">
                <pitch>
                    <step>G</step>
                    <octave>4</octave>
                </pitch>
                <duration>1</duration>
                <voice>1</voice>
                <type>eighth</type>
                <stem default-y="0">up</stem>
                <beam number="1">continue</beam>
            </note>
            <note default-x="209">
                <pitch>
                    <step>F</step>
                    <octave>4</octave>
                </pitch>
                <duration>1</duration>
                <voice>1</voice>
                <type>eighth</type>
                <accidental>natural</accidental>
                <stem default-y="-3">up</stem>
                <beam number="1">continue</beam>
                <notations>
                    <slur type="start" number="1" placement="below" default-x="2" default-y="-50" bezier-x="11" bezier-y="-59"/>
                </notations>
            </note>
            <note default-x="243">
                <pitch>
                    <step>F</step>
                    <alter>1</alter>
                    <octave>4</octave>
                </pitch>
                <duration>1</duration>
                <voice>1</voice>
                <type>eighth</type>
                <accidental>sharp</accidental>
                <stem default-y="-6">up</stem>
                <beam number="1">end</beam>
                <notations>
                    <articulations>
                        <staccato default-y="-61" placement="below"/>
                    </articulations>
                    <slur type="stop" number="1" default-x="1" default-y="-51" bezier-x="-9" bezier-y="-60"/>
                </notations>
            </note>
        </measure>
        <measure number="7" width="239">
            <print new-system="no"/>
            <note default-x="18">
                <pitch>
                    <step>G</step>
                    <octave>4</octave>
                </pitch>
                <duration>3</duration>
                <voice>1</voice>
                <type>quarter</type>
                <dot/>
                <stem default-y="-2">up</stem>
            </note>
            <note default-x="88">
                <pitch>
                    <step>B</step>
                    <alter>-1</alter>
                    <octave>3</octave>
                </pitch>
                <duration>1</duration>
                <voice>1</voice>
                <type>eighth</type>
                <accidental>flat</accidental>
                <stem default-y="-27">up</stem>
            </note>
            <note default-x="128">
                <pitch>
                    <step>B</step>
                    <octave>3</octave>
                </pitch>
                <duration>2</duration>
                <voice>1</voice>
                <type>quarter</type>
                <accidental>natural</accidental>
                <stem default-y="-28">up</stem>
                <notations>
                    <articulations>
                        <staccato default-y="-76" placement="below"/>
                    </articulations>
                </notations>
            </note>
            <note default-x="185">
                <pitch>
                    <step>D</step>
                    <octave>4</octave>
                </pitch>
                <duration>2</duration>
                <voice>1</voice>
                <type>quarter</type>
                <stem default-y="-19">up</stem>
            </note>
        </measure>
        <measure number="8" width="254">
            <print new-system="no"/>
            <barline location="right">
                <bar-style>light-heavy</bar-style>
            </barline>
            <note default-x="20">
                <pitch>
                    <step>D</step>
                    <octave>4</octave>
                </pitch>
                <duration>1</duration>
                <voice>1</voice>
                <type>eighth</type>
                <stem default-y="-20">up</stem>
                <beam number="1">begin</beam>
            </note>
            <note default-x="50">
                <pitch>
                    <step>C</step>
                    <octave>4</octave>
                </pitch>
                <duration>1</duration>
                <voice>1</voice>
                <type>eighth</type>
                <stem default-y="-24">up</stem>
                <beam number="1">continue</beam>
            </note>
            <note default-x="90">
                <pitch>
                    <step>B</step>
                    <alter>-1</alter>
                    <octave>3</octave>
                </pitch>
                <duration>1</duration>
                <voice>1</voice>
                <type>eighth</type>
                <accidental>flat</accidental>
                <stem default-y="-28">up</stem>
                <beam number="1">continue</beam>
                <notations>
                    <slur type="start" number="1" placement="below" default-x="4" default-y="-76" bezier-x="14" bezier-y="-88"/>
                </notations>
            </note>
            <note default-x="127">
                <pitch>
                    <step>B</step>
                    <octave>3</octave>
                </pitch>
                <duration>1</duration>
                <voice>1</voice>
                <type>eighth</type>
                <accidental>natural</accidental>
                <stem default-y="-31">up</stem>
                <beam number="1">end</beam>
                <notations>
                    <slur type="stop" number="1" default-x="5" default-y="-76" bezier-x="-5" bezier-y="-88"/>
                </notations>
            </note>
            <note default-x="156">
                <pitch>
                    <step>G</step>
                    <octave>3</octave>
                </pitch>
                <duration>4</duration>
                <voice>1</voice>
                <type>half</type>
                <stem default-y="-31">up</stem>
            </note>
        </measure>
    </part>
</score-partwise>