<?xml version="1.0" encoding="UTF-8"?>
<!DOCTYPE score-partwise PUBLIC "-//Recordare//DTD MusicXML 3.0 Partwise//EN" "http://www.musicxml.org/dtds/partwise.dtd">
<score-partwise version="3.0">
    <work>
        <work-number>III</work-number>
    </work>
    <identification>
        <encoding>
            <software>audiveris 4.3.3406</software>
            <software>ProxyMusic 3.0.110</software>
            <encoding-date>2015-04-01</encoding-date>
        </encoding>
        <source>C:\Users\eholder0\Dropbox\Public\College\2015-01 Spring\OS X Thesis\MusicScoring\ClarinetSpecificSamplePieces\Graded Pieces\Cropped\Saint Saens Clarinet Sonata Part 5.png</source>
    </identification>
    <defaults>
        <scaling>
            <millimeters>5.7573</millimeters>
            <tenths>40</tenths>
        </scaling>
        <page-layout>
            <page-height>1941</page-height>
            <page-width>1500</page-width>
            <page-margins type="both">
                <left-margin>80</left-margin>
                <right-margin>80</right-margin>
                <top-margin>80</top-margin>
                <bottom-margin>80</bottom-margin>
            </page-margins>
        </page-layout>
        <lyric-font font-family="Serif" font-size="10"/>
    </defaults>
    <credit page="1">
        <credit-words font-family="serif" font-size="15" font-weight="bold" default-x="643" default-y="1887">CLARINETTE</credit-words>
    </credit>
    <credit page="1">
        <credit-words font-family="serif" font-size="25" font-weight="bold" default-x="732" default-y="1784">III</credit-words>
    </credit>
    <credit page="1">
        <credit-words font-family="serif" font-style="italic" font-size="5" font-weight="bold" default-x="567" default-y="1442">a</credit-words>
    </credit>
    <credit page="1">
        <credit-words font-family="sans-serif" font-style="italic" font-size="7" default-x="267" default-y="534">ll</credit-words>
    </credit>
    <credit page="1">
        <credit-words font-family="serif" font-style="italic" font-size="11" default-x="362" default-y="228">PP</credit-words>
    </credit>
    <credit page="1">
        <credit-words font-family="serif" font-style="italic" font-size="11" default-x="1326" default-y="223">segue</credit-words>
    </credit>
    <part-list>
        <score-part id="P1">
            <part-name>Part_1</part-name>
            <score-instrument id="P1-I1">
                <instrument-name>Voice Oohs</instrument-name>
            </score-instrument>
            <midi-instrument id="P1-I1">
                <midi-channel>1</midi-channel>
                <midi-program>54</midi-program>
                <volume>78</volume>
            </midi-instrument>
        </score-part>
    </part-list>
    <part id="P1">
        <measure number="1" width="266">
            <print>
                <system-layout>
                    <system-margins>
                        <left-margin>159</left-margin>
                        <right-margin>32</right-margin>
                    </system-margins>
                    <top-system-distance>186</top-system-distance>
                </system-layout>
                <measure-numbering>system</measure-numbering>
            </print>
            <attributes>
                <divisions>6</divisions>
                <key>
                    <fifths>-4</fifths>
                </key>
                <time>
                    <beats>3</beats>
                    <beat-type>4</beat-type>
                </time>
                <clef>
                    <sign>G</sign>
                    <line>2</line>
                </clef>
                <staff-details print-object="yes"/>
            </attributes>
            <direction>
                <direction-type>
                    <words></words>
                </direction-type>
                <sound tempo="120"/>
            </direction>
            <direction placement="above">
                <direction-type>
                    <words font-family="serif" font-size="15" font-weight="bold" default-y="31" relative-x="-95">Lento</words>
                </direction-type>
            </direction>
            <note default-x="189">
                <rest measure="yes"/>
                <duration>18</duration>
                <voice>1</voice>
            </note>
        </measure>
        <measure number="2" width="221">
            <print new-system="no"/>
            <note default-x="18">
                <pitch>
                    <step>A</step>
                    <alter>-1</alter>
                    <octave>3</octave>
                </pitch>
                <duration>12</duration>
                <voice>1</voice>
                <type>half</type>
                <stem default-y="-18">up</stem>
            </note>
            <note default-x="82">
                <pitch>
                    <step>C</step>
                    <octave>4</octave>
                </pitch>
                <duration>12</duration>
                <voice>1</voice>
                <type>half</type>
                <stem default-y="-18">up</stem>
            </note>
            <note default-x="86">
                <chord/>
                <pitch>
                    <step>A</step>
                    <alter>-1</alter>
                    <octave>3</octave>
                </pitch>
                <duration>12</duration>
                <voice>1</voice>
                <type>half</type>
                <stem default-y="-18">up</stem>
            </note>
            <note default-x="152">
                <pitch>
                    <step>G</step>
                    <octave>3</octave>
                </pitch>
                <duration>12</duration>
                <voice>1</voice>
                <type>half</type>
                <stem default-y="-18">up</stem>
            </note>
        </measure>
        <measure number="3" width="220">
            <print new-system="no"/>
            <note default-x="125">
                <pitch>
                    <step>F</step>
                    <octave>3</octave>
                </pitch>
                <duration>6</duration>
                <voice>1</voice>
                <type>quarter</type>
                <stem default-y="-17">up</stem>
            </note>
            <note default-x="171">
                <pitch>
                    <step>G</step>
                    <octave>3</octave>
                </pitch>
                <duration>6</duration>
                <voice>1</voice>
                <type>quarter</type>
                <stem default-y="-17">up</stem>
            </note>
            <forward>
                <duration>6</duration>
                <voice>1</voice>
            </forward>
        </measure>
        <measure number="4" width="221">
            <print new-system="no"/>
            <note default-x="17">
                <pitch>
                    <step>B</step>
                    <alter>-1</alter>
                    <octave>3</octave>
                </pitch>
                <duration>12</duration>
                <voice>1</voice>
                <type>half</type>
                <stem default-y="-17">up</stem>
            </note>
            <note default-x="84">
                <pitch>
                    <step>C</step>
                    <octave>4</octave>
                </pitch>
                <duration>12</duration>
                <voice>1</voice>
                <type>half</type>
                <stem default-y="-14">up</stem>
            </note>
            <note default-x="149">
                <pitch>
                    <step>A</step>
                    <alter>-1</alter>
                    <octave>3</octave>
                </pitch>
                <duration>12</duration>
                <voice>1</voice>
                <type>half</type>
                <stem default-y="-17">up</stem>
            </note>
        </measure>
        <measure number="5" width="221">
            <print new-system="no"/>
            <note default-x="15">
                <pitch>
                    <step>F</step>
                    <octave>3</octave>
                </pitch>
                <duration>24</duration>
                <voice>1</voice>
                <type>whole</type>
            </note>
            <note default-x="125">
                <pitch>
                    <step>G</step>
                    <octave>3</octave>
                </pitch>
                <duration>6</duration>
                <voice>1</voice>
                <type>quarter</type>
                <stem default-y="-18">up</stem>
                <notations>
                    <articulations>
                        <tenuto default-y="-50" placement="above"/>
                    </articulations>
                </notations>
            </note>
            <note default-x="171">
                <pitch>
                    <step>A</step>
                    <alter>-1</alter>
                    <octave>3</octave>
                </pitch>
                <duration>6</duration>
                <voice>1</voice>
                <type>quarter</type>
                <stem default-y="-18">up</stem>
            </note>
        </measure>
        <measure number="6" width="314">
            <print new-system="yes">
                <system-layout>
                    <system-margins>
                        <left-margin>65</left-margin>
                        <right-margin>32</right-margin>
                    </system-margins>
                    <system-distance>111</system-distance>
                </system-layout>
            </print>
            <attributes>
                <staff-details print-object="yes"/>
            </attributes>
            <note default-x="116">
                <pitch>
                    <step>C</step>
                    <octave>4</octave>
                </pitch>
                <duration>6</duration>
                <voice>1</voice>
                <type>quarter</type>
                <stem default-y="-15">up</stem>
            </note>
            <note default-x="182">
                <pitch>
                    <step>G</step>
                    <octave>3</octave>
                </pitch>
                <duration>18</duration>
                <voice>1</voice>
                <type>half</type>
                <dot/>
                <stem default-y="-20">up</stem>
            </note>
            <note default-x="268">
                <pitch>
                    <step>A</step>
                    <alter>-1</alter>
                    <octave>3</octave>
                </pitch>
                <duration>6</duration>
                <voice>1</voice>
                <type>quarter</type>
                <stem default-y="-20">up</stem>
            </note>
        </measure>
        <measure number="7" width="210">
            <print new-system="no"/>
            <note default-x="15">
                <pitch>
                    <step>B</step>
                    <alter>-1</alter>
                    <octave>3</octave>
                </pitch>
                <duration>6</duration>
                <voice>1</voice>
                <type>quarter</type>
                <stem default-y="-19">up</stem>
            </note>
            <note default-x="81">
                <pitch>
                    <step>E</step>
                    <alter>-1</alter>
                    <octave>3</octave>
                </pitch>
                <duration>12</duration>
                <voice>1</voice>
                <type>half</type>
                <stem default-y="-19">up</stem>
            </note>
            <note default-x="163">
                <pitch>
                    <step>F</step>
                    <octave>3</octave>
                </pitch>
                <duration>6</duration>
                <voice>1</voice>
                <type>quarter</type>
                <stem default-y="-19">up</stem>
            </note>
        </measure>
        <measure number="8" width="254">
            <print new-system="no"/>
            <note default-x="14">
                <pitch>
                    <step>G</step>
                    <octave>3</octave>
                </pitch>
                <duration>12</duration>
                <tie type="start"/>
                <voice>1</voice>
                <type>half</type>
                <stem default-y="-19">up</stem>
                <notations>
                    <tied type="start" orientation="under" bezier-x="28" bezier-y="-88" default-x="10" default-y="-75"/>
                </notations>
            </note>
            <note default-x="88">
                <pitch>
                    <step>G</step>
                    <octave>3</octave>
                </pitch>
                <duration>6</duration>
                <tie type="stop"/>
                <voice>1</voice>
                <type>quarter</type>
                <stem default-y="-19">up</stem>
                <notations>
                    <tied type="stop" bezier-x="-22" bezier-y="-89" default-x="-3" default-y="-77"/>
                </notations>
            </note>
            <note default-x="133">
                <rest/>
                <duration>6</duration>
                <voice>1</voice>
                <type>quarter</type>
            </note>
            <note default-x="168">
                <pitch>
                    <step>E</step>
                    <octave>3</octave>
                </pitch>
                <duration>6</duration>
                <voice>1</voice>
                <type>quarter</type>
                <accidental>natural</accidental>
                <stem default-y="-19">up</stem>
            </note>
            <note default-x="208">
                <pitch>
                    <step>G</step>
                    <octave>3</octave>
                </pitch>
                <duration>6</duration>
                <voice>1</voice>
                <type>quarter</type>
                <stem default-y="-19">up</stem>
            </note>
        </measure>
        <measure number="9" width="254">
            <print new-system="no"/>
            <note default-x="17">
                <pitch>
                    <step>B</step>
                    <alter>-1</alter>
                    <octave>3</octave>
                </pitch>
                <duration>12</duration>
                <voice>1</voice>
                <type>half</type>
                <stem default-y="-18">up</stem>
                <notations>
                    <slur type="start" number="1" placement="below" default-x="9" default-y="-69" bezier-x="27" bezier-y="-83"/>
                </notations>
            </note>
            <note default-x="87">
                <pitch>
                    <step>A</step>
                    <alter>-1</alter>
                    <octave>3</octave>
                </pitch>
                <duration>6</duration>
                <voice>1</voice>
                <type>quarter</type>
                <stem default-y="-18">up</stem>
                <notations>
                    <slur type="stop" number="1" default-x="0" default-y="-73" bezier-x="-19" bezier-y="-84"/>
                </notations>
            </note>
            <note default-x="131">
                <rest/>
                <duration>6</duration>
                <voice>1</voice>
                <type>quarter</type>
            </note>
            <note default-x="168">
                <pitch>
                    <step>F</step>
                    <octave>3</octave>
                </pitch>
                <duration>6</duration>
                <voice>1</voice>
                <type>quarter</type>
                <stem default-y="-19">up</stem>
            </note>
            <note default-x="208">
                <pitch>
                    <step>A</step>
                    <alter>-1</alter>
                    <octave>3</octave>
                </pitch>
                <duration>6</duration>
                <voice>1</voice>
                <type>quarter</type>
                <stem default-y="-18">up</stem>
            </note>
        </measure>
        <measure number="10" width="212">
            <print new-system="no"/>
            <note default-x="13">
                <rest/>
                <duration>3</duration>
                <voice>1</voice>
                <type>eighth</type>
                <notations>
                    <slur type="start" number="1" placement="below" default-x="7" default-y="-63" bezier-x="24" bezier-y="-77"/>
                </notations>
            </note>
            <note default-x="77">
                <pitch>
                    <step>B</step>
                    <alter>-1</alter>
                    <octave>3</octave>
                </pitch>
                <duration>18</duration>
                <voice>1</voice>
                <type>half</type>
                <dot/>
                <stem default-y="-19">up</stem>
                <notations>
                    <slur type="stop" number="1" default-x="4" default-y="-69" bezier-x="-16" bezier-y="-79"/>
                </notations>
            </note>
            <note default-x="168">
                <rest/>
                <duration>6</duration>
                <voice>1</voice>
                <type>quarter</type>
            </note>
        </measure>
        <measure number="11" width="331">
            <print new-system="yes">
                <system-layout>
                    <system-margins>
                        <left-margin>64</left-margin>
                        <right-margin>34</right-margin>
                    </system-margins>
                    <system-distance>111</system-distance>
                </system-layout>
            </print>
            <attributes>
                <staff-details print-object="yes"/>
            </attributes>
            <note default-x="118">
                <pitch>
                    <step>B</step>
                    <alter>-1</alter>
                    <octave>3</octave>
                </pitch>
                <duration>12</duration>
                <voice>1</voice>
                <type>half</type>
                <stem default-y="-20">up</stem>
            </note>
            <note default-x="186">
                <pitch>
                    <step>C</step>
                    <octave>4</octave>
                </pitch>
                <duration>18</duration>
                <voice>1</voice>
                <type>half</type>
                <dot/>
                <stem default-y="-16">up</stem>
            </note>
            <note default-x="280">
                <pitch>
                    <step>D</step>
                    <alter>-1</alter>
                    <octave>4</octave>
                </pitch>
                <duration>6</duration>
                <voice>1</voice>
                <type>quarter</type>
                <stem default-y="-9">up</stem>
            </note>
        </measure>
        <measure number="12" width="181">
            <print new-system="no"/>
        </measure>
        <measure number="13" width="244">
            <print new-system="no"/>
            <note default-x="15">
                <pitch>
                    <step>C</step>
                    <octave>4</octave>
                </pitch>
                <duration>6</duration>
                <voice>1</voice>
                <type>quarter</type>
                <stem default-y="-15">up</stem>
            </note>
            <note default-x="64">
                <rest/>
                <duration>6</duration>
                <voice>1</voice>
                <type>quarter</type>
            </note>
            <note default-x="99">
                <rest/>
                <duration>3</duration>
                <voice>1</voice>
                <type>eighth</type>
                <notations>
                    <slur type="start" number="1" placement="below" default-x="9" default-y="-62" bezier-x="35" bezier-y="-77"/>
                </notations>
            </note>
            <note default-x="194">
                <pitch>
                    <step>B</step>
                    <alter>-1</alter>
                    <octave>3</octave>
                </pitch>
                <duration>6</duration>
                <voice>1</voice>
                <type>quarter</type>
                <stem default-y="-20">up</stem>
                <notations>
                    <slur type="stop" number="1" default-x="1" default-y="-69" bezier-x="-28" bezier-y="-80"/>
                </notations>
            </note>
        </measure>
        <measure number="14" width="262">
            <print new-system="no"/>
            <note default-x="17">
                <pitch>
                    <step>A</step>
                    <alter>-1</alter>
                    <octave>3</octave>
                </pitch>
                <duration>6</duration>
                <voice>1</voice>
                <type>quarter</type>
                <stem default-y="-20">up</stem>
            </note>
            <note default-x="60">
                <pitch>
                    <step>B</step>
                    <alter>-1</alter>
                    <octave>3</octave>
                </pitch>
                <duration>6</duration>
                <voice>1</voice>
                <type>quarter</type>
                <stem default-y="-19">up</stem>
            </note>
            <note default-x="103">
                <pitch>
                    <step>C</step>
                    <octave>4</octave>
                </pitch>
                <duration>6</duration>
                <voice>1</voice>
                <type>quarter</type>
                <stem default-y="-15">up</stem>
            </note>
            <note default-x="146">
                <pitch>
                    <step>A</step>
                    <alter>-1</alter>
                    <octave>3</octave>
                </pitch>
                <duration>6</duration>
                <voice>1</voice>
                <type>quarter</type>
                <stem default-y="-19">up</stem>
            </note>
            <note default-x="189">
                <pitch>
                    <step>F</step>
                    <octave>3</octave>
                </pitch>
                <duration>12</duration>
                <voice>1</voice>
                <type>half</type>
                <stem default-y="-20">up</stem>
            </note>
        </measure>
        <measure number="15" width="224">
            <print new-system="no"/>
            <note default-x="16">
                <pitch>
                    <step>A</step>
                    <alter>-1</alter>
                    <octave>3</octave>
                </pitch>
                <duration>12</duration>
                <voice>1</voice>
                <type>half</type>
                <stem default-y="-19">up</stem>
            </note>
            <note default-x="84">
                <pitch>
                    <step>G</step>
                    <octave>3</octave>
                </pitch>
                <duration>12</duration>
                <voice>1</voice>
                <type>half</type>
                <stem default-y="-19">up</stem>
            </note>
            <note default-x="152">
                <pitch>
                    <step>F</step>
                    <octave>3</octave>
                </pitch>
                <duration>12</duration>
                <voice>1</voice>
                <type>half</type>
                <stem default-y="-19">up</stem>
            </note>
        </measure>
        <measure number="16" width="295">
            <print new-system="yes">
                <system-layout>
                    <system-margins>
                        <left-margin>66</left-margin>
                        <right-margin>33</right-margin>
                    </system-margins>
                    <system-distance>112</system-distance>
                </system-layout>
            </print>
            <attributes>
                <staff-details print-object="yes"/>
            </attributes>
            <note default-x="118">
                <pitch>
                    <step>E</step>
                    <octave>3</octave>
                </pitch>
                <duration>24</duration>
                <voice>1</voice>
                <type>whole</type>
                <accidental>natural</accidental>
            </note>
            <note default-x="208">
                <pitch>
                    <step>F</step>
                    <octave>3</octave>
                </pitch>
                <duration>6</duration>
                <tie type="start"/>
                <voice>1</voice>
                <type>quarter</type>
                <stem default-y="-19">up</stem>
                <notations>
                    <tied type="start" orientation="under" bezier-x="23" bezier-y="-97" default-x="11" default-y="-89"/>
                </notations>
            </note>
            <note default-x="251">
                <pitch>
                    <step>F</step>
                    <alter>1</alter>
                    <octave>3</octave>
                </pitch>
                <duration>6</duration>
                <tie type="stop"/>
                <voice>1</voice>
                <type>quarter</type>
                <accidental>sharp</accidental>
                <stem default-y="-19">up</stem>
                <notations>
                    <tied type="stop" bezier-x="-6" bezier-y="-96" default-x="5" default-y="-87"/>
                </notations>
            </note>
        </measure>
        <measure number="17" width="231">
            <print new-system="no"/>
            <note default-x="12">
                <rest/>
                <duration>3</duration>
                <voice>1</voice>
                <type>eighth</type>
                <notations>
                    <slur type="start" number="1" placement="below" default-x="8" default-y="-73" bezier-x="25" bezier-y="-87"/>
                </notations>
            </note>
            <note default-x="81">
                <pitch>
                    <step>G</step>
                    <octave>3</octave>
                </pitch>
                <duration>12</duration>
                <voice>1</voice>
                <type>half</type>
                <stem default-y="-19">up</stem>
                <notations>
                    <slur type="stop" number="1" default-x="1" default-y="-79" bezier-x="-19" bezier-y="-90"/>
                </notations>
            </note>
            <note default-x="145">
                <pitch>
                    <step>A</step>
                    <alter>-1</alter>
                    <octave>3</octave>
                </pitch>
                <duration>6</duration>
                <tie type="start"/>
                <voice>1</voice>
                <type>quarter</type>
                <stem default-y="-19">up</stem>
                <notations>
                    <tied type="start" orientation="under" bezier-x="18" bezier-y="-85" default-x="6" default-y="-76"/>
                </notations>
            </note>
            <note default-x="186">
                <pitch>
                    <step>A</step>
                    <octave>3</octave>
                </pitch>
                <duration>6</duration>
                <tie type="stop"/>
                <voice>1</voice>
                <type>quarter</type>
                <accidental>natural</accidental>
                <stem default-y="-19">up</stem>
                <notations>
                    <tied type="stop" bezier-x="-7" bezier-y="-85" default-x="5" default-y="-76"/>
                </notations>
            </note>
        </measure>
        <measure number="18" width="245">
            <print new-system="no"/>
            <note default-x="19">
                <pitch>
                    <step>C</step>
                    <octave>4</octave>
                </pitch>
                <duration>12</duration>
                <voice>1</voice>
                <type>half</type>
                <stem default-y="-15">up</stem>
                <notations>
                    <slur type="start" number="1" placement="below" default-x="6" default-y="-63" bezier-x="24" bezier-y="-77"/>
                </notations>
            </note>
            <note default-x="86">
                <pitch>
                    <step>B</step>
                    <alter>-1</alter>
                    <octave>3</octave>
                </pitch>
                <duration>12</duration>
                <voice>1</voice>
                <type>half</type>
                <stem default-y="-19">up</stem>
                <notations>
                    <slur type="stop" number="1" default-x="1" default-y="-69" bezier-x="-19" bezier-y="-79"/>
                </notations>
            </note>
            <direction placement="below">
                <direction-type>
                    <wedge type="crescendo" spread="0" default-y="-85"/>
                </direction-type>
            </direction>
            <note default-x="156">
                <pitch>
                    <step>E</step>
                    <octave>3</octave>
                </pitch>
                <duration>6</duration>
                <voice>1</voice>
                <type>quarter</type>
                <accidental>natural</accidental>
                <stem default-y="-19">up</stem>
            </note>
            <note default-x="197">
                <pitch>
                    <step>F</step>
                    <octave>3</octave>
                </pitch>
                <duration>6</duration>
                <voice>1</voice>
                <type>quarter</type>
                <stem default-y="-19">up</stem>
            </note>
        </measure>
        <measure number="19" width="257">
            <print new-system="no"/>
            <note default-x="18">
                <pitch>
                    <step>A</step>
                    <alter>-1</alter>
                    <octave>3</octave>
                </pitch>
                <duration>6</duration>
                <voice>1</voice>
                <type>quarter</type>
                <stem default-y="-19">up</stem>
            </note>
            <note default-x="59">
                <pitch>
                    <step>G</step>
                    <octave>3</octave>
                </pitch>
                <duration>6</duration>
                <voice>1</voice>
                <type>quarter</type>
                <stem default-y="-19">up</stem>
            </note>
            <note default-x="101">
                <pitch>
                    <step>B</step>
                    <alter>-1</alter>
                    <octave>3</octave>
                </pitch>
                <duration>6</duration>
                <voice>1</voice>
                <type>quarter</type>
                <stem default-y="-19">up</stem>
            </note>
            <direction>
                <direction-type>
                    <wedge type="stop" spread="18"/>
                </direction-type>
            </direction>
            <note default-x="141">
                <pitch>
                    <step>C</step>
                    <octave>4</octave>
                </pitch>
                <duration>6</duration>
                <voice>1</voice>
                <type>quarter</type>
                <stem default-y="-15">up</stem>
            </note>
            <note default-x="183">
                <pitch>
                    <step>D</step>
                    <alter>-1</alter>
                    <octave>4</octave>
                </pitch>
                <duration>12</duration>
                <tie type="start"/>
                <voice>1</voice>
                <type>half</type>
                <stem default-y="-9">up</stem>
                <notations>
                    <tied type="start" orientation="under" bezier-x="38" bezier-y="-62" default-x="16" default-y="-51"/>
                </notations>
            </note>
        </measure>
        <measure number="20" width="213">
            <print new-system="no"/>
            <note default-x="13">
                <pitch>
                    <step>D</step>
                    <alter>-1</alter>
                    <octave>4</octave>
                </pitch>
                <duration>12</duration>
                <tie type="stop"/>
                <voice>1</voice>
                <type>half</type>
                <stem default-y="-8">up</stem>
                <notations>
                    <tied type="stop" bezier-x="-23" bezier-y="-63" default-x="-1" default-y="-52"/>
                </notations>
            </note>
            <note default-x="85">
                <pitch>
                    <step>E</step>
                    <alter>-1</alter>
                    <octave>4</octave>
                </pitch>
                <duration>18</duration>
                <voice>1</voice>
                <type>half</type>
                <dot/>
                <stem default-y="-6">up</stem>
            </note>
            <note default-x="167">
                <pitch>
                    <step>B</step>
                    <alter>-1</alter>
                    <octave>3</octave>
                </pitch>
                <duration>6</duration>
                <voice>1</voice>
                <type>quarter</type>
                <stem default-y="-19">up</stem>
            </note>
        </measure>
        <measure number="21" width="345">
            <print new-system="yes">
                <system-layout>
                    <system-margins>
                        <left-margin>66</left-margin>
                        <right-margin>34</right-margin>
                    </system-margins>
                    <system-distance>112</system-distance>
                </system-layout>
            </print>
            <attributes>
                <key>
                    <fifths>-1</fifths>
                </key>
                <staff-details print-object="yes"/>
            </attributes>
            <note default-x="118">
                <pitch>
                    <step>D</step>
                    <octave>4</octave>
                </pitch>
                <duration>12</duration>
                <voice>1</voice>
                <type>half</type>
                <stem default-y="-9">up</stem>
                <notations>
                    <articulations>
                        <strong-accent type="up" default-y="-2" placement="above"/>
                    </articulations>
                </notations>
            </note>
            <note default-x="177">
                <rest/>
                <duration>3</duration>
                <voice>1</voice>
                <type>eighth</type>
            </note>
            <note default-x="254">
                <pitch>
                    <step>B</step>
                    <alter>-1</alter>
                    <octave>3</octave>
                </pitch>
                <duration>6</duration>
                <voice>1</voice>
                <type>quarter</type>
            </note>
            <note default-x="296">
                <pitch>
                    <step>G</step>
                    <octave>3</octave>
                </pitch>
                <duration>6</duration>
                <voice>1</voice>
                <type>quarter</type>
                <stem default-y="-20">up</stem>
            </note>
        </measure>
        <measure number="22" width="245">
            <print new-system="no"/>
            <note default-x="17">
                <pitch>
                    <step>B</step>
                    <alter>-1</alter>
                    <octave>3</octave>
                </pitch>
                <duration>6</duration>
                <voice>1</voice>
                <type>quarter</type>
                <stem default-y="-19">up</stem>
                <notations>
                    <slur type="start" number="1" placement="below" default-x="4" default-y="-69" bezier-x="30" bezier-y="-85"/>
                </notations>
            </note>
            <note default-x="62">
                <pitch>
                    <step>A</step>
                    <octave>3</octave>
                </pitch>
                <duration>6</duration>
                <voice>1</voice>
                <type>quarter</type>
                <accidental>natural</accidental>
                <stem default-y="-19">up</stem>
            </note>
            <note default-x="102">
                <pitch>
                    <step>A</step>
                    <octave>3</octave>
                </pitch>
                <duration>18</duration>
                <voice>1</voice>
                <type>half</type>
                <dot/>
                <stem default-y="-20">up</stem>
                <notations>
                    <slur type="stop" number="1" default-x="6" default-y="-75" bezier-x="-22" bezier-y="-87"/>
                </notations>
            </note>
            <note default-x="108">
                <chord/>
                <pitch>
                    <step>B</step>
                    <alter>-1</alter>
                    <octave>3</octave>
                </pitch>
                <duration>18</duration>
                <voice>1</voice>
                <type>half</type>
                <dot/>
                <stem default-y="-20">up</stem>
            </note>
            <note default-x="195">
                <pitch>
                    <step>A</step>
                    <octave>3</octave>
                </pitch>
                <duration>6</duration>
                <voice>1</voice>
                <type>quarter</type>
                <stem default-y="-20">up</stem>
            </note>
        </measure>
        <measure number="23" width="245">
            <print new-system="no"/>
            <note default-x="15">
                <pitch>
                    <step>G</step>
                    <octave>3</octave>
                </pitch>
                <duration>6</duration>
                <voice>1</voice>
                <type>quarter</type>
                <stem default-y="-20">up</stem>
                <notations>
                    <slur type="start" number="1" placement="below" default-x="6" default-y="-79" bezier-x="32" bezier-y="-94"/>
                </notations>
            </note>
            <note default-x="61">
                <pitch>
                    <step>G</step>
                    <alter>-1</alter>
                    <octave>3</octave>
                </pitch>
                <duration>6</duration>
                <voice>1</voice>
                <type>quarter</type>
                <accidental>flat</accidental>
                <stem default-y="-20">up</stem>
            </note>
            <note default-x="104">
                <pitch>
                    <step>F</step>
                    <octave>3</octave>
                </pitch>
                <duration>18</duration>
                <voice>1</voice>
                <type>half</type>
                <dot/>
                <stem default-y="-20">up</stem>
                <notations>
                    <slur type="stop" number="1" default-x="1" default-y="-85" bezier-x="-26" bezier-y="-96"/>
                </notations>
            </note>
            <note default-x="195">
                <pitch>
                    <step>F</step>
                    <octave>3</octave>
                </pitch>
                <duration>6</duration>
                <voice>1</voice>
                <type>quarter</type>
                <stem default-y="-21">up</stem>
            </note>
        </measure>
        <measure number="24" width="229">
            <print new-system="no"/>
            <note default-x="17">
                <pitch>
                    <step>F</step>
                    <octave>3</octave>
                </pitch>
                <duration>12</duration>
                <voice>1</voice>
                <type>half</type>
                <stem default-y="-20">up</stem>
                <notations>
                    <articulations>
                        <accent default-y="-90" placement="below"/>
                    </articulations>
                </notations>
            </note>
            <note default-x="90">
                <rest/>
                <duration>6</duration>
                <voice>1</voice>
                <type>quarter</type>
                <notations>
                    <articulations>
                        <accent default-y="-78" placement="below"/>
                    </articulations>
                </notations>
            </note>
            <note default-x="178">
                <pitch>
                    <step>E</step>
                    <octave>3</octave>
                </pitch>
                <duration>6</duration>
                <voice>1</voice>
                <type>quarter</type>
                <accidental>natural</accidental>
                <stem default-y="-21">up</stem>
                <notations>
                    <articulations>
                        <accent default-y="-95" placement="below"/>
                    </articulations>
                </notations>
            </note>
        </measure>
        <measure number="25" width="176">
            <print new-system="no"/>
        </measure>
        <measure number="25" width="475">
            <print new-system="yes">
                <system-layout>
                    <system-margins>
                        <left-margin>65</left-margin>
                        <right-margin>34</right-margin>
                    </system-margins>
                    <system-distance>123</system-distance>
                </system-layout>
            </print>
            <attributes>
                <key>
                    <fifths>-4</fifths>
                </key>
                <clef>
                    <sign>G</sign>
                    <line>2</line>
                    <clef-octave-change>1</clef-octave-change>
                </clef>
                <clef>
                    <sign>G</sign>
                    <line>2</line>
                </clef>
                <staff-details print-object="yes"/>
            </attributes>
            <direction placement="below">
                <direction-type>
                    <dynamics default-y="-66" relative-x="2">
                        <p/>
                    </dynamics>
                </direction-type>
                <sound dynamics="56"/>
            </direction>
            <direction placement="above">
                <direction-type>
                    <words font-family="serif" font-size="9" default-y="5" relative-x="3">Pia 1'1</words>
                </direction-type>
            </direction>
            <note default-x="11">
                <pitch>
                    <step>F</step>
                    <octave>4</octave>
                </pitch>
                <duration>6</duration>
                <tie type="start"/>
                <voice>1</voice>
                <type>quarter</type>
                <stem default-y="-7">up</stem>
                <notations>
                    <tied type="start" orientation="under" bezier-x="54" bezier-y="-65" default-x="5" default-y="-52"/>
                </notations>
            </note>
            <note default-x="40">
                <pitch>
                    <step>F</step>
                    <octave>4</octave>
                </pitch>
                <duration>6</duration>
                <voice>1</voice>
                <type>quarter</type>
                <stem default-y="-6">up</stem>
            </note>
            <note default-x="68">
                <pitch>
                    <step>F</step>
                    <octave>4</octave>
                </pitch>
                <duration>6</duration>
                <voice>1</voice>
                <type>quarter</type>
                <stem default-y="-5">up</stem>
            </note>
            <note default-x="96">
                <pitch>
                    <step>F</step>
                    <octave>4</octave>
                </pitch>
                <duration>6</duration>
                <voice>1</voice>
                <type>quarter</type>
                <stem default-y="-6">up</stem>
            </note>
            <note default-x="124">
                <pitch>
                    <step>F</step>
                    <octave>4</octave>
                </pitch>
                <duration>6</duration>
                <voice>1</voice>
                <type>quarter</type>
                <stem default-y="-6">up</stem>
            </note>
            <note default-x="153">
                <pitch>
                    <step>F</step>
                    <octave>4</octave>
                </pitch>
                <duration>6</duration>
                <tie type="stop"/>
                <voice>1</voice>
                <type>quarter</type>
                <stem default-y="-6">up</stem>
                <notations>
                    <tied type="stop" bezier-x="-38" bezier-y="-65" default-x="11" default-y="-51"/>
                </notations>
            </note>
            <attributes>
                <clef>
                    <sign>G</sign>
                    <line>2</line>
                    <clef-octave-change>1</clef-octave-change>
                </clef>
            </attributes>
        </measure>
        <measure number="26" width="195">
            <print new-system="no"/>
            <direction placement="below">
                <direction-type>
                    <dynamics default-y="-61" relative-x="-9">
                        <pp/>
                    </dynamics>
                </direction-type>
                <sound dynamics="45"/>
            </direction>
            <direction placement="above">
                <direction-type>
                    <words font-family="serif" font-style="italic" font-size="11" default-y="31" relative-x="-14">CLAR.</words>
                </direction-type>
            </direction>
            <note default-x="18">
                <pitch>
                    <step>A</step>
                    <alter>-1</alter>
                    <octave>6</octave>
                </pitch>
                <duration>8</duration>
                <voice>1</voice>
                <type>half</type>
                <time-modification>
                    <actual-notes>3</actual-notes>
                    <normal-notes>2</normal-notes>
                </time-modification>
                <stem default-y="-24">down</stem>
                <notations>
                    <tuplet type="start" number="1" placement="below"/>
                    <tuplet type="start" number="2" placement="below"/>
                    <articulations>
                        <accent default-y="-57" placement="below"/>
                    </articulations>
                </notations>
            </note>
            <direction placement="below">
                <direction-type>
                    <dynamics default-y="-61" relative-x="-3">
                        <mp/>
                    </dynamics>
                </direction-type>
                <sound dynamics="67"/>
            </direction>
            <note default-x="75">
                <pitch>
                    <step>B</step>
                    <alter>-1</alter>
                    <octave>6</octave>
                </pitch>
                <duration>8</duration>
                <voice>1</voice>
                <type>half</type>
                <time-modification>
                    <actual-notes>3</actual-notes>
                    <normal-notes>2</normal-notes>
                </time-modification>
                <stem default-y="-22">down</stem>
            </note>
            <note default-x="134">
                <pitch>
                    <step>G</step>
                    <octave>6</octave>
                </pitch>
                <duration>8</duration>
                <voice>1</voice>
                <type>half</type>
                <time-modification>
                    <actual-notes>3</actual-notes>
                    <normal-notes>2</normal-notes>
                </time-modification>
                <stem default-y="-32">down</stem>
                <notations>
                    <tuplet type="stop" number="1"/>
                    <tuplet type="stop" number="2"/>
                </notations>
            </note>
        </measure>
        <measure number="27" width="191">
            <print new-system="no"/>
            <note default-x="21">
                <pitch>
                    <step>E</step>
                    <octave>6</octave>
                </pitch>
                <duration>24</duration>
                <voice>1</voice>
                <type>whole</type>
                <accidental>natural</accidental>
            </note>
            <note default-x="108">
                <pitch>
                    <step>F</step>
                    <octave>6</octave>
                </pitch>
                <duration>6</duration>
                <voice>1</voice>
                <type>quarter</type>
                <stem default-y="-36">down</stem>
            </note>
            <note default-x="148">
                <pitch>
                    <step>G</step>
                    <octave>6</octave>
                </pitch>
                <duration>6</duration>
                <voice>1</voice>
                <type>quarter</type>
                <stem default-y="-32">down</stem>
            </note>
        </measure>
        <measure number="28" width="195">
            <print new-system="no"/>
            <note default-x="19">
                <pitch>
                    <step>B</step>
                    <alter>-1</alter>
                    <octave>6</octave>
                </pitch>
                <duration>12</duration>
                <voice>1</voice>
                <type>half</type>
                <stem default-y="-22">down</stem>
            </note>
            <note default-x="77">
                <pitch>
                    <step>C</step>
                    <octave>7</octave>
                </pitch>
                <duration>12</duration>
                <voice>1</voice>
                <type>half</type>
                <stem default-y="-21">down</stem>
            </note>
            <note default-x="133">
                <rest/>
                <duration>3</duration>
                <voice>1</voice>
                <type>eighth</type>
            </note>
        </measure>
        <measure number="29" width="186">
            <print new-system="no"/>
            <note default-x="20">
                <pitch>
                    <step>F</step>
                    <octave>6</octave>
                </pitch>
                <duration>24</duration>
                <voice>1</voice>
                <type>whole</type>
            </note>
            <note default-x="106">
                <pitch>
                    <step>G</step>
                    <octave>6</octave>
                </pitch>
                <duration>6</duration>
                <voice>1</voice>
                <type>quarter</type>
                <stem default-y="-32">down</stem>
            </note>
            <note default-x="146">
                <pitch>
                    <step>A</step>
                    <alter>-1</alter>
                    <octave>6</octave>
                </pitch>
                <duration>6</duration>
                <voice>1</voice>
                <type>quarter</type>
                <stem default-y="-25">down</stem>
            </note>
        </measure>
        <measure number="30" width="317">
            <print new-system="yes">
                <system-layout>
                    <system-margins>
                        <left-margin>66</left-margin>
                        <right-margin>34</right-margin>
                    </system-margins>
                    <system-distance>111</system-distance>
                </system-layout>
            </print>
            <attributes>
                <staff-details print-object="yes"/>
            </attributes>
            <note default-x="52">
                <pitch>
                    <step>F</step>
                    <octave>6</octave>
                </pitch>
                <duration>12</duration>
                <voice>1</voice>
                <type>half</type>
                <stem default-y="14">up</stem>
                <notations>
                    <articulations>
                        <staccatissimo default-y="-25" placement="below"/>
                    </articulations>
                </notations>
            </note>
            <note default-x="119">
                <pitch>
                    <step>C</step>
                    <octave>7</octave>
                </pitch>
                <duration>12</duration>
                <voice>1</voice>
                <type>half</type>
                <stem default-y="-21">down</stem>
            </note>
            <note default-x="184">
                <pitch>
                    <step>G</step>
                    <octave>6</octave>
                </pitch>
                <duration>18</duration>
                <voice>1</voice>
                <type>half</type>
                <dot/>
                <stem default-y="-32">down</stem>
            </note>
            <note default-x="270">
                <pitch>
                    <step>A</step>
                    <alter>-1</alter>
                    <octave>6</octave>
                </pitch>
                <duration>6</duration>
                <voice>1</voice>
                <type>quarter</type>
                <stem default-y="-25">down</stem>
            </note>
        </measure>
        <measure number="31" width="212">
            <print new-system="no"/>
            <note default-x="18">
                <pitch>
                    <step>B</step>
                    <alter>-1</alter>
                    <octave>6</octave>
                </pitch>
                <duration>12</duration>
                <voice>1</voice>
                <type>half</type>
                <stem default-y="-22">down</stem>
            </note>
            <note default-x="85">
                <pitch>
                    <step>E</step>
                    <octave>6</octave>
                </pitch>
                <duration>18</duration>
                <voice>1</voice>
                <type>half</type>
                <dot/>
                <accidental>natural</accidental>
                <stem default-y="-42">down</stem>
            </note>
            <note default-x="169">
                <pitch>
                    <step>F</step>
                    <octave>6</octave>
                </pitch>
                <duration>6</duration>
                <voice>1</voice>
                <type>quarter</type>
                <stem default-y="-37">down</stem>
            </note>
        </measure>
        <measure number="32" width="249">
            <print new-system="no"/>
            <note default-x="18">
                <pitch>
                    <step>A</step>
                    <alter>-1</alter>
                    <octave>6</octave>
                </pitch>
                <duration>12</duration>
                <voice>1</voice>
                <type>half</type>
                <stem default-y="-26">down</stem>
                <notations>
                    <slur type="start" number="1" placement="above" default-x="7" default-y="24" bezier-x="29" bezier-y="31"/>
                </notations>
            </note>
            <note default-x="84">
                <pitch>
                    <step>G</step>
                    <octave>6</octave>
                </pitch>
                <duration>6</duration>
                <voice>1</voice>
                <type>quarter</type>
                <stem default-y="-32">down</stem>
                <notations>
                    <slur type="stop" number="1" default-x="8" default-y="17" bezier-x="-13" bezier-y="29"/>
                </notations>
            </note>
            <note default-x="122">
                <rest/>
                <duration>6</duration>
                <voice>1</voice>
                <type>quarter</type>
            </note>
            <note default-x="164">
                <pitch>
                    <step>E</step>
                    <octave>6</octave>
                </pitch>
                <duration>6</duration>
                <voice>1</voice>
                <type>quarter</type>
                <accidental>natural</accidental>
                <stem default-y="-42">down</stem>
            </note>
            <note default-x="203">
                <pitch>
                    <step>G</step>
                    <octave>6</octave>
                </pitch>
                <duration>6</duration>
                <voice>1</voice>
                <type>quarter</type>
                <stem default-y="-32">down</stem>
            </note>
        </measure>
        <measure number="33" width="249">
            <print new-system="no"/>
            <note default-x="18">
                <pitch>
                    <step>B</step>
                    <alter>-1</alter>
                    <octave>6</octave>
                </pitch>
                <duration>12</duration>
                <voice>1</voice>
                <type>half</type>
                <stem default-y="-22">down</stem>
                <notations>
                    <slur type="start" number="1" placement="above" default-x="8" default-y="31" bezier-x="31" bezier-y="38"/>
                </notations>
            </note>
            <note default-x="84">
                <pitch>
                    <step>A</step>
                    <alter>-1</alter>
                    <octave>6</octave>
                </pitch>
                <duration>6</duration>
                <voice>1</voice>
                <type>quarter</type>
                <stem default-y="-27">down</stem>
                <notations>
                    <slur type="stop" number="1" default-x="10" default-y="23" bezier-x="-10" bezier-y="35"/>
                </notations>
            </note>
            <note default-x="122">
                <rest/>
                <duration>6</duration>
                <voice>1</voice>
                <type>quarter</type>
            </note>
            <note default-x="165">
                <pitch>
                    <step>F</step>
                    <octave>6</octave>
                </pitch>
                <duration>6</duration>
                <voice>1</voice>
                <type>quarter</type>
                <stem default-y="-35">down</stem>
            </note>
            <note default-x="205">
                <pitch>
                    <step>A</step>
                    <alter>-1</alter>
                    <octave>6</octave>
                </pitch>
                <duration>6</duration>
                <voice>1</voice>
                <type>quarter</type>
                <stem default-y="-24">down</stem>
            </note>
        </measure>
        <measure number="34" width="214">
            <print new-system="no"/>
            <note default-x="18">
                <pitch>
                    <step>C</step>
                    <octave>7</octave>
                </pitch>
                <duration>12</duration>
                <voice>1</voice>
                <type>half</type>
                <stem default-y="-22">down</stem>
                <notations>
                    <slur type="start" number="1" placement="above" default-x="9" default-y="36" bezier-x="31" bezier-y="43"/>
                </notations>
            </note>
            <note default-x="85">
                <pitch>
                    <step>B</step>
                    <alter>-1</alter>
                    <octave>6</octave>
                </pitch>
                <duration>18</duration>
                <voice>1</voice>
                <type>half</type>
                <dot/>
                <stem default-y="-22">down</stem>
                <notations>
                    <slur type="stop" number="1" default-x="8" default-y="29" bezier-x="-12" bezier-y="41"/>
                </notations>
            </note>
            <note default-x="169">
                <rest/>
                <duration>6</duration>
                <voice>1</voice>
                <type>quarter</type>
            </note>
        </measure>
        <measure number="35" width="329">
            <print new-system="yes">
                <system-layout>
                    <system-margins>
                        <left-margin>65</left-margin>
                        <right-margin>34</right-margin>
                    </system-margins>
                    <system-distance>111</system-distance>
                </system-layout>
            </print>
            <attributes>
                <key>
                    <fifths>-1</fifths>
                </key>
                <staff-details print-object="yes"/>
            </attributes>
            <note default-x="16">
                <rest/>
                <duration>3</duration>
                <voice>1</voice>
                <type>eighth</type>
            </note>
            <note default-x="122">
                <pitch>
                    <step>B</step>
                    <alter>-1</alter>
                    <octave>6</octave>
                </pitch>
                <duration>12</duration>
                <voice>1</voice>
                <type>half</type>
                <stem default-y="-21">down</stem>
                <notations>
                    <articulations>
                        <accent default-y="-58" placement="below"/>
                    </articulations>
                </notations>
            </note>
            <note default-x="189">
                <pitch>
                    <step>C</step>
                    <octave>7</octave>
                </pitch>
                <duration>9</duration>
                <voice>1</voice>
                <type>quarter</type>
                <dot/>
                <stem default-y="-21">down</stem>
            </note>
            <note default-x="282">
                <pitch>
                    <step>D</step>
                    <octave>7</octave>
                </pitch>
                <duration>6</duration>
                <voice>1</voice>
                <type>quarter</type>
                <stem default-y="-21">down</stem>
            </note>
        </measure>
        <measure number="36" width="181">
            <print new-system="no"/>
        </measure>
        <measure number="37" width="244">
            <print new-system="no"/>
            <note default-x="18">
                <pitch>
                    <step>C</step>
                    <octave>7</octave>
                </pitch>
                <duration>6</duration>
                <voice>1</voice>
                <type>quarter</type>
                <stem default-y="-21">down</stem>
            </note>
            <note default-x="61">
                <rest/>
                <duration>6</duration>
                <voice>1</voice>
                <type>quarter</type>
            </note>
            <note default-x="197">
                <pitch>
                    <step>B</step>
                    <alter>-1</alter>
                    <octave>6</octave>
                </pitch>
                <duration>6</duration>
                <voice>1</voice>
                <type>quarter</type>
                <stem default-y="-21">down</stem>
            </note>
        </measure>
        <measure number="38" width="262">
            <print new-system="no"/>
            <note default-x="18">
                <pitch>
                    <step>A</step>
                    <octave>6</octave>
                </pitch>
                <duration>6</duration>
                <voice>1</voice>
                <type>quarter</type>
                <stem default-y="-23">down</stem>
                <notations>
                    <slur type="start" number="1" placement="above" default-x="3" default-y="31" bezier-x="63" bezier-y="55"/>
                </notations>
            </note>
            <note default-x="62">
                <pitch>
                    <step>B</step>
                    <alter>-1</alter>
                    <octave>6</octave>
                </pitch>
                <duration>6</duration>
                <voice>1</voice>
                <type>quarter</type>
                <stem default-y="-21">down</stem>
            </note>
            <note default-x="105">
                <pitch>
                    <step>C</step>
                    <octave>7</octave>
                </pitch>
                <duration>6</duration>
                <voice>1</voice>
                <type>quarter</type>
                <stem default-y="-21">down</stem>
            </note>
            <note default-x="148">
                <pitch>
                    <step>A</step>
                    <octave>6</octave>
                </pitch>
                <duration>6</duration>
                <voice>1</voice>
                <type>quarter</type>
                <stem default-y="-25">down</stem>
            </note>
            <note default-x="192">
                <pitch>
                    <step>F</step>
                    <octave>6</octave>
                </pitch>
                <duration>12</duration>
                <voice>1</voice>
                <type>half</type>
                <stem default-y="-35">down</stem>
                <notations>
                    <slur type="stop" number="1" default-x="11" default-y="17" bezier-x="-44" bezier-y="50"/>
                </notations>
            </note>
        </measure>
        <measure number="39" width="225">
            <print new-system="no"/>
            <note default-x="21">
                <pitch>
                    <step>A</step>
                    <octave>6</octave>
                </pitch>
                <duration>12</duration>
                <voice>1</voice>
                <type>half</type>
                <stem default-y="-25">down</stem>
            </note>
            <note default-x="88">
                <pitch>
                    <step>G</step>
                    <octave>6</octave>
                </pitch>
                <duration>12</duration>
                <voice>1</voice>
                <type>half</type>
                <stem default-y="-31">down</stem>
            </note>
            <note default-x="156">
                <pitch>
                    <step>F</step>
                    <octave>6</octave>
                </pitch>
                <duration>12</duration>
                <voice>1</voice>
                <type>half</type>
                <stem default-y="-36">down</stem>
            </note>
        </measure>
        <measure number="40" width="304">
            <print new-system="yes">
                <system-layout>
                    <system-margins>
                        <left-margin>67</left-margin>
                        <right-margin>32</right-margin>
                    </system-margins>
                    <system-distance>111</system-distance>
                </system-layout>
            </print>
            <attributes>
                <key>
                    <fifths>-4</fifths>
                </key>
                <staff-details print-object="yes"/>
            </attributes>
            <note default-x="11">
                <rest/>
                <duration>6</duration>
                <voice>1</voice>
                <type>quarter</type>
            </note>
            <note default-x="121">
                <pitch>
                    <step>E</step>
                    <octave>6</octave>
                </pitch>
                <duration>24</duration>
                <voice>1</voice>
                <type>whole</type>
                <accidental>natural</accidental>
            </note>
            <note default-x="214">
                <pitch>
                    <step>F</step>
                    <octave>6</octave>
                </pitch>
                <duration>6</duration>
                <tie type="start"/>
                <voice>1</voice>
                <type>quarter</type>
                <stem default-y="-34">down</stem>
                <notations>
                    <tied type="start" orientation="over" bezier-x="23" bezier-y="24" default-x="9" default-y="17"/>
                </notations>
            </note>
            <note default-x="259">
                <pitch>
                    <step>F</step>
                    <alter>1</alter>
                    <octave>6</octave>
                </pitch>
                <duration>6</duration>
                <tie type="stop"/>
                <voice>1</voice>
                <type>quarter</type>
                <accidental>sharp</accidental>
                <stem default-y="-33">down</stem>
                <notations>
                    <tied type="stop" bezier-x="-6" bezier-y="23" default-x="7" default-y="15"/>
                </notations>
            </note>
        </measure>
        <measure number="41" width="242">
            <print new-system="no"/>
            <note default-x="21">
                <pitch>
                    <step>A</step>
                    <alter>-1</alter>
                    <octave>6</octave>
                </pitch>
                <duration>12</duration>
                <voice>1</voice>
                <type>half</type>
                <stem default-y="-26">down</stem>
                <notations>
                    <slur type="start" number="1" placement="above" default-x="12" default-y="26" bezier-x="33" bezier-y="31"/>
                </notations>
            </note>
            <note default-x="87">
                <pitch>
                    <step>G</step>
                    <octave>6</octave>
                </pitch>
                <duration>12</duration>
                <voice>1</voice>
                <type>half</type>
                <stem default-y="-31">down</stem>
                <notations>
                    <slur type="stop" number="1" default-x="6" default-y="18" bezier-x="-12" bezier-y="28"/>
                </notations>
            </note>
            <note default-x="156">
                <pitch>
                    <step>A</step>
                    <alter>-1</alter>
                    <octave>6</octave>
                </pitch>
                <duration>6</duration>
                <tie type="start"/>
                <voice>1</voice>
                <type>quarter</type>
                <stem default-y="-25">down</stem>
                <notations>
                    <tied type="start" orientation="over" bezier-x="17" bezier-y="36" default-x="2" default-y="26"/>
                </notations>
            </note>
            <note default-x="199">
                <pitch>
                    <step>A</step>
                    <octave>6</octave>
                </pitch>
                <duration>6</duration>
                <tie type="stop"/>
                <voice>1</voice>
                <type>quarter</type>
                <accidental>natural</accidental>
                <stem default-y="-24">down</stem>
                <notations>
                    <tied type="stop" bezier-x="-6" bezier-y="36" default-x="9" default-y="27"/>
                </notations>
            </note>
        </measure>
        <measure number="42" width="236">
            <print new-system="no"/>
            <note default-x="21">
                <pitch>
                    <step>C</step>
                    <octave>7</octave>
                </pitch>
                <duration>12</duration>
                <voice>1</voice>
                <type>half</type>
                <stem default-y="-21">down</stem>
                <notations>
                    <slur type="start" number="1" placement="above" default-x="9" default-y="36" bezier-x="31" bezier-y="43"/>
                </notations>
            </note>
            <note default-x="87">
                <pitch>
                    <step>B</step>
                    <alter>-1</alter>
                    <octave>6</octave>
                </pitch>
                <duration>12</duration>
                <voice>1</voice>
                <type>half</type>
                <stem default-y="-22">down</stem>
                <notations>
                    <slur type="stop" number="1" default-x="8" default-y="29" bezier-x="-12" bezier-y="40"/>
                </notations>
            </note>
            <note default-x="153">
                <pitch>
                    <step>E</step>
                    <octave>6</octave>
                </pitch>
                <duration>6</duration>
                <voice>1</voice>
                <type>quarter</type>
                <accidental>natural</accidental>
                <stem default-y="-42">down</stem>
                <notations>
                    <slur type="start" number="1" placement="above" default-x="12" default-y="16" bezier-x="94" bezier-y="45"/>
                </notations>
            </note>
            <note default-x="192">
                <pitch>
                    <step>F</step>
                    <octave>6</octave>
                </pitch>
                <duration>6</duration>
                <voice>1</voice>
                <type>quarter</type>
                <stem default-y="-36">down</stem>
            </note>
        </measure>
        <measure number="43" width="245">
            <print new-system="no"/>
            <note default-x="18">
                <pitch>
                    <step>A</step>
                    <alter>-1</alter>
                    <octave>6</octave>
                </pitch>
                <duration>6</duration>
                <voice>1</voice>
                <type>quarter</type>
                <stem default-y="-25">down</stem>
            </note>
            <note default-x="59">
                <pitch>
                    <step>G</step>
                    <octave>6</octave>
                </pitch>
                <duration>6</duration>
                <voice>1</voice>
                <type>quarter</type>
                <stem default-y="-32">down</stem>
            </note>
            <note default-x="99">
                <pitch>
                    <step>B</step>
                    <alter>-1</alter>
                    <octave>6</octave>
                </pitch>
                <duration>6</duration>
                <voice>1</voice>
                <type>quarter</type>
                <stem default-y="-22">down</stem>
            </note>
            <note default-x="139">
                <pitch>
                    <step>C</step>
                    <octave>7</octave>
                </pitch>
                <duration>6</duration>
                <voice>1</voice>
                <type>quarter</type>
                <stem default-y="-22">down</stem>
            </note>
            <note default-x="181">
                <pitch>
                    <step>D</step>
                    <alter>-1</alter>
                    <octave>7</octave>
                </pitch>
                <duration>12</duration>
                <tie type="start"/>
                <voice>1</voice>
                <type>half</type>
                <stem default-y="-21">down</stem>
                <notations>
                    <slur type="stop" number="1" default-x="2" default-y="43" bezier-x="-83" bezier-y="54"/>
                    <tied type="start" orientation="over" bezier-x="28" bezier-y="47" default-x="4" default-y="32"/>
                </notations>
            </note>
        </measure>
        <measure number="44" width="214">
            <print new-system="no"/>
            <direction placement="below">
                <direction-type>
                    <wedge type="crescendo" spread="0" default-y="-51"/>
                </direction-type>
            </direction>
            <note default-x="19">
                <pitch>
                    <step>D</step>
                    <alter>-1</alter>
                    <octave>7</octave>
                </pitch>
                <duration>12</duration>
                <tie type="stop"/>
                <voice>1</voice>
                <type>half</type>
                <stem default-y="-21">down</stem>
                <notations>
                    <tied type="stop" bezier-x="-26" bezier-y="49" default-x="-1" default-y="36"/>
                    <slur type="start" number="1" placement="above" default-x="9" default-y="44" bezier-x="70" bezier-y="61"/>
                </notations>
            </note>
            <direction>
                <direction-type>
                    <wedge type="stop" spread="14"/>
                </direction-type>
            </direction>
            <direction placement="below">
                <direction-type>
                    <wedge type="diminuendo" spread="14" default-y="-52"/>
                </direction-type>
            </direction>
            <note default-x="83">
                <pitch>
                    <step>E</step>
                    <alter>-1</alter>
                    <octave>7</octave>
                </pitch>
                <duration>18</duration>
                <voice>1</voice>
                <type>half</type>
                <dot/>
                <stem default-y="-22">down</stem>
            </note>
            <direction>
                <direction-type>
                    <wedge type="stop" spread="0"/>
                </direction-type>
            </direction>
            <note default-x="170">
                <pitch>
                    <step>B</step>
                    <alter>-1</alter>
                    <octave>6</octave>
                </pitch>
                <duration>6</duration>
                <voice>1</voice>
                <type>quarter</type>
                <stem default-y="-21">down</stem>
            </note>
        </measure>
        <measure number="45" width="301">
            <print new-system="yes">
                <system-layout>
                    <system-margins>
                        <left-margin>69</left-margin>
                        <right-margin>31</right-margin>
                    </system-margins>
                    <system-distance>109</system-distance>
                </system-layout>
            </print>
            <attributes>
                <key>
                    <fifths>-3</fifths>
                </key>
                <clef>
                    <sign>G</sign>
                    <line>2</line>
                </clef>
                <staff-details print-object="yes"/>
            </attributes>
            <note default-x="119">
                <pitch>
                    <step>D</step>
                    <octave>6</octave>
                </pitch>
                <duration>12</duration>
                <voice>1</voice>
                <type>half</type>
                <stem default-y="-22">down</stem>
            </note>
            <note default-x="175">
                <pitch>
                    <step>C</step>
                    <octave>6</octave>
                </pitch>
                <duration>12</duration>
                <voice>1</voice>
                <type>half</type>
                <stem default-y="-22">down</stem>
                <notations>
                    <slur type="stop" number="1" default-x="-2" default-y="38" bezier-x="-32" bezier-y="46"/>
                </notations>
            </note>
            <note default-x="228">
                <pitch>
                    <step>B</step>
                    <alter>-1</alter>
                    <octave>5</octave>
                </pitch>
                <duration>6</duration>
                <voice>1</voice>
                <type>quarter</type>
                <stem default-y="-22">down</stem>
                <notations>
                    <slur type="start" number="1" placement="above" default-x="9" default-y="31" bezier-x="59" bezier-y="42"/>
                </notations>
            </note>
            <note default-x="265">
                <pitch>
                    <step>G</step>
                    <octave>5</octave>
                </pitch>
                <duration>6</duration>
                <voice>1</voice>
                <type>quarter</type>
                <stem default-y="-32">down</stem>
            </note>
        </measure>
        <measure number="46" width="204">
            <print new-system="no"/>
            <note default-x="15">
                <pitch>
                    <step>B</step>
                    <alter>-1</alter>
                    <octave>5</octave>
                </pitch>
                <duration>6</duration>
                <voice>1</voice>
                <type>quarter</type>
                <stem default-y="-22">down</stem>
            </note>
            <note default-x="51">
                <pitch>
                    <step>A</step>
                    <octave>5</octave>
                </pitch>
                <duration>6</duration>
                <voice>1</voice>
                <type>quarter</type>
                <accidental>natural</accidental>
                <stem default-y="-26">down</stem>
            </note>
            <note default-x="86">
                <rest/>
                <duration>3</duration>
                <voice>1</voice>
                <type>eighth</type>
                <notations>
                    <slur type="stop" number="1" default-x="1" default-y="27" bezier-x="-48" bezier-y="41"/>
                </notations>
            </note>
            <note default-x="165">
                <pitch>
                    <step>A</step>
                    <octave>5</octave>
                </pitch>
                <duration>6</duration>
                <voice>1</voice>
                <type>quarter</type>
                <stem default-y="-26">down</stem>
                <notations>
                    <slur type="start" number="1" placement="above" default-x="8" default-y="28" bezier-x="49" bezier-y="39"/>
                </notations>
            </note>
        </measure>
        <measure number="47" width="175">
            <print new-system="no"/>
            <note default-x="18">
                <pitch>
                    <step>G</step>
                    <octave>5</octave>
                </pitch>
                <duration>6</duration>
                <voice>1</voice>
                <type>quarter</type>
                <stem default-y="-33">down</stem>
            </note>
            <note default-x="52">
                <pitch>
                    <step>G</step>
                    <alter>-1</alter>
                    <octave>5</octave>
                </pitch>
                <duration>6</duration>
                <voice>1</voice>
                <type>quarter</type>
                <accidental>flat</accidental>
                <stem default-y="-33">down</stem>
            </note>
            <note default-x="86">
                <pitch>
                    <step>F</step>
                    <octave>5</octave>
                </pitch>
                <duration>24</duration>
                <voice>1</voice>
                <type>whole</type>
                <notations>
                    <slur type="stop" number="1" default-x="5" default-y="11" bezier-x="-32" bezier-y="32"/>
                </notations>
            </note>
        </measure>
        <measure number="48" width="191">
            <print new-system="no"/>
            <direction placement="below">
                <direction-type>
                    <dynamics default-y="-59" relative-x="1">
                        <ppp/>
                    </dynamics>
                </direction-type>
                <sound dynamics="34"/>
            </direction>
            <note default-x="20">
                <pitch>
                    <step>G</step>
                    <octave>5</octave>
                </pitch>
                <duration>12</duration>
                <voice>1</voice>
                <type>half</type>
                <stem default-y="-33">down</stem>
                <notations>
                    <slur type="start" number="1" placement="above" default-x="5" default-y="21" bezier-x="74" bezier-y="39"/>
                </notations>
            </note>
            <note default-x="74">
                <pitch>
                    <step>A</step>
                    <alter>-1</alter>
                    <octave>5</octave>
                </pitch>
                <duration>18</duration>
                <voice>1</voice>
                <type>half</type>
                <dot/>
                <stem default-y="-28">down</stem>
            </note>
            <note default-x="155">
                <pitch>
                    <step>E</step>
                    <octave>5</octave>
                </pitch>
                <duration>6</duration>
                <voice>1</voice>
                <type>quarter</type>
                <accidental>natural</accidental>
                <stem default-y="-44">down</stem>
            </note>
        </measure>
        <measure number="49" width="152">
            <print new-system="no"/>
            <note default-x="51">
                <pitch>
                    <step>F</step>
                    <octave>5</octave>
                </pitch>
                <duration>36</duration>
                <voice>1</voice>
                <type>whole</type>
                <dot/>
                <notations>
                    <slur type="stop" number="1" default-x="-5" default-y="18" bezier-x="-74" bezier-y="39"/>
                </notations>
            </note>
        </measure>
        <measure number="52" width="159">
            <print new-system="no"/>
            <barline location="right">
                <bar-style>light-light</bar-style>
            </barline>
            <attributes>
                <key>
                    <fifths>-1</fifths>
                </key>
            </attributes>
        </measure>
    </part>
</score-partwise>