<?xml version="1.0" encoding="UTF-8"?>
<!DOCTYPE score-partwise PUBLIC "-//Recordare//DTD MusicXML 3.0 Partwise//EN" "http://www.musicxml.org/dtds/partwise.dtd">
<score-partwise version="3.0">
    <work>
        <work-number>CLARINETTE</work-number>
    </work>
    <identification>
        <creator type="lyricist">10</creator>
        <rights>PI’</rights>
        <encoding>
            <software>audiveris 4.3.3406</software>
            <software>ProxyMusic 3.0.110</software>
            <encoding-date>2015-04-01</encoding-date>
        </encoding>
        <source>C:\Users\eholder0\Dropbox\Public\College\2015-01 Spring\OS X Thesis\MusicScoring\ClarinetSpecificSamplePieces\Graded Pieces\Cropped\Saint Saens Clarinet Sonata Part 9.png</source>
    </identification>
    <defaults>
        <scaling>
            <millimeters>6.0960</millimeters>
            <tenths>40</tenths>
        </scaling>
        <page-layout>
            <page-height>1833</page-height>
            <page-width>1417</page-width>
            <page-margins type="both">
                <left-margin>80</left-margin>
                <right-margin>80</right-margin>
                <top-margin>80</top-margin>
                <bottom-margin>80</bottom-margin>
            </page-margins>
        </page-layout>
        <lyric-font font-family="Serif" font-size="10"/>
    </defaults>
    <credit page="1">
        <credit-words font-family="serif" font-size="15" font-weight="bold" default-x="637" default-y="1777">CLARINETTE</credit-words>
    </credit>
    <credit page="1">
        <credit-words font-family="serif" font-size="10" font-weight="bold" default-x="158" default-y="1776">10</credit-words>
    </credit>
    <credit page="1">
        <credit-words font-family="serif" font-style="italic" font-size="10" default-x="1207" default-y="1614">dz);</credit-words>
    </credit>
    <credit page="1">
        <credit-words font-family="serif" font-size="12" font-weight="bold" default-x="713" default-y="1531">1</credit-words>
    </credit>
    <credit page="1">
        <credit-words font-family="serif" font-style="italic" font-size="11" default-x="783" default-y="247">PI’</credit-words>
    </credit>
    <part-list>
        <score-part id="P1">
            <part-name>Part_1</part-name>
            <score-instrument id="P1-I1">
                <instrument-name>Voice Oohs</instrument-name>
            </score-instrument>
            <midi-instrument id="P1-I1">
                <midi-channel>1</midi-channel>
                <midi-program>54</midi-program>
                <volume>78</volume>
            </midi-instrument>
        </score-part>
    </part-list>
    <part id="P1">
        <measure number="1" width="200">
            <print>
                <system-layout>
                    <system-margins>
                        <left-margin>79</left-margin>
                        <right-margin>0</right-margin>
                    </system-margins>
                    <top-system-distance>55</top-system-distance>
                </system-layout>
                <measure-numbering>system</measure-numbering>
            </print>
            <attributes>
                <divisions>2</divisions>
                <clef>
                    <sign>G</sign>
                    <line>2</line>
                    <clef-octave-change>1</clef-octave-change>
                </clef>
                <staff-details print-object="yes"/>
            </attributes>
            <direction>
                <direction-type>
                    <words></words>
                </direction-type>
                <sound tempo="120"/>
            </direction>
            <note default-x="79">
                <pitch>
                    <step>A</step>
                    <octave>6</octave>
                </pitch>
                <duration>8</duration>
                <voice>1</voice>
                <type>whole</type>
                <notations>
                    <articulations>
                        <staccatissimo default-y="-18" placement="below"/>
                    </articulations>
                </notations>
                <lyric number="1" default-y="-63">
                    <syllabic>single</syllabic>
                    <text>PI’</text>
                </lyric>
            </note>
        </measure>
        <measure number="2" width="179">
            <print new-system="no"/>
            <note default-x="59">
                <pitch>
                    <step>A</step>
                    <octave>6</octave>
                </pitch>
                <duration>8</duration>
                <tie type="start"/>
                <voice>1</voice>
                <type>whole</type>
                <notations>
                    <tied type="start" orientation="over" bezier-x="56" bezier-y="31" default-x="21" default-y="22"/>
                </notations>
            </note>
        </measure>
        <measure number="3" width="262">
            <print new-system="no"/>
            <note default-x="19">
                <pitch>
                    <step>A</step>
                    <octave>6</octave>
                </pitch>
                <duration>2</duration>
                <tie type="stop"/>
                <voice>1</voice>
                <type>quarter</type>
                <stem default-y="-23">down</stem>
                <notations>
                    <tied type="stop" bezier-x="-48" bezier-y="30" default-x="-13" default-y="21"/>
                </notations>
            </note>
            <note default-x="79">
                <pitch>
                    <step>C</step>
                    <alter>1</alter>
                    <octave>6</octave>
                </pitch>
                <duration>2</duration>
                <voice>1</voice>
                <type>quarter</type>
                <accidental>sharp</accidental>
                <stem default-y="-47">down</stem>
                <notations>
                    <slur type="start" number="1" placement="above" default-x="4" default-y="1" bezier-x="40" bezier-y="21"/>
                </notations>
            </note>
            <note default-x="139">
                <pitch>
                    <step>F</step>
                    <octave>6</octave>
                </pitch>
                <duration>2</duration>
                <voice>1</voice>
                <type>quarter</type>
                <stem default-y="-32">down</stem>
            </note>
            <note default-x="200">
                <pitch>
                    <step>E</step>
                    <octave>6</octave>
                </pitch>
                <duration>2</duration>
                <voice>1</voice>
                <type>quarter</type>
                <stem default-y="-38">down</stem>
                <notations>
                    <slur type="stop" number="1" default-x="1" default-y="11" bezier-x="-38" bezier-y="24"/>
                </notations>
            </note>
        </measure>
        <measure number="4" width="267">
            <print new-system="no"/>
            <note default-x="19">
                <pitch>
                    <step>A</step>
                    <octave>5</octave>
                </pitch>
                <duration>2</duration>
                <voice>1</voice>
                <type>quarter</type>
                <stem default-y="-56">down</stem>
                <notations>
                    <slur type="start" number="1" placement="above" default-x="5" default-y="-8" bezier-x="41" bezier-y="14"/>
                </notations>
            </note>
            <note default-x="81">
                <pitch>
                    <step>D</step>
                    <octave>6</octave>
                </pitch>
                <duration>2</duration>
                <voice>1</voice>
                <type>quarter</type>
                <stem default-y="-42">down</stem>
            </note>
            <note default-x="143">
                <pitch>
                    <step>C</step>
                    <alter>1</alter>
                    <octave>6</octave>
                </pitch>
                <duration>2</duration>
                <voice>1</voice>
                <type>quarter</type>
                <accidental>sharp</accidental>
                <stem default-y="-47">down</stem>
                <notations>
                    <slur type="stop" number="1" default-x="1" default-y="0" bezier-x="-38" bezier-y="17"/>
                </notations>
            </note>
            <note default-x="201">
                <pitch>
                    <step>E</step>
                    <octave>5</octave>
                </pitch>
                <duration>2</duration>
                <voice>1</voice>
                <type>quarter</type>
                <stem default-y="-3">up</stem>
                <notations>
                    <slur type="start" number="1" placement="below" default-x="17" default-y="-49" bezier-x="62" bezier-y="-59"/>
                </notations>
            </note>
        </measure>
        <measure number="5" width="269">
            <print new-system="no"/>
            <note default-x="19">
                <pitch>
                    <step>B</step>
                    <octave>5</octave>
                </pitch>
                <duration>2</duration>
                <voice>1</voice>
                <type>quarter</type>
                <stem default-y="17">up</stem>
            </note>
            <note default-x="81">
                <pitch>
                    <step>A</step>
                    <octave>5</octave>
                </pitch>
                <duration>2</duration>
                <voice>1</voice>
                <type>quarter</type>
                <stem default-y="10">up</stem>
                <notations>
                    <slur type="stop" number="1" default-x="6" default-y="-34" bezier-x="-37" bezier-y="-53"/>
                </notations>
            </note>
            <note default-x="141">
                <pitch>
                    <step>C</step>
                    <octave>5</octave>
                </pitch>
                <duration>2</duration>
                <voice>1</voice>
                <type>quarter</type>
                <stem default-y="-13">up</stem>
                <notations>
                    <articulations>
                        <accent default-y="-78" placement="below"/>
                    </articulations>
                    <slur type="start" number="1" placement="below" default-x="17" default-y="-60" bezier-x="54" bezier-y="-65"/>
                </notations>
            </note>
            <note default-x="203">
                <pitch>
                    <step>F</step>
                    <octave>5</octave>
                </pitch>
                <duration>2</duration>
                <voice>1</voice>
                <type>quarter</type>
                <stem default-y="1">up</stem>
            </note>
        </measure>
        <measure number="6" width="213">
            <print new-system="yes">
                <system-layout>
                    <system-margins>
                        <left-margin>83</left-margin>
                        <right-margin>1</right-margin>
                    </system-margins>
                    <system-distance>133</system-distance>
                </system-layout>
            </print>
            <attributes>
                <clef>
                    <sign>G</sign>
                    <line>2</line>
                </clef>
                <staff-details print-object="yes"/>
            </attributes>
            <direction placement="above">
                <direction-type>
                    <words font-family="serif" font-size="14" font-weight="bold" default-y="17" relative-x="-5">Rit.</words>
                </direction-type>
            </direction>
            <note default-x="79">
                <pitch>
                    <step>E</step>
                    <octave>4</octave>
                </pitch>
                <duration>4</duration>
                <voice>1</voice>
                <type>half</type>
                <stem default-y="-6">up</stem>
                <notations>
                    <articulations>
                        <staccatissimo default-y="-19" placement="above"/>
                    </articulations>
                    <slur type="stop" number="1" default-x="-6" default-y="-53" bezier-x="-15" bezier-y="-56"/>
                </notations>
            </note>
            <note default-x="144">
                <pitch>
                    <step>E</step>
                    <octave>3</octave>
                </pitch>
                <duration>4</duration>
                <voice>1</voice>
                <type>half</type>
                <stem default-y="-18">up</stem>
                <notations>
                    <slur type="start" number="1" placement="below" default-x="22" default-y="-89" bezier-x="49" bezier-y="-91"/>
                </notations>
                <lyric number="1" default-y="-112">
                    <syllabic>single</syllabic>
                    <text>l’1’l'</text>
                </lyric>
            </note>
        </measure>
        <measure number="7" width="129">
            <print new-system="no"/>
            <note default-x="38">
                <pitch>
                    <step>A</step>
                    <octave>3</octave>
                </pitch>
                <duration>8</duration>
                <voice>1</voice>
                <type>whole</type>
                <notations>
                    <fermata type="upright" default-y="6"/>
                    <slur type="stop" number="1" default-x="-5" default-y="-77" bezier-x="-31" bezier-y="-87"/>
                </notations>
            </note>
        </measure>
        <measure number="8" width="124">
            <print new-system="no"/>
            <barline location="right">
                <bar-style>light-light</bar-style>
            </barline>
            <note default-x="56">
                <rest measure="yes"/>
                <duration>8</duration>
                <voice>1</voice>
                <notations>
                    <fermata type="upright" default-y="7"/>
                </notations>
            </note>
        </measure>
        <measure number="9" width="152">
            <print new-system="no"/>
            <barline location="left">
                <bar-style>light-light</bar-style>
            </barline>
            <note default-x="83">
                <rest measure="yes"/>
                <duration>1</duration>
                <voice>2</voice>
            </note>
            <backup>
                <duration>8</duration>
            </backup>
            <direction placement="above">
                <direction-type>
                    <dynamics default-y="44" relative-x="-51">
                        <p/>
                    </dynamics>
                </direction-type>
                <sound dynamics="56"/>
            </direction>
            <direction placement="above">
                <direction-type>
                    <dynamics default-y="45" relative-x="56">
                        <fp/>
                    </dynamics>
                </direction-type>
            </direction>
            <note default-x="91">
                <rest/>
                <duration>1</duration>
                <voice>1</voice>
                <type>eighth</type>
                <notations>
                    <arpeggiate relative-x="-34"/>
                    <arpeggiate relative-x="-24"/>
                    <ornaments>
                        <mordent placement="above"/>
                    </ornaments>
                </notations>
            </note>
            <forward>
                <duration>7</duration>
                <voice>1</voice>
            </forward>
        </measure>
        <measure number="10" width="247">
            <print new-system="no"/>
            <note default-x="15">
                <rest/>
                <duration>6</duration>
                <voice>1</voice>
                <type>half</type>
                <dot/>
            </note>
            <note default-x="96">
                <rest/>
                <duration>2</duration>
                <voice>1</voice>
                <type>quarter</type>
            </note>
            <note default-x="137">
                <rest/>
                <duration>1</duration>
                <voice>1</voice>
                <type>eighth</type>
            </note>
            <direction placement="below">
                <direction-type>
                    <dynamics default-y="-60" relative-x="-1">
                        <p/>
                    </dynamics>
                </direction-type>
                <sound dynamics="56"/>
            </direction>
            <note default-x="164">
                <pitch>
                    <step>F</step>
                    <octave>4</octave>
                </pitch>
                <duration>2</duration>
                <tie type="start"/>
                <voice>1</voice>
                <type>quarter</type>
                <stem default-y="2">up</stem>
                <notations>
                    <tied type="start" orientation="under" bezier-x="71" bezier-y="-63" default-x="20" default-y="-49"/>
                </notations>
            </note>
            <note default-x="211">
                <pitch>
                    <step>E</step>
                    <octave>4</octave>
                </pitch>
                <duration>1</duration>
                <voice>1</voice>
                <type>eighth</type>
                <stem default-y="2">up</stem>
            </note>
        </measure>
        <measure number="11" width="307">
            <print new-system="no"/>
            <note default-x="16">
                <pitch>
                    <step>G</step>
                    <octave>4</octave>
                </pitch>
                <duration>3</duration>
                <voice>1</voice>
                <type>quarter</type>
                <dot/>
                <stem default-y="6">up</stem>
                <notations>
                    <articulations>
                        <tenuto default-y="-43" placement="below"/>
                    </articulations>
                </notations>
            </note>
            <note default-x="86">
                <pitch>
                    <step>F</step>
                    <octave>4</octave>
                </pitch>
                <duration>3</duration>
                <tie type="stop"/>
                <voice>1</voice>
                <type>quarter</type>
                <dot/>
                <stem default-y="2">up</stem>
                <notations>
                    <tied type="stop" bezier-x="-44" bezier-y="-61" default-x="6" default-y="-45"/>
                </notations>
            </note>
            <note default-x="152">
                <rest/>
                <duration>2</duration>
                <voice>1</voice>
                <type>quarter</type>
            </note>
            <note default-x="196">
                <rest/>
                <duration>1</duration>
                <voice>1</voice>
                <type>eighth</type>
            </note>
            <note default-x="224">
                <pitch>
                    <step>A</step>
                    <octave>4</octave>
                </pitch>
                <duration>2</duration>
                <voice>1</voice>
                <type>quarter</type>
                <stem default-y="12">up</stem>
                <notations>
                    <slur type="start" number="1" placement="below" default-x="1" default-y="-32" bezier-x="24" bezier-y="-48"/>
                </notations>
            </note>
            <note default-x="271">
                <pitch>
                    <step>G</step>
                    <octave>4</octave>
                </pitch>
                <duration>1</duration>
                <voice>1</voice>
                <type>eighth</type>
                <stem default-y="11">up</stem>
            </note>
        </measure>
        <measure number="12" width="414">
            <print new-system="yes">
                <system-layout>
                    <system-margins>
                        <left-margin>81</left-margin>
                        <right-margin>1</right-margin>
                    </system-margins>
                    <system-distance>134</system-distance>
                </system-layout>
            </print>
            <attributes>
                <clef>
                    <sign>G</sign>
                    <line>2</line>
                    <clef-octave-change>1</clef-octave-change>
                </clef>
                <staff-details print-object="yes"/>
            </attributes>
            <note default-x="81">
                <pitch>
                    <step>B</step>
                    <octave>5</octave>
                </pitch>
                <duration>3</duration>
                <voice>1</voice>
                <type>quarter</type>
                <dot/>
                <stem default-y="13">up</stem>
                <notations>
                    <articulations>
                        <tenuto default-y="-34" placement="below"/>
                    </articulations>
                </notations>
            </note>
            <note default-x="159">
                <pitch>
                    <step>A</step>
                    <octave>5</octave>
                </pitch>
                <duration>3</duration>
                <voice>1</voice>
                <type>quarter</type>
                <dot/>
                <stem default-y="8">up</stem>
                <notations>
                    <slur type="stop" number="1" default-x="4" default-y="-35" bezier-x="-29" bezier-y="-49"/>
                </notations>
            </note>
            <note default-x="233">
                <rest/>
                <duration>2</duration>
                <voice>1</voice>
                <type>quarter</type>
            </note>
            <note default-x="286">
                <rest/>
                <duration>1</duration>
                <voice>1</voice>
                <type>eighth</type>
            </note>
            <note default-x="323">
                <pitch>
                    <step>A</step>
                    <octave>5</octave>
                </pitch>
                <duration>2</duration>
                <voice>1</voice>
                <type>quarter</type>
                <stem default-y="-57">down</stem>
                <notations>
                    <slur type="start" number="1" placement="above" default-x="5" default-y="-12" bezier-x="15" bezier-y="4"/>
                </notations>
            </note>
            <note default-x="376">
                <pitch>
                    <step>F</step>
                    <octave>6</octave>
                </pitch>
                <duration>1</duration>
                <voice>1</voice>
                <type>eighth</type>
                <stem default-y="-37">down</stem>
                <notations>
                    <slur type="stop" number="1" default-x="0" default-y="13" bezier-x="-19" bezier-y="14"/>
                </notations>
            </note>
        </measure>
        <measure number="13" width="379">
            <print new-system="no"/>
            <note default-x="17">
                <pitch>
                    <step>F</step>
                    <octave>6</octave>
                </pitch>
                <duration>2</duration>
                <voice>1</voice>
                <type>quarter</type>
                <stem default-y="-33">down</stem>
                <notations>
                    <slur type="start" number="1" placement="above" default-x="16" default-y="13" bezier-x="42" bezier-y="22"/>
                </notations>
            </note>
            <note default-x="71">
                <pitch>
                    <step>E</step>
                    <octave>6</octave>
                </pitch>
                <duration>1</duration>
                <voice>1</voice>
                <type>eighth</type>
                <stem default-y="-41">down</stem>
            </note>
            <note default-x="106">
                <pitch>
                    <step>D</step>
                    <octave>6</octave>
                </pitch>
                <duration>3</duration>
                <voice>1</voice>
                <type>quarter</type>
                <dot/>
                <stem default-y="-44">down</stem>
                <notations>
                    <slur type="stop" number="1" default-x="5" default-y="5" bezier-x="-18" bezier-y="19"/>
                </notations>
            </note>
            <note default-x="179">
                <rest/>
                <duration>2</duration>
                <voice>1</voice>
                <type>quarter</type>
            </note>
            <note default-x="234">
                <pitch>
                    <step>D</step>
                    <octave>6</octave>
                </pitch>
                <duration>1</duration>
                <tie type="start"/>
                <voice>1</voice>
                <type>eighth</type>
                <stem default-y="-48">down</stem>
                <notations>
                    <tied type="start" orientation="over" bezier-x="39" bezier-y="23" default-x="3" default-y="9"/>
                </notations>
            </note>
            <note default-x="269">
                <pitch>
                    <step>F</step>
                    <octave>6</octave>
                </pitch>
                <duration>1</duration>
                <voice>1</voice>
                <type>eighth</type>
                <stem default-y="-33">down</stem>
                <beam number="1">begin</beam>
            </note>
            <note default-x="306">
                <pitch>
                    <step>E</step>
                    <octave>6</octave>
                </pitch>
                <duration>1</duration>
                <voice>1</voice>
                <type>eighth</type>
                <stem default-y="-39">down</stem>
                <beam number="1">continue</beam>
            </note>
            <note default-x="342">
                <pitch>
                    <step>D</step>
                    <octave>6</octave>
                </pitch>
                <duration>1</duration>
                <tie type="stop"/>
                <voice>1</voice>
                <type>eighth</type>
                <stem default-y="-44">down</stem>
                <beam number="1">end</beam>
                <notations>
                    <tied type="stop" bezier-x="-28" bezier-y="22" default-x="7" default-y="6"/>
                </notations>
            </note>
        </measure>
        <measure number="14" width="382">
            <print new-system="no"/>
            <note default-x="17">
                <pitch>
                    <step>G</step>
                    <octave>6</octave>
                </pitch>
                <duration>2</duration>
                <voice>1</voice>
                <type>quarter</type>
                <stem default-y="-29">down</stem>
                <notations>
                    <slur type="start" number="1" placement="above" default-x="16" default-y="21" bezier-x="119" bezier-y="35"/>
                </notations>
            </note>
            <note default-x="72">
                <pitch>
                    <step>E</step>
                    <octave>6</octave>
                </pitch>
                <duration>1</duration>
                <voice>1</voice>
                <type>eighth</type>
                <stem default-y="-41">down</stem>
            </note>
            <note default-x="109">
                <pitch>
                    <step>D</step>
                    <octave>6</octave>
                </pitch>
                <duration>2</duration>
                <voice>1</voice>
                <type>quarter</type>
                <stem default-y="-42">down</stem>
            </note>
            <note default-x="161">
                <pitch>
                    <step>C</step>
                    <octave>6</octave>
                </pitch>
                <duration>1</duration>
                <voice>1</voice>
                <type>eighth</type>
                <stem default-y="-51">down</stem>
            </note>
            <note default-x="198">
                <pitch>
                    <step>B</step>
                    <octave>5</octave>
                </pitch>
                <duration>2</duration>
                <voice>1</voice>
                <type>quarter</type>
                <stem default-y="-55">down</stem>
            </note>
            <note default-x="252">
                <pitch>
                    <step>C</step>
                    <octave>6</octave>
                </pitch>
                <duration>1</duration>
                <voice>1</voice>
                <type>eighth</type>
                <stem default-y="-51">down</stem>
            </note>
            <note default-x="288">
                <pitch>
                    <step>D</step>
                    <octave>6</octave>
                </pitch>
                <duration>2</duration>
                <voice>1</voice>
                <type>quarter</type>
                <stem default-y="-44">down</stem>
            </note>
            <note default-x="342">
                <pitch>
                    <step>E</step>
                    <octave>6</octave>
                </pitch>
                <duration>1</duration>
                <voice>1</voice>
                <type>eighth</type>
                <stem default-y="-41">down</stem>
                <notations>
                    <slur type="stop" number="1" default-x="-1" default-y="8" bezier-x="-102" bezier-y="30"/>
                </notations>
            </note>
        </measure>
        <measure number="15" width="451">
            <print new-system="yes">
                <system-layout>
                    <system-margins>
                        <left-margin>83</left-margin>
                        <right-margin>0</right-margin>
                    </system-margins>
                    <system-distance>134</system-distance>
                </system-layout>
            </print>
            <attributes>
                <key>
                    <fifths>-1</fifths>
                </key>
                <clef>
                    <sign>G</sign>
                    <line>2</line>
                </clef>
                <staff-details print-object="yes"/>
            </attributes>
            <note default-x="82">
                <pitch>
                    <step>F</step>
                    <octave>5</octave>
                </pitch>
                <duration>2</duration>
                <voice>1</voice>
                <type>quarter</type>
                <stem default-y="-33">down</stem>
                <notations>
                    <slur type="start" number="1" placement="above" default-x="8" default-y="13" bezier-x="23" bezier-y="17"/>
                </notations>
            </note>
            <note default-x="137">
                <pitch>
                    <step>C</step>
                    <octave>5</octave>
                </pitch>
                <duration>1</duration>
                <voice>1</voice>
                <type>eighth</type>
                <stem default-y="-52">down</stem>
                <notations>
                    <slur type="stop" number="1" default-x="-1" default-y="5" bezier-x="-14" bezier-y="14"/>
                </notations>
            </note>
            <note default-x="173">
                <pitch>
                    <step>C</step>
                    <octave>5</octave>
                </pitch>
                <duration>1</duration>
                <voice>1</voice>
                <type>eighth</type>
                <stem default-y="-51">down</stem>
                <beam number="1">begin</beam>
                <notations>
                    <slur type="start" number="1" placement="above" default-x="3" default-y="-1" bezier-x="26" bezier-y="15"/>
                </notations>
            </note>
            <note default-x="209">
                <pitch>
                    <step>D</step>
                    <octave>5</octave>
                </pitch>
                <duration>1</duration>
                <voice>1</voice>
                <type>eighth</type>
                <stem default-y="-56">down</stem>
                <beam number="1">continue</beam>
            </note>
            <note default-x="244">
                <pitch>
                    <step>A</step>
                    <octave>4</octave>
                </pitch>
                <duration>1</duration>
                <voice>1</voice>
                <type>eighth</type>
                <stem default-y="-61">down</stem>
                <beam number="1">end</beam>
                <notations>
                    <slur type="stop" number="1" default-x="6" default-y="-5" bezier-x="-15" bezier-y="13"/>
                </notations>
            </note>
            <note default-x="281">
                <pitch>
                    <step>C</step>
                    <octave>5</octave>
                </pitch>
                <duration>3</duration>
                <tie type="start"/>
                <voice>1</voice>
                <type>quarter</type>
                <dot/>
                <stem default-y="-48">down</stem>
                <notations>
                    <tied type="start" orientation="over" bezier-x="32" bezier-y="-1" default-x="14" default-y="-12"/>
                </notations>
            </note>
            <note default-x="358">
                <pitch>
                    <step>C</step>
                    <octave>5</octave>
                </pitch>
                <duration>2</duration>
                <tie type="stop"/>
                <voice>1</voice>
                <type>quarter</type>
                <stem default-y="-48">down</stem>
                <notations>
                    <slur type="start" number="1" placement="above" default-x="11" default-y="-7" bezier-x="25" bezier-y="0"/>
                    <tied type="stop" bezier-x="-23" bezier-y="-1" default-x="-6" default-y="-13"/>
                </notations>
            </note>
            <note default-x="412">
                <pitch>
                    <step>B</step>
                    <alter>-1</alter>
                    <octave>4</octave>
                </pitch>
                <duration>1</duration>
                <voice>1</voice>
                <type>eighth</type>
                <stem default-y="-55">down</stem>
                <notations>
                    <slur type="stop" number="1" default-x="-1" default-y="-8" bezier-x="-14" bezier-y="-1"/>
                </notations>
            </note>
        </measure>
        <measure number="16" width="368">
            <print new-system="no"/>
            <note default-x="19">
                <pitch>
                    <step>A</step>
                    <octave>4</octave>
                </pitch>
                <duration>3</duration>
                <voice>1</voice>
                <type>quarter</type>
                <dot/>
                <stem default-y="-58">down</stem>
            </note>
            <note default-x="94">
                <rest/>
                <duration>2</duration>
                <voice>1</voice>
                <type>quarter</type>
            </note>
            <note default-x="148">
                <rest/>
                <duration>1</duration>
                <voice>1</voice>
                <type>eighth</type>
            </note>
            <note default-x="185">
                <rest/>
                <duration>2</duration>
                <voice>1</voice>
                <type>quarter</type>
            </note>
            <note default-x="238">
                <rest/>
                <duration>1</duration>
                <voice>1</voice>
                <type>eighth</type>
            </note>
            <note default-x="272">
                <pitch>
                    <step>F</step>
                    <octave>4</octave>
                </pitch>
                <duration>2</duration>
                <tie type="start"/>
                <voice>1</voice>
                <type>quarter</type>
                <stem default-y="2">up</stem>
                <notations>
                    <tied type="start" orientation="under" bezier-x="74" bezier-y="-64" default-x="16" default-y="-48"/>
                </notations>
            </note>
            <note default-x="327">
                <pitch>
                    <step>E</step>
                    <octave>4</octave>
                </pitch>
                <duration>1</duration>
                <voice>1</voice>
                <type>eighth</type>
                <stem default-y="2">up</stem>
            </note>
        </measure>
        <measure number="17" width="356">
            <print new-system="no"/>
            <note default-x="14">
                <pitch>
                    <step>G</step>
                    <octave>4</octave>
                </pitch>
                <duration>3</duration>
                <voice>1</voice>
                <type>quarter</type>
                <dot/>
                <stem default-y="4">up</stem>
                <notations>
                    <articulations>
                        <tenuto default-y="-44" placement="below"/>
                    </articulations>
                </notations>
            </note>
            <note default-x="94">
                <pitch>
                    <step>F</step>
                    <octave>4</octave>
                </pitch>
                <duration>3</duration>
                <tie type="stop"/>
                <voice>1</voice>
                <type>quarter</type>
                <dot/>
                <stem default-y="1">up</stem>
                <notations>
                    <tied type="stop" bezier-x="-55" bezier-y="-64" default-x="3" default-y="-48"/>
                </notations>
            </note>
            <note default-x="171">
                <rest/>
                <duration>2</duration>
                <voice>1</voice>
                <type>quarter</type>
            </note>
            <note default-x="227">
                <rest/>
                <duration>1</duration>
                <voice>1</voice>
                <type>eighth</type>
            </note>
            <note default-x="259">
                <pitch>
                    <step>A</step>
                    <octave>4</octave>
                </pitch>
                <duration>2</duration>
                <tie type="start"/>
                <voice>1</voice>
                <type>quarter</type>
                <stem default-y="11">up</stem>
                <notations>
                    <tied type="start" orientation="under" bezier-x="32" bezier-y="-49" default-x="8" default-y="-32"/>
                </notations>
            </note>
            <note default-x="316">
                <pitch>
                    <step>G</step>
                    <octave>4</octave>
                </pitch>
                <duration>1</duration>
                <voice>1</voice>
                <type>eighth</type>
                <stem default-y="9">up</stem>
            </note>
        </measure>
        <measure number="18" width="447">
            <print new-system="yes">
                <system-layout>
                    <system-margins>
                        <left-margin>84</left-margin>
                        <right-margin>-1</right-margin>
                    </system-margins>
                    <system-distance>134</system-distance>
                </system-layout>
            </print>
            <attributes>
                <staff-details print-object="yes"/>
            </attributes>
            <note default-x="81">
                <pitch>
                    <step>B</step>
                    <alter>-1</alter>
                    <octave>4</octave>
                </pitch>
                <duration>3</duration>
                <voice>1</voice>
                <type>quarter</type>
                <dot/>
                <stem default-y="13">up</stem>
                <notations>
                    <articulations>
                        <tenuto default-y="-34" placement="below"/>
                    </articulations>
                </notations>
            </note>
            <note default-x="165">
                <pitch>
                    <step>A</step>
                    <octave>4</octave>
                </pitch>
                <duration>3</duration>
                <tie type="stop"/>
                <voice>1</voice>
                <type>quarter</type>
                <dot/>
                <stem default-y="8">up</stem>
                <notations>
                    <tied type="stop" bezier-x="-30" bezier-y="-49" default-x="5" default-y="-35"/>
                </notations>
            </note>
            <note default-x="247">
                <rest/>
                <duration>2</duration>
                <voice>1</voice>
                <type>quarter</type>
            </note>
            <note default-x="309">
                <rest/>
                <duration>1</duration>
                <voice>1</voice>
                <type>eighth</type>
            </note>
            <note default-x="348">
                <pitch>
                    <step>A</step>
                    <octave>4</octave>
                </pitch>
                <duration>2</duration>
                <voice>1</voice>
                <type>quarter</type>
                <stem default-y="-60">down</stem>
                <notations>
                    <slur type="start" number="1" placement="above" default-x="2" default-y="-10" bezier-x="15" bezier-y="10"/>
                </notations>
            </note>
            <note default-x="407">
                <pitch>
                    <step>A</step>
                    <octave>5</octave>
                </pitch>
                <duration>1</duration>
                <voice>1</voice>
                <type>eighth</type>
                <stem default-y="-26">down</stem>
                <notations>
                    <slur type="stop" number="1" default-x="3" default-y="24" bezier-x="-21" bezier-y="22"/>
                </notations>
            </note>
        </measure>
        <measure number="19" width="370">
            <print new-system="no"/>
            <note default-x="21">
                <pitch>
                    <step>A</step>
                    <octave>5</octave>
                </pitch>
                <duration>3</duration>
                <voice>1</voice>
                <type>quarter</type>
                <dot/>
                <stem default-y="-23">down</stem>
                <notations>
                    <slur type="start" number="1" placement="above" default-x="7" default-y="24" bezier-x="93" bezier-y="35"/>
                </notations>
            </note>
            <note default-x="105">
                <pitch>
                    <step>G</step>
                    <octave>5</octave>
                </pitch>
                <duration>2</duration>
                <voice>1</voice>
                <type>quarter</type>
                <stem default-y="-30">down</stem>
            </note>
            <note default-x="165">
                <pitch>
                    <step>F</step>
                    <alter>1</alter>
                    <octave>5</octave>
                </pitch>
                <duration>1</duration>
                <voice>1</voice>
                <type>eighth</type>
                <accidental>sharp</accidental>
                <stem default-y="-40">down</stem>
            </note>
            <note default-x="192">
                <pitch>
                    <step>F</step>
                    <alter>1</alter>
                    <octave>5</octave>
                </pitch>
                <duration>4</duration>
                <voice>1</voice>
                <type>half</type>
                <stem default-y="14">up</stem>
            </note>
            <note default-x="202">
                <pitch>
                    <step>E</step>
                    <octave>5</octave>
                </pitch>
                <duration>3</duration>
                <voice>1</voice>
                <type>quarter</type>
                <dot/>
                <stem default-y="-41">down</stem>
            </note>
            <note default-x="283">
                <pitch>
                    <step>D</step>
                    <octave>5</octave>
                </pitch>
                <duration>3</duration>
                <voice>1</voice>
                <type>quarter</type>
                <dot/>
                <stem default-y="-44">down</stem>
                <notations>
                    <slur type="stop" number="1" default-x="-1" default-y="3" bezier-x="-83" bezier-y="28"/>
                </notations>
            </note>
        </measure>
        <measure number="20" width="356">
            <print new-system="no"/>
            <direction placement="below">
                <direction-type>
                    <dynamics default-y="-54" relative-x="-5">
                        <mf/>
                    </dynamics>
                </direction-type>
                <sound dynamics="89"/>
            </direction>
            <note default-x="21">
                <pitch>
                    <step>B</step>
                    <alter>-1</alter>
                    <octave>5</octave>
                </pitch>
                <duration>6</duration>
                <voice>1</voice>
                <type>half</type>
                <dot/>
                <stem default-y="-21">down</stem>
            </note>
            <note default-x="148">
                <rest/>
                <duration>2</duration>
                <voice>1</voice>
                <type>quarter</type>
            </note>
            <note default-x="211">
                <pitch>
                    <step>D</step>
                    <octave>5</octave>
                </pitch>
                <duration>1</duration>
                <voice>1</voice>
                <type>eighth</type>
                <stem default-y="-50">down</stem>
                <notations>
                    <slur type="start" number="1" placement="above" default-x="3" default-y="6" bezier-x="36" bezier-y="24"/>
                </notations>
            </note>
            <note default-x="251">
                <pitch>
                    <step>E</step>
                    <octave>5</octave>
                </pitch>
                <duration>2</duration>
                <voice>1</voice>
                <type>quarter</type>
                <stem default-y="-40">down</stem>
            </note>
            <note default-x="314">
                <pitch>
                    <step>F</step>
                    <octave>5</octave>
                </pitch>
                <duration>1</duration>
                <voice>1</voice>
                <type>eighth</type>
                <stem default-y="-37">down</stem>
                <notations>
                    <slur type="stop" number="1" default-x="6" default-y="12" bezier-x="-28" bezier-y="27"/>
                </notations>
            </note>
        </measure>
        <measure number="21" width="444">
            <print new-system="yes">
                <system-layout>
                    <system-margins>
                        <left-margin>83</left-margin>
                        <right-margin>0</right-margin>
                    </system-margins>
                    <system-distance>132</system-distance>
                </system-layout>
            </print>
            <attributes>
                <staff-details print-object="yes"/>
            </attributes>
            <note default-x="83">
                <pitch>
                    <step>F</step>
                    <octave>5</octave>
                </pitch>
                <duration>3</duration>
                <voice>1</voice>
                <type>quarter</type>
                <dot/>
                <stem default-y="-34">down</stem>
                <notations>
                    <slur type="start" number="1" placement="above" default-x="10" default-y="13" bezier-x="36" bezier-y="23"/>
                </notations>
            </note>
            <note default-x="167">
                <pitch>
                    <step>E</step>
                    <octave>5</octave>
                </pitch>
                <duration>3</duration>
                <voice>1</voice>
                <type>quarter</type>
                <dot/>
                <stem default-y="-39">down</stem>
                <notations>
                    <slur type="stop" number="1" default-x="4" default-y="6" bezier-x="-19" bezier-y="20"/>
                </notations>
            </note>
            <note default-x="247">
                <rest/>
                <duration>2</duration>
                <voice>1</voice>
                <type>quarter</type>
            </note>
            <note default-x="307">
                <pitch>
                    <step>C</step>
                    <octave>5</octave>
                </pitch>
                <duration>1</duration>
                <voice>1</voice>
                <type>eighth</type>
                <stem default-y="-51">down</stem>
                <notations>
                    <slur type="start" number="1" placement="above" default-x="4" default-y="-1" bezier-x="33" bezier-y="14"/>
                </notations>
            </note>
            <note default-x="344">
                <pitch>
                    <step>D</step>
                    <octave>5</octave>
                </pitch>
                <duration>2</duration>
                <voice>1</voice>
                <type>quarter</type>
                <stem default-y="-42">down</stem>
            </note>
            <note default-x="403">
                <pitch>
                    <step>E</step>
                    <octave>5</octave>
                </pitch>
                <duration>1</duration>
                <voice>1</voice>
                <type>eighth</type>
                <stem default-y="-42">down</stem>
                <notations>
                    <slur type="stop" number="1" default-x="1" default-y="9" bezier-x="-30" bezier-y="17"/>
                </notations>
            </note>
        </measure>
        <measure number="22" width="379">
            <print new-system="no"/>
            <note default-x="19">
                <pitch>
                    <step>E</step>
                    <octave>5</octave>
                </pitch>
                <duration>3</duration>
                <voice>1</voice>
                <type>quarter</type>
                <dot/>
                <stem default-y="-40">down</stem>
                <notations>
                    <slur type="start" number="1" placement="above" default-x="12" default-y="8" bezier-x="37" bezier-y="18"/>
                </notations>
            </note>
            <note default-x="102">
                <pitch>
                    <step>D</step>
                    <octave>5</octave>
                </pitch>
                <duration>3</duration>
                <voice>1</voice>
                <type>quarter</type>
                <dot/>
                <stem default-y="-44">down</stem>
                <notations>
                    <slur type="stop" number="1" default-x="6" default-y="3" bezier-x="-17" bezier-y="16"/>
                </notations>
            </note>
            <note default-x="181">
                <rest/>
                <duration>2</duration>
                <voice>1</voice>
                <type>quarter</type>
            </note>
            <note default-x="239">
                <pitch>
                    <step>B</step>
                    <alter>-1</alter>
                    <octave>4</octave>
                </pitch>
                <duration>1</duration>
                <voice>1</voice>
                <type>eighth</type>
                <stem default-y="-58">down</stem>
                <notations>
                    <slur type="start" number="1" placement="above" default-x="4" default-y="-9" bezier-x="33" bezier-y="11"/>
                </notations>
            </note>
            <note default-x="278">
                <pitch>
                    <step>C</step>
                    <octave>5</octave>
                </pitch>
                <duration>2</duration>
                <voice>1</voice>
                <type>quarter</type>
                <stem default-y="-48">down</stem>
            </note>
            <note default-x="337">
                <pitch>
                    <step>D</step>
                    <octave>5</octave>
                </pitch>
                <duration>1</duration>
                <voice>1</voice>
                <type>eighth</type>
                <stem default-y="-48">down</stem>
                <notations>
                    <slur type="stop" number="1" default-x="5" default-y="4" bezier-x="-28" bezier-y="15"/>
                </notations>
            </note>
        </measure>
        <measure number="23" width="351">
            <print new-system="no"/>
            <note default-x="19">
                <pitch>
                    <step>D</step>
                    <octave>5</octave>
                </pitch>
                <duration>3</duration>
                <voice>1</voice>
                <type>quarter</type>
                <dot/>
                <stem default-y="-48">down</stem>
                <notations>
                    <slur type="start" number="1" placement="above" default-x="6" default-y="4" bezier-x="89" bezier-y="21"/>
                </notations>
            </note>
            <note default-x="101">
                <pitch>
                    <step>C</step>
                    <octave>5</octave>
                </pitch>
                <duration>3</duration>
                <voice>1</voice>
                <type>quarter</type>
                <dot/>
                <stem default-y="-49">down</stem>
            </note>
            <note default-x="183">
                <pitch>
                    <step>B</step>
                    <alter>-1</alter>
                    <octave>4</octave>
                </pitch>
                <duration>3</duration>
                <voice>1</voice>
                <type>quarter</type>
                <dot/>
                <stem default-y="-54">down</stem>
            </note>
            <note default-x="267">
                <pitch>
                    <step>A</step>
                    <octave>4</octave>
                </pitch>
                <duration>3</duration>
                <voice>1</voice>
                <type>quarter</type>
                <dot/>
                <stem default-y="-57">down</stem>
                <notations>
                    <slur type="stop" number="1" default-x="6" default-y="-14" bezier-x="-73" bezier-y="14"/>
                </notations>
            </note>
        </measure>
        <measure number="24" width="451">
            <print new-system="yes">
                <system-layout>
                    <system-margins>
                        <left-margin>84</left-margin>
                        <right-margin>1</right-margin>
                    </system-margins>
                    <system-distance>134</system-distance>
                </system-layout>
            </print>
            <attributes>
                <staff-details print-object="yes"/>
            </attributes>
            <note default-x="80">
                <pitch>
                    <step>D</step>
                    <octave>4</octave>
                </pitch>
                <duration>3</duration>
                <tie type="start"/>
                <voice>1</voice>
                <type>quarter</type>
                <dot/>
                <stem default-y="-9">up</stem>
                <notations>
                    <articulations>
                        <accent default-y="-62" placement="below"/>
                    </articulations>
                    <tied type="start" orientation="under" bezier-x="29" bezier-y="-63" default-x="12" default-y="-52"/>
                </notations>
            </note>
            <note default-x="151">
                <pitch>
                    <step>D</step>
                    <octave>4</octave>
                </pitch>
                <duration>1</duration>
                <tie type="stop"/>
                <voice>1</voice>
                <type>eighth</type>
                <stem default-y="-8">up</stem>
                <beam number="1">begin</beam>
                <notations>
                    <tied type="stop" bezier-x="-20" bezier-y="-63" default-x="-3" default-y="-51"/>
                </notations>
            </note>
            <note default-x="183">
                <pitch>
                    <step>E</step>
                    <octave>4</octave>
                </pitch>
                <duration>1</duration>
                <voice>1</voice>
                <type>eighth</type>
                <stem default-y="-3">up</stem>
                <beam number="1">continue</beam>
                <notations>
                    <slur type="start" number="1" placement="above" default-x="21" default-y="7" bezier-x="86" bezier-y="36"/>
                </notations>
            </note>
            <note default-x="216">
                <pitch>
                    <step>F</step>
                    <alter>1</alter>
                    <octave>4</octave>
                </pitch>
                <duration>1</duration>
                <voice>1</voice>
                <type>eighth</type>
                <accidental>sharp</accidental>
                <stem default-y="2">up</stem>
                <beam number="1">end</beam>
            </note>
            <note default-x="252">
                <pitch>
                    <step>G</step>
                    <octave>4</octave>
                </pitch>
                <duration>1</duration>
                <voice>1</voice>
                <type>eighth</type>
                <stem default-y="-66">down</stem>
                <beam number="1">begin</beam>
            </note>
            <note default-x="284">
                <pitch>
                    <step>D</step>
                    <octave>5</octave>
                </pitch>
                <duration>1</duration>
                <voice>1</voice>
                <type>eighth</type>
                <stem default-y="-56">down</stem>
                <beam number="1">continue</beam>
            </note>
            <note default-x="317">
                <pitch>
                    <step>G</step>
                    <octave>5</octave>
                </pitch>
                <duration>1</duration>
                <voice>1</voice>
                <type>eighth</type>
                <stem default-y="-46">down</stem>
                <beam number="1">end</beam>
            </note>
            <note default-x="350">
                <pitch>
                    <step>A</step>
                    <octave>5</octave>
                </pitch>
                <duration>1</duration>
                <voice>1</voice>
                <type>eighth</type>
                <stem default-y="-26">down</stem>
                <beam number="1">begin</beam>
            </note>
            <note default-x="382">
                <pitch>
                    <step>B</step>
                    <alter>-1</alter>
                    <octave>5</octave>
                </pitch>
                <duration>1</duration>
                <voice>1</voice>
                <type>eighth</type>
                <stem default-y="-23">down</stem>
                <beam number="1">continue</beam>
            </note>
            <note default-x="415">
                <pitch>
                    <step>D</step>
                    <octave>6</octave>
                </pitch>
                <duration>1</duration>
                <voice>1</voice>
                <type>eighth</type>
                <stem default-y="-21">down</stem>
                <beam number="1">end</beam>
                <notations>
                    <slur type="stop" number="1" default-x="-4" default-y="38" bezier-x="-75" bezier-y="46"/>
                </notations>
            </note>
        </measure>
        <measure number="25" width="360">
            <print new-system="no"/>
            <note default-x="18">
                <pitch>
                    <step>D</step>
                    <octave>6</octave>
                </pitch>
                <duration>3</duration>
                <voice>1</voice>
                <type>quarter</type>
                <dot/>
                <stem default-y="-21">down</stem>
                <notations>
                    <slur type="start" number="1" placement="above" default-x="11" default-y="36" bezier-x="32" bezier-y="45"/>
                </notations>
            </note>
            <note default-x="88">
                <pitch>
                    <step>C</step>
                    <octave>6</octave>
                </pitch>
                <duration>3</duration>
                <voice>1</voice>
                <type>quarter</type>
                <dot/>
                <stem default-y="-20">down</stem>
                <notations>
                    <slur type="stop" number="1" default-x="6" default-y="32" bezier-x="-14" bezier-y="43"/>
                </notations>
            </note>
            <note default-x="159">
                <rest/>
                <duration>1</duration>
                <voice>1</voice>
                <type>eighth</type>
            </note>
            <note default-x="193">
                <pitch>
                    <step>A</step>
                    <octave>4</octave>
                </pitch>
                <duration>1</duration>
                <voice>1</voice>
                <type>eighth</type>
                <stem default-y="-60">down</stem>
                <beam number="1">begin</beam>
                <notations>
                    <slur type="start" number="1" placement="above" default-x="3" default-y="-12" bezier-x="38" bezier-y="18"/>
                </notations>
            </note>
            <note default-x="227">
                <pitch>
                    <step>C</step>
                    <octave>5</octave>
                </pitch>
                <duration>1</duration>
                <voice>1</voice>
                <type>eighth</type>
                <stem default-y="-52">down</stem>
                <beam number="1">end</beam>
            </note>
            <note default-x="259">
                <pitch>
                    <step>E</step>
                    <octave>5</octave>
                </pitch>
                <duration>1</duration>
                <voice>1</voice>
                <type>eighth</type>
                <stem default-y="-42">down</stem>
                <beam number="1">begin</beam>
            </note>
            <note default-x="291">
                <pitch>
                    <step>F</step>
                    <octave>5</octave>
                </pitch>
                <duration>1</duration>
                <voice>1</voice>
                <type>eighth</type>
                <stem default-y="-36">down</stem>
                <beam number="1">continue</beam>
            </note>
            <note default-x="323">
                <pitch>
                    <step>B</step>
                    <alter>-1</alter>
                    <octave>5</octave>
                </pitch>
                <duration>1</duration>
                <voice>1</voice>
                <type>eighth</type>
                <stem default-y="-30">down</stem>
                <beam number="1">end</beam>
                <notations>
                    <slur type="stop" number="1" default-x="0" default-y="26" bezier-x="-46" bezier-y="32"/>
                </notations>
            </note>
        </measure>
        <measure number="26" width="362">
            <print new-system="no"/>
            <note default-x="20">
                <pitch>
                    <step>B</step>
                    <alter>-1</alter>
                    <octave>5</octave>
                </pitch>
                <duration>3</duration>
                <voice>1</voice>
                <type>quarter</type>
                <dot/>
                <stem default-y="-21">down</stem>
                <notations>
                    <slur type="start" number="1" placement="above" default-x="9" default-y="27" bezier-x="32" bezier-y="35"/>
                </notations>
            </note>
            <note default-x="92">
                <pitch>
                    <step>A</step>
                    <octave>5</octave>
                </pitch>
                <duration>3</duration>
                <voice>1</voice>
                <type>quarter</type>
                <dot/>
                <stem default-y="-26">down</stem>
                <notations>
                    <slur type="stop" number="1" default-x="4" default-y="19" bezier-x="-16" bezier-y="32"/>
                </notations>
            </note>
            <note default-x="163">
                <rest/>
                <duration>1</duration>
                <voice>1</voice>
                <type>eighth</type>
            </note>
            <direction placement="below">
                <direction-type>
                    <dynamics default-y="-64" relative-x="2">
                        <p/>
                    </dynamics>
                </direction-type>
                <sound dynamics="56"/>
            </direction>
            <note default-x="191">
                <pitch>
                    <step>E</step>
                    <octave>4</octave>
                </pitch>
                <duration>1</duration>
                <voice>1</voice>
                <type>eighth</type>
                <stem default-y="-3">up</stem>
                <beam number="1">begin</beam>
                <notations>
                    <slur type="start" number="1" placement="above" default-x="25" default-y="13" bezier-x="61" bezier-y="29"/>
                </notations>
            </note>
            <note default-x="222">
                <pitch>
                    <step>F</step>
                    <octave>4</octave>
                </pitch>
                <duration>1</duration>
                <voice>1</voice>
                <type>eighth</type>
                <stem default-y="2">up</stem>
                <beam number="1">end</beam>
            </note>
            <note default-x="261">
                <pitch>
                    <step>A</step>
                    <octave>4</octave>
                </pitch>
                <duration>1</duration>
                <voice>1</voice>
                <type>eighth</type>
                <stem default-y="-63">down</stem>
                <beam number="1">begin</beam>
            </note>
            <note default-x="293">
                <pitch>
                    <step>C</step>
                    <octave>5</octave>
                </pitch>
                <duration>1</duration>
                <voice>1</voice>
                <type>eighth</type>
                <stem default-y="-54">down</stem>
                <beam number="1">continue</beam>
            </note>
            <note default-x="326">
                <pitch>
                    <step>A</step>
                    <octave>5</octave>
                </pitch>
                <duration>1</duration>
                <voice>1</voice>
                <type>eighth</type>
                <stem default-y="-45">down</stem>
                <beam number="1">end</beam>
                <notations>
                    <slur type="stop" number="1" default-x="5" default-y="22" bezier-x="-33" bezier-y="32"/>
                </notations>
            </note>
        </measure>
        <measure number="27" width="434">
            <print new-system="yes">
                <system-layout>
                    <system-margins>
                        <left-margin>104</left-margin>
                        <right-margin>-2</right-margin>
                    </system-margins>
                    <system-distance>134</system-distance>
                </system-layout>
            </print>
            <attributes>
                <staff-details print-object="yes"/>
            </attributes>
            <note default-x="62">
                <pitch>
                    <step>A</step>
                    <octave>5</octave>
                </pitch>
                <duration>2</duration>
                <voice>1</voice>
                <type>quarter</type>
                <stem default-y="-23">down</stem>
                <notations>
                    <slur type="start" number="1" placement="above" default-x="11" default-y="25" bezier-x="56" bezier-y="33"/>
                </notations>
            </note>
            <note default-x="118">
                <pitch>
                    <step>G</step>
                    <octave>5</octave>
                </pitch>
                <duration>1</duration>
                <voice>1</voice>
                <type>eighth</type>
                <stem default-y="-31">down</stem>
            </note>
            <note default-x="156">
                <pitch>
                    <step>F</step>
                    <octave>5</octave>
                </pitch>
                <duration>2</duration>
                <voice>1</voice>
                <type>quarter</type>
                <stem default-y="-34">down</stem>
            </note>
            <note default-x="209">
                <pitch>
                    <step>D</step>
                    <octave>5</octave>
                </pitch>
                <duration>1</duration>
                <voice>1</voice>
                <type>eighth</type>
                <stem default-y="-47">down</stem>
                <notations>
                    <slur type="stop" number="1" default-x="-2" default-y="11" bezier-x="-45" bezier-y="28"/>
                </notations>
            </note>
            <note default-x="247">
                <pitch>
                    <step>E</step>
                    <octave>5</octave>
                </pitch>
                <duration>2</duration>
                <voice>1</voice>
                <type>quarter</type>
                <stem default-y="-39">down</stem>
                <notations>
                    <slur type="start" number="1" placement="above" default-x="13" default-y="12" bezier-x="61" bezier-y="22"/>
                </notations>
            </note>
            <note default-x="302">
                <pitch>
                    <step>D</step>
                    <octave>5</octave>
                </pitch>
                <duration>1</duration>
                <voice>1</voice>
                <type>eighth</type>
                <stem default-y="-46">down</stem>
            </note>
            <note default-x="338">
                <pitch>
                    <step>C</step>
                    <octave>5</octave>
                </pitch>
                <duration>2</duration>
                <voice>1</voice>
                <type>quarter</type>
                <stem default-y="-47">down</stem>
            </note>
            <note default-x="388">
                <pitch>
                    <step>E</step>
                    <octave>4</octave>
                </pitch>
                <duration>1</duration>
                <voice>1</voice>
                <type>eighth</type>
                <stem default-y="1">up</stem>
                <notations>
                    <slur type="stop" number="1" default-x="8" default-y="-22" bezier-x="-30" bezier-y="9"/>
                </notations>
            </note>
        </measure>
        <measure number="28" width="362">
            <print new-system="no"/>
            <note default-x="16">
                <pitch>
                    <step>G</step>
                    <octave>4</octave>
                </pitch>
                <duration>3</duration>
                <voice>1</voice>
                <type>quarter</type>
                <dot/>
                <stem default-y="6">up</stem>
                <notations>
                    <slur type="start" number="1" placement="below" default-x="9" default-y="-41" bezier-x="30" bezier-y="-52"/>
                </notations>
            </note>
            <note default-x="94">
                <pitch>
                    <step>F</step>
                    <octave>4</octave>
                </pitch>
                <duration>3</duration>
                <voice>1</voice>
                <type>quarter</type>
                <dot/>
                <stem default-y="1">up</stem>
                <notations>
                    <slur type="stop" number="1" default-x="-2" default-y="-42" bezier-x="-23" bezier-y="-52"/>
                </notations>
            </note>
            <note default-x="172">
                <rest/>
                <duration>2</duration>
                <voice>1</voice>
                <type>quarter</type>
            </note>
            <note default-x="227">
                <rest/>
                <duration>1</duration>
                <voice>1</voice>
                <type>eighth</type>
            </note>
            <note default-x="261">
                <pitch>
                    <step>F</step>
                    <octave>4</octave>
                </pitch>
                <duration>2</duration>
                <voice>1</voice>
                <type>quarter</type>
                <stem default-y="1">up</stem>
                <notations>
                    <slur type="start" number="1" placement="below" default-x="3" default-y="-44" bezier-x="20" bezier-y="-57"/>
                </notations>
            </note>
            <note default-x="319">
                <pitch>
                    <step>E</step>
                    <octave>4</octave>
                </pitch>
                <duration>1</duration>
                <voice>1</voice>
                <type>eighth</type>
                <stem default-y="-1">up</stem>
                <notations>
                    <slur type="stop" number="1" default-x="3" default-y="-48" bezier-x="-15" bezier-y="-59"/>
                </notations>
            </note>
        </measure>
        <measure number="29" width="359">
            <print new-system="no"/>
            <note default-x="16">
                <pitch>
                    <step>G</step>
                    <octave>4</octave>
                </pitch>
                <duration>3</duration>
                <voice>1</voice>
                <type>quarter</type>
                <dot/>
                <stem default-y="7">up</stem>
                <notations>
                    <slur type="start" number="1" placement="below" default-x="7" default-y="-41" bezier-x="27" bezier-y="-53"/>
                </notations>
            </note>
            <note default-x="92">
                <pitch>
                    <step>F</step>
                    <octave>4</octave>
                </pitch>
                <duration>3</duration>
                <voice>1</voice>
                <type>quarter</type>
                <dot/>
                <stem default-y="1">up</stem>
                <notations>
                    <slur type="stop" number="1" default-x="-3" default-y="-44" bezier-x="-24" bezier-y="-54"/>
                </notations>
            </note>
            <note default-x="170">
                <rest/>
                <duration>2</duration>
                <voice>1</voice>
                <type>quarter</type>
            </note>
            <note default-x="224">
                <rest/>
                <duration>1</duration>
                <voice>1</voice>
                <type>eighth</type>
            </note>
            <note default-x="258">
                <pitch>
                    <step>F</step>
                    <octave>4</octave>
                </pitch>
                <duration>2</duration>
                <voice>1</voice>
                <type>quarter</type>
                <stem default-y="1">up</stem>
                <notations>
                    <slur type="start" number="1" placement="below" default-x="5" default-y="-46" bezier-x="22" bezier-y="-59"/>
                </notations>
            </note>
            <note default-x="318">
                <pitch>
                    <step>E</step>
                    <octave>4</octave>
                </pitch>
                <duration>1</duration>
                <voice>1</voice>
                <type>eighth</type>
                <stem default-y="1">up</stem>
                <notations>
                    <slur type="stop" number="1" default-x="4" default-y="-50" bezier-x="-15" bezier-y="-60"/>
                </notations>
            </note>
        </measure>
        <measure number="30" width="576">
            <print new-system="yes">
                <system-layout>
                    <system-margins>
                        <left-margin>84</left-margin>
                        <right-margin>7</right-margin>
                    </system-margins>
                    <system-distance>134</system-distance>
                </system-layout>
            </print>
            <attributes>
                <clef>
                    <sign>G</sign>
                    <line>2</line>
                    <clef-octave-change>1</clef-octave-change>
                </clef>
                <staff-details print-object="yes"/>
            </attributes>
            <direction placement="above">
                <direction-type>
                    <words font-family="serif" font-style="italic" font-size="9" default-y="11" relative-x="1">c(zlrm(z’0</words>
                </direction-type>
            </direction>
            <note default-x="81">
                <pitch>
                    <step>G</step>
                    <octave>5</octave>
                </pitch>
                <duration>2</duration>
                <voice>1</voice>
                <type>quarter</type>
                <stem default-y="7">up</stem>
                <notations>
                    <slur type="start" number="1" placement="below" default-x="21" default-y="-47" bezier-x="160" bezier-y="-65"/>
                </notations>
            </note>
            <note default-x="143">
                <rest/>
                <duration>1</duration>
                <voice>1</voice>
                <type>eighth</type>
            </note>
            <note default-x="153">
                <pitch>
                    <step>F</step>
                    <octave>5</octave>
                </pitch>
                <duration>1</duration>
                <voice>1</voice>
                <type>eighth</type>
                <stem default-y="2">up</stem>
            </note>
            <note default-x="202">
                <pitch>
                    <step>G</step>
                    <octave>5</octave>
                </pitch>
                <duration>2</duration>
                <voice>1</voice>
                <type>quarter</type>
                <stem default-y="6">up</stem>
            </note>
            <note default-x="276">
                <pitch>
                    <step>F</step>
                    <octave>5</octave>
                </pitch>
                <duration>1</duration>
                <voice>1</voice>
                <type>eighth</type>
                <stem default-y="4">up</stem>
            </note>
            <note default-x="325">
                <pitch>
                    <step>G</step>
                    <octave>5</octave>
                </pitch>
                <duration>2</duration>
                <voice>1</voice>
                <type>quarter</type>
                <stem default-y="7">up</stem>
            </note>
            <note default-x="398">
                <pitch>
                    <step>F</step>
                    <octave>5</octave>
                </pitch>
                <duration>1</duration>
                <voice>1</voice>
                <type>eighth</type>
                <stem default-y="3">up</stem>
            </note>
            <note default-x="448">
                <pitch>
                    <step>G</step>
                    <octave>5</octave>
                </pitch>
                <duration>2</duration>
                <voice>1</voice>
                <type>quarter</type>
                <stem default-y="6">up</stem>
            </note>
            <note default-x="522">
                <pitch>
                    <step>F</step>
                    <octave>5</octave>
                </pitch>
                <duration>1</duration>
                <voice>1</voice>
                <type>eighth</type>
                <stem default-y="2">up</stem>
                <notations>
                    <slur type="stop" number="1" default-x="-1" default-y="-47" bezier-x="-140" bezier-y="-65"/>
                </notations>
            </note>
        </measure>
        <measure number="31" width="205">
            <print new-system="no"/>
            <note default-x="59">
                <pitch>
                    <step>F</step>
                    <octave>5</octave>
                </pitch>
                <duration>8</duration>
                <tie type="start"/>
                <voice>1</voice>
                <type>whole</type>
                <notations>
                    <tied type="start" orientation="under" bezier-x="65" bezier-y="-56" default-x="17" default-y="-47"/>
                </notations>
            </note>
        </measure>
        <measure number="32" width="386">
            <print new-system="no"/>
            <barline location="right">
                <bar-style/>
            </barline>
            <note default-x="21">
                <pitch>
                    <step>F</step>
                    <octave>5</octave>
                </pitch>
                <duration>2</duration>
                <tie type="stop"/>
                <voice>1</voice>
                <type>quarter</type>
                <stem default-y="1">up</stem>
                <notations>
                    <tied type="stop" bezier-x="-52" bezier-y="-56" default-x="-4" default-y="-47"/>
                </notations>
            </note>
            <note default-x="94">
                <rest/>
                <duration>1</duration>
                <voice>1</voice>
                <type>eighth</type>
            </note>
            <note default-x="137">
                <rest/>
                <duration>2</duration>
                <voice>1</voice>
                <type>quarter</type>
            </note>
            <note default-x="208">
                <rest/>
                <duration>1</duration>
                <voice>1</voice>
                <type>eighth</type>
            </note>
            <note default-x="251">
                <rest/>
                <duration>6</duration>
                <voice>1</voice>
                <type>half</type>
                <dot/>
                <notations>
                    <fermata type="upright" default-y="3"/>
                </notations>
            </note>
        </measure>
    </part>
</score-partwise>